<svg xmlns="http://www.w3.org/2000/svg" width="389.372" height="290.129" viewBox="0 0 389.372 290.129">
  <g id="Firmware-rafiki" transform="translate(0 -55)">
    <g id="freepik--background-complete--inject-6" transform="translate(0 55)">
      <rect id="Rectangle_178" data-name="Rectangle 178" width="389.372" height="0.195" transform="translate(0 254.961)" fill="#ebebeb"/>
      <rect id="Rectangle_179" data-name="Rectangle 179" width="39.638" height="0.195" transform="translate(307.106 263.877)" fill="#ebebeb"/>
      <rect id="Rectangle_180" data-name="Rectangle 180" width="36.765" height="0.195" transform="translate(40.853 261.572)" fill="#ebebeb"/>
      <rect id="Rectangle_181" data-name="Rectangle 181" width="14.944" height="0.195" transform="translate(294.996 260.264)" fill="#ebebeb"/>
      <rect id="Rectangle_182" data-name="Rectangle 182" width="10.965" height="0.195" transform="translate(246.971 265.427)" fill="#ebebeb"/>
      <rect id="Rectangle_183" data-name="Rectangle 183" width="27.599" height="0.195" transform="translate(212.434 265.427)" fill="#ebebeb"/>
      <rect id="Rectangle_184" data-name="Rectangle 184" width="44.381" height="0.195" transform="translate(152.026 262.141)" fill="#ebebeb"/>
      <path id="Path_913" data-name="Path 913" d="M193.017,275.229H42.657a4.447,4.447,0,0,1-4.447-4.447V59.408A4.447,4.447,0,0,1,42.657,55h150.36a4.447,4.447,0,0,1,4.447,4.447V270.782A4.447,4.447,0,0,1,193.017,275.229ZM42.657,55.156A4.26,4.26,0,0,0,38.4,59.408V270.782a4.26,4.26,0,0,0,4.252,4.252h150.36a4.26,4.26,0,0,0,4.252-4.252V59.408a4.26,4.26,0,0,0-4.252-4.252Z" transform="translate(-8.454 -55)" fill="#ebebeb"/>
      <path id="Path_914" data-name="Path 914" d="M409.322,275.229H258.947a4.454,4.454,0,0,1-4.447-4.447V59.408A4.454,4.454,0,0,1,258.947,55H409.322a4.447,4.447,0,0,1,4.431,4.408V270.782A4.447,4.447,0,0,1,409.322,275.229ZM258.947,55.156a4.26,4.26,0,0,0-4.252,4.252V270.782a4.26,4.26,0,0,0,4.252,4.252H409.322a4.26,4.26,0,0,0,4.252-4.252V59.408a4.26,4.26,0,0,0-4.252-4.252Z" transform="translate(-56.31 -55)" fill="#ebebeb"/>
      <rect id="Rectangle_185" data-name="Rectangle 185" width="98.947" height="222.425" transform="translate(40.853 32.536)" fill="#f0f0f0"/>
      <rect id="Rectangle_186" data-name="Rectangle 186" width="96.86" height="222.425" transform="translate(42.94 32.536)" fill="#f5f5f5"/>
      <rect id="Rectangle_187" data-name="Rectangle 187" width="212.332" height="85.054" transform="translate(133.897 37.582) rotate(90)" fill="#ebebeb"/>
      <path id="Path_915" data-name="Path 915" d="M15.832,0h9.041V55.057H15.832A15.832,15.832,0,0,1,0,39.225v-23.4A15.832,15.832,0,0,1,15.832,0Z" transform="translate(118.899 49.98) rotate(90)" fill="#fafafa"/>
      <rect id="Rectangle_188" data-name="Rectangle 188" width="50.727" height="68.335" rx="10.35" transform="translate(125.541 185.987) rotate(90)" fill="#f0f0f0"/>
      <rect id="Rectangle_189" data-name="Rectangle 189" width="30.145" height="88.068" rx="10.35" transform="translate(87.344 176.066) rotate(180)" fill="#f0f0f0"/>
      <rect id="Rectangle_190" data-name="Rectangle 190" width="30.145" height="88.068" rx="10.35" transform="translate(125.541 176.066) rotate(180)" fill="#f0f0f0"/>
      <path id="Path_916" data-name="Path 916" d="M152.68,225.894a5.054,5.054,0,1,0,5.054-5.054,5.054,5.054,0,0,0-5.054,5.054Z" transform="translate(-33.781 -91.693)" fill="#fff"/>
      <rect id="Rectangle_191" data-name="Rectangle 191" width="212.332" height="1.534" transform="translate(133.889 37.582) rotate(90)" fill="#f0f0f0"/>
      <rect id="Rectangle_192" data-name="Rectangle 192" width="21.486" height="94.415" transform="translate(310.01 160.546)" fill="#e6e6e6"/>
      <path id="Path_917" data-name="Path 917" d="M412.993,378.7h8.013V365.66H404.59Z" transform="translate(-89.518 -123.735)" fill="#ebebeb"/>
      <rect id="Rectangle_193" data-name="Rectangle 193" width="21.486" height="94.415" transform="translate(270.567 160.546)" fill="#e6e6e6"/>
      <rect id="Rectangle_194" data-name="Rectangle 194" width="46.437" height="89.929" transform="translate(285.052 160.546)" fill="#ebebeb"/>
      <path id="Path_918" data-name="Path 918" d="M374.061,378.7H366.04V365.66h16.424Z" transform="translate(-80.988 -123.735)" fill="#ebebeb"/>
      <rect id="Rectangle_195" data-name="Rectangle 195" width="34" height="22.506" transform="translate(291.274 194.055)" fill="#fafafa"/>
      <rect id="Rectangle_196" data-name="Rectangle 196" width="34" height="22.506" transform="translate(291.274 221.366)" fill="#fafafa"/>
      <path id="Path_919" data-name="Path 919" d="M389.44,301.68h9.991V303a3.029,3.029,0,0,1-3.029,3.029h-3.894A3.029,3.029,0,0,1,389.479,303V301.68Z" transform="translate(-86.166 -109.579)" fill="#ebebeb"/>
      <rect id="Rectangle_197" data-name="Rectangle 197" width="34" height="22.506" transform="translate(291.274 166.737)" fill="#fafafa"/>
      <path id="Path_920" data-name="Path 920" d="M389.44,266.61h9.991v1.324a3.029,3.029,0,0,1-3.029,3.029h-3.894a3.029,3.029,0,0,1-3.029-3.029V266.61Z" transform="translate(-86.166 -101.82)" fill="#ebebeb"/>
      <path id="Path_921" data-name="Path 921" d="M389.44,336.76h9.991v1.324a3.029,3.029,0,0,1-3.029,3.029h-3.894a3.029,3.029,0,0,1-3.029-3.029V336.76Z" transform="translate(-86.166 -117.341)" fill="#ebebeb"/>
      <path id="Path_922" data-name="Path 922" d="M232.665,351.909h-29.2l.522-107.319,28.673,9.906Z" transform="translate(-45.019 -96.948)" fill="#ebebeb"/>
      <path id="Path_923" data-name="Path 923" d="M291.678,350.008H207.442L203.47,236H287.7Z" transform="translate(-45.019 -95.047)" fill="#e0e0e0"/>
      <path id="Path_924" data-name="Path 924" d="M298.487,350.008H210.832L206.86,236h87.648Z" transform="translate(-45.769 -95.047)" fill="#f5f5f5"/>
      <path id="Path_925" data-name="Path 925" d="M222.037,339.2,219,252.638a4.984,4.984,0,0,1,4.937-5.109h60.181a4.493,4.493,0,0,1,4.532,4.369l3.022,86.573a4.984,4.984,0,0,1-4.945,5.1H226.569A4.493,4.493,0,0,1,222.037,339.2Z" transform="translate(-48.455 -97.598)" fill="#fff"/>
      <rect id="Rectangle_198" data-name="Rectangle 198" width="153.233" height="79.05" transform="translate(171.9 21.634)" fill="#e6e6e6"/>
      <rect id="Rectangle_199" data-name="Rectangle 199" width="155.196" height="79.05" transform="translate(173.621 21.634)" fill="#f0f0f0"/>
      <rect id="Rectangle_200" data-name="Rectangle 200" width="153.233" height="1.807" transform="translate(171.9 100.692)" fill="#e6e6e6"/>
      <rect id="Rectangle_201" data-name="Rectangle 201" width="155.196" height="1.807" transform="translate(179.758 100.692)" fill="#f0f0f0"/>
      <rect id="Rectangle_202" data-name="Rectangle 202" width="68.74" height="144.878" transform="translate(323.654 26.789) rotate(90)" fill="#fafafa"/>
      <path id="Path_926" data-name="Path 926" d="M262.11,158.15l14.352-68.74h22.4l-14.352,68.74Z" transform="translate(-57.993 -62.613)" fill="#fff"/>
      <path id="Path_927" data-name="Path 927" d="M232.536,153.857a.366.366,0,0,1-.366-.366V93.606a.366.366,0,1,1,.732,0v59.885A.366.366,0,0,1,232.536,153.857Z" transform="translate(-51.369 -63.461)" fill="#f0f0f0"/>
      <path id="Path_928" data-name="Path 928" d="M297.05,158.15,311.4,89.41h8.73L305.78,158.15Z" transform="translate(-65.724 -62.613)" fill="#fff"/>
      <rect id="Rectangle_203" data-name="Rectangle 203" width="68.74" height="0.654" transform="translate(323.662 26.789) rotate(90)" fill="#e6e6e6"/>
      <path id="Path_929" data-name="Path 929" d="M380.131,97.75H226.905l-.475-5.77H379.656Z" transform="translate(-50.099 -63.182)" fill="#ebebeb" opacity="0.6"/>
      <path id="Path_930" data-name="Path 930" d="M380.131,101.93H226.905l-.475-5.77H379.656Z" transform="translate(-50.099 -64.107)" fill="#ebebeb" opacity="0.6"/>
      <path id="Path_931" data-name="Path 931" d="M380.131,106.11H226.905l-.475-5.77H379.656Z" transform="translate(-50.099 -65.032)" fill="#ebebeb" opacity="0.6"/>
      <path id="Path_932" data-name="Path 932" d="M380.131,110.29H226.905l-.475-5.77H379.656Z" transform="translate(-50.099 -65.957)" fill="#ebebeb" opacity="0.6"/>
      <path id="Path_933" data-name="Path 933" d="M380.131,114.47H226.905l-.475-5.77H379.656Z" transform="translate(-50.099 -66.881)" fill="#ebebeb" opacity="0.6"/>
      <path id="Path_934" data-name="Path 934" d="M380.131,118.65H226.905l-.475-5.77H379.656Z" transform="translate(-50.099 -67.806)" fill="#ebebeb" opacity="0.6"/>
    </g>
    <g id="freepik--Shadow--inject-6" transform="translate(43.695 327.498)">
      <ellipse id="freepik--path--inject-6" cx="150.991" cy="8.815" rx="150.991" ry="8.815" fill="#f5f5f5"/>
    </g>
    <g id="freepik--Character--inject-6" transform="translate(72.735 99.412)">
      <path id="Path_935" data-name="Path 935" d="M193.212,128.36c-2.515-5.28-8.107-3.52-7.639-8.021s-4.034-10.762-10.9-7.312-3.06,11.6-3.06,11.6-3.746,14.212,2.624,18.69c5.077,3.543,16.058.436,14.391-4.579S195.719,133.64,193.212,128.36Z" transform="translate(-110.462 -112.03)" fill="#263238"/>
      <path id="Path_936" data-name="Path 936" d="M190.363,142.741a.2.2,0,0,1-.179-.125c-1.807-4.8.639-7.1,2.8-9.135,1.705-1.6,3.177-2.99,2.4-5.334-.911-2.726-2.842-3.419-4.54-4.034s-3.185-1.153-3.045-3.528a7.974,7.974,0,0,0-3.567-6.814c-1.519-.958-4.034-1.705-7.4.164a.2.2,0,1,1-.187-.343,7.377,7.377,0,0,1,7.787-.148,8.27,8.27,0,0,1,3.746,7.164c-.125,2.087,1.16,2.547,2.788,3.115s3.8,1.371,4.774,4.275c.864,2.578-.779,4.12-2.492,5.747-2.173,2.04-4.415,4.158-2.7,8.706a.2.2,0,0,1-.117.257Z" transform="translate(-111.795 -112.113)" fill="#263238"/>
      <path id="Path_937" data-name="Path 937" d="M141.447,177.424c-.218.389-.35.607-.53.888l-.506.779c-.343.506-.7.989-1.067,1.472a31.788,31.788,0,0,1-2.375,2.749,27.933,27.933,0,0,1-5.809,4.571,21.493,21.493,0,0,1-7.172,2.648,19.508,19.508,0,0,1-3.894.28,13.059,13.059,0,0,1-1.916-.14l-.475-.055h-.241l-.312-.055a8.219,8.219,0,0,1-1.238-.311,12.756,12.756,0,0,1-3.738-2.1,24.218,24.218,0,0,1-2.7-2.539,42.429,42.429,0,0,1-4.166-5.451c-1.223-1.892-2.336-3.816-3.364-5.763a62.565,62.565,0,0,1-2.811-6.012l3.24-1.643c1.137,1.737,2.336,3.52,3.551,5.218s2.469,3.4,3.785,4.984a45.739,45.739,0,0,0,4.088,4.423,17.911,17.911,0,0,0,2.142,1.713,6.579,6.579,0,0,0,1.923.935,1.489,1.489,0,0,0,.335.055h.631a12.083,12.083,0,0,0,1.3,0,14.708,14.708,0,0,0,2.554-.343,16.183,16.183,0,0,0,4.789-2.017,21.805,21.805,0,0,0,4.213-3.5,27.059,27.059,0,0,0,1.846-2.134c.288-.366.561-.779.825-1.129l.389-.568.311-.483Z" transform="translate(-94.668 -124.135)" fill="#b65b52"/>
      <path id="Path_938" data-name="Path 938" d="M151.381,170.218c-6.549.319-8.161,4.532-8.161,4.532l7.562,11.525a18.776,18.776,0,0,0,4.1-7.359C155.789,174.867,155.828,170,151.381,170.218Z" transform="translate(-104.423 -124.903)" fill="#263238"/>
      <path id="Path_939" data-name="Path 939" d="M101.895,166.3l-.35-6.23-6.074,4.525s1.5,3.208,4.392,3.894Z" transform="translate(-93.858 -122.659)" fill="#b55b52"/>
      <path id="Path_940" data-name="Path 940" d="M97.309,153.75,93.4,157.94l1.612,5.257,6.074-4.525Z" transform="translate(-93.4 -121.261)" fill="#b55b52"/>
      <path id="Path_941" data-name="Path 941" d="M195.067,401.818,188,402.5l-3.606-16.478,7.079-.677Z" transform="translate(-113.532 -172.502)" fill="#b55b52"/>
      <path id="Path_942" data-name="Path 942" d="M276.473,376.009l-5.467,4.758L258.5,369.9l5.467-4.766Z" transform="translate(-129.929 -168.03)" fill="#b55b52"/>
      <path id="Path_943" data-name="Path 943" d="M270.168,381.151l4.891-6.51a.576.576,0,0,1,.74-.179l5.623,3.014a1.129,1.129,0,0,1,.311,1.674c-1.744,2.243-2.694,3.24-4.844,6.105-1.324,1.76-4,5.848-5.825,8.278s-4.291.779-3.746-.366c2.453-5.249,2.585-8.325,2.469-10.793A1.892,1.892,0,0,1,270.168,381.151Z" transform="translate(-131.863 -170.08)" fill="#263238"/>
      <path id="Path_944" data-name="Path 944" d="M184.268,404.63h8.5a.693.693,0,0,1,.67.514l1.853,6.728a1.059,1.059,0,0,1-1.036,1.347c-2.975-.054-4.423-.226-8.169-.226-2.3,0-8.247.241-11.424.241s-3.761-3.115-2.469-3.426c5.763-1.277,9.088-3.037,10.9-4.719A1.744,1.744,0,0,1,184.268,404.63Z" transform="translate(-110.693 -176.77)" fill="#263238"/>
      <path id="Path_945" data-name="Path 945" d="M184.4,386.017l1.853,8.5h7.227l-2.009-9.174Z" transform="translate(-113.534 -172.502)" opacity="0.2"/>
      <path id="Path_946" data-name="Path 946" d="M263.967,365.14l-5.467,4.766,6.448,5.6,5.467-4.766Z" transform="translate(-129.929 -168.032)" opacity="0.2"/>
      <path id="Path_947" data-name="Path 947" d="M147.261,169.075s-3.014,2.071,13.971,40.767l28.229-7.787c-3.388-11.284-5.2-18.324-5.693-43.275a86.445,86.445,0,0,0-12.39,1.729,93.854,93.854,0,0,0-12.818,3.543A120.853,120.853,0,0,0,147.261,169.075Z" transform="translate(-105.271 -122.374)" fill="#263238"/>
      <path id="Path_948" data-name="Path 948" d="M169.351,143c.234,4.322,1.347,12.055,4.929,14.017,0,0,2.827,13.021-7.507,26.228-10.9-9.579-5.311-22.685-5.311-22.685,4.322-2.336,3.341-5.724,1.721-8.683Z" transform="translate(-108.142 -118.883)" fill="#b55b52"/>
      <path id="Path_949" data-name="Path 949" d="M174.241,161s2.827,13.021-7.507,26.228c-10.9-9.579-5.311-22.685-5.311-22.685s1.6,4.026,4.859,5.4A22.744,22.744,0,0,0,174.241,161Z" transform="translate(-108.133 -122.865)" fill="#f5f5f5"/>
      <path id="Path_950" data-name="Path 950" d="M169.16,169.159s5.809-2.11,10.124-.553c.382-2.336.927-7.258-.9-8.566a3.824,3.824,0,0,0-2.079.693Z" transform="translate(-110.162 -122.653)" fill="#fff"/>
      <path id="Path_951" data-name="Path 951" d="M164.818,170.338s-3.808-.888-7.577,2.835c-.273-2.336-.093-6.23,1.791-7.562a6.1,6.1,0,0,1,2.11-.631,18.97,18.97,0,0,0,3.676,5.358Z" transform="translate(-107.503 -123.746)" fill="#fff"/>
      <path id="Path_952" data-name="Path 952" d="M169.54,144.22a17.849,17.849,0,0,1,.078,7.507c-.358,1.713-2.219,2.967-4.291,3.7a11.229,11.229,0,0,0-1.277-3.317Z" transform="translate(-109.032 -119.153)" opacity="0.2"/>
      <path id="Path_953" data-name="Path 953" d="M155.423,123.807c-6.09,8.364-.062,19.469,5.155,19.235,3.894-.148,8.963-5.077,8.333-9.508C167.969,126.891,158.484,119.6,155.423,123.807Z" transform="translate(-106.557 -114.361)" fill="#263238"/>
      <path id="Path_954" data-name="Path 954" d="M173.754,133.187c-1.448,7.009-1.916,9.991-5.989,13.176-6.129,4.789-14.368,1.674-15.03-5.568-.592-6.518,1.885-16.868,9.166-18.83a9.477,9.477,0,0,1,11.852,11.222Z" transform="translate(-106.51 -114.147)" fill="#b55b52"/>
      <path id="Path_955" data-name="Path 955" d="M172,121.969c-.288,2.056,3.894,7.834,8.566,7.787,2.274,0,2.975-3.489.779-6.643C178.389,118.94,172.448,119.018,172,121.969Z" transform="translate(-110.787 -113.762)" fill="#fab228"/>
      <path id="Path_956" data-name="Path 956" d="M159.7,123.1c-.506,3.574,7.009,13.021,15.038,12.888,3.94-.062,4.672-9.041,1.76-12.413C170.831,116.979,160.427,117.991,159.7,123.1Z" transform="translate(-108.065 -113.561)" fill="#263238"/>
      <path id="Path_957" data-name="Path 957" d="M175.713,138.2c-2.453.5-1.028,3.816.459,5.5C178.073,142.4,179.591,137.41,175.713,138.2Z" transform="translate(-111.319 -117.801)" fill="#263238"/>
      <path id="Path_958" data-name="Path 958" d="M164.023,125.766c-5.864,2.437-11.619-3.792-13.293-6.549,4.236.607,12.982-5.171,16.579,2.142C169.84,126.482,164.023,125.766,164.023,125.766Z" transform="translate(-106.085 -113.267)" fill="#263238"/>
      <path id="Path_959" data-name="Path 959" d="M162.626,125.822c-3.987,3.473-10.225.171-12.3-1.557,3.52-.67,8.893-7.53,13.714-2.8C167.431,124.817,162.626,125.822,162.626,125.822Z" transform="translate(-105.996 -113.752)" fill="#263238"/>
      <path id="Path_960" data-name="Path 960" d="M180.477,142.425a5.35,5.35,0,0,1-2.383,3.232c-1.557.95-2.819-.319-2.765-2.048.047-1.557.927-3.894,2.694-4.174a2.274,2.274,0,0,1,2.453,2.99Z" transform="translate(-111.527 -118.089)" fill="#b55b52"/>
      <path id="Path_961" data-name="Path 961" d="M164.971,222.674s-2.92,56.661,1.129,78.053c4.213,22.257,12.156,54.06,12.156,54.06l13.441-.654s-5.023-40.347-6.23-57.549c-1.635-23.705.156-79.634.156-79.634Z" transform="translate(-109.01 -135.245)" fill="#fab228"/>
      <path id="Path_962" data-name="Path 962" d="M164.971,222.674s-2.92,56.661,1.129,78.053c4.213,22.257,12.156,54.06,12.156,54.06l13.441-.654s-5.023-40.347-6.23-57.549c-1.635-23.705.156-79.634.156-79.634Z" transform="translate(-109.01 -135.245)" opacity="0.4"/>
      <path id="Path_963" data-name="Path 963" d="M189.919,242.719c-1.97-5.249-3.738-8.138-4.088-2.912-.732,11.058.911,23.7,3.777,29.966C189.631,260.373,189.771,250.833,189.919,242.719Z" transform="translate(-113.812 -139.691)" opacity="0.2"/>
      <path id="Path_964" data-name="Path 964" d="M195.922,392.2l-15.318.74-1.814-5.6,16.6-1.3Z" transform="translate(-112.293 -172.657)" fill="#fab228"/>
      <path id="Path_965" data-name="Path 965" d="M174.83,220.017s16.143,46.289,27.155,71.847c8.893,20.645,41.421,49.489,41.421,49.489l7.686-6.378s-23.238-32.879-29.39-46.88c-19.7-44.825-13.854-63.81-26.1-73.825Z" transform="translate(-111.417 -134.652)" fill="#fab228"/>
      <path id="Path_966" data-name="Path 966" d="M174.83,220.017s16.143,46.289,27.155,71.847c8.893,20.645,41.421,49.489,41.421,49.489l7.686-6.378s-23.238-32.879-29.39-46.88c-19.7-44.825-13.854-63.81-26.1-73.825Z" transform="translate(-111.417 -134.652)" opacity="0.4"/>
      <path id="Path_967" data-name="Path 967" d="M269.918,368.005l-8.605,7.445-4.213-3.107,10.131-8.473Z" transform="translate(-129.62 -167.751)" fill="#fab228"/>
      <path id="Path_968" data-name="Path 968" d="M193.13,211.969l1.916,2.165c.148.164,0,.428-.358.514L165.1,222.84c-.249.07-.491,0-.553-.148l-.9-2.437c-.062-.171.125-.382.4-.459l28.588-7.9A.514.514,0,0,1,193.13,211.969Z" transform="translate(-108.94 -134.118)" fill="#fab228"/>
      <path id="Path_969" data-name="Path 969" d="M197.194,216.39l.779-.218c.156,0,.249-.148.21-.241l-1.191-3.162c0-.093-.187-.132-.335-.093l-.779.21c-.148.047-.249.156-.21.249l1.191,3.162C196.882,216.39,197.038,216.429,197.194,216.39Z" transform="translate(-116.025 -134.296)" fill="#fab228"/>
      <path id="Path_970" data-name="Path 970" d="M197.194,216.39l.779-.218c.156,0,.249-.148.21-.241l-1.191-3.162c0-.093-.187-.132-.335-.093l-.779.21c-.148.047-.249.156-.21.249l1.191,3.162C196.882,216.39,197.038,216.429,197.194,216.39Z" transform="translate(-116.025 -134.296)" opacity="0.4"/>
      <path id="Path_971" data-name="Path 971" d="M167.914,224.49l.779-.218c.156-.039.249-.148.21-.241l-1.191-3.162c0-.093-.187-.132-.335-.093l-.779.21c-.148.047-.249.156-.21.249l1.191,3.162A.29.29,0,0,0,167.914,224.49Z" transform="translate(-109.547 -136.088)" fill="#fab228"/>
      <path id="Path_972" data-name="Path 972" d="M167.914,224.49l.779-.218c.156-.039.249-.148.21-.241l-1.191-3.162c0-.093-.187-.132-.335-.093l-.779.21c-.148.047-.249.156-.21.249l1.191,3.162A.29.29,0,0,0,167.914,224.49Z" transform="translate(-109.547 -136.088)" opacity="0.4"/>
      <path id="Path_973" data-name="Path 973" d="M182.564,220.44l.779-.218c.156-.039.249-.148.21-.241l-1.191-3.162c0-.093-.187-.132-.335-.093l-.779.21c-.148.047-.249.156-.21.249l1.191,3.162C182.245,220.44,182.4,220.479,182.564,220.44Z" transform="translate(-112.789 -135.192)" fill="#fab228"/>
      <path id="Path_974" data-name="Path 974" d="M182.564,220.44l.779-.218c.156-.039.249-.148.21-.241l-1.191-3.162c0-.093-.187-.132-.335-.093l-.779.21c-.148.047-.249.156-.21.249l1.191,3.162C182.245,220.44,182.4,220.479,182.564,220.44Z" transform="translate(-112.789 -135.192)" opacity="0.4"/>
      <ellipse id="Ellipse_12" data-name="Ellipse 12" cx="1.051" cy="0.685" rx="1.051" ry="0.685" transform="translate(54.783 20.558) rotate(-80.83)" fill="#263238"/>
      <path id="Path_975" data-name="Path 975" d="M156.991,136.01c-.078.568-.452,1-.825.958s-.607-.553-.53-1.129.459-1,.833-.95S157.076,135.434,156.991,136.01Z" transform="translate(-107.167 -117.087)" fill="#263238"/>
      <path id="Path_976" data-name="Path 976" d="M156.536,134.841l-1.316-.561S155.773,135.4,156.536,134.841Z" transform="translate(-107.078 -116.953)" fill="#263238"/>
      <path id="Path_977" data-name="Path 977" d="M158.67,137.86a16.19,16.19,0,0,1-2.57,3.419,2.461,2.461,0,0,0,1.986.631Z" transform="translate(-107.273 -117.745)" fill="#a02724"/>
      <path id="Path_978" data-name="Path 978" d="M160.707,145.769a.148.148,0,0,1-.078-.164.171.171,0,0,1,.195-.148,4.672,4.672,0,0,0,3.948-1.332.171.171,0,0,1,.241,0,.164.164,0,0,1,0,.234,4.945,4.945,0,0,1-4.26,1.448A.086.086,0,0,1,160.707,145.769Z" transform="translate(-108.274 -119.121)" fill="#263238"/>
      <path id="Path_979" data-name="Path 979" d="M168.5,133.288a.28.28,0,0,1-.117-.117,2.624,2.624,0,0,0-1.994-1.394.327.327,0,0,1-.311-.358.35.35,0,0,1,.366-.319,3.286,3.286,0,0,1,2.531,1.729.343.343,0,0,1-.475.459Z" transform="translate(-109.48 -116.25)" fill="#263238"/>
      <path id="Path_980" data-name="Path 980" d="M153.958,131.511h-.047a.343.343,0,0,1,0-.483,3.442,3.442,0,0,1,2.874-1.23.327.327,0,0,1,.28.382.35.35,0,0,1-.389.3,2.726,2.726,0,0,0-2.258,1A.35.35,0,0,1,153.958,131.511Z" transform="translate(-106.767 -115.96)" fill="#263238"/>
      <path id="Path_981" data-name="Path 981" d="M195.79,163.65c1.378,1.612,2.936,3.341,4.486,4.945s3.115,3.208,4.8,4.711a61.318,61.318,0,0,0,10.466,7.912,28.876,28.876,0,0,0,2.765,1.4,8.715,8.715,0,0,0,2.445.685,12.46,12.46,0,0,0,5.513-.678,25.349,25.349,0,0,0,5.646-2.788c.9-.6,1.814-1.223,2.694-1.892s1.752-1.41,2.515-2.087l2.765,2.336a29.594,29.594,0,0,1-2.4,2.881,33.6,33.6,0,0,1-2.679,2.585,28.674,28.674,0,0,1-6.409,4.229,17.421,17.421,0,0,1-8.138,1.729,14.22,14.22,0,0,1-4.353-.857,33.951,33.951,0,0,1-3.567-1.557,59.185,59.185,0,0,1-12.117-8.488c-1.822-1.612-3.6-3.255-5.264-5-.833-.872-1.659-1.752-2.469-2.656s-1.557-1.791-2.4-2.8Z" transform="translate(-114.793 -123.452)" fill="#b65b52"/>
      <path id="Path_982" data-name="Path 982" d="M251.169,182.148l4.081-3.255-5.186-3.543s-2.4,3.115-1.69,6.02Z" transform="translate(-127.66 -126.04)" fill="#b55b52"/>
      <path id="Path_983" data-name="Path 983" d="M259.044,174.276,255.22,171.2l-4.61,3.232,5.186,3.543Z" transform="translate(-128.184 -125.122)" fill="#b55b52"/>
      <path id="Path_984" data-name="Path 984" d="M192.854,158.7c3.045.078,4.891,3.115,4.891,3.115l-5.163,12.257s-4.719-2.889-4.454-6.853C188.392,163.131,189.381,158.622,192.854,158.7Z" transform="translate(-114.357 -122.356)" fill="#263238"/>
      <path id="Path_985" data-name="Path 985" d="M267.955,386.77a1.432,1.432,0,0,1-.21-.179.568.568,0,0,1-.179-.553c.21-.9,2.648-1.83,2.928-1.931a.171.171,0,0,1,.179.039.186.186,0,0,1,0,.187c-.389.88-1.176,2.383-2.071,2.562a.872.872,0,0,1-.646-.125Zm2.266-2.188c-.966.4-2.212,1.059-2.336,1.558a.234.234,0,0,0,.086.241.631.631,0,0,0,.584.218c.5-.132,1.106-.864,1.682-2.017Z" transform="translate(-131.932 -172.227)" fill="#fab228"/>
      <path id="Path_986" data-name="Path 986" d="M267.375,384.109a.84.84,0,0,1-.156-.125.6.6,0,0,1,0-.779.942.942,0,0,1,.623-.444c1.02-.226,2.663.981,2.733,1.036a.171.171,0,0,1,.07.156.156.156,0,0,1-.109.132A4.384,4.384,0,0,1,267.375,384.109Zm2.648-.226a3.722,3.722,0,0,0-2.149-.779.537.537,0,0,0-.389.28c-.109.187-.062.28,0,.343.327.366,1.744.4,2.593.164Z" transform="translate(-131.827 -171.925)" fill="#fab228"/>
      <path id="Path_987" data-name="Path 987" d="M182.4,405.919a2.85,2.85,0,0,1-1.667-.4,1.044,1.044,0,0,1-.428-.818.483.483,0,0,1,.21-.46c.779-.529,3.668.779,4.244,1.059a.171.171,0,0,1,0,.319,11.067,11.067,0,0,1-2.36.3Zm-1.355-1.472a.561.561,0,0,0-.335.078.156.156,0,0,0-.07.156.732.732,0,0,0,.3.568c.5.374,1.674.428,3.193.148a10.443,10.443,0,0,0-3.061-.95Z" transform="translate(-112.628 -176.657)" fill="#fab228"/>
      <path id="Path_988" data-name="Path 988" d="M185.187,405.138h-.07c-.958-.4-2.9-1.947-2.788-2.749,0-.179.148-.4.584-.452,1.682-.2,2.406,2.874,2.437,3.006a.163.163,0,0,1-.055.164A.148.148,0,0,1,185.187,405.138Zm-2.118-2.874h-.117c-.179,0-.273.07-.28.156-.062.467,1.269,1.69,2.251,2.227-.241-.732-.849-2.383-1.869-2.383Z" transform="translate(-113.075 -176.172)" fill="#fab228"/>
      <path id="Path_989" data-name="Path 989" d="M164.846,135.838l-1.316-.568S164.083,136.415,164.846,135.838Z" transform="translate(-108.917 -117.172)" fill="#263238"/>
    </g>
    <g id="freepik--Smartphone--inject-6" transform="translate(173.753 98.96)">
      <rect id="Rectangle_204" data-name="Rectangle 204" width="112.388" height="237.353" rx="14.62" transform="translate(113.813 237.353) rotate(180)" fill="#fab228"/>
      <rect id="Rectangle_205" data-name="Rectangle 205" width="5.794" height="31.866" rx="2.74" transform="translate(5.794 71.87) rotate(180)" fill="#fab228"/>
      <rect id="Rectangle_206" data-name="Rectangle 206" width="5.794" height="15.559" rx="2.59" transform="translate(117.824 55.563) rotate(180)" fill="#fab228"/>
      <rect id="Rectangle_207" data-name="Rectangle 207" width="5.794" height="15.559" rx="2.59" transform="translate(117.824 76.13) rotate(180)" fill="#fab228"/>
      <rect id="Rectangle_208" data-name="Rectangle 208" width="112.388" height="237.353" rx="14.62" transform="translate(116.181 237.353) rotate(180)" fill="#fab228"/>
      <path id="Path_1562" data-name="Path 1562" d="M14.62,0H97.768a14.62,14.62,0,0,1,14.62,14.62V222.733a14.62,14.62,0,0,1-14.62,14.62H14.62A14.62,14.62,0,0,1,0,222.733V14.62A14.62,14.62,0,0,1,14.62,0Z" transform="translate(116.181 237.353) rotate(180)" fill="#fff" opacity="0.6"/>
      <circle id="Ellipse_13" data-name="Ellipse 13" cx="6.409" cy="6.409" r="6.409" transform="translate(53.57 216.468)" fill="#fab228" opacity="0.3"/>
      <rect id="Rectangle_210" data-name="Rectangle 210" width="106.968" height="193.619" transform="translate(113.471 211.748) rotate(180)" fill="#fff"/>
      <rect id="Rectangle_211" data-name="Rectangle 211" width="38.867" height="38.867" rx="4.22" transform="translate(40.549 53.219)" fill="#fab228"/>
      <rect id="Rectangle_212" data-name="Rectangle 212" width="0.779" height="14.017" transform="translate(46.857 53.219)" fill="#fff"/>
      <path id="Path_990" data-name="Path 990" d="M283.4,200.047a1.378,1.378,0,1,1,1.378-1.378A1.378,1.378,0,0,1,283.4,200.047Zm0-1.978a.6.6,0,1,0,.6.6.6.6,0,0,0-.6-.6Z" transform="translate(-236.152 -130.443)" fill="#fff"/>
      <path id="Path_991" data-name="Path 991" d="M288.694,214a1.386,1.386,0,1,1,1.378-1.378A1.386,1.386,0,0,1,288.694,214Zm0-1.986a.607.607,0,1,0,.6.607.6.6,0,0,0-.6-.607Z" transform="translate(-237.32 -133.527)" fill="#fff"/>
      <path id="Path_992" data-name="Path 992" d="M310.608,225.457a1.378,1.378,0,1,1,1.378-1.378A1.378,1.378,0,0,1,310.608,225.457Zm0-1.978a.6.6,0,1,0,.6.6.6.6,0,0,0-.6-.6Z" transform="translate(-242.172 -136.065)" fill="#fff"/>
      <path id="Path_993" data-name="Path 993" d="M294.178,203.707a1.378,1.378,0,1,1,1.378-1.378A1.378,1.378,0,0,1,294.178,203.707Zm0-1.978a.6.6,0,1,0,.6.6A.6.6,0,0,0,294.178,201.729Z" transform="translate(-238.537 -131.252)" fill="#fff"/>
      <path id="Path_994" data-name="Path 994" d="M283.889,218.657h-.779V200.769l4.268-4.268V179.79h.779v17.031l-4.267,4.268Z" transform="translate(-236.393 -126.571)" fill="#fff"/>
      <path id="Path_995" data-name="Path 995" d="M294.849,218.657h-.779V206.493l4.268-4.267V179.79h.779v22.755l-4.267,4.268Z" transform="translate(-238.818 -126.571)" fill="#fff"/>
      <path id="Path_996" data-name="Path 996" d="M310.076,213.6H309.3V198.207l-4.268-4.268V179.79h.779v13.823l4.268,4.268Z" transform="translate(-241.243 -126.571)" fill="#fff"/>
      <path id="Path_997" data-name="Path 997" d="M316.1,208.437a1.378,1.378,0,1,1,1.378-1.378A1.378,1.378,0,0,1,316.1,208.437Zm0-1.978a.6.6,0,1,0,.6.6A.6.6,0,0,0,316.1,206.459Z" transform="translate(-243.387 -132.299)" fill="#fff"/>
      <path id="Path_998" data-name="Path 998" d="M315.556,200.341h-.779v-2.134l-4.267-4.268V179.79h.779v13.823l4.268,4.268Z" transform="translate(-242.456 -126.571)" fill="#fff"/>
      <rect id="Rectangle_213" data-name="Rectangle 213" width="0.779" height="16.868" transform="translate(55.252 53.219)" fill="#fff"/>
      <rect id="Rectangle_214" data-name="Rectangle 214" width="0.779" height="12.008" transform="translate(50.984 80.086)" fill="#fff"/>
      <path id="Path_999" data-name="Path 999" d="M299.658,218.577a1.378,1.378,0,1,1,1.378-1.378A1.378,1.378,0,0,1,299.658,218.577Zm0-1.978a.6.6,0,1,0,.6.6A.6.6,0,0,0,299.658,216.6Z" transform="translate(-239.75 -134.542)" fill="#fff"/>
      <rect id="Rectangle_215" data-name="Rectangle 215" width="0.779" height="8.442" transform="translate(59.519 83.645)" fill="#fff"/>
      <path id="Path_1000" data-name="Path 1000" d="M316.1,214.577a1.378,1.378,0,1,1,1.378-1.378A1.378,1.378,0,0,1,316.1,214.577Zm0-1.978a.6.6,0,1,0,.6.6A.6.6,0,0,0,316.1,212.6Z" transform="translate(-243.387 -133.657)" fill="#fff"/>
      <rect id="Rectangle_216" data-name="Rectangle 216" width="0.779" height="11.557" transform="translate(72.322 80.53)" fill="#fff"/>
      <path id="Path_1001" data-name="Path 1001" d="M311.245,191.627l-.545-.553,4.12-4.127V179.79h.779v7.484Z" transform="translate(-242.498 -126.571)" fill="#fff"/>
      <path id="Path_1002" data-name="Path 1002" d="M305.138,208.967a1.378,1.378,0,1,1,1.378-1.363A1.378,1.378,0,0,1,305.138,208.967Zm0-1.978a.6.6,0,1,0,.6.6.6.6,0,0,0-.6-.6Z" transform="translate(-240.962 -132.416)" fill="#fff"/>
      <path id="Path_1003" data-name="Path 1003" d="M325.658,299.8H254.38V286.21h71.278Zm-70.5-.779H324.88V286.989H255.159Z" transform="translate(-230.036 -150.117)" fill="#fab228"/>
      <rect id="Rectangle_218" data-name="Rectangle 218" width="4.221" height="8.247" transform="translate(26.68 138.764)" fill="#fab228"/>
      <rect id="Rectangle_219" data-name="Rectangle 219" width="4.221" height="8.247" transform="translate(32.201 138.764)" fill="#fab228"/>
      <rect id="Rectangle_220" data-name="Rectangle 220" width="4.221" height="8.247" transform="translate(37.715 138.764)" fill="#fab228"/>
      <rect id="Rectangle_221" data-name="Rectangle 221" width="4.221" height="8.247" transform="translate(43.236 138.764)" fill="#fab228" opacity="0.9"/>
      <rect id="Rectangle_222" data-name="Rectangle 222" width="4.221" height="8.247" transform="translate(48.757 138.764)" fill="#fab228" opacity="0.7"/>
      <rect id="Rectangle_223" data-name="Rectangle 223" width="4.221" height="8.247" transform="translate(54.271 138.764)" fill="#fab228" opacity="0.5"/>
      <rect id="Rectangle_224" data-name="Rectangle 224" width="4.221" height="8.247" transform="translate(59.792 138.764)" fill="#fab228" opacity="0.3"/>
      <path id="Path_1004" data-name="Path 1004" d="M270.67,265.49h2.064v5.07h3.224V272.2H270.67Z" transform="translate(-233.641 -145.532)" fill="#fab228"/>
      <path id="Path_1005" data-name="Path 1005" d="M278.126,268.8a3.177,3.177,0,0,1,3.458-3.465,3.481,3.481,0,0,1,2.57.9,3.372,3.372,0,0,1,.9,2.508,4.08,4.08,0,0,1-.4,1.923,2.787,2.787,0,0,1-1.137,1.168,3.761,3.761,0,0,1-1.861.421,4.228,4.228,0,0,1-1.869-.366,2.772,2.772,0,0,1-1.207-1.137A3.824,3.824,0,0,1,278.126,268.8Zm2.064,0a2.251,2.251,0,0,0,.382,1.456,1.417,1.417,0,0,0,2.056,0,2.468,2.468,0,0,0,.366-1.557,2.119,2.119,0,0,0-.382-1.386,1.316,1.316,0,0,0-1.036-.436,1.246,1.246,0,0,0-1,.444,2.274,2.274,0,0,0-.382,1.487Z" transform="translate(-235.287 -145.495)" fill="#fab228"/>
      <path id="Path_1006" data-name="Path 1006" d="M291.974,271.074h-2.336l-.327,1.106H287.2l2.515-6.689h2.251l2.515,6.689h-2.165Zm-.428-1.441-.74-2.406-.732,2.406Z" transform="translate(-237.298 -145.532)" fill="#fab228"/>
      <path id="Path_1007" data-name="Path 1007" d="M297.42,265.489h3.068a3.705,3.705,0,0,1,1.472.249,2.337,2.337,0,0,1,.919.709,2.8,2.8,0,0,1,.53,1.067,5.046,5.046,0,0,1,.164,1.3,4.471,4.471,0,0,1-.241,1.659,2.726,2.726,0,0,1-.677.989,2.2,2.2,0,0,1-.935.537,4.99,4.99,0,0,1-1.23.179H297.42Zm2.064,1.519v3.652h.506a2.065,2.065,0,0,0,.927-.148.95.95,0,0,0,.428-.5,3.192,3.192,0,0,0,.156-1.16,2.243,2.243,0,0,0-.35-1.456,1.441,1.441,0,0,0-1.145-.389Z" transform="translate(-239.559 -145.532)" fill="#fab228"/>
      <path id="Path_1008" data-name="Path 1008" d="M306.82,265.49h2.071v6.689H306.82Z" transform="translate(-241.639 -145.532)" fill="#fab228"/>
      <path id="Path_1009" data-name="Path 1009" d="M311.41,265.49h1.923l2.523,3.7v-3.7H317.8v6.689h-1.947l-2.508-3.676v3.676H311.41Z" transform="translate(-242.655 -145.532)" fill="#fab228"/>
      <path id="Path_1010" data-name="Path 1010" d="M324.673,269.753v-1.394h3.193v2.85a6.6,6.6,0,0,1-1.62.857,5.585,5.585,0,0,1-1.674.226,4.12,4.12,0,0,1-1.939-.4,2.779,2.779,0,0,1-1.16-1.215,3.894,3.894,0,0,1-.413-1.838,3.824,3.824,0,0,1,.452-1.908,2.928,2.928,0,0,1,1.316-1.23,4.3,4.3,0,0,1,1.83-.327,5.174,5.174,0,0,1,1.659.2,2.126,2.126,0,0,1,.919.623,2.8,2.8,0,0,1,.545,1.075l-1.994.35a1.106,1.106,0,0,0-.421-.576,1.3,1.3,0,0,0-.779-.2,1.356,1.356,0,0,0-1.09.475,2.29,2.29,0,0,0-.4,1.5,2.337,2.337,0,0,0,.4,1.557,1.433,1.433,0,0,0,1.137.467,2.332,2.332,0,0,0,.662-.1,4.19,4.19,0,0,0,.724-.343v-.639Z" transform="translate(-244.789 -145.504)" fill="#fab228"/>
      <rect id="Rectangle_225" data-name="Rectangle 225" width="2.336" height="14.228" transform="translate(58.741 165.094)" fill="#fab228"/>
      <path id="Path_1011" data-name="Path 1011" d="M304.153,335.48l-1.028-.95-4.7,5.062-4.7-5.062-1.028.95,5.732,6.168Z" transform="translate(-238.513 -160.808)" fill="#fab228"/>
      <rect id="Rectangle_226" data-name="Rectangle 226" width="19.056" height="2.336" transform="translate(50.377 182.958)" fill="#fab228"/>
      <path id="Path_1012" data-name="Path 1012" d="M318.281,123.8a2.11,2.11,0,1,0-2.1,2.1,2.11,2.11,0,0,0,2.1-2.1Z" transform="translate(-243.241 -113.713)" fill="#fab228" opacity="0.3"/>
      <rect id="Rectangle_227" data-name="Rectangle 227" width="21.711" height="4.213" rx="2.107" transform="translate(46.055 7.974)" fill="#fab228" opacity="0.3"/>
    </g>
  </g>
</svg>
