<?xml version="1.0" encoding="UTF-8"?>
<svg xmlns="http://www.w3.org/2000/svg" xmlns:xlink="http://www.w3.org/1999/xlink" viewBox="0 0 479.51 465.04">
  <defs>
    <clipPath id="clippath">
      <path d="m210.38,248.06l-20.72,11.96-12.74,7.35c-.41.21-.81.44-1.2.69-4.75,2.93-8.1,8.14-8.1,14.53v59.55c-.01,5.79-2.77,10.63-6.84,13.66-2.94,2.2-6.56,3.46-10.31,3.46-2.84,0-5.76-.73-8.52-2.32-15.88-9.17-25.65-26.11-25.65-44.44v-61.77c0-9.17-2.44-17.99-6.87-25.65-4.43-7.67-10.84-14.2-18.78-18.78l94.08-54.32h0c7.95,4.59,14.36,11.14,18.79,18.8,4.43,7.67,6.87,16.49,6.87,25.65v26.91c0,7.7,0,24.7,0,24.7Z" style="fill: none; stroke-width: 0px;"/>
    </clipPath>
  </defs>
  <g id="Floor">
    <ellipse id="Floor-2" data-name="Floor" cx="239.76" cy="326.62" rx="239.76" ry="138.42" style="fill: #f0f0f0; stroke-width: 0px;"/>
  </g>
  <g id="Shadows">
    <ellipse id="Shadow" cx="383" cy="324.25" rx="43.59" ry="25.17" style="fill: #e0e0e0; stroke-width: 0px;"/>
    <polygon id="Shadow-2" data-name="Shadow" points="104.76 342.09 299.74 454.67 389.1 403.07 194.08 290.47 104.76 342.09" style="fill: #e0e0e0; stroke-width: 0px;"/>
    <path id="Shadow-3" data-name="Shadow" d="m70.1,364.29l-40.35-23.3c-1.2-.69-1.2-1.81,0-2.5l141.9-81.93c1.2-.69,3.13-.69,4.33,0l40.35,23.3c1.2.69,1.2,1.81,0,2.5l-141.9,81.93c-1.2.69-3.13.69-4.33,0Z" style="fill: #e0e0e0; stroke-width: 0px;"/>
  </g>
  <g id="Device">
    <g id="Device-2" data-name="Device">
      <g id="Device-3" data-name="Device">
        <path d="m197.66,8.95l-119.77,69.14c-2.4,1.39-4.35,4.77-4.35,7.55v270.11c0,2.77,1.95,3.91,4.35,2.51l119.77-69.14c2.4-1.39,4.35-4.77,4.35-7.55V11.46c0-2.77-1.95-3.91-4.35-2.51Zm-1.92,247.73c0,2.38-1.67,3.89-3.73,5.08l-108.9,62.87c-2.06,1.19-3.73.23-3.73-2.16V110.88c0-2.39,1.68-5.28,3.73-6.47l108.9-62.86c2.07-1.2,3.73-.23,3.73,2.15v212.98Z" style="fill: #37474f; stroke-width: 0px;"/>
        <path d="m77.35,358.53c-2.42,1.11-5.93,1.01-8.17-.27l-4.98-2.88c-2.42-1.39-4.37-4.76-4.37-7.55V77.74c0-1.06.28-2.18.75-3.26.15-.36.32-.7.52-1.05.01,0,.01-.01.01-.01l13.71,7.91h.01c-.29.52-.55,1.06-.75,1.6-.33.91-.53,1.83-.53,2.7v270.11c0,2.56,1.66,3.72,3.81,2.78Z" style="fill: #263238; stroke-width: 0px;"/>
        <path d="m138.81,299.95c3.8-2.19,6.88-.42,6.88,3.97s-3.08,9.72-6.88,11.91c-3.8,2.19-6.88.42-6.88-3.97s3.08-9.72,6.88-11.91Z" style="fill: #ff966c; stroke-width: 0px;"/>
        <g>
          <path d="m137.78,49.34c1.61-.93,2.92-.18,2.92,1.69s-1.31,4.13-2.92,5.06c-1.61.93-2.92.18-2.92-1.69,0-1.86,1.31-4.13,2.92-5.06Z" style="stroke-width: 0px;"/>
          <path d="m126.5,67.1l22.54-13.02c1.34-.78,2.44-.23,2.44,1.23,0,1.46-1.09,3.27-2.44,4.04l-22.54,13.02c-1.35.78-2.44.22-2.43-1.23,0-1.46,1.09-3.27,2.44-4.04Z" style="stroke-width: 0px;"/>
        </g>
        <path d="m195.74,256.46c0,2.38-1.67,3.89-3.73,5.08l-108.9,62.87c-2.06,1.19-3.73.23-3.73-2.16V110.66c0-2.39,1.68-5.28,3.73-6.47l108.9-62.86c2.07-1.2,3.73-.23,3.73,2.15v212.98Z" style="fill: #ff966c; stroke: #fff; stroke-miterlimit: 10;"/>
        <path d="m201.97,10.77c-.31-2.26-2.12-3.08-4.3-1.82l-119.78,69.14c-1.2.69-2.29,1.89-3.07,3.26l-13.71-7.91c.8-1.37,1.88-2.54,3.08-3.23L183.95,1.04c2.39-1.39,6.3-1.39,8.71,0l5,2.87c2.2,1.28,4.02,4.23,4.3,6.86Z" style="fill: #455a64; stroke-width: 0px;"/>
      </g>
      <g>
        <path d="m111.84,139.27c1.25-.72,2.39-1.09,3.42-1.12,1.03-.02,1.92.26,2.67.86.75.6,1.34,1.49,1.76,2.68.42,1.19.66,2.62.72,4.28.02.57.03,1.11.03,1.59v2.78c0,.47,0,.99-.03,1.56-.05,1.76-.29,3.46-.7,5.12-.42,1.66-.99,3.22-1.72,4.67-.73,1.45-1.61,2.76-2.62,3.91-1.01,1.16-2.14,2.09-3.39,2.81l-7.32,4.23c-.2.11-.37.1-.51-.04-.14-.14-.22-.36-.22-.67v-26.97c0-.31.07-.61.22-.92.14-.31.32-.52.51-.63l7.19-4.15Zm3.55,9.43c-.11-3.14-1.34-4.03-3.69-2.67l-2.76,1.6v15.87l2.9-1.67c2.28-1.32,3.46-3.6,3.55-6.85.02-.6.03-1.15.03-1.67v-2.98c0-.5,0-1.04-.03-1.61Z" style="fill: #fff; stroke-width: 0px;"/>
        <path d="m133.07,127.01c.36-.21.64-.21.83-.02.19.2.32.43.39.69l5.91,22.89c.07.24.11.43.11.56,0,.25-.06.5-.18.75-.12.25-.26.42-.42.51l-3.42,1.97c-.36.21-.62.24-.77.09-.15-.15-.25-.32-.28-.52l-.76-3.03-7.21,4.16-.76,3.9c-.04.24-.13.53-.29.85-.15.33-.41.59-.77.8l-3.42,1.97c-.16.09-.3.09-.42-.03-.12-.11-.18-.29-.18-.55,0-.14.04-.37.11-.69l5.91-29.72c.07-.35.2-.73.39-1.15.19-.42.47-.73.83-.94l4.39-2.54Zm-4.39,20.78l4.39-2.54-2.2-8.75-2.2,11.29Z" style="fill: #fff; stroke-width: 0px;"/>
        <path d="m154.55,114.61c.2-.11.37-.1.52.04.14.14.22.36.22.67v4.43c0,.31-.07.61-.22.92-.15.31-.32.52-.52.63l-4.77,2.76v21.42c0,.31-.07.61-.22.92-.14.31-.32.52-.51.63l-3.55,2.05c-.2.12-.37.1-.52-.04-.14-.14-.22-.36-.22-.67v-21.42l-4.77,2.76c-.2.11-.37.1-.52-.04-.15-.14-.22-.36-.22-.67v-4.43c0-.31.07-.61.22-.92.14-.31.32-.52.52-.63l14.56-8.41Z" style="fill: #fff; stroke-width: 0px;"/>
        <path d="m165.86,108.08c.36-.21.64-.21.83-.02.19.2.32.43.39.69l5.91,22.89c.07.24.11.43.11.56,0,.25-.06.5-.18.75-.12.25-.26.42-.42.51l-3.42,1.97c-.36.21-.62.24-.77.09-.15-.15-.25-.32-.28-.52l-.76-3.03-7.21,4.16-.76,3.9c-.04.24-.13.53-.29.85-.15.33-.41.59-.77.8l-3.42,1.97c-.16.09-.3.09-.42-.03-.12-.11-.18-.3-.18-.55,0-.14.04-.37.11-.69l5.91-29.72c.07-.35.2-.73.39-1.15.19-.42.47-.73.83-.94l4.39-2.54Zm-4.39,20.78l4.39-2.54-2.2-8.75-2.2,11.29Z" style="fill: #fff; stroke-width: 0px;"/>
      </g>
    </g>
  </g>
  <g id="Character">
    <g id="Character-2" data-name="Character">
      <path d="m377.15,111.74c-6.35.3-8.53,1.51-11.85,5.42-3.25,3.82-18.91,32.85-18.91,32.85,0,0,2.94,8.24,9.37,7.54l12.03-19.39,9.37-26.42Z" style="fill: #ffa8a7; stroke-width: 0px;"/>
      <path d="m377.99,111.75s-4.56-.6-7.81.58c-3.25,1.18-4.88,3.53-7.12,6.95-1.73,2.65-7.81,13.64-7.81,13.64,0,0,2.96,8.23,11.37,8.23l11.37-29.4Z" style="fill: #e0e0e0; stroke-width: 0px;"/>
      <g id="Character-3" data-name="Character">
        <g>
          <path d="m399.75,318.19v-1.38c-.54,1.61-3.06,8.56-6.88,12.05-3.04,2.77-7.18,5.97-8.23,9.05-1.1,3.21,5.76,4.29,8.6,3.79,3.3-.58,7.56-2.45,9.88-5.3,1.63-2,2.67-4.38,3.84-5.96,1.17-1.58,3.85-3.34,4.48-5.16.35-1-.07-3.2-.55-5.05-.45-1.7-.93-3.57-1.51-3.41,0,.21,0,1.05,0,1.05-.7.77-2.63,1.54-4.81,1.63-1.41.05-4.82-.23-4.81-1.3Z" style="fill: #263238; stroke-width: 0px;"/>
          <path d="m390.12,331.3c.94-.84,1.89-1.66,2.75-2.45,2.67-2.43,4.7-6.56,5.87-9.38.67-1.61,1.01-3.32,1.01-5.06v-5.49h9.62v8.93h0s0,0,0,0v.24l-.05.02c-.46,2-4.88,7.32-7.39,10.79-1.68,2.33-4.88,5.28-8.7,5.79-3.62.48-5.47-.66-3.12-3.4Z" style="fill: #ffa8a7; stroke-width: 0px;"/>
          <path d="m365.78,308.7v-1.38c-.54,1.61-3.06,8.56-6.88,12.05-3.04,2.77-7.18,5.97-8.23,9.05-1.1,3.21,5.76,4.29,8.6,3.79,3.3-.58,7.56-2.45,9.88-5.3,1.63-2,2.67-4.38,3.84-5.96,1.17-1.58,3.85-3.34,4.48-5.16.35-1-.06-3.2-.55-5.05-.45-1.7-.93-3.57-1.51-3.41,0,.21,0,1.05,0,1.05-.7.77-2.63,1.54-4.81,1.63-1.41.05-4.82-.23-4.81-1.3Z" style="fill: #263238; stroke-width: 0px;"/>
          <path d="m356.15,321.81c.94-.84,1.89-1.66,2.75-2.45,2.67-2.43,4.7-6.56,5.87-9.38.67-1.61,1.01-3.32,1.01-5.06v-5.49h9.62v8.93h0v.24l-.05.02c-.46,2-4.88,7.32-7.39,10.79-1.68,2.33-4.88,5.28-8.7,5.79-3.62.48-5.47-.66-3.12-3.4Z" style="fill: #ffa8a7; stroke-width: 0px;"/>
          <path d="m407.46,168.61c7.46,16.3-.27,73.71-.27,73.71.22,2.64,3.25,7.85,4.37,19.49,1.33,13.75-2.09,48.29-2.09,48.29,0,0-4.46,2.91-9.73.39,0,0-9.17-52.01-10.9-65.68-1.51-11.93-4.39-38.17-4.39-38.17l-4.64,38.11s2.11,6.69,2.6,11.78c.78,8.04-7.01,45.49-7.01,45.49,0,0-3.32,1.22-9.62.29,0,0-2.76-49.7-3.48-59.39-1.22-16.27-.47-67.05,2.52-76.68l42.65,2.38Z" style="fill: #455a64; stroke-width: 0px;"/>
          <path d="m384.46,206.62l-2.42-15.14s-10.25-2.12-14.9-6.49c0,0,4.88,6.07,12.12,8.05l2.72,11.65-1.85,37.49,4.33-35.57Z" style="fill: #37474f; stroke-width: 0px;"/>
        </g>
        <path d="m394.3,111.99h0c2.84.2,3.78.13,5.84.34,4.11.42,5.1,6.44,6.79,9.99,1.82,3.85,1.84,8.31.45,12.33l-6.67,19.28s3.12,7.54,6.74,14.67c-16.73,9.34-37.62,4.43-42.65-2.38-.21-1.45,1.08-12.74,1.88-20.12-2.95-7.39-3.72-12.08-2.48-16.96,2.31-9.07,10.57-17.41,12.94-17.4l17.15.26Z" style="fill: #f0f0f0; stroke-width: 0px;"/>
        <g>
          <path d="m408.6,75.39l-3.46-.3c.42-.24.78-.58,1.03-1.03.75-1.36.25-3.12-1.11-3.93l-2.23,4.05c-3.69-6.33-10.69-10.43-18.51-10.01l-1.79.1c-11.14.59-19.68,10.1-19.09,21.24.61,11.5,1.29,24.37,1.29,24.37l20.78-1.11c11.78-.63,20.83-10.69,20.2-22.47l-.15-3.04c-.1-1.94-.49-3.8-1.1-5.55.3.16.64.26,1.01.29,1.55.13,2.96-1.03,3.15-2.61Z" style="fill: #455a64; stroke-width: 0px;"/>
          <path d="m367.17,86.84c-.14,2.3-.06,3.56.17,6.62.79,10.35,4.29,12.73,6.01,13.38,1.73.65,4.96.03,8.09-.67v6.12s-3.77,5.41-3.34,8.25c.43,2.84,6.5,3.19,10.44.19,3.94-3,5.54-8.11,5.54-8.11v-14.31s2.28,2.74,5.65.23c3.37-2.51,3.2-8.25,1.06-10.21-2.14-1.95-6.56-1.12-7.23,1.77,0,0-7.29-.61-8.22-12.62-6.78,8.84-17.75,2.46-18.18,9.37Z" style="fill: #ffa8a7; stroke-width: 0px;"/>
          <path d="m393.52,89.3l.27,5.13h0c-1.93.1-3.57-1.38-3.68-3.3l-.3-5.72,3.71,3.9Z" style="fill: #455a64; stroke-width: 0px;"/>
          <path d="m380.14,89.92c0,.75.59,1.35,1.31,1.35.72,0,1.3-.61,1.3-1.36,0-.75-.59-1.35-1.31-1.35-.72,0-1.3.61-1.3,1.36Z" style="fill: #263238; stroke-width: 0px;"/>
          <path d="m380.05,99.11l-3.49,1.32c.35,1,1.41,1.52,2.38,1.15.96-.37,1.46-1.47,1.11-2.47Z" style="fill: #f28f8f; stroke-width: 0px;"/>
          <path d="m381.56,84.07l3.06.99c.31-.84-.13-1.74-.97-2.02-.84-.27-1.78.19-2.08,1.03Z" style="fill: #455a64; stroke-width: 0px;"/>
          <path d="m368.93,90.48c0,.75.59,1.35,1.31,1.35.72,0,1.3-.61,1.3-1.36,0-.75-.59-1.35-1.31-1.35-.72,0-1.3.61-1.3,1.36Z" style="fill: #263238; stroke-width: 0px;"/>
          <polygon points="376.55 89.38 376.76 97.24 372.56 96.18 376.55 89.38" style="fill: #f28f8f; stroke-width: 0px;"/>
          <path d="m381.44,106.17c3.31-.61,10.06-2.95,10.99-5.72,0,0-.27,1.72-2.22,3.59-1.95,1.86-8.77,4.21-8.77,4.21v-2.07Z" style="fill: #f28f8f; stroke-width: 0px;"/>
        </g>
        <path d="m390.02,170.42c5.49-1.3,6.54-3.37,5.09-8.83-.06-.21-.11-.38-.17-.53-1.08-2.59-5.37-1.05-5.37-1.05,0,0,1.76-2.19,3.73-4.98s2.85-7.41,3.12-10.65c.26-3.24.79-9.73.79-9.73,0,0,4.27-2.56,2.61-7.24l6.6-4.06s.48.34,1.24.86c1.05,3.37.89,7.04-.27,10.42l-6.67,19.28s3.94,6.93,6.74,14.67c-12.33,6.88-26.91,6.02-35.74,2.37,6.98,1.08,13.44.59,18.3-.56Z" style="fill: #e6e6e6; stroke-width: 0px;"/>
        <path d="m394.7,88.31l-7.56.4c-.5-1.89-2.27-3.24-4.3-3.13l-.65.03c-1.75.09-3.2,1.25-3.75,2.82-.61-.58-1.51-.94-2.51-.94-.87,0-1.62.28-2.14.76-.79-1.26-2.2-2.08-3.79-1.99l-.65.03c-2.32.12-4.11,2.11-3.99,4.44.12,2.32,2.11,4.11,4.44,3.99l.65-.03c2.32-.12,4.11-2.11,3.99-4.44-.02-.47-.14-.91-.31-1.32.38-.45,1.03-.73,1.8-.73.96,0,1.86.4,2.29,1.02l.03-.02c-.04.28-.06.57-.04.86.12,2.32,2.11,4.11,4.44,3.99l.65-.03c2.32-.12,4.11-2.11,3.99-4.44,0-.05-.02-.1-.02-.15l6.76-.36c.27-.39.54-.63.68-.75Zm-24.29,5.67l-.65.03c-1.93.1-3.59-1.38-3.69-3.32-.1-1.93,1.38-3.59,3.32-3.69l.65-.03c1.93-.1,3.59,1.38,3.69,3.32.1,1.93-1.38,3.59-3.32,3.69Zm12.84-.68l-.65.03c-1.93.1-3.59-1.38-3.69-3.32-.1-1.93,1.38-3.59,3.32-3.69l.65-.03c1.93-.1,3.59,1.38,3.69,3.32.1,1.93-1.39,3.59-3.32,3.69Z" style="fill: #263238; stroke-width: 0px;"/>
      </g>
      <g>
        <g>
          <polygon points="332.53 143.88 366.32 152.78 375.62 191.01 343.5 181.68 332.53 143.88" style="fill: #ff966c; stroke-width: 0px;"/>
          <polygon points="332.53 143.88 366.32 152.78 375.62 191.01 343.5 181.68 332.53 143.88" style="opacity: .25; stroke-width: 0px;"/>
          <path d="m355.3,175.45c.22,2.07,1.66,4.46,5.89,6.48,4.22,2.02,12.44.89,12.44.89l-1.14-4.7-17.18-2.66Z" style="opacity: .2; stroke-width: 0px;"/>
        </g>
        <g style="opacity: .2;">
          <path d="m347.8,170.95c-.31.86-1.83,3.76-6.22,4.11l-.34-1.18,6.56-2.93Z" style="stroke-width: 0px;"/>
        </g>
        <g style="opacity: .1;">
          <path d="m342.71,149.95s-.12-.58-.28-1.29c-.15-.71,1.83-.74,4.43-.07l4.98,1.29c2.6.67,4.83,1.8,4.99,2.51l.28,1.29-14.39-3.73Z" style="stroke-width: 0px;"/>
        </g>
        <path d="m340.12,145.11c-.1-.44.71-.56,1.79-.26l1.97.54s-.59-2.79,3.79-1.81c4.37.97,5.33,4.14,5.33,4.14,0,0,.94.27,2.1.6,1.16.33,2.22.96,2.35,1.4l.25.8-17.4-4.58s-.09-.38-.19-.83Z" style="fill: #37474f; stroke-width: 0px;"/>
        <path d="m342.51,146.48c1.6.38,2.26.6,2.5,1.69.27,1.25.38,2.17.38,2.17l7.7,2.04s-.37-1.59-.49-2.2c-.12-.62.14-.99,1.37-.67l.1-.49-12.07-3.07.51.53Z" style="fill: #37474f; stroke-width: 0px;"/>
        <path d="m342.25,150.07s-.12-.58-.28-1.29c-.15-.71,1.83-.74,4.43-.07l4.98,1.29c2.6.67,4.83,1.8,4.99,2.51l.28,1.29-14.39-3.73Z" style="fill: #37474f; stroke-width: 0px;"/>
        <path d="m336.09,156.15s1.26,4.32,1.55,5.35c.29,1.03,4.07,2.88,6.56,3.56,2.48.68,5.2,1.49,4.02,4.96-1.08,3.2-5.17,3.93-7.25,3.84-2.08-.09-4.93-2.08-6.05-5.28-1.43-4.09-.66-8.46-1.23-10.84-.57-2.39,1.15-3.02,2.4-1.59Z" style="fill: #ffa8a7; stroke-width: 0px;"/>
      </g>
      <g>
        <path d="m399.38,112.26c4.38.28,8.91,2.65,9.6,7.91.69,5.26,4.95,32.96,3.28,36.08-3.87,7.21-29.37,20.92-31.9,22.1-2.53,1.17-6.75,3.1-11.77,3.16-3.98.04-9.27-.09-11.94-3.68-2.37-3.19-3.72-9.08,1.65-8.07,5.36,1.01,12.29.54,12.29.54l-.62-2.57s1.42-.13,4.09.67c2.68.8,5.11-1.5,9.83-4.42,6.09-3.77,15.37-11.73,15.37-11.73l-3.78-23.13s-.13-10,3.91-16.86Z" style="fill: #ffa8a7; stroke-width: 0px;"/>
        <path d="m398.59,112.26s2.34-.54,4.92.44c2.57.98,4.86,2.29,5.93,7.47,1.07,5.19,3.18,24.14,3.18,24.14,0,0-5.61,4.06-14.75,2.13l-3.28-17.2s-2.56-12.04,4-16.98Z" style="fill: #e0e0e0; stroke-width: 0px;"/>
      </g>
    </g>
  </g>
  <g id="Analysis">
    <g id="Analysis-2" data-name="Analysis">
      <g>
        <g>
          <polygon points="86.37 203.84 193.28 142.12 193.28 156.93 86.37 218.65 86.37 203.84" style="fill: #455a64; stroke-width: 0px;"/>
          <polygon points="90.65 206.31 90.65 211.25 189 154.46 189 149.53 90.65 206.31" style="fill: #263238; stroke-width: 0px;"/>
          <polygon points="86.37 203.84 82.1 201.37 189 139.65 193.28 142.12 86.37 203.84" style="fill: #37474f; stroke-width: 0px;"/>
          <polygon points="82.1 201.37 86.37 203.84 86.37 218.65 82.1 216.19 82.1 201.37" style="fill: #263238; stroke-width: 0px;"/>
        </g>
        <g>
          <polygon points="394.26 396.44 300.18 450.73 300.18 448.32 394.25 394.03 394.26 396.44" style="fill: #37474f; stroke-width: 0px;"/>
          <path d="m210.38,248.06l-20.72,11.96-12.74,7.35c-.41.21-.81.44-1.2.69-4.75,2.93-8.1,8.14-8.1,14.53v59.55c-.01,5.79-2.77,10.63-6.84,13.66-2.94,2.2-6.56,3.46-10.31,3.46-2.84,0-5.76-.73-8.52-2.32-15.88-9.17-25.65-26.11-25.65-44.44v-61.77c0-9.17-2.44-17.99-6.87-25.65-4.43-7.67-10.84-14.2-18.78-18.78l94.08-54.32h0c7.95,4.59,14.36,11.14,18.79,18.8,4.43,7.67,6.87,16.49,6.87,25.65v26.91c0,7.7,0,24.7,0,24.7Z" style="fill: #f5f5f5; stroke-width: 0px;"/>
          <path d="m244.59,416.22c-15.88-9.16-25.65-26.1-25.65-44.42v-59.59c0-6.97-1.42-13.72-4.04-19.93-.83-1.97-1.78-3.87-2.84-5.73-4.43-7.66-10.84-14.19-18.78-18.77h0c-11.4-6.58-25.65,1.66-25.64,14.82v6.07s0-6.08,0-6.08v59.55s0-12.39,0-12.39v12.37c0,13.17-14.25,21.4-25.66,14.83-15.88-9.17-25.65-26.11-25.65-44.44v-61.77c0-9.17-2.44-17.99-6.87-25.65-4.43-7.67-10.84-14.2-18.78-18.78v2.46c14.56,8.91,23.55,24.85,23.55,41.97v61.77c0,19.02,10.23,36.74,26.71,46.26,6.01,3.47,13.19,3.47,19.21,0,.37-.21.73-.43,1.08-.67l.03-.02c5.34-3.57,8.48-9.44,8.48-15.94v-59.55c.01-5.42,2.81-10.29,7.51-12.99,4.7-2.72,10.31-2.72,15,0,9.49,5.47,16.73,13.91,20.82,23.74,2.45,5.9,3.78,12.3,3.78,18.86v13.83s0,45.76,0,45.76c0,19.01,10.23,36.74,26.71,46.26l56.64,32.68v-2.41l-55.58-32.1Z" style="fill: #455a64; stroke-width: 0px;"/>
          <path d="m394.25,394.03l-94.08,54.28-55.58-32.1c-15.88-9.16-25.65-26.1-25.65-44.42v-59.59c0-6.97-1.42-13.72-4.04-19.93-.83-1.97-1.78-3.87-2.84-5.73-4.43-7.66-10.84-14.19-18.78-18.77-5.42-3.14-11.49-2.92-16.36-.41l12.74-7.35,25.63-14.8,54.86-31.67.14-.08c4.98-2.87,11.38-3.27,17.07.01,7.94,4.58,14.35,11.11,18.78,18.78,4.43,7.67,6.87,16.5,6.87,25.65v59.58c0,18.33,9.78,35.27,25.66,44.44l55.58,32.1Z" style="fill: #fafafa; stroke-width: 0px;"/>
          <path d="m216.83,312.2c0-6.57-1.33-12.97-3.78-18.86-4.1-9.83-11.34-18.26-20.82-23.74-4.7-2.72-10.31-2.72-15,0-4.7,2.71-7.5,7.57-7.5,12.99v59.55c-.01,6.5-3.16,12.37-8.5,15.94l-.03.02c-.36.24-.72.46-1.08.67l56.71-32.74v-13.83Z" style="fill: #e0e0e0; stroke-width: 0px;"/>
          <path d="m216.83,312.2c0-6.57-1.33-12.97-3.78-18.86-4.1-9.83-11.34-18.26-20.82-23.74-4.7-2.72-10.31-2.72-15,0-4.7,2.71-7.5,7.57-7.5,12.99v59.55c-.01,6.5-3.16,12.37-8.5,15.94l-.03.02c-.36.24-.72.46-1.08.67l56.71-32.74v-13.83Z" style="opacity: .15; stroke-width: 0px;"/>
        </g>
      </g>
      <g style="clip-path: url(#clippath);">
        <g>
          <path d="m107.36,206.61c1.98,1.69,5.47,2.06,7.99.6l67.13-38.76c2.52-1.45,3.11-4.17,1.14-5.87-1.97-1.7-5.74-1.73-8.26-.27l-67.16,38.78c-2.52,1.45-2.81,3.83-.83,5.52Z" style="fill: #ff966c; stroke-width: 0px;"/>
          <path d="m161.48,191.95c-.26,0-.51-.13-.65-.37-.21-.36-.08-.81.27-1.02l31.39-18.12c.36-.21.81-.08,1.02.27.21.36.08.81-.27,1.02l-31.39,18.12c-.12.07-.25.1-.37.1Z" style="opacity: .4; stroke-width: 0px;"/>
          <path d="m163.9,195.99c-.26,0-.51-.13-.65-.37-.21-.36-.08-.81.27-1.02l31.39-18.12c.36-.21.81-.08,1.02.27.21.36.08.81-.27,1.02l-31.39,18.12c-.12.07-.25.1-.37.1Z" style="opacity: .4; stroke-width: 0px;"/>
          <path d="m165.94,200.2c-.26,0-.51-.13-.65-.37-.21-.36-.08-.81.27-1.02l31.39-18.12c.36-.21.81-.08,1.02.27.21.36.08.81-.27,1.02l-31.39,18.12c-.12.07-.25.1-.37.1Z" style="opacity: .4; stroke-width: 0px;"/>
          <path d="m167.57,204.57c-.26,0-.51-.13-.65-.37-.21-.36-.08-.81.27-1.02l31.39-18.12c.36-.2.81-.08,1.02.27.21.36.08.81-.27,1.02l-31.39,18.12c-.12.07-.25.1-.37.1Z" style="opacity: .4; stroke-width: 0px;"/>
          <path d="m168.77,208.86c-.26,0-.51-.13-.65-.37-.21-.36-.08-.81.27-1.02l31.39-18.12c.36-.21.81-.08,1.02.27.21.36.08.81-.27,1.02l-31.39,18.12c-.12.07-.25.1-.37.1Z" style="opacity: .4; stroke-width: 0px;"/>
          <path d="m169.58,213.47c-.26,0-.51-.13-.65-.37-.21-.36-.08-.81.27-1.02l31.39-18.12c.36-.2.81-.08,1.02.27.21.36.08.81-.27,1.02l-31.39,18.12c-.12.07-.25.1-.37.1Z" style="opacity: .4; stroke-width: 0px;"/>
          <path d="m170.02,218.4c-.26,0-.51-.13-.65-.37-.21-.36-.08-.81.27-1.02l31.39-18.12c.36-.21.81-.08,1.02.27.21.36.08.81-.27,1.02l-31.39,18.12c-.12.07-.25.1-.37.1Z" style="opacity: .4; stroke-width: 0px;"/>
          <g>
            <path d="m125.26,253.48c-.18,0-.36-.09-.46-.26-.15-.25-.06-.57.19-.72l76.16-43.97c.25-.15.57-.06.72.19.15.25.06.57-.19.72l-76.16,43.97c-.08.05-.17.07-.26.07Z" style="opacity: .4; stroke-width: 0px;"/>
            <path d="m125.26,258.18c-.18,0-.36-.09-.46-.26-.15-.25-.06-.57.19-.72l76.16-43.97c.25-.15.57-.06.72.19.15.25.06.57-.19.72l-76.16,43.97c-.08.05-.17.07-.26.07Z" style="opacity: .4; stroke-width: 0px;"/>
            <path d="m125.26,262.88c-.18,0-.36-.09-.46-.26-.15-.25-.06-.57.19-.72l76.16-43.97c.25-.15.57-.06.72.19.15.25.06.57-.19.72l-76.16,43.97c-.08.05-.17.07-.26.07Z" style="opacity: .4; stroke-width: 0px;"/>
            <path d="m125.26,267.58c-.18,0-.36-.09-.46-.26-.15-.25-.06-.57.19-.72l76.16-43.97c.25-.15.57-.06.72.19.15.25.06.57-.19.72l-76.16,43.97c-.08.05-.17.07-.26.07Z" style="opacity: .4; stroke-width: 0px;"/>
          </g>
          <g>
            <path d="m125.26,246.65c-.18,0-.36-.09-.46-.26-.15-.25-.06-.57.19-.72l40.32-23.28c.25-.15.57-.06.72.19.15.25.06.57-.19.72l-40.32,23.28c-.08.05-.17.07-.26.07Z" style="opacity: .4; stroke-width: 0px;"/>
            <path d="m124.13,219.65c1.6,3.19,2.9,6.37,3.73,9.53.9,2.9,1.43,6.47,1.75,10.43.06.72.61,1.02,1.24.65l2.24-1.29c.63-.36,1.11-1.25,1.05-1.97-.28-3.67-.89-7.26-1.89-10.73-1.08-3.46-2.26-6.62-3.61-9.22-.33-.65-1.14-.86-1.77-.5l-2.2,1.27c-.63.36-.87,1.18-.54,1.83Z" style="fill: #ff966c; stroke-width: 0px;"/>
            <path d="m130.78,210.35c2.05,3.18,3.85,7,5.4,11.5,1.24,3.61,2.06,7.79,2.41,12.59.05.72.59,1.02,1.22.66l2.24-1.29c.63-.36,1.11-1.25,1.06-1.97-.31-4.28-1.14-8.46-2.45-12.56-1.4-4.23-3.2-8.02-5.36-11.43-.39-.61-1.23-.81-1.87-.46l-2.23,1.24c-.64.35-.81,1.12-.42,1.73Z" style="fill: #ff966c; stroke-width: 0px;"/>
            <path d="m148.48,214.75l-2.2,1.27c-.63.36-.95,1.21-.73,1.91,1.02,3.32,1.69,7.08,2,11.34.05.72.59,1.02,1.22.65l2.24-1.29c.63-.36,1.11-1.25,1.06-1.97-.27-3.84-.98-7.61-2.07-11.31-.21-.7-.9-.96-1.53-.6Z" style="fill: #ff966c; stroke-width: 0px;"/>
            <path d="m157.44,205.8c-.27-.68-1.01-.93-1.65-.57l-2.22,1.26c-.63.36-.91,1.19-.64,1.87.4,1.01.79,2.05,1.16,3.14,1.24,3.61,2.06,7.79,2.41,12.59.05.72.59,1.02,1.22.66l2.24-1.29c.63-.36,1.11-1.25,1.06-1.97-.31-4.28-1.14-8.46-2.45-12.56-.35-1.06-.73-2.1-1.14-3.11Z" style="fill: #ff966c; stroke-width: 0px;"/>
            <path d="m126.81,237.61c-.1-.18-.33-.24-.51-.14l-.94.54c-.21-1.29-.45-2.57-.74-3.84l1.27-.73c.18-.1.24-.33.14-.51-.1-.18-.33-.24-.51-.14l-1.09.63c-.32-1.27-.67-2.52-1.08-3.76l1.21-.7c.18-.1.24-.33.14-.51-.1-.18-.33-.24-.51-.14l-1.09.63c-.42-1.2-.86-2.38-1.37-3.54-.01-.03-.03-.06-.04-.1l1.2-.69c.18-.1.24-.33.14-.51-.1-.18-.33-.24-.51-.14l-1.13.65c-.52-1.17-1.1-2.34-1.73-3.5l1.19-.69c.18-.1.24-.33.14-.51-.1-.18-.33-.24-.51-.14l-1.18.68c-.63-1.12-1.32-2.22-2.05-3.32l1.34-.77c.18-.1.24-.33.14-.51-.1-.18-.33-.24-.51-.14l-1.39.8c-.79-1.15-1.63-2.29-2.53-3.41-.13-.16-.36-.19-.52-.06-.16.13-.19.36-.06.52.87,1.09,1.69,2.2,2.46,3.32l-1.28.74c-.18.1-.24.33-.14.51.07.12.19.19.32.19.06,0,.13-.02.19-.05l1.33-.77c.73,1.1,1.42,2.2,2.05,3.32l-1.49.86c-.18.1-.24.33-.14.51.07.12.19.19.32.19.06,0,.13-.02.19-.05l1.48-.85c.63,1.16,1.21,2.32,1.73,3.5l-1.54.89c-.18.1-.24.33-.14.51.07.12.19.19.32.19.06,0,.13-.02.19-.05l1.47-.85s0,0,0,.01c.51,1.19.97,2.4,1.39,3.63l-1.57.91c-.18.1-.24.33-.14.51.07.12.19.19.32.19.06,0,.13-.02.19-.05l1.45-.84c.4,1.23.75,2.49,1.06,3.76l-1.56.9c-.18.1-.24.33-.14.51.07.12.19.19.32.19.06,0,.13-.02.19-.05l1.38-.8c.29,1.26.52,2.55.72,3.85l-1.69.97c-.18.1-.24.33-.14.51.07.12.19.19.32.19.06,0,.13-.02.19-.05l1.44-.83c.22,1.57.37,3.17.45,4.79.01.2.17.35.37.35,0,0,.01,0,.02,0,.21-.01.36-.19.35-.39-.09-1.74-.26-3.46-.51-5.15l1.18-.68c.18-.1.24-.33.14-.51Z" style="opacity: .4; stroke-width: 0px;"/>
          </g>
          <g>
            <g style="opacity: .15;">
              <path d="m130.63,310.7c-.31-2.81-.42-5.66-.34-8.48.31-1.08,4.85-16.67,13.2-21.53.59-.35,1.15-.58,1.65-.69.24-.05.47-.08.68-.08,2.22,0,3.21,3.08,4.17,6.06.4,1.24.81,2.53,1.32,3.58.57,1.2,1.54,2.79,3.38,2.79.7,0,1.45-.23,2.29-.71,4.02-2.29,5.17-8.49,6.4-15.05.55-2.96,1.12-6.02,1.97-8.69,1.22-3.83,2.8-6.2,4.97-7.46.7-.4,1.32-.61,1.86-.61,2.33,0,3.21,4.15,4.06,8.16.47,2.2.95,4.47,1.69,6.14.85,1.93,1.97,2.87,3.41,2.87.74,0,1.53-.25,2.41-.76,4.93-2.85,6.42-7.67,7.86-12.34,1.23-3.96,2.38-7.7,5.63-9.59.86-.5,1.68-.76,2.42-.76.37,0,.72.06,1.06.19.16,1.28.16,2.22.16,2.23l.05,9.45c.09,1.81.21,3.23.38,4.45l-70.7,40.82Z" style="fill: #ff966c; stroke-width: 0px;"/>
              <path d="m201.9,270.16c-.21-1.41-.34-3.01-.42-4.73l-.05-9.44s0-1.12-.2-2.6c-.47-.22-.99-.35-1.55-.35h0c-.8,0-1.69.25-2.68.83-7.25,4.22-4.48,16.73-13.5,21.93-.82.47-1.53.69-2.14.69-1.34,0-2.25-1.02-2.93-2.56-2.12-4.78-2.06-14.62-6.24-14.62-.61,0-1.31.21-2.12.68-2.58,1.49-4.13,4.35-5.21,7.76-2.68,8.42-2.53,20.25-8.13,23.44-.78.44-1.45.64-2.03.64-1.33,0-2.21-1.03-2.91-2.49-1.73-3.63-2.34-9.95-5.96-9.95-.25,0-.51.03-.8.09-.54.12-1.14.36-1.8.75-8.91,5.18-13.46,21.91-13.46,21.91-.1,3.21.05,6.35.43,9.41l1.03-.6c-.05-.29-.1-.55-.16-1.12-.24-2.5-.33-5.03-.25-7.54.42-1.47,4.89-16.47,12.95-21.16.54-.32,1.05-.53,1.5-.63.2-.04.39-.07.56-.07,1.83,0,2.76,2.9,3.67,5.7.41,1.26.82,2.56,1.34,3.65.36.76,1.47,3.09,3.86,3.09.8,0,1.63-.25,2.55-.78,4.23-2.41,5.41-8.72,6.65-15.41.55-2.95,1.12-5.99,1.96-8.63,1.18-3.7,2.68-5.98,4.73-7.17.62-.36,1.16-.54,1.6-.54,1.9,0,2.78,4.11,3.55,7.74.47,2.22.96,4.52,1.72,6.25.93,2.12,2.24,3.19,3.89,3.19.83,0,1.71-.27,2.67-.83,5.11-2.95,6.7-8.1,8.11-12.64,1.19-3.86,2.32-7.5,5.4-9.29.78-.46,1.51-.69,2.15-.69h0c.2,0,.39.02.58.06.11,1.07.11,1.82.11,1.84l.05,9.49c.08,1.63.19,2.96.33,4.12.07.5.14.88.2,1.1l.94-.54" style="stroke-width: 0px;"/>
            </g>
            <g style="opacity: .4;">
              <path d="m129.77,297.38v4.77c-.09,3.26.04,6.35.43,9.41l71.69-41.39c-.21-1.41-.34-3.01-.42-4.73l-.05-9.44s0-14.1-8.96-8.93c-9.42,5.44-6.75,22.7-13.44,26.56-6.75,3.89-4.48-11.52-13.44-6.34-8.96,5.17-4.48,16.69-13.44,21.86-8.96,5.17-4.48-20.92-13.44-15.75-8.96,5.17-8.96,18.02-8.93,23.98Z" style="fill: #ff966c; stroke-width: 0px;"/>
            </g>
            <path d="m126.49,318.83c-.13,0-.25-.07-.32-.19-.1-.18-.04-.41.14-.51l76.26-43.66c.18-.1.41-.04.51.14.1.18.04.41-.14.51l-76.26,43.66c-.06.03-.12.05-.19.05Z" style="opacity: .4; stroke-width: 0px;"/>
            <g>
              <path d="m138.7,275.91c-.21,0-.37-.17-.37-.37v-.75c0-.21.17-.37.37-.37s.37.17.37.37v.75c0,.21-.17.37-.37.37Z" style="fill: #fff; stroke-width: 0px;"/>
              <path d="m138.92,304.59c-.19,0-.35-.15-.37-.34-.04-.48-.08-.96-.11-1.44-.01-.21.14-.38.35-.4.24-.03.38.14.4.35.03.48.07.95.11,1.42.02.21-.13.39-.34.41-.01,0-.02,0-.03,0Zm-.17-2.86c-.2,0-.37-.16-.37-.37,0-.41-.01-.89-.02-1.44,0-.21.16-.37.37-.38.22-.04.37.16.38.37,0,.54,0,1.02.02,1.43,0,.21-.16.38-.37.38h0Zm-.02-2.87c-.2,0-.37-.17-.37-.37v-1.44c0-.21.16-.37.36-.37h0c.21,0,.37.17.37.37v1.43c0,.21-.16.37-.36.38h0Zm-.01-2.87c-.21,0-.37-.17-.37-.37v-1.43c0-.21.16-.37.37-.37h0c.21,0,.37.17.37.37v1.43c0,.21-.16.37-.37.37h0Zm0-2.87c-.21,0-.37-.17-.37-.37v-1.43c0-.21.17-.37.37-.37s.37.17.37.37v1.43c0,.21-.17.37-.37.37Zm0-2.87c-.21,0-.37-.17-.37-.37v-1.43c0-.21.17-.37.37-.37s.37.17.37.37v1.43c0,.21-.17.37-.37.37Zm0-2.87c-.21,0-.37-.17-.37-.37v-1.43c0-.21.17-.37.37-.37s.37.17.37.37v1.43c0,.21-.17.37-.37.37Zm0-2.87h0c-.21,0-.37-.17-.37-.37v-1.43c0-.21.17-.37.37-.37s.37.17.37.37v1.44c0,.21-.17.37-.37.37Zm0-2.87h0c-.21,0-.37-.17-.37-.37v-1.43c0-.21.17-.37.37-.37s.37.17.37.37v1.44c0,.21-.17.37-.37.37Zm0-2.87c-.21,0-.37-.17-.37-.37v-1.43c0-.21.17-.38.38-.38h0c.21,0,.37.16.37.37v1.43c0,.21-.17.37-.38.37Z" style="fill: #fff; stroke-width: 0px;"/>
              <path d="m139.16,306.76c-.18,0-.34-.14-.37-.32-.03-.25-.06-.5-.09-.75-.02-.2.12-.39.33-.41.21-.02.39.12.41.33.03.24.06.49.09.73.03.2-.12.39-.32.42-.02,0-.03,0-.05,0Z" style="fill: #fff; stroke-width: 0px;"/>
            </g>
            <g>
              <path d="m192.47,248.18c-.21,0-.37-.17-.37-.37v-.75c0-.2.17-.37.37-.37h0c.21,0,.37.17.37.37v.75c0,.21-.17.37-.37.37Z" style="fill: #fff; stroke-width: 0px;"/>
              <path d="m192.69,276.86c-.19,0-.35-.15-.37-.34-.04-.48-.08-.96-.11-1.44-.01-.21.14-.38.35-.4.23-.01.38.14.4.35.03.48.07.95.11,1.42.02.21-.13.39-.34.4-.01,0-.02,0-.03,0Zm-.17-2.86c-.2,0-.37-.16-.37-.37,0-.41-.01-.89-.02-1.44,0-.21.16-.37.37-.38h0c.2,0,.37.17.37.37,0,.54,0,1.02.02,1.43,0,.21-.16.38-.37.38h0Zm-.03-2.87c-.2,0-.37-.17-.37-.37v-1.44c0-.21.16-.37.36-.37h0c.21,0,.37.17.37.37v1.43c0,.21-.16.37-.36.38h0Zm-.01-2.87c-.21,0-.37-.17-.37-.37v-1.43c0-.21.16-.37.37-.37h0c.21,0,.37.17.37.37v1.43c0,.21-.16.37-.37.37h0Zm0-2.87c-.21,0-.37-.17-.37-.37v-1.43c0-.21.17-.37.37-.37s.37.17.37.37v1.43c0,.21-.17.37-.37.37Zm0-2.87c-.21,0-.37-.17-.37-.37v-1.43c0-.21.17-.37.37-.37s.37.17.37.37v1.43c0,.21-.17.37-.37.37Zm0-2.87c-.21,0-.37-.17-.37-.37v-1.43c0-.21.17-.37.37-.37s.37.17.37.37v1.43c0,.21-.17.37-.37.37Zm0-2.87h0c-.21,0-.37-.17-.37-.37v-1.43c0-.21.17-.37.37-.37s.37.17.37.37v1.44c0,.21-.17.37-.37.37Zm0-2.87h0c-.21,0-.37-.17-.37-.37v-1.43c0-.21.17-.37.37-.37s.37.17.37.37v1.44c0,.21-.17.37-.37.37Zm0-2.87h0c-.21,0-.37-.17-.37-.37v-1.43c0-.21.17-.37.37-.37s.37.17.37.37v1.44c0,.21-.17.37-.37.37Z" style="fill: #fff; stroke-width: 0px;"/>
              <path d="m192.93,279.03c-.18,0-.34-.14-.37-.32-.03-.25-.06-.5-.09-.74-.02-.2.12-.39.32-.42.22-.03.39.12.42.32.03.25.06.49.09.73.03.2-.12.39-.32.42-.02,0-.03,0-.05,0Z" style="fill: #fff; stroke-width: 0px;"/>
            </g>
            <g>
              <path d="m165.58,269.7c-.21,0-.37-.17-.37-.37v-.75c0-.21.17-.37.37-.37s.37.17.37.37v.75c0,.21-.17.37-.37.37Z" style="fill: #fff; stroke-width: 0px;"/>
              <path d="m165.8,289.28c-.19,0-.35-.14-.37-.34-.04-.47-.08-.93-.11-1.41-.01-.21.14-.38.35-.4.24-.02.38.14.4.35.03.46.07.93.11,1.38.02.21-.13.39-.34.41-.01,0-.02,0-.03,0Zm-.18-2.79c-.2,0-.37-.16-.37-.37l-.02-1.4c0-.21.16-.38.37-.38h0c.2,0,.37.16.37.37l.02,1.4c0,.21-.16.37-.37.38h0Zm-.03-2.8c-.2,0-.37-.17-.37-.37v-1.4c0-.21.16-.37.36-.38h0c.21,0,.37.17.37.37v1.4c0,.21-.16.37-.36.38h0Zm-.01-2.8c-.21,0-.37-.17-.37-.37v-1.4c0-.21.16-.37.37-.37h0c.21,0,.37.17.37.37v1.4c0,.21-.16.37-.37.37h0Zm0-2.8c-.21,0-.37-.17-.37-.37v-1.4c0-.21.17-.37.37-.37s.37.17.37.37v1.4c0,.21-.17.37-.37.37Zm0-2.8h0c-.21,0-.37-.17-.37-.37v-1.4c0-.21.17-.37.37-.37s.37.17.37.37v1.4c0,.21-.17.37-.37.37Zm0-2.8h0c-.21,0-.37-.17-.37-.37v-1.4c0-.21.17-.37.37-.37s.37.17.37.37v1.4c0,.21-.17.37-.37.37Z" style="fill: #fff; stroke-width: 0px;"/>
              <path d="m166.04,291.41c-.18,0-.34-.14-.37-.32-.03-.25-.06-.5-.09-.75-.02-.2.12-.39.33-.41.2-.03.39.12.41.33.03.25.06.49.09.74.03.2-.12.39-.32.42-.02,0-.03,0-.05,0Z" style="fill: #fff; stroke-width: 0px;"/>
            </g>
            <path d="m138.7,271.92c.71-.41,1.29-.14,1.29.61s-.58,1.69-1.29,2.1c-.71.41-1.29.14-1.29-.61,0-.75.58-1.69,1.29-2.1Z" style="opacity: .4; stroke-width: 0px;"/>
            <path d="m165.58,265.7c.71-.41,1.29-.14,1.29.61s-.58,1.69-1.29,2.1c-.71.41-1.29.14-1.29-.61s.58-1.69,1.29-2.1Z" style="opacity: .4; stroke-width: 0px;"/>
            <path d="m192.46,245.71c.71-.41,1.29-.14,1.29.61s-.58,1.69-1.29,2.1c-.71.41-1.29.14-1.29-.61s.58-1.69,1.29-2.1Z" style="opacity: .4; stroke-width: 0px;"/>
            <path d="m126.98,280.61c.18-.1.24-.33.14-.51-.1-.18-.33-.24-.51-.14l-.97.56v-3.85l1.35-.78c.18-.1.24-.33.14-.51-.1-.18-.33-.24-.51-.14l-.98.56v-4.05c0-.21-.17-.37-.37-.37s-.37.17-.37.37v4.49l-1.35.78c-.18.1-.24.33-.14.51.07.12.19.19.32.19.06,0,.13-.02.19-.05l.98-.57v3.85l-1.35.78c-.18.1-.24.33-.14.51.07.12.19.19.32.19.06,0,.13-.02.19-.05l.98-.57v3.85l-1.35.78c-.18.1-.24.33-.14.51.07.12.19.19.32.19.06,0,.13-.02.19-.05l.98-.57v3.85l-1.35.78c-.18.1-.24.33-.14.51.07.12.19.19.32.19.06,0,.13-.02.19-.05l.98-.57v3.85l-1.35.78c-.18.1-.24.33-.14.51.07.12.19.19.32.19.06,0,.13-.02.19-.05l.98-.57v3.85l-1.36.78c-.18.1-.24.33-.14.51.07.12.19.19.32.19.06,0,.13-.02.19-.05l.98-.57v3.85l-1.36.78c-.18.1-.24.33-.14.51.07.12.19.19.32.19.06,0,.13-.02.19-.05l.98-.56c-.02,1.28-.01,2.56.04,3.82l-1.4.81c-.18.1-.24.33-.14.51.07.12.19.19.32.19.06,0,.13-.02.19-.05l1.07-.62c.08,1.4.2,2.79.37,4.16.02.19.19.33.37.33.02,0,.03,0,.05,0,.2-.03.35-.21.32-.42-.19-1.48-.32-2.97-.39-4.48l1.28-.74c.18-.1.24-.33.14-.51-.1-.18-.33-.24-.51-.14l-.94.54c-.05-1.27-.06-2.55-.03-3.83l1.34-.78c.18-.1.24-.33.14-.51-.1-.18-.33-.24-.51-.14l-.97.56v-3.85l1.34-.78c.18-.1.24-.33.14-.51-.1-.18-.33-.24-.51-.14l-.97.56v-3.85l1.34-.78c.18-.1.24-.33.14-.51-.1-.18-.33-.24-.51-.14l-.97.56v-3.85l1.34-.78c.18-.1.24-.33.14-.51-.1-.18-.33-.24-.51-.14l-.97.56v-3.85l1.35-.78c.18-.1.24-.33.14-.51-.1-.18-.33-.24-.51-.14l-.97.56v-3.85l1.35-.78Z" style="opacity: .4; stroke-width: 0px;"/>
          </g>
          <path d="m220.42,303.7l-71.63,41.35c-2.52,1.45-6.17,1.28-7.97-.57-1.8-1.86-1.07-4.68,1.45-6.14l71.61-41.34c2.52-1.45,5.87-.98,7.68.87,1.81,1.85,1.38,4.38-1.14,5.83Z" style="fill: #ff966c; stroke-width: 0px;"/>
          <g>
            <path d="m127.81,323.82c-.18,0-.36-.09-.46-.26-.15-.25-.06-.57.19-.72l80.68-46.58c.25-.15.57-.06.72.19.15.25.06.57-.19.72l-80.68,46.58c-.08.05-.17.07-.26.07Z" style="opacity: .4; stroke-width: 0px;"/>
            <path d="m129.46,328.18c-.18,0-.36-.09-.46-.26-.15-.25-.06-.57.19-.72l80.69-46.59c.25-.15.57-.06.72.19.15.25.06.57-.19.72l-80.69,46.59c-.08.05-.17.07-.26.07Z" style="opacity: .4; stroke-width: 0px;"/>
            <path d="m131.5,332.36c-.18,0-.36-.09-.46-.26-.15-.25-.06-.57.19-.72l80.7-46.59c.25-.15.57-.06.72.19.15.25.06.57-.19.72l-80.7,46.59c-.08.05-.17.07-.26.07Z" style="opacity: .4; stroke-width: 0px;"/>
            <path d="m133.9,336.34c-.18,0-.36-.09-.46-.26-.15-.25-.06-.57.19-.72l80.71-46.6c.25-.15.57-.06.72.19.15.25.06.57-.19.72l-80.71,46.6c-.08.05-.17.07-.26.07Z" style="opacity: .4; stroke-width: 0px;"/>
          </g>
        </g>
      </g>
      <g>
        <path d="m204.34,259.18l66.39-38.32c2.52-1.45,6.53-2.32,8.78-1.41,2.26.91,1.83,3.27-.69,4.72l-67.16,38.77c-2.52,1.45-6.1,1.61-8.1.52-2.01-1.08-1.73-2.83.79-4.29Z" style="fill: #ff966c; stroke-width: 0px;"/>
        <path d="m212.04,269.72c-.18,0-.36-.09-.46-.26-.15-.25-.06-.57.19-.72l76.52-44.17c.25-.15.57-.06.72.19.15.25.06.57-.19.72l-76.52,44.17c-.08.05-.17.07-.26.07Z" style="opacity: .4; stroke-width: 0px;"/>
        <path d="m215.21,273.14c-.18,0-.36-.09-.46-.26-.15-.25-.06-.57.19-.72l76.64-44.24c.25-.15.57-.06.72.19.15.25.06.57-.19.72l-76.64,44.24c-.08.05-.17.07-.26.07Z" style="opacity: .4; stroke-width: 0px;"/>
        <path d="m227.89,312.26h0c-.21,0-.37-.17-.37-.37v-4.06q.03-3.06-.06-5.12l-.02-.34c-.29-4.95-1.21-9.61-2.73-13.84-1.33-4.01-3.59-7.95-6.9-12.05-.13-.16-.1-.39.06-.52.16-.13.4-.1.52.06,3.37,4.17,5.66,8.19,7.02,12.28,1.54,4.28,2.47,9.01,2.77,14.04l.02.35q.09,2.08.08,5.16v4.06c-.01.21-.18.37-.39.37Z" style="opacity: .4; stroke-width: 0px;"/>
        <path d="m227.13,280.33c-.34-.6-.71-1.19-1.1-1.76-.41-.6-.25-1.37.38-1.73l29.24-16.88c.63-.36,1.48-.18,1.86.44.35.58.68,1.18,1.01,1.81.33.65.07,1.47-.56,1.84l-29.08,16.79c-.63.36-1.4.13-1.76-.5Z" style="fill: #ff966c; stroke-width: 0px;"/>
        <path d="m229.97,287.06c.22.67.42,1.34.6,1.99.19.7.84.98,1.47.62l69.37-40.04c.63-.36,1-1.23.81-1.93-.19-.69-.39-1.36-.59-2-.22-.69-.93-.95-1.56-.59l-69.39,40.05c-.63.36-.94,1.21-.72,1.9Z" style="fill: #ff966c; stroke-width: 0px;"/>
        <path d="m229.97,287.06c.22.67.42,1.34.6,1.99.19.7.84.98,1.47.62l69.37-40.04c.63-.36,1-1.23.81-1.93-.19-.69-.39-1.36-.59-2-.22-.69-.93-.95-1.56-.59l-69.39,40.05c-.63.36-.94,1.21-.72,1.9Z" style="fill: #fff; opacity: .7; stroke-width: 0px;"/>
        <path d="m231.99,296.3c.09.74.17,1.46.22,2.15.06.72.59,1.02,1.22.66l47-27.13c.63-.36,1.11-1.25,1.05-1.97-.06-.72-.13-1.44-.22-2.15-.09-.72-.69-1.01-1.32-.65l-46.98,27.12c-.63.36-1.06,1.24-.97,1.96Z" style="fill: #ff966c; stroke-width: 0px;"/>
        <path d="m231.99,296.3c.09.74.17,1.46.22,2.15.06.72.59,1.02,1.22.66l47-27.13c.63-.36,1.11-1.25,1.05-1.97-.06-.72-.13-1.44-.22-2.15-.09-.72-.69-1.01-1.32-.65l-46.98,27.12c-.63.36-1.06,1.24-.97,1.96Z" style="opacity: .15; stroke-width: 0px;"/>
        <path d="m232.37,305.88v2.11c0,.73.51,1.02,1.14.66l20.12-11.61c.63-.36,1.14-1.25,1.14-1.97v-2.11c0-.73-.51-1.02-1.14-.66l-20.12,11.61c-.63.36-1.14,1.25-1.14,1.97Z" style="fill: #ff966c; stroke-width: 0px;"/>
        <path d="m232.37,305.88v2.11c0,.73.51,1.02,1.14.66l20.12-11.61c.63-.36,1.14-1.25,1.14-1.97v-2.11c0-.73-.51-1.02-1.14-.66l-20.12,11.61c-.63.36-1.14,1.25-1.14,1.97Z" style="fill: #fff; opacity: .5; stroke-width: 0px;"/>
        <path d="m304.05,272.47c-.21,0-.37.17-.37.37v1.81l-5.36,3.1v-1.35c0-.21-.17-.37-.37-.37s-.37.17-.37.37v1.78l-5.36,3.1v-1.33c0-.21-.17-.37-.37-.37s-.37.17-.37.37v1.76l-5.36,3.1v-1.31c0-.21-.17-.37-.37-.37s-.37.17-.37.37v1.74l-5.36,3.1v-1.28c0-.21-.17-.37-.37-.37s-.37.17-.37.37v1.71l-5.36,3.1v-1.26c0-.21-.17-.37-.37-.37s-.37.17-.37.37v1.69l-5.36,3.1v-1.23c0-.21-.17-.37-.37-.37s-.37.17-.37.37v1.66l-5.36,3.1v-1.21c0-.21-.17-.37-.37-.37s-.37.17-.37.37v1.64l-5.36,3.1v-1.18c0-.21-.17-.37-.37-.37s-.37.17-.37.37v1.62l-5.36,3.1v-1.16c0-.21-.17-.37-.37-.37s-.37.17-.37.37v1.59l-5.36,3.1v-1.14c0-.21-.17-.37-.37-.37s-.37.17-.37.37v1.57l-5.36,3.1v-1.11c0-.21-.17-.37-.37-.37s-.37.17-.37.37v1.54l-4.65,2.69c-.18.1-.24.33-.14.51.07.12.19.19.32.19.06,0,.13-.02.19-.05l4.28-2.47v1.51c0,.21.17.37.37.37s.37-.17.37-.37v-1.95l5.36-3.1v1.49c0,.21.17.37.37.37s.37-.17.37-.37v-1.92l5.36-3.1v1.47c0,.21.17.37.37.37s.37-.17.37-.37v-1.9l5.36-3.1v1.44c0,.21.17.37.37.37s.37-.17.37-.37v-1.87l5.36-3.1v1.42c0,.21.17.37.37.37s.37-.17.37-.37v-1.85l5.36-3.1v1.39c0,.21.17.37.37.37s.37-.17.37-.37v-1.82l5.36-3.1v1.37c0,.21.17.37.37.37s.37-.17.37-.37v-1.8l5.36-3.1v1.35c0,.21.17.37.37.37s.37-.17.37-.37v-1.78l5.36-3.1v1.32c0,.21.17.37.37.37s.37-.17.37-.37v-1.75l5.36-3.1v1.3c0,.21.17.37.37.37s.37-.17.37-.37v-1.73l5.36-3.1v1.27c0,.21.17.37.37.37s.37-.17.37-.37v-1.7l5.36-3.1v1.25c0,.21.17.37.37.37s.37-.17.37-.37v-3.92c0-.21-.17-.37-.37-.37Z" style="opacity: .4; stroke-width: 0px;"/>
        <g>
          <g>
            <path d="m245.25,321.66c-1.23.26-2.55.78-3.91,1.58-7.42,4.36-13.43,15.26-13.43,24.36,0,.24,0,.47.01.71l13.41-6.14,3.92-20.51Z" style="fill: #ff966c; stroke-width: 0px;"/>
            <path d="m245.25,321.66l-3.92,20.51,13.3-7.72c.09-.83.15-1.66.15-2.48,0-7.48-4.01-11.46-9.53-10.31Z" style="fill: #ff966c; stroke-width: 0px;"/>
            <path d="m252.95,341.37c.85-2.28,1.44-4.63,1.68-6.92l-13.3,7.72,11.61-.8Z" style="fill: #ff966c; stroke-width: 0px;"/>
            <path d="m227.92,348.3c.31,8.6,6.2,12.19,13.42,8.02,4.96-2.86,9.29-8.67,11.6-14.96l-11.61.8-13.41,6.14Z" style="fill: #ff966c; stroke-width: 0px;"/>
          </g>
          <g>
            <path d="m245.25,321.66l-3.92,20.51,13.3-7.72c.09-.83.15-1.66.15-2.48,0-7.48-4.01-11.46-9.53-10.31Z" style="fill: #fff; opacity: .7; stroke-width: 0px;"/>
            <path d="m252.95,341.37c.85-2.28,1.44-4.63,1.68-6.92l-13.3,7.72,11.61-.8Z" style="opacity: .15; stroke-width: 0px;"/>
            <path d="m227.92,348.3c.31,8.6,6.2,12.19,13.42,8.02,4.96-2.86,9.29-8.67,11.6-14.96l-11.61.8-13.41,6.14Z" style="fill: #fff; opacity: .5; stroke-width: 0px;"/>
          </g>
          <g>
            <path d="m245.25,321.66c-1.23.26-2.55.78-3.91,1.58-7.42,4.36-13.43,15.26-13.43,24.36,0,.24,0,.47.01.71l13.41-6.14,3.92-20.51Z" style="fill: none; stroke: #fff; stroke-linecap: round; stroke-linejoin: round; stroke-width: 1.05px;"/>
            <path d="m245.25,321.66l-3.92,20.51,13.3-7.72c.09-.83.15-1.66.15-2.48,0-7.48-4.01-11.46-9.53-10.31Z" style="fill: none; stroke: #fff; stroke-linecap: round; stroke-linejoin: round; stroke-width: 1.05px;"/>
            <path d="m252.95,341.37c.85-2.28,1.44-4.63,1.68-6.92l-13.3,7.72,11.61-.8Z" style="fill: none; stroke: #fff; stroke-linecap: round; stroke-linejoin: round; stroke-width: 1.05px;"/>
            <path d="m227.92,348.3c.31,8.6,6.2,12.19,13.42,8.02,4.96-2.86,9.29-8.67,11.6-14.96l-11.61.8-13.41,6.14Z" style="fill: none; stroke: #fff; stroke-linecap: round; stroke-linejoin: round; stroke-width: 1.05px;"/>
          </g>
        </g>
        <g>
          <path d="m284.54,299.96c-4.37,5.26-7.36,12.61-7.36,19.08,0,2.94.62,5.35,1.69,7.12l11.74-14.89-6.07-11.31Z" style="fill: #ff966c; stroke-width: 0px;"/>
          <path d="m296.68,292.92c-1.82-.08-3.88.46-6.06,1.73-2.19,1.26-4.25,3.11-6.07,5.32l6.07,11.31,6.06-18.35Z" style="fill: #ff966c; stroke-width: 0px;"/>
          <path d="m302.8,297.22c-1.27-2.65-3.44-4.17-6.13-4.3l-6.06,18.35,12.19-14.05Z" style="fill: #ff966c; stroke-width: 0px;"/>
          <path d="m302.8,297.22l-12.19,14.05-11.74,14.89c2.31,3.75,6.7,4.65,11.74,1.74,7.42-4.28,13.44-15.2,13.44-24.39,0-2.51-.45-4.62-1.25-6.28Z" style="fill: #ff966c; stroke-width: 0px;"/>
        </g>
        <g>
          <path d="m296.68,292.92c-1.82-.08-3.88.46-6.06,1.73-2.19,1.26-4.25,3.11-6.07,5.32l6.07,11.31,6.06-18.35Z" style="fill: #fff; opacity: .7; stroke-width: 0px;"/>
          <path d="m302.8,297.22c-1.27-2.65-3.44-4.17-6.13-4.3l-6.06,18.35,12.19-14.05Z" style="opacity: .15; stroke-width: 0px;"/>
          <path d="m302.8,297.22l-12.19,14.05-11.74,14.89c2.31,3.75,6.7,4.65,11.74,1.74,7.42-4.28,13.44-15.2,13.44-24.39,0-2.51-.45-4.62-1.25-6.28Z" style="fill: #fff; opacity: .5; stroke-width: 0px;"/>
        </g>
        <g>
          <path d="m284.54,299.96c-4.37,5.26-7.36,12.61-7.36,19.08,0,2.94.62,5.35,1.69,7.12l11.74-14.89-6.07-11.31Z" style="fill: none; stroke: #fff; stroke-linecap: round; stroke-linejoin: round; stroke-width: 1.05px;"/>
          <path d="m296.68,292.92c-1.82-.08-3.88.46-6.06,1.73-2.19,1.26-4.25,3.11-6.07,5.32l6.07,11.31,6.06-18.35Z" style="fill: none; stroke: #fff; stroke-linecap: round; stroke-linejoin: round; stroke-width: 1.05px;"/>
          <path d="m302.8,297.22c-1.27-2.65-3.44-4.17-6.13-4.3l-6.06,18.35,12.19-14.05Z" style="fill: none; stroke: #fff; stroke-linecap: round; stroke-linejoin: round; stroke-width: 1.05px;"/>
          <path d="m302.8,297.22l-12.19,14.05-11.74,14.89c2.31,3.75,6.7,4.65,11.74,1.74,7.42-4.28,13.44-15.2,13.44-24.39,0-2.51-.45-4.62-1.25-6.28Z" style="fill: none; stroke: #fff; stroke-linecap: round; stroke-linejoin: round; stroke-width: 1.05px;"/>
        </g>
        <g>
          <path d="m260.4,312.13l2.2-1.27c.63-.36,1.14-.07,1.14.66v2.11c0,.73-.51,1.61-1.14,1.97l-2.2,1.27c-.63.36-1.14.07-1.14-.66v-2.11c0-.73.51-1.61,1.14-1.97Z" style="fill: #ff966c; stroke-width: 0px;"/>
          <g>
            <path d="m260.4,321.61l2.2-1.27c.63-.36,1.14-.07,1.14.66v2.11c0,.73-.51,1.61-1.14,1.97l-2.2,1.27c-.63.36-1.14.07-1.14-.66v-2.11c0-.73.51-1.61,1.14-1.97Z" style="fill: #ff966c; stroke-width: 0px;"/>
            <path d="m260.4,321.61l2.2-1.27c.63-.36,1.14-.07,1.14.66v2.11c0,.73-.51,1.61-1.14,1.97l-2.2,1.27c-.63.36-1.14.07-1.14-.66v-2.11c0-.73.51-1.61,1.14-1.97Z" style="fill: #fff; opacity: .7; stroke-width: 0px;"/>
          </g>
          <g>
            <path d="m260.4,331.1l2.2-1.27c.63-.36,1.14-.07,1.14.66v2.11c0,.73-.51,1.61-1.14,1.97l-2.2,1.27c-.63.36-1.14.07-1.14-.66v-2.11c0-.73.51-1.61,1.14-1.97Z" style="fill: #ff966c; stroke-width: 0px;"/>
            <path d="m260.4,331.1l2.2-1.27c.63-.36,1.14-.07,1.14.66v2.11c0,.73-.51,1.61-1.14,1.97l-2.2,1.27c-.63.36-1.14.07-1.14-.66v-2.11c0-.73.51-1.61,1.14-1.97Z" style="opacity: .15; stroke-width: 0px;"/>
          </g>
          <g>
            <path d="m260.4,340.58l2.2-1.27c.63-.36,1.14-.07,1.14.66v2.11c0,.73-.51,1.61-1.14,1.97l-2.2,1.27c-.63.36-1.14.07-1.14-.66v-2.11c0-.73.51-1.61,1.14-1.97Z" style="fill: #ff966c; stroke-width: 0px;"/>
            <path d="m260.4,340.58l2.2-1.27c.63-.36,1.14-.07,1.14.66v2.11c0,.73-.51,1.61-1.14,1.97l-2.2,1.27c-.63.36-1.14.07-1.14-.66v-2.11c0-.73.51-1.61,1.14-1.97Z" style="fill: #fff; opacity: .5; stroke-width: 0px;"/>
          </g>
        </g>
        <path d="m266,311.91c-.26,0-.51-.13-.65-.37-.21-.36-.08-.81.27-1.02l6.7-3.87c.36-.21.81-.08,1.02.27.21.36.08.81-.27,1.02l-6.7,3.87c-.12.07-.25.1-.37.1Z" style="opacity: .4; stroke-width: 0px;"/>
        <path d="m265.9,321.49c-.26,0-.51-.13-.65-.37-.21-.36-.08-.81.27-1.02l6.7-3.87c.36-.21.81-.08,1.02.27.21.36.08.81-.27,1.02l-6.7,3.87c-.12.07-.25.1-.37.1Z" style="opacity: .4; stroke-width: 0px;"/>
        <path d="m265.79,331.07c-.26,0-.51-.13-.65-.37-.21-.36-.08-.81.27-1.02l6.7-3.87c.36-.2.81-.08,1.02.27.21.36.08.81-.27,1.02l-6.7,3.87c-.12.07-.25.1-.37.1Z" style="opacity: .4; stroke-width: 0px;"/>
        <path d="m265.69,340.65c-.26,0-.51-.13-.65-.37-.21-.36-.08-.81.27-1.02l6.7-3.86c.36-.2.81-.08,1.02.27.21.36.08.81-.27,1.02l-6.7,3.86c-.12.07-.25.1-.37.1Z" style="opacity: .4; stroke-width: 0px;"/>
        <g>
          <path d="m228.75,374.34c-.26,0-.51-.13-.65-.37-.21-.36-.08-.81.27-1.02l31.36-18.1c.36-.2.81-.08,1.02.27.21.36.08.81-.27,1.02l-31.36,18.1c-.12.07-.25.1-.37.1Z" style="opacity: .4; stroke-width: 0px;"/>
          <path d="m229.76,378.99c-.26,0-.51-.13-.65-.37-.21-.36-.08-.81.27-1.02l31.36-18.1c.36-.21.81-.08,1.02.27.21.36.08.81-.27,1.02l-31.36,18.1c-.12.07-.25.1-.37.1Z" style="opacity: .4; stroke-width: 0px;"/>
          <path d="m231.2,383.48c-.26,0-.51-.13-.65-.37-.21-.36-.08-.81.27-1.02l31.36-18.1c.36-.21.81-.08,1.02.27.21.36.08.81-.27,1.02l-31.36,18.1c-.12.07-.25.1-.37.1Z" style="opacity: .4; stroke-width: 0px;"/>
        </g>
        <g>
          <path d="m277.97,345.94c-.26,0-.51-.13-.65-.37-.21-.36-.08-.81.27-1.02l31.36-18.1c.36-.2.81-.08,1.02.27.21.36.08.81-.27,1.02l-31.36,18.1c-.12.07-.25.1-.37.1Z" style="opacity: .4; stroke-width: 0px;"/>
          <path d="m278.98,350.58c-.26,0-.51-.13-.65-.37-.21-.36-.08-.81.27-1.02l31.36-18.1c.36-.21.81-.08,1.02.27.21.36.08.81-.27,1.02l-31.36,18.1c-.12.07-.25.1-.37.1Z" style="opacity: .4; stroke-width: 0px;"/>
          <path d="m280.42,355.07c-.26,0-.51-.13-.65-.37-.21-.36-.08-.81.27-1.02l31.36-18.1c.36-.21.81-.08,1.02.27.21.36.08.81-.27,1.02l-31.36,18.1c-.12.07-.25.1-.37.1Z" style="opacity: .4; stroke-width: 0px;"/>
        </g>
        <path d="m239.81,388.57l71.49-41.26c2.52-1.45,5.63-.81,7.16,1.28,1.54,2.09.91,4.84-1.61,6.29l-71.52,41.27c-2.52,1.45-5.98,1.07-7.51-1.03-1.53-2.1-.54-5.11,1.98-6.56Z" style="fill: #ff966c; stroke-width: 0px;"/>
        <g>
          <path d="m251.61,408.78c-.26,0-.51-.13-.65-.37-.21-.36-.08-.81.27-1.02l31.36-18.1c.36-.2.81-.08,1.02.27.21.36.08.81-.27,1.02l-31.36,18.1c-.12.07-.25.1-.37.1Z" style="opacity: .4; stroke-width: 0px;"/>
          <path d="m247.68,406.02c-.26,0-.51-.13-.65-.37-.21-.36-.08-.81.27-1.02l31.36-18.09c.36-.2.81-.08,1.02.27.21.36.08.81-.27,1.02l-31.36,18.09c-.12.07-.25.1-.37.1Z" style="opacity: .4; stroke-width: 0px;"/>
          <path d="m255.73,411.22c-.26,0-.51-.13-.65-.37-.21-.36-.08-.81.27-1.02l31.36-18.1c.36-.2.81-.08,1.02.27.21.36.08.81-.27,1.02l-31.36,18.1c-.12.07-.25.1-.37.1Z" style="opacity: .4; stroke-width: 0px;"/>
        </g>
        <g>
          <path d="m296.38,382.95c-.26,0-.51-.13-.65-.37-.21-.36-.08-.81.27-1.02l31.36-18.1c.36-.2.81-.08,1.02.27.21.36.08.81-.27,1.02l-31.36,18.1c-.12.07-.25.1-.37.1Z" style="opacity: .4; stroke-width: 0px;"/>
          <path d="m292.45,380.18c-.26,0-.51-.13-.65-.37-.21-.36-.08-.81.27-1.02l31.36-18.09c.36-.2.81-.08,1.02.27.21.36.08.81-.27,1.02l-31.36,18.09c-.12.07-.25.1-.37.1Z" style="opacity: .4; stroke-width: 0px;"/>
          <path d="m300.5,385.39c-.26,0-.51-.13-.65-.37-.21-.36-.08-.81.27-1.02l31.36-18.1c.36-.2.81-.08,1.02.27.21.36.08.81-.27,1.02l-31.36,18.1c-.12.07-.25.1-.37.1Z" style="opacity: .4; stroke-width: 0px;"/>
        </g>
        <g>
          <g>
            <path d="m300.97,407.95c-6.81-3.93-18.34-3.65-25.77.64-7.42,4.28-7.92,10.94-1.11,14.87,6.81,3.93,18.34,3.65,25.77-.64,7.42-4.28,7.92-10.94,1.11-14.87Zm-4.63,12.84c-5.3,3.06-13.54,3.26-18.4.45-4.86-2.81-4.51-7.57.79-10.62,5.3-3.06,13.54-3.26,18.4-.45,4.86,2.81,4.51,7.57-.79,10.62Z" style="fill: #ff966c; stroke-width: 0px;"/>
            <path d="m282.25,412.65c3.18-1.84,8.12-1.96,11.04-.27,2.92,1.69,2.7,4.54-.48,6.37s-8.12,1.96-11.04.27-2.7-4.54.48-6.37Z" style="fill: #ff966c; stroke-width: 0px;"/>
          </g>
          <path d="m282.25,412.65c3.18-1.84,8.12-1.96,11.04-.27,2.92,1.69,2.7,4.54-.48,6.37s-8.12,1.96-11.04.27-2.7-4.54.48-6.37Z" style="opacity: .5; stroke-width: 0px;"/>
          <path d="m300.97,407.95c-6.81-3.93-18.34-3.65-25.77.64-7.42,4.28-7.92,10.94-1.11,14.87,6.81,3.93,18.34,3.65,25.77-.64,7.42-4.28,7.92-10.94,1.11-14.87Zm-4.63,12.84c-5.3,3.06-13.54,3.26-18.4.45-4.86-2.81-4.51-7.57.79-10.62,5.3-3.06,13.54-3.26,18.4-.45,4.86,2.81,4.51,7.57-.79,10.62Z" style="opacity: .15; stroke-width: 0px;"/>
          <g>
            <path d="m282.07,405.98l1.56,2.78c2.99-.69,6.24-.75,9.12-.17l2.1-2.85c-4.03-.82-8.58-.73-12.78.24Z" style="fill: #ff966c; stroke-width: 0px;"/>
            <path d="m282.07,405.98l1.56,2.78c2.99-.69,6.24-.75,9.12-.17l2.1-2.85c-4.03-.82-8.58-.73-12.78.24Z" style="fill: #fff; opacity: .7; stroke-width: 0px;"/>
          </g>
          <path d="m288.47,404.6s-.03,0-.05,0c-.41-.02-.72-.38-.7-.79l.2-3.42,13.79-7.96c.36-.2.81-.08,1.02.27.21.36.08.81-.27,1.02l-13.09,7.55-.16,2.62c-.02.4-.35.7-.74.7Z" style="opacity: .4; stroke-width: 0px;"/>
        </g>
        <g>
          <g>
            <path d="m341.28,384.7c-6.81-3.93-18.34-3.65-25.77.64-7.42,4.28-7.92,10.94-1.11,14.87,6.81,3.93,18.34,3.65,25.77-.64,7.42-4.28,7.92-10.94,1.11-14.87Zm-4.63,12.84c-5.3,3.06-13.54,3.26-18.4.45-4.86-2.81-4.51-7.57.79-10.62,5.3-3.06,13.54-3.26,18.4-.45,4.86,2.81,4.51,7.57-.79,10.62Z" style="fill: #ff966c; stroke-width: 0px;"/>
            <path d="m322.55,389.4c3.18-1.84,8.12-1.96,11.04-.27,2.92,1.69,2.7,4.54-.48,6.37s-8.12,1.96-11.04.27-2.7-4.54.48-6.37Z" style="fill: #ff966c; stroke-width: 0px;"/>
          </g>
          <path d="m322.55,389.4c3.18-1.84,8.12-1.96,11.04-.27,2.92,1.69,2.7,4.54-.48,6.37s-8.12,1.96-11.04.27-2.7-4.54.48-6.37Z" style="opacity: .5; stroke-width: 0px;"/>
          <path d="m341.28,384.7c-6.81-3.93-18.34-3.65-25.77.64-7.42,4.28-7.92,10.94-1.11,14.87,6.81,3.93,18.34,3.65,25.77-.64,7.42-4.28,7.92-10.94,1.11-14.87Zm-4.63,12.84c-5.3,3.06-13.54,3.26-18.4.45-4.86-2.81-4.51-7.57.79-10.62,5.3-3.06,13.54-3.26,18.4-.45,4.86,2.81,4.51,7.57-.79,10.62Z" style="opacity: .15; stroke-width: 0px;"/>
          <g>
            <path d="m341.28,384.7c-5.75-3.32-14.87-3.62-22.04-1.06l2.46,2.52c5.12-1.83,11.63-1.62,15.74.75.75.43,1.36.92,1.87,1.43l4.59-1.64c-.71-.72-1.56-1.4-2.62-2.01Z" style="fill: #ff966c; stroke-width: 0px;"/>
            <path d="m341.28,384.7c-5.75-3.32-14.87-3.62-22.04-1.06l2.46,2.52c5.12-1.83,11.63-1.62,15.74.75.75.43,1.36.92,1.87,1.43l4.59-1.64c-.71-.72-1.56-1.4-2.62-2.01Z" style="fill: #fff; opacity: .7; stroke-width: 0px;"/>
          </g>
          <path d="m328.88,381.27s-.03,0-.05,0c-.41-.02-.72-.38-.7-.79l.2-3.43,13.79-7.96c.36-.2.81-.08,1.02.27.21.36.08.81-.27,1.02l-13.09,7.55-.16,2.62c-.02.4-.35.7-.74.7Z" style="opacity: .4; stroke-width: 0px;"/>
        </g>
        <g>
          <path d="m292.71,432.58c-.26,0-.51-.13-.65-.37-.21-.36-.08-.81.27-1.02l76.15-43.94c.36-.2.81-.08,1.02.27.21.36.08.81-.27,1.02l-76.15,43.94c-.12.07-.25.1-.37.1Z" style="opacity: .4; stroke-width: 0px;"/>
          <path d="m296.83,434.95c-.26,0-.51-.13-.65-.37-.21-.36-.08-.81.27-1.02l76.15-43.94c.36-.2.81-.08,1.02.27.21.36.08.81-.27,1.02l-76.15,43.94c-.12.07-.25.1-.37.1Z" style="opacity: .4; stroke-width: 0px;"/>
          <path d="m300.94,437.32c-.26,0-.51-.13-.65-.37-.21-.36-.08-.81.27-1.02l76.15-43.94c.36-.2.81-.08,1.02.27.21.36.08.81-.27,1.02l-76.15,43.94c-.12.07-.25.1-.37.1Z" style="opacity: .4; stroke-width: 0px;"/>
        </g>
      </g>
    </g>
  </g>
</svg>