<svg xmlns="http://www.w3.org/2000/svg" width="263.604" height="273.664" viewBox="0 0 263.604 273.664">
  <g id="Group_28" data-name="Group 28" transform="translate(-3489 -695)">
    <g id="Mobile_note_list-pana" data-name="Mobile note list-pana" transform="translate(3489 695)">
      <g id="freepik--background-complete--inject-62" transform="translate(0 0)">
        <rect id="Rectangle_256" data-name="Rectangle 256" width="45.97" height="133.426" transform="translate(24.669 128.632)" fill="#e0e0e0"/>
        <rect id="Rectangle_257" data-name="Rectangle 257" width="50.328" height="133.426" transform="translate(50.328 262.064) rotate(180)" fill="#f5f5f5"/>
        <path id="Path_1070" data-name="Path 1070" d="M1.284,0H14.078a1.284,1.284,0,0,1,1.29,1.3v.472H0V1.3A1.284,1.284,0,0,1,1.284,0Z" transform="translate(32.346 233.306) rotate(180)" fill="#e0e0e0"/>
        <path id="Path_1071" data-name="Path 1071" d="M31.154,420.79V428.2c0,4.776-.036,11.689-.054,20.131v.1h.1l44.848.03H76.2V420.73h-.119l-32.358.03H34.545l9.26.042,32.28.09-.113-.119v27.5l.125-.125H31.249l.1.1c0-8.412-.036-15.289-.054-20.066v-6.979C31.291,420.873,31.154,420.79,31.154,420.79Z" transform="translate(-28.443 -189.239)" fill="#e0e0e0"/>
        <rect id="Rectangle_258" data-name="Rectangle 258" width="13.355" height="3.606" transform="translate(30.937 241.885) rotate(180)" fill="#e0e0e0"/>
        <path id="Path_1072" data-name="Path 1072" d="M1.284,0H14.078a1.284,1.284,0,0,1,1.284,1.284v.472H0V1.284A1.284,1.284,0,0,1,1.284,0Z" transform="translate(32.036 198.823) rotate(180)" fill="#e0e0e0"/>
        <path id="Path_1073" data-name="Path 1073" d="M29.824,363.008v7.421c0,4.776-.03,11.684-.054,20.131v.1h.1l44.853.03h.149V362.93h-.191l-32.358.03h-9.17l9.266.036,32.28.09-.119-.119v27.51l.1-.042H29.824l.1.1c0-8.418-.042-15.289-.054-20.072v-6.979A1.644,1.644,0,0,0,29.824,363.008Z" transform="translate(-27.907 -165.946)" fill="#e0e0e0"/>
        <rect id="Rectangle_259" data-name="Rectangle 259" width="13.355" height="3.606" transform="translate(31.033 207.187) rotate(180)" fill="#e0e0e0"/>
        <path id="Path_1074" data-name="Path 1074" d="M1.284,0H14.078a1.284,1.284,0,0,1,1.26,1.284v.472H0V1.284A1.284,1.284,0,0,1,1.284,0Z" transform="translate(31.874 134.029) rotate(180)" fill="#e0e0e0"/>
        <path id="Path_1075" data-name="Path 1075" d="M30.364,254.467v7.415c0,4.776-.03,11.69-.054,20.131v.1H75.42V254.36H33.755l9.266.042,32.28.084-.119-.113v27.5l.125-.125H30.453l.1.1c0-8.418-.042-15.289-.054-20.066v-6.979C30.5,254.473,30.364,254.467,30.364,254.467Z" transform="translate(-28.125 -122.194)" fill="#e0e0e0"/>
        <rect id="Rectangle_260" data-name="Rectangle 260" width="13.355" height="3.606" transform="translate(31.11 141.748) rotate(180)" fill="#e0e0e0"/>
        <path id="Path_1076" data-name="Path 1076" d="M1.284,0H14.078a1.284,1.284,0,0,1,1.26,1.29v.472H0V1.29A1.284,1.284,0,0,1,1.284,0Z" transform="translate(31.874 165.826) rotate(180)" fill="#e0e0e0"/>
        <path id="Path_1077" data-name="Path 1077" d="M30.364,307.722v7.421c0,4.776-.03,11.689-.054,20.131v.1H75.42V307.62H33.7l9.266.036,32.28.09-.119-.119v27.51l.125-.131H30.394l.1.1c0-8.418-.042-15.289-.054-20.072v-6.973C30.441,307.727,30.364,307.722,30.364,307.722Z" transform="translate(-28.125 -143.657)" fill="#e0e0e0"/>
        <rect id="Rectangle_261" data-name="Rectangle 261" width="13.355" height="3.606" transform="translate(31.11 173.545) rotate(180)" fill="#e0e0e0"/>
        <rect id="Rectangle_262" data-name="Rectangle 262" width="21.558" height="42.74" transform="translate(166.226 39.492)" fill="#f5f5f5"/>
        <rect id="Rectangle_263" data-name="Rectangle 263" width="23.295" height="42.74" transform="translate(188.614 39.492)" fill="#f5f5f5"/>
        <rect id="Rectangle_264" data-name="Rectangle 264" width="23.295" height="41.295" transform="translate(188.614 85.217)" fill="#f5f5f5"/>
        <rect id="Rectangle_267" data-name="Rectangle 267" width="21.558" height="41.295" transform="translate(166.226 85.217)" fill="#f5f5f5"/>
        <rect id="Rectangle_269" data-name="Rectangle 269" width="21.558" height="37.212" transform="translate(166.226 127.253)" fill="#f5f5f5"/>
        <path id="Path_1079" data-name="Path 1079" d="M326.638,71.738V33.822h.83V71.738h23.3V32.98H305.08V71.738Z" transform="translate(-138.854 -32.98)" fill="#f5f5f5"/>
        <rect id="Rectangle_272" data-name="Rectangle 272" width="23.295" height="37.212" transform="translate(188.614 127.253)" fill="#f5f5f5"/>
        <path id="Path_1080" data-name="Path 1080" d="M316.57,442.99V460.9h55.068V442.99Z" transform="translate(-143.484 -198.209)" fill="#f5f5f5"/>
        <path id="Path_1081" data-name="Path 1081" d="M312.7,434.61v5h59.307v-5H312.7Z" transform="translate(-141.925 -194.832)" fill="#e0e0e0"/>
        <path id="Path_1082" data-name="Path 1082" d="M361.592,457.523h27.725v-17.91h1.928v-5H360.44v4.543Z" transform="translate(-161.164 -194.832)" fill="#e0e0e0"/>
        <rect id="Rectangle_274" data-name="Rectangle 274" width="11.17" height="2.693" transform="translate(180.787 247.67)" fill="#e0e0e0"/>
        <rect id="Rectangle_275" data-name="Rectangle 275" width="14.34" height="5.69" transform="translate(179.354 253.736)" fill="#fff"/>
        <path id="Path_1083" data-name="Path 1083" d="M330.76,404.65v17.91h55.068V404.65Z" transform="translate(-149.203 -182.759)" fill="#f5f5f5"/>
        <path id="Path_1084" data-name="Path 1084" d="M326.89,396.27v5H386.2v-5H326.89Z" transform="translate(-147.643 -179.382)" fill="#e0e0e0"/>
        <path id="Path_1085" data-name="Path 1085" d="M375.782,419.183h27.725v-17.91h1.928v-5H374.63v4.543Z" transform="translate(-166.882 -179.382)" fill="#e0e0e0"/>
        <rect id="Rectangle_276" data-name="Rectangle 276" width="11.17" height="2.693" transform="translate(189.259 224.781)" fill="#e0e0e0"/>
        <rect id="Rectangle_277" data-name="Rectangle 277" width="14.34" height="5.69" transform="translate(187.826 230.846)" fill="#fff"/>
      </g>
      <g id="freepik--Floor--inject-62" transform="translate(3.081 261.885)">
        <path id="Path_1086" data-name="Path 1086" d="M292.334,471.8c0,.084-58.322.155-130.256.155S31.81,471.885,31.81,471.8s58.31-.161,130.268-.161S292.334,471.712,292.334,471.8Z" transform="translate(-31.81 -471.64)" fill="#263238"/>
      </g>
      <g id="freepik--Character--inject-62" transform="translate(38.364 35.666)">
        <path id="Path_1131" data-name="Path 1131" d="M143.2,116.487c-1.791-2.8-.472-7.636-1.439-10.812s-.836-5.14-2.907-7.707a16.119,16.119,0,0,0-7.934-4.925,15.218,15.218,0,0,0-12.269,2.74,15.76,15.76,0,0,0-4.681,4.681c-1.355,2.346-1.564,5-1.5,7.761l-.173-.179a7.833,7.833,0,0,0-4.549-1.475,3.976,3.976,0,0,0-2.191.525,2.078,2.078,0,0,0-1.009,1.91c.155,1.194,1.475,1.791,2.6,2.2a2.884,2.884,0,0,0,2.066,5.373c1.606-.448,2.46-2.1,3.469-3.5a18.352,18.352,0,0,1-.77,6.794c-.907,2.555-2.776,4.925-2.567,7.624.1,1.194.6,2.424.388,3.624-.37,1.857-2.388,2.9-3.307,4.537-1.26,2.173-.394,5.1,1.391,6.866a14.461,14.461,0,0,0,6.7,3.254c5.761,1.5,12.316,1.982,17.272-1.319l13.887-14.161A19.586,19.586,0,0,0,143.2,116.487Z" transform="translate(-96.404 -92.721)" fill="#263238"/>
        <path id="Path_1132" data-name="Path 1132" d="M154.81,458.28v.681s11.755,4.334,11.94,6.537l-23.08.549.131-7.689A13.236,13.236,0,0,0,154.81,458.28Z" transform="translate(-112.172 -240.037)" fill="#fab228"/>
        <g id="Group_19" data-name="Group 19" transform="translate(33.427 220.694)" opacity="0.6">
          <path id="Path_1133" data-name="Path 1133" d="M147.521,462.412a.937.937,0,0,0-.6,1.093.9.9,0,0,0,1.075.627,1,1,0,0,0,.657-1.158.943.943,0,0,0-1.194-.531" transform="translate(-146.9 -462.386)" fill="#fff"/>
        </g>
        <g id="Group_20" data-name="Group 20" transform="translate(31.522 224.159)" opacity="0.6">
          <path id="Path_1134" data-name="Path 1134" d="M143.71,470.041V468.19l22.089.149s1.039.424.937,1.152Z" transform="translate(-143.71 -468.19)" fill="#fff"/>
        </g>
        <path id="Path_1135" data-name="Path 1135" d="M161.1,459.466c0,.113-.561.179-1.1.549s-.83.86-.937.818.048-.7.716-1.14S161.125,459.358,161.1,459.466Z" transform="translate(-118.361 -240.476)" fill="#263238"/>
        <path id="Path_1136" data-name="Path 1136" d="M165.571,461.081c.03.107-.454.31-.83.8s-.466.991-.6.985-.2-.633.275-1.23S165.565,460.974,165.571,461.081Z" transform="translate(-120.383 -241.149)" fill="#263238"/>
        <path id="Path_1137" data-name="Path 1137" d="M168.9,464.583c-.1,0-.275-.531,0-1.158s.8-.884.848-.788-.269.43-.49.943S169.02,464.571,168.9,464.583Z" transform="translate(-122.28 -241.785)" fill="#263238"/>
        <path id="Path_1138" data-name="Path 1138" d="M117.433,256.17l38.37,8.716-.722,4.86L144.1,356.366l-7.588-.173-.782,6.394-12.024.179s-1.791-21.606-2.263-29.319-.722-20.961-2.167-29.152S108.144,271.746,117.433,256.17Z" transform="translate(-99.995 -158.589)" fill="#263238"/>
        <path id="Path_1139" data-name="Path 1139" d="M155.52,427.41c-.09.681-1.791,19.737-1.791,19.737h-8.71l-1.528-19.66Z" transform="translate(-112.099 -227.597)" fill="#eb996e"/>
        <path id="Path_1140" data-name="Path 1140" d="M142.654,433.51c-.084.681-1.791,19.737-1.791,19.737h-8.7l-1.528-19.66Z" transform="translate(-106.917 -230.055)" fill="#ffbe9d"/>
        <path id="Path_1141" data-name="Path 1141" d="M160.586,418.05l-1.128,6.149-8.448-.1.185-5.946Z" transform="translate(-115.13 -223.825)" fill="#455a64"/>
        <path id="Path_1142" data-name="Path 1142" d="M155.8,281.81a1.2,1.2,0,0,1,0,.221v.651c0,.6-.048,1.433-.084,2.5-.09,2.2-.215,5.337-.376,9.212-.346,7.791-.824,18.507-1.349,30.382s-1.075,22.6-1.445,30.388c-.2,3.869-.358,7.009-.472,9.206-.06,1.069-.107,1.91-.143,2.5l-.048.651a1.341,1.341,0,0,1,0,.221,1.322,1.322,0,0,1,0-.227v-.651c0-.6.048-1.427.084-2.5.09-2.2.215-5.337.376-9.212.346-7.791.824-18.507,1.349-30.382s1.075-22.591,1.445-30.382c.2-3.869.358-7.015.472-9.206.06-1.069.107-1.91.143-2.5,0-.275.036-.49.048-.651A1.192,1.192,0,0,1,155.8,281.81Z" transform="translate(-115.481 -168.922)" fill="#455a64"/>
        <path id="Path_1143" data-name="Path 1143" d="M143.187,427.41l-1.128,6.149H128.817l-.937-5.946Z" transform="translate(-105.809 -227.597)" fill="#455a64"/>
        <path id="Path_1144" data-name="Path 1144" d="M132.424,461.81s6.131,4.352,9.1.6l.776,1.827,3.487,13a1.737,1.737,0,0,1-.979,2.084,1.684,1.684,0,0,1-1.791-.34c-2.519-2.388-11.755-11.266-11.666-12.472l.036-3.188a1.636,1.636,0,0,1,1.033-1.5Z" transform="translate(-107.206 -241.459)" fill="#fab228"/>
        <g id="Group_21" data-name="Group 21" transform="translate(24.156 223.927)" opacity="0.6">
          <path id="Path_1145" data-name="Path 1145" d="M144.511,481.812,131.377,467.8v.716a1.946,1.946,0,0,0,.6,1.54c1.069,1.433,4.012,4.645,11,11.343a1.66,1.66,0,0,0,1.528.43Z" transform="translate(-131.372 -467.8)" fill="#fff"/>
        </g>
        <g id="Group_22" data-name="Group 22" transform="translate(24.599 221.699)" opacity="0.6">
          <path id="Path_1146" data-name="Path 1146" d="M133.586,464.218a1.027,1.027,0,0,1,.287,1.331.985.985,0,0,1-1.319.3,1.081,1.081,0,0,1-.293-1.415,1.021,1.021,0,0,1,1.4-.155" transform="translate(-132.113 -464.068)" fill="#fff"/>
        </g>
        <path id="Path_1147" data-name="Path 1147" d="M147,477.974c.1.048.46-.818,1.439-1.284a5.163,5.163,0,0,1,1.893-.37c0-.042-.191-.167-.6-.221a2.615,2.615,0,0,0-1.475.269,2.669,2.669,0,0,0-1.1,1.009A1.541,1.541,0,0,0,147,477.974Z" transform="translate(-113.514 -247.211)" fill="#263238"/>
        <path id="Path_1148" data-name="Path 1148" d="M148.994,482.142a11.72,11.72,0,0,1,1.457-.716,13.026,13.026,0,0,1,1.606-.215,1.874,1.874,0,0,0-1.713-.131C149.376,481.378,148.917,482.095,148.994,482.142Z" transform="translate(-114.314 -249.177)" fill="#263238"/>
        <path id="Path_1149" data-name="Path 1149" d="M143.356,473.208a16.346,16.346,0,0,1,2.167-1.254,15.8,15.8,0,0,1,2.442-.6,3.715,3.715,0,0,0-2.573.239A3.757,3.757,0,0,0,143.356,473.208Z" transform="translate(-112.042 -245.258)" fill="#263238"/>
        <path id="Path_1150" data-name="Path 1150" d="M142.868,467.434c.042.1.949-.287,2.131-.334s2.125.233,2.161.131a3.137,3.137,0,0,0-2.173-.5A3.315,3.315,0,0,0,142.868,467.434Z" transform="translate(-111.848 -243.442)" fill="#263238"/>
        <path id="Path_1151" data-name="Path 1151" d="M145.732,465.282a1.343,1.343,0,0,0-.09-.6,4.34,4.34,0,0,0-.788-1.516,1.964,1.964,0,0,0-.973-.746.692.692,0,0,0-.728.287,1.128,1.128,0,0,0-.119.782,2.388,2.388,0,0,0,2.46,1.791,2.77,2.77,0,0,0,2.388-1.922.967.967,0,0,0-.1-.794.675.675,0,0,0-.752-.221,2.34,2.34,0,0,0-.961.758,4.775,4.775,0,0,0-.866,1.463,1.3,1.3,0,0,0-.143.6,7.473,7.473,0,0,1,1.194-1.9,2.178,2.178,0,0,1,.854-.633.358.358,0,0,1,.412.113.669.669,0,0,1,.036.525,2.465,2.465,0,0,1-2.1,1.642,2.072,2.072,0,0,1-2.113-1.481.83.83,0,0,1,.06-.549.376.376,0,0,1,.4-.167,1.791,1.791,0,0,1,.836.6A6.238,6.238,0,0,1,145.732,465.282Z" transform="translate(-111.906 -241.66)" fill="#263238"/>
        <path id="Path_1152" data-name="Path 1152" d="M250.8,163.124s3.218-4.6,3.916-4.985,6.621-1.558,7.075-1.337,7.051,2.448,6.149,3.128-5.5-.925-5.5-.925l-.681.215a29.852,29.852,0,0,1,4.776,1.922c.794.633.293,1.51-.442,1.313a45.849,45.849,0,0,0-4.412-1.325c-.233.113,3.713,1.564,4.107,1.893.537.442.436,1.5-.3,1.331-.436-.1-4.119-1.7-4.119-1.7a34.028,34.028,0,0,1,3.1,1.964c.388.507-.078,1.11-.716.866-.436-.173-2.43-1.534-3.015-1.791,0,0-.6.06-1.284,1.128s-4.06,3.278-4.06,3.278l-2.275,1.343-3.821-5.29Z" transform="translate(-154.739 -118.533)" fill="#ffbe9d"/>
        <path id="Path_1153" data-name="Path 1153" d="M254.39,165.748a1.367,1.367,0,0,0,1.576.245c.525-.215.967-.6,1.481-.86,1.528-.752,3.481-.215,4.973-1.039.209-.119.43-.322.358-.555s-.322-.275-.543-.3l-5.606-.74" transform="translate(-156.791 -120.841)" fill="#ffbe9d"/>
        <path id="Path_1154" data-name="Path 1154" d="M256.607,162.486a2.131,2.131,0,0,1,.6,0l1.66.173,2.46.287.7.09a1.1,1.1,0,0,1,.794.3.466.466,0,0,1,0,.531.955.955,0,0,1-.334.322,4.124,4.124,0,0,1-.77.322,22.385,22.385,0,0,1-3.027.37,4.239,4.239,0,0,0-1.224.346,7.565,7.565,0,0,0-.985.6,2.006,2.006,0,0,1-1.66.31c-.4-.149-.5-.394-.484-.388a1.623,1.623,0,0,0,.519.263,1.928,1.928,0,0,0,1.5-.382,11.042,11.042,0,0,1,.985-.6,4.417,4.417,0,0,1,1.3-.394,25.888,25.888,0,0,0,2.985-.388,3.657,3.657,0,0,0,.7-.293c.2-.113.322-.3.233-.388a1.194,1.194,0,0,0-.6-.179l-.71-.1-2.448-.358c-.692-.1-1.26-.2-1.648-.269A2.388,2.388,0,0,1,256.607,162.486Z" transform="translate(-156.769 -120.827)" fill="#eb996e"/>
        <path id="Path_1155" data-name="Path 1155" d="M274.707,161.292a3.313,3.313,0,0,1-1.289.149,7.606,7.606,0,0,1-1.4-.161c-.513-.137-1.063-.31-1.648-.484l-1.236-.382h.078a19.157,19.157,0,0,1-3.069.46,18.283,18.283,0,0,1,2.985-.764h.078l1.23.364,1.624.5a8.953,8.953,0,0,0,1.349.227C274.212,161.28,274.7,161.238,274.707,161.292Z" transform="translate(-161.526 -119.878)" fill="#eb996e"/>
        <path id="Path_1156" data-name="Path 1156" d="M169.7,153.556s7.212-.388,10.836,1.391,19.588,12.758,19.588,12.758l16.358-6.06,5.791,7.851-14.185,10.328a12.042,12.042,0,0,1-11.5,1.093l-18.352-7.29Z" transform="translate(-122.661 -117.222)" fill="#fab228"/>
        <path id="Path_1157" data-name="Path 1157" d="M221.364,184.935a3.582,3.582,0,0,1-.549-1.039,10.746,10.746,0,0,1-.687-2.764,10.483,10.483,0,0,1,.078-2.842,3.719,3.719,0,0,1,.31-1.14,14.6,14.6,0,0,0,.848,7.785Z" transform="translate(-142.959 -126.745)" fill="#263238"/>
        <g id="Group_23" data-name="Group 23" transform="translate(76.495 50.59)" opacity="0.3">
          <path id="Path_1158" data-name="Path 1158" d="M219.953,177.46a3.456,3.456,0,0,0-.872,2.466,23.7,23.7,0,0,0,.1,4.012,5.225,5.225,0,0,0,.567,2.107,1,1,0,0,0,.6.525c.466.107.884-.394.9-.878a2.985,2.985,0,0,0-.436-1.343,9.952,9.952,0,0,1-.83-6.489" transform="translate(-219.04 -177.46)"/>
        </g>
        <path id="Path_1159" data-name="Path 1159" d="M120.621,156.4c-.352.119-4.227,2.639-7.278,4.645a5.26,5.26,0,0,0-1.91,6.531L119,184.59l2.651,10.31-8.591,22.579.6,2.507,41.152,3.516,2.006-4.728-2.388-21.492V170.3l-6.567-16.818-11.307.143Z" transform="translate(-98.997 -117.206)" fill="#fab228"/>
        <g id="Group_24" data-name="Group 24" transform="translate(52.71 37.54)" opacity="0.3">
          <path id="Path_1160" data-name="Path 1160" d="M180.322,155.6a1.29,1.29,0,0,1,1.194.758,3.8,3.8,0,0,1,.3,1.487c.484,7.307.2,16.239.09,23.743l.513,23.146c-2.2-4.1-2.388-8.955-2.591-13.564q-.221-6.263-.46-12.537c-.257-6.925.084-13.851-.173-20.776C179.188,156.949,179.4,155.713,180.322,155.6Z" transform="translate(-179.199 -155.6)"/>
        </g>
        <g id="Group_25" data-name="Group 25" transform="translate(17.784 64.644)" opacity="0.3">
          <path id="Path_1161" data-name="Path 1161" d="M120.741,226.522c.221-.728.794-2.084.794-2.084a25.485,25.485,0,0,0,3.409-12.979s-.973-4.1-2.024-7.946l-1.1-2.513.072.036c1.857.854,2.985,3.4,3.248,5.421s.507,4.34,2.048,5.731c1.009.919,2.424,1.266,3.522,2.078a5.081,5.081,0,0,1,2.036,4.143c0,.669-.137,1.451.346,1.922.6.561,1.5.269,2.245,0s1.755-.43,2.167.251a1.343,1.343,0,0,1-.436,1.618,11.384,11.384,0,0,1-1.576.907c-1.3.782-2.036,2.215-3.128,3.26-2.167,2.09-5.421,2.454-8.418,2.7a3.1,3.1,0,0,1-2.513-.519A2.131,2.131,0,0,1,120.741,226.522Z" transform="translate(-120.698 -201)"/>
        </g>
        <path id="Path_1162" data-name="Path 1162" d="M115,270.057c0-.054.734.161,1.91.352a17.07,17.07,0,0,0,4.639.09,16.877,16.877,0,0,0,4.49-1.194c1.1-.46,1.743-.836,1.791-.788s-.137.125-.424.31a10.685,10.685,0,0,1-1.254.681,15.015,15.015,0,0,1-9.26,1.1,10.188,10.188,0,0,1-1.379-.37,1.789,1.789,0,0,1-.513-.185Z" transform="translate(-100.618 -163.563)" fill="#455a64"/>
        <path id="Path_1163" data-name="Path 1163" d="M147.112,228.574l-.215-.328s1.254,1.719.746,3.1a1.558,1.558,0,0,1-.334.549A2.233,2.233,0,0,1,144,233.864a.925.925,0,0,1-.6-.89,1.194,1.194,0,0,1,.3-.507,1.66,1.66,0,0,0,.185-.257l-1.534-.3s-3.719-.227-4.722-2.215c-.161-.316-8.137.31-8.137.31l.6-9,13.349,1.791s9.451,1.093,10.37,1.087a.913.913,0,0,1,1.015,1.1c-.036.6-.5.848-1.409.884-.31,0-5.97.2-5.97.2h0c.478.7,1.087,1.839.34,2.251Z" transform="translate(-106.461 -144.42)" fill="#ffbe9d"/>
        <path id="Path_1164" data-name="Path 1164" d="M154.46,235.437c0-.042.257-.048.675,0a3.427,3.427,0,0,1,1.558.525,1.833,1.833,0,0,1,.86,1.421c0,.448-.173.681-.2.663a6.255,6.255,0,0,0,0-.639,1.791,1.791,0,0,0-.812-1.194,4.393,4.393,0,0,0-1.427-.567C154.7,235.551,154.448,235.479,154.46,235.437Z" transform="translate(-116.52 -150.22)" fill="#eb996e"/>
        <path id="Path_1165" data-name="Path 1165" d="M154.65,230.736c0-.036.31-.042.77.113a3.8,3.8,0,0,1,1.588,1.033,3.731,3.731,0,0,1,.884,1.666c.113.478.084.782.048.782a6.494,6.494,0,0,0-1.164-2.239A6.4,6.4,0,0,0,154.65,230.736Z" transform="translate(-116.596 -148.331)" fill="#eb996e"/>
        <path id="Path_1166" data-name="Path 1166" d="M156.47,228.317c0-.084.543-.119,1.146.119s.985.6.931.681-.484-.179-1.045-.394S156.464,228.4,156.47,228.317Z" transform="translate(-117.33 -147.339)" fill="#eb996e"/>
        <path id="Path_1167" data-name="Path 1167" d="M155.309,240.091c-.072.042-.3-.233-.7-.358s-.746-.048-.782-.131.358-.334.878-.161S155.4,240.067,155.309,240.091Z" transform="translate(-116.265 -151.823)" fill="#eb996e"/>
        <path id="Path_1168" data-name="Path 1168" d="M110.008,186.734l-3.821,10.1L120.426,199l-.7,12.066-19.57-.83a9.549,9.549,0,0,1-9.242-8.955v-.645c.078-3.582,6.34-19.845,9.212-28.245a11.66,11.66,0,0,1,4.967-6.078h0Z" transform="translate(-90.91 -122.376)" fill="#fab228"/>
        <path id="Path_1169" data-name="Path 1169" d="M127.56,231.367a6.047,6.047,0,0,1,0-.919c.03-.639.06-1.493.107-2.537.113-2.2.269-5.2.448-8.615l.131.161-2.985-.43c-4.125-.6-7.851-1.158-10.549-1.576l-3.188-.513-.866-.155a1.088,1.088,0,0,1-.3-.078,1.3,1.3,0,0,1,.3,0l.878.1,3.2.412c2.71.364,6.442.89,10.561,1.493l2.985.43h.137v.137c-.221,3.409-.418,6.406-.555,8.609-.084,1.039-.149,1.893-.2,2.531A4.776,4.776,0,0,1,127.56,231.367Z" transform="translate(-98.748 -142.681)" fill="#263238"/>
        <path id="Path_1170" data-name="Path 1170" d="M115.129,174.52a3.554,3.554,0,0,1,.412.364,11.133,11.133,0,0,1,.985,1.128,16.167,16.167,0,0,1,3.331,9.182,10.319,10.319,0,0,1,0,1.5,2.049,2.049,0,0,1-.078.543c-.06,0,0-.782-.113-2.03a18.036,18.036,0,0,0-3.29-9.063C115.648,175.123,115.087,174.556,115.129,174.52Z" transform="translate(-100.669 -125.685)" fill="#263238"/>
        <path id="Path_1171" data-name="Path 1171" d="M183.346,176.135a8.456,8.456,0,0,1,0-1.54c.036-.949.078-2.263.084-3.707s-.036-2.758-.066-3.707a9.553,9.553,0,0,1,0-1.54,6.567,6.567,0,0,1,.221,1.528c.09.949.155,2.263.155,3.719s-.084,2.77-.173,3.719A6.84,6.84,0,0,1,183.346,176.135Z" transform="translate(-128.147 -122.106)" fill="#263238"/>
        <path id="Path_1172" data-name="Path 1172" d="M129,251.51a7.132,7.132,0,0,1,.979.37c.6.263,1.522.627,2.639,1.063a84.187,84.187,0,0,0,8.919,2.884,82.5,82.5,0,0,0,9.194,1.827c1.194.167,2.155.287,2.824.364a7.423,7.423,0,0,1,1.033.149,6.02,6.02,0,0,1-1.045-.03c-.675-.036-1.642-.125-2.842-.263a70.508,70.508,0,0,1-9.248-1.749,69.379,69.379,0,0,1-8.955-2.985c-1.11-.46-2-.854-2.609-1.152A5.972,5.972,0,0,1,129,251.51Z" transform="translate(-106.26 -156.711)" fill="#263238"/>
        <path id="Path_1173" data-name="Path 1173" d="M172.37,190.257a.6.6,0,1,0,.6-.6A.6.6,0,0,0,172.37,190.257Z" transform="translate(-123.737 -131.786)" fill="#263238"/>
        <path id="Path_1174" data-name="Path 1174" d="M240.35,182.817a.6.6,0,1,0,.6-.6A.6.6,0,0,0,240.35,182.817Z" transform="translate(-151.133 -128.788)" fill="#263238"/>
        <path id="Path_1175" data-name="Path 1175" d="M208.762,179.187a.6.6,0,1,0,.57-.42A.6.6,0,0,0,208.762,179.187Z" transform="translate(-138.392 -127.396)" fill="#263238"/>
        <path id="Path_1176" data-name="Path 1176" d="M192.39,165.237a.6.6,0,1,0,.6-.6A.6.6,0,0,0,192.39,165.237Z" transform="translate(-131.805 -121.703)" fill="#263238"/>
        <path id="Path_1177" data-name="Path 1177" d="M170.12,204.777a.6.6,0,1,0,.6-.6A.6.6,0,0,0,170.12,204.777Z" transform="translate(-122.831 -137.638)" fill="#263238"/>
        <path id="Path_1178" data-name="Path 1178" d="M227.8,180.027a.6.6,0,1,0,.6-.6A.6.6,0,0,0,227.8,180.027Z" transform="translate(-146.075 -127.664)" fill="#263238"/>
        <path id="Path_1179" data-name="Path 1179" d="M213.712,195.537a.6.6,0,1,0,.57-.42A.6.6,0,0,0,213.712,195.537Z" transform="translate(-140.387 -133.985)" fill="#263238"/>
        <path id="Path_1180" data-name="Path 1180" d="M150.87,193.507a.6.6,0,1,0,.6-.6A.6.6,0,0,0,150.87,193.507Z" transform="translate(-115.073 -133.096)" fill="#263238"/>
        <circle id="Ellipse_14" data-name="Ellipse 14" cx="0.573" cy="0.573" r="0.573" transform="translate(32.961 51.217)" fill="#263238"/>
        <path id="Path_1181" data-name="Path 1181" d="M164.14,173.057a.6.6,0,1,0,.6-.6A.6.6,0,0,0,164.14,173.057Z" transform="translate(-120.421 -124.855)" fill="#263238"/>
        <path id="Path_1182" data-name="Path 1182" d="M196,180.027a.6.6,0,1,0,.6-.6A.6.6,0,0,0,196,180.027Z" transform="translate(-133.26 -127.664)" fill="#263238"/>
        <circle id="Ellipse_15" data-name="Ellipse 15" cx="0.573" cy="0.573" r="0.573" transform="translate(45.892 40.107)" fill="#263238"/>
        <circle id="Ellipse_16" data-name="Ellipse 16" cx="0.573" cy="0.573" r="0.573" transform="translate(25.498 53.456)" fill="#263238"/>
        <path id="Path_1183" data-name="Path 1183" d="M150.87,211.8a.6.6,0,1,0,.6-.6A.6.6,0,0,0,150.87,211.8Z" transform="translate(-115.073 -140.467)" fill="#263238"/>
        <circle id="Ellipse_17" data-name="Ellipse 17" cx="0.573" cy="0.573" r="0.573" transform="translate(51.558 100.184)" fill="#263238"/>
        <circle id="Ellipse_18" data-name="Ellipse 18" cx="0.573" cy="0.573" r="0.573" transform="translate(36.37 92.775)" fill="#263238"/>
        <path id="Path_1184" data-name="Path 1184" d="M124.41,259.327a.6.6,0,1,0,.6-.6A.6.6,0,0,0,124.41,259.327Z" transform="translate(-104.41 -159.621)" fill="#263238"/>
        <path id="Path_1185" data-name="Path 1185" d="M159.59,239.277a.6.6,0,1,0,.6-.6A.6.6,0,0,0,159.59,239.277Z" transform="translate(-118.587 -151.541)" fill="#263238"/>
        <circle id="Ellipse_19" data-name="Ellipse 19" cx="0.573" cy="0.573" r="0.573" transform="translate(10.71 52.196)" fill="#263238"/>
        <path id="Path_1186" data-name="Path 1186" d="M108.85,228.6a.6.6,0,1,0,.6-.6A.6.6,0,0,0,108.85,228.6Z" transform="translate(-98.14 -147.237)" fill="#263238"/>
        <path id="Path_1187" data-name="Path 1187" d="M124.41,234.387a.6.6,0,1,0,.6-.6A.6.6,0,0,0,124.41,234.387Z" transform="translate(-104.41 -149.57)" fill="#263238"/>
        <path id="Path_1188" data-name="Path 1188" d="M132.652,223.217a.6.6,0,1,0,.221-.662A.6.6,0,0,0,132.652,223.217Z" transform="translate(-107.721 -144.997)" fill="#263238"/>
        <path id="Path_1189" data-name="Path 1189" d="M114.08,193.507a.6.6,0,1,0,.6-.6A.6.6,0,0,0,114.08,193.507Z" transform="translate(-100.247 -133.096)" fill="#263238"/>
        <circle id="Ellipse_20" data-name="Ellipse 20" cx="0.573" cy="0.573" r="0.573" transform="translate(51.558 90.441)" fill="#263238"/>
        <circle id="Ellipse_21" data-name="Ellipse 21" cx="0.573" cy="0.573" r="0.573" transform="translate(6.054 68.178)" fill="#263238"/>
        <path id="Path_1190" data-name="Path 1190" d="M95.94,223.337a.6.6,0,1,0,.6-.6A.6.6,0,0,0,95.94,223.337Z" transform="translate(-92.937 -145.117)" fill="#263238"/>
        <path id="Path_1191" data-name="Path 1191" d="M132.652,199.567a.6.6,0,1,0,.221-.662A.6.6,0,0,0,132.652,199.567Z" transform="translate(-107.721 -135.467)" fill="#263238"/>
        <g id="Group_26" data-name="Group 26" transform="translate(16.943 38.561)" opacity="0.3">
          <path id="Path_1192" data-name="Path 1192" d="M130.406,161.453c-.352-1.1-.836-1.319-1.881-1.821a19.476,19.476,0,0,1-3.636-2.322l-5.176,3.29a9.511,9.511,0,0,0,.406,6.764,5.189,5.189,0,0,0,9.134.818,10.024,10.024,0,0,0,1.654-3.97A6.564,6.564,0,0,0,130.406,161.453Z" transform="translate(-119.289 -157.31)"/>
        </g>
        <path id="Path_1193" data-name="Path 1193" d="M148.621,107.139c-.651-3.9-3.743-8.442-7.612-7.624l-11.881,4.34a2.3,2.3,0,0,0-1.791,2.543l4.334,29.289h-.084s3.612,8.018,11.427,4.675c1.546-.669,2.1-2.49,2.239-4.322h.084a5.843,5.843,0,0,0-.054-.6,19.361,19.361,0,0,0-.364-4.042h0c-.215-2.388-.316-3.355-.31-3.331s4.925-1.349,5.29-7.994A78.883,78.883,0,0,0,148.621,107.139Z" transform="translate(-105.582 -95.42)" fill="#ffbe9d"/>
        <path id="Path_1194" data-name="Path 1194" d="M159.786,119.63a.842.842,0,0,1-.722.925.806.806,0,0,1-.937-.669.836.836,0,0,1,.716-.925.806.806,0,0,1,.943.669Z" transform="translate(-117.995 -103.29)" fill="#263238"/>
        <path id="Path_1195" data-name="Path 1195" d="M159.234,116.7c-.09.119-.776-.281-1.678-.185s-1.516.6-1.624.513,0-.257.3-.5a2.287,2.287,0,0,1,1.284-.543,2.239,2.239,0,0,1,1.355.287C159.168,116.463,159.282,116.648,159.234,116.7Z" transform="translate(-117.097 -102.093)" fill="#263238"/>
        <path id="Path_1196" data-name="Path 1196" d="M145.546,121.4a.848.848,0,0,1-.722.931.806.806,0,0,1-.937-.669.842.842,0,0,1,.716-.931.806.806,0,0,1,.943.669Z" transform="translate(-112.256 -104.003)" fill="#263238"/>
        <path id="Path_1197" data-name="Path 1197" d="M144.412,118.512c-.1.119-.776-.281-1.678-.185s-1.516.6-1.63.513.036-.251.3-.5a2.346,2.346,0,0,1,1.29-.543,2.215,2.215,0,0,1,1.349.287C144.34,118.273,144.453,118.458,144.412,118.512Z" transform="translate(-111.122 -102.823)" fill="#263238"/>
        <path id="Path_1198" data-name="Path 1198" d="M152.5,124.6a5.828,5.828,0,0,1,1.439-.418c.227-.048.442-.113.466-.275a1.194,1.194,0,0,0-.227-.669q-.406-.806-.86-1.684a30.105,30.105,0,0,1-2-4.43,29.479,29.479,0,0,1,2.352,4.257c.293.6.6,1.158.836,1.7a1.349,1.349,0,0,1,.209.9.6.6,0,0,1-.34.376,1.922,1.922,0,0,1-.388.1,6.1,6.1,0,0,1-1.487.155Z" transform="translate(-115.249 -102.557)" fill="#263238"/>
        <path id="Path_1199" data-name="Path 1199" d="M150.117,146.453a16.752,16.752,0,0,1-9-1.433s2.585,4.269,9.069,2.985Z" transform="translate(-111.144 -113.797)" fill="#eb996e"/>
        <path id="Path_1200" data-name="Path 1200" d="M151.217,133.018a1.636,1.636,0,0,0-1.516-.454,1.529,1.529,0,0,0-.973.657.937.937,0,0,0,.042,1.081,1.087,1.087,0,0,0,1.194.179,3.464,3.464,0,0,0,1.081-.806.99.99,0,0,0,.233-.293.3.3,0,0,0-.036-.334" transform="translate(-114.149 -108.762)" fill="#eb996e"/>
        <path id="Path_1201" data-name="Path 1201" d="M148.919,131.15c.143,0,.245.955,1.158,1.564s1.94.394,1.958.531-.209.209-.651.269a2.424,2.424,0,0,1-1.63-.388,2.143,2.143,0,0,1-.913-1.319C148.746,131.407,148.829,131.15,148.919,131.15Z" transform="translate(-114.239 -108.207)" fill="#263238"/>
        <path id="Path_1202" data-name="Path 1202" d="M144.321,115.945c-.06.251-.973.233-2.018.466s-1.875.6-2.036.406c-.072-.1.054-.34.37-.6a3.474,3.474,0,0,1,1.469-.693,3.582,3.582,0,0,1,1.624,0C144.135,115.652,144.35,115.826,144.321,115.945Z" transform="translate(-110.792 -101.874)" fill="#263238"/>
        <path id="Path_1203" data-name="Path 1203" d="M158.4,112.347c-.143.221-.782.072-1.534.137s-1.361.281-1.534.084c-.072-.1,0-.316.263-.537a2.113,2.113,0,0,1,1.194-.466,2.143,2.143,0,0,1,1.26.287C158.347,112.037,158.461,112.24,158.4,112.347Z" transform="translate(-116.861 -100.312)" fill="#263238"/>
        <path id="Path_1204" data-name="Path 1204" d="M144.367,96.8a7.916,7.916,0,0,1,6.74,7.379l-3.713.185-.77-1.934a2.758,2.758,0,0,1-1.558,3.176,7.729,7.729,0,0,1-3.8.549l-.239-1.66a3.158,3.158,0,0,1-1.922,2.567,9.511,9.511,0,0,1-3.278.687,9.1,9.1,0,0,0-3.278.7,6.961,6.961,0,0,1,.549-6.424,10.149,10.149,0,0,1,5.212-4.042,18.621,18.621,0,0,1,6.615-.961" transform="translate(-107.472 -94.365)" fill="#263238"/>
        <path id="Path_1205" data-name="Path 1205" d="M121.637,139.65c.358-1.91,1-3.833.71-5.749-.275-1.791-1.319-3.582-.651-5.23a3.039,3.039,0,0,1,2.531-1.749c-2.507-4.1-2.89-9.278-2.71-14.143a17.637,17.637,0,0,1,.645-4.681,6.908,6.908,0,0,1,2.7-3.779,4.358,4.358,0,0,1,4.49-.227l1.033.084a10.269,10.269,0,0,1-.34,7.624,7.987,7.987,0,0,0-1,2.7c-.113,2.054,1.958,3.707,1.958,5.755a10.345,10.345,0,0,1-1.475,4.591,1.887,1.887,0,0,0,.161,2.5c.484.639,4,9.325,1.355,14.185a6.782,6.782,0,0,1-2.734,4.179,4.6,4.6,0,0,1-5.749-.5C121.261,143.751,121.273,141.56,121.637,139.65Z" transform="translate(-103.207 -97.095)" fill="#263238"/>
      </g>
      <g id="freepik--speech-bubble--inject-62" transform="translate(8.294 5.971)">
        <path id="Path_1206" data-name="Path 1206" d="M63.119,65.492v1.075c0,.71,0,1.707.036,2.985,0,2.561.036,6.167.066,10.489L63.09,79.9H77.609c.036-.036-.293.293-.155.149h0V65.492l.137.137-10.412-.072-2.985-.036H63.125a1.048,1.048,0,0,1,.251,0h.764l2.931-.036,10.573-.066h.131V80.077h0c.137-.137-.191.191-.155.161H63v-.131c.03-4.358.054-7.994.066-10.573,0-1.242.03-2.233.036-2.937v-.764A1.26,1.26,0,0,1,63.119,65.492Z" transform="translate(-49.593 -52.024)" fill="#263238"/>
        <path id="Path_1207" data-name="Path 1207" d="M81.94,60.107c.2.161-2.985,4.334-7.045,9.319l-2.448,2.937-.293.352-.34-.3c-3.421-3.039-5.779-5.307-5.648-5.457s2.722,1.851,6.227,4.776l-.6.054L74.184,68.8C78.262,63.85,81.742,59.939,81.94,60.107Z" transform="translate(-50.867 -49.881)" fill="#fab228"/>
        <path id="Path_1208" data-name="Path 1208" d="M61.592,42.993a1.475,1.475,0,0,0-.358,0H60.165a6.12,6.12,0,0,0-.782.036l-.937.131-1.093.155-1.194.3A19.743,19.743,0,0,0,50.231,46.2a21.2,21.2,0,0,0-6.125,5.97,21.433,21.433,0,0,0-3.481,9.755,21.742,21.742,0,0,0-.06,2.866,12.112,12.112,0,0,0,.1,1.463c.1.49.149.979.227,1.475a21.021,21.021,0,0,0,1.988,5.833,22.424,22.424,0,0,0,3.779,5.248,21.969,21.969,0,0,0,5.5,3.946,20.173,20.173,0,0,0,6.692,2.054,13.661,13.661,0,0,0,1.791.149A16.492,16.492,0,0,0,62.434,85a21.82,21.82,0,0,0,3.582-.46,21.2,21.2,0,0,0,7.194-3.027h-.221l7.325,2.937.436.173-.125-.448q-1.11-4.03-2.155-7.833l-.036.2a21.015,21.015,0,0,0,3.91-8.955A19,19,0,0,0,82.63,63a15.647,15.647,0,0,0-.209-2.2c-.054-.364-.113-.716-.167-1.075s-.173-.693-.257-1.039A20.943,20.943,0,0,0,73.842,46.8a19.976,19.976,0,0,0-4.866-2.567l-1.093-.394-1.039-.251-.955-.239c-.3-.054-.6-.09-.872-.131-.555-.072-1.045-.167-1.469-.185l-1.075-.042h-.663a.913.913,0,0,0-.221,0,1.727,1.727,0,0,0,.221.03l.657.048,1.069.078a11.292,11.292,0,0,1,1.457.221A20.83,20.83,0,0,1,81.651,58.819c.078.334.185.675.245,1.021l.161,1.051a15.144,15.144,0,0,1,.191,2.161,18.542,18.542,0,0,1-.3,4.5,20.633,20.633,0,0,1-3.857,8.758l-.066.084V76.5q1.039,3.8,2.137,7.839l.31-.281-7.319-2.949-.113-.042-.107.066A20.537,20.537,0,0,1,65.9,84.115a20.823,20.823,0,0,1-3.528.448,15.871,15.871,0,0,1-1.791,0,13.043,13.043,0,0,1-1.743-.149,19.63,19.63,0,0,1-6.567-2A21.672,21.672,0,0,1,46.9,78.569a22.269,22.269,0,0,1-3.743-5.122,20.776,20.776,0,0,1-1.97-5.707c-.072-.49-.149-.967-.221-1.445s-.066-.967-.1-1.439a21.994,21.994,0,0,1,.048-2.812,20.692,20.692,0,0,1,9.457-15.606A19.982,19.982,0,0,1,56.2,43.811l1.194-.322,1.087-.179.925-.155c.287-.03.549-.036.782-.054l1.057-.078A3.305,3.305,0,0,0,61.592,42.993Z" transform="translate(-40.543 -42.982)" fill="#455a64"/>
      </g>
      <g id="freepik--Device--inject-62" transform="translate(93.152 8.179)">
        <path id="Path_1209" data-name="Path 1209" d="M277.229,275.246l-77.641-.048a16.913,16.913,0,0,1-16.907-16.913l.036-194.7A16.907,16.907,0,0,1,199.641,46.68l77.647.042A16.919,16.919,0,0,1,294.2,63.641l-.042,194.673a16.907,16.907,0,0,1-16.925,16.931Z" transform="translate(-182.68 -46.68)" fill="#263238"/>
        <path id="Path_1210" data-name="Path 1210" d="M280.669,58.306H265.618a3.743,3.743,0,0,0-3.66,3.821v2.728a3.737,3.737,0,0,1-3.654,3.821H228.955a3.743,3.743,0,0,1-3.654-3.821V62.091a3.743,3.743,0,0,0-3.654-3.821H203.182a11.851,11.851,0,0,0-11.857,11.845l-.036,190.011a11.851,11.851,0,0,0,11.839,11.851l77.5.042a11.839,11.839,0,0,0,11.851-11.839l.036-190.017a11.839,11.839,0,0,0-11.845-11.857Z" transform="translate(-186.15 -51.351)" fill="#fff"/>
        <path id="Path_1211" data-name="Path 1211" d="M207.373,131.957H206.28v-.287h2.513v.287H207.7v2.818h-.328Z" transform="translate(-192.19 -80.93)" fill="#263238"/>
        <path id="Path_1212" data-name="Path 1212" d="M210.449,134.114a1.194,1.194,0,1,1,1.194,1.194,1.146,1.146,0,0,1-1.194-1.194Zm2.054,0a.872.872,0,1,0-.866.907.854.854,0,0,0,.866-.907Z" transform="translate(-193.87 -81.434)" fill="#263238"/>
        <path id="Path_1213" data-name="Path 1213" d="M217.444,131.352v3.29h-.3v-.46a1.009,1.009,0,0,1-.9.484,1.194,1.194,0,1,1,0-2.388,1.027,1.027,0,0,1,.89.466v-1.4Zm-.31,2.125a.866.866,0,1,0-.866.907.854.854,0,0,0,.866-.907Z" transform="translate(-195.725 -80.797)" fill="#263238"/>
        <path id="Path_1214" data-name="Path 1214" d="M222.166,133.851V135.3h-.287v-.364a.883.883,0,0,1-.806.388c-.525,0-.854-.275-.854-.681s.233-.663.9-.663h.758v-.137a.6.6,0,0,0-.657-.6,1.194,1.194,0,0,0-.776.275l-.143-.233a1.486,1.486,0,0,1,.949-.316.83.83,0,0,1,.913.884Zm-.287.746v-.382h-.728c-.454,0-.6.179-.6.418s.221.436.6.436A.74.74,0,0,0,221.88,134.6Z" transform="translate(-197.808 -81.451)" fill="#263238"/>
        <path id="Path_1215" data-name="Path 1215" d="M226.387,133l-1.194,2.615c-.2.454-.442.6-.776.6a.8.8,0,0,1-.6-.215l.143-.233a.6.6,0,0,0,.43.179c.209,0,.346-.1.484-.394l.1-.227-1.045-2.328h.328l.878,1.982.937-1.976Z" transform="translate(-199.259 -81.462)" fill="#263238"/>
        <path id="Path_1216" data-name="Path 1216" d="M267.73,95.09h.967v3.4h2.1v.794H267.73Z" transform="translate(-216.954 -66.189)" fill="#263238"/>
        <path id="Path_1217" data-name="Path 1217" d="M273.49,94.736a.531.531,0,0,1,.6-.519.525.525,0,0,1,.6.5.6.6,0,0,1-1.158,0Zm.113.967h.931v3.224H273.6Z" transform="translate(-219.275 -65.835)" fill="#263238"/>
        <path id="Path_1218" data-name="Path 1218" d="M276.18,99.6l.31-.675a2.2,2.2,0,0,0,1.116.316c.43,0,.6-.119.6-.3,0-.525-1.94,0-1.94-1.272,0-.6.549-1.045,1.487-1.045a2.6,2.6,0,0,1,1.242.287l-.31.663a1.88,1.88,0,0,0-.931-.239c-.418,0-.6.131-.6.3,0,.549,1.946,0,1.946,1.284,0,.6-.555,1.027-1.522,1.027a2.758,2.758,0,0,1-1.4-.346Z" transform="translate(-220.359 -66.809)" fill="#263238"/>
        <path id="Path_1219" data-name="Path 1219" d="M283.848,99.3a1.331,1.331,0,0,1-.758.2,1.063,1.063,0,0,1-1.194-1.158V97h-.5v-.7h.5V95.52h.937V96.3h.8V97h-.8v1.307a.376.376,0,0,0,.4.424.627.627,0,0,0,.376-.119Z" transform="translate(-222.463 -66.362)" fill="#263238"/>
        <path id="Path_1220" data-name="Path 1220" d="M338.766,94.444c0,.054-1.958.107-4.37.131s-4.376,0-4.376-.06,1.958-.107,4.376-.131S338.766,94.39,338.766,94.444Z" transform="translate(-242.056 -65.901)" fill="#263238"/>
        <path id="Path_1221" data-name="Path 1221" d="M338.8,98.194c0,.048-1.952.107-4.37.131s-4.376,0-4.376-.06,1.958-.107,4.376-.131S338.8,98.14,338.8,98.194Z" transform="translate(-242.068 -67.412)" fill="#263238"/>
        <path id="Path_1222" data-name="Path 1222" d="M338.826,101.955c0,.048-1.952.107-4.37.125s-4.37,0-4.376-.054,1.958-.113,4.376-.131S338.826,101.9,338.826,101.955Z" transform="translate(-242.08 -68.929)" fill="#263238"/>
        <path id="Path_1223" data-name="Path 1223" d="M206.415,100.324a.209.209,0,0,1-.149-.06L204.38,98.4a.209.209,0,0,1-.06-.155.215.215,0,0,1,.066-.149l1.881-1.827a.215.215,0,0,1,.3.3l-1.731,1.678,1.731,1.713a.209.209,0,0,1-.149.358Z" transform="translate(-191.401 -66.647)" fill="#263238"/>
        <path id="Path_1224" data-name="Path 1224" d="M229.3,163.259c0,.633-.454,1.009-1.194,1.009h-.788v.931H227V162.25h1.1C228.851,162.25,229.3,162.632,229.3,163.259Zm-.31,0c0-.472-.31-.74-.9-.74h-.782v1.475h.782C228.684,163.993,228.994,163.725,228.994,163.259Z" transform="translate(-200.54 -93.253)" fill="#263238"/>
        <path id="Path_1225" data-name="Path 1225" d="M232.906,163.447v.293h-.072a.722.722,0,0,0-.746.818v1.128h-.3v-2.215h.287v.436A.836.836,0,0,1,232.906,163.447Z" transform="translate(-202.471 -93.734)" fill="#263238"/>
        <path id="Path_1226" data-name="Path 1226" d="M234.159,164.578a1.128,1.128,0,1,1,1.128,1.128,1.086,1.086,0,0,1-1.128-1.128Zm1.952,0a.824.824,0,1,0-.824.86.812.812,0,0,0,.824-.86Z" transform="translate(-203.425 -93.737)" fill="#263238"/>
        <path id="Path_1227" data-name="Path 1227" d="M237.62,165.777l.107-.227a.507.507,0,0,0,.346.113c.233,0,.364-.143.364-.418v-2.388h.3v2.388a.6.6,0,0,1-.645.675A.752.752,0,0,1,237.62,165.777Zm.752-3.612a.221.221,0,0,1,.221-.215.215.215,0,1,1,0,.43.221.221,0,0,1-.221-.215Z" transform="translate(-204.82 -93.132)" fill="#263238"/>
        <path id="Path_1228" data-name="Path 1228" d="M242.666,164.668H240.8a.818.818,0,0,0,.872.77.884.884,0,0,0,.681-.287l.167.191a1.081,1.081,0,0,1-.854.364,1.1,1.1,0,0,1-1.164-1.128,1.069,1.069,0,0,1,1.081-1.128,1.057,1.057,0,0,1,1.075,1.128Zm-1.857-.221h1.57a.788.788,0,0,0-1.57,0Z" transform="translate(-205.98 -93.737)" fill="#263238"/>
        <path id="Path_1229" data-name="Path 1229" d="M244.78,164.577a1.092,1.092,0,0,1,1.14-1.128.985.985,0,0,1,.872.436l-.227.155a.734.734,0,0,0-.645-.328.866.866,0,0,0,0,1.725.728.728,0,0,0,.645-.322l.227.155a.985.985,0,0,1-.872.436,1.093,1.093,0,0,1-1.14-1.128Z" transform="translate(-207.705 -93.736)" fill="#263238"/>
        <path id="Path_1230" data-name="Path 1230" d="M250.106,165.255a.71.71,0,0,1-.472.155.6.6,0,0,1-.645-.645V163.4h-.4v-.251h.4v-.484h.3v.484h.675v.251h-.675v1.325a.352.352,0,0,0,.382.406.478.478,0,0,0,.328-.113Z" transform="translate(-209.241 -93.423)" fill="#263238"/>
        <path id="Path_1231" data-name="Path 1231" d="M253.55,163.707a1.481,1.481,0,0,1,1.552-1.5,1.415,1.415,0,0,1,1.075.43l-.2.2a1.194,1.194,0,0,0-.872-.352,1.224,1.224,0,1,0,0,2.448,1.194,1.194,0,0,0,.872-.352l.2.2a1.421,1.421,0,0,1-1.081.436,1.486,1.486,0,0,1-1.546-1.5Z" transform="translate(-211.24 -93.236)" fill="#263238"/>
        <path id="Path_1232" data-name="Path 1232" d="M259,162h.3v3.128H259Z" transform="translate(-213.436 -93.153)" fill="#263238"/>
        <path id="Path_1233" data-name="Path 1233" d="M260.748,162.165a.218.218,0,0,1,.436-.006.221.221,0,1,1-.436,0Zm.066.7h.3v2.215h-.3Z" transform="translate(-214.139 -93.132)" fill="#263238"/>
        <path id="Path_1234" data-name="Path 1234" d="M264.544,164.668h-1.851a.818.818,0,0,0,.872.77.9.9,0,0,0,.681-.287l.167.191a1.086,1.086,0,0,1-.86.364,1.1,1.1,0,0,1-1.164-1.128,1.069,1.069,0,0,1,1.087-1.128,1.057,1.057,0,0,1,1.075,1.128S264.544,164.638,264.544,164.668Zm-1.851-.221h1.57a.788.788,0,0,0-1.57,0Z" transform="translate(-214.801 -93.737)" fill="#263238"/>
        <path id="Path_1235" data-name="Path 1235" d="M269.054,164.356v1.284h-.3v-1.254a.6.6,0,0,0-.669-.71.728.728,0,0,0-.776.8v1.164H267v-2.215h.287v.406a.931.931,0,0,1,.842-.424.848.848,0,0,1,.925.949Z" transform="translate(-216.66 -93.718)" fill="#263238"/>
        <path id="Path_1236" data-name="Path 1236" d="M272.736,165.255a.711.711,0,0,1-.472.155.6.6,0,0,1-.645-.645V163.4h-.4v-.251h.4v-.484h.3v.484h.675v.251h-.675v1.325a.352.352,0,0,0,.382.406.489.489,0,0,0,.328-.113Z" transform="translate(-218.361 -93.423)" fill="#263238"/>
        <path id="Path_1237" data-name="Path 1237" d="M214.559,163.329a2.549,2.549,0,1,1-2.549-2.549A2.549,2.549,0,0,1,214.559,163.329Z" transform="translate(-193.472 -92.661)" fill="#fab228"/>
        <path id="Path_1238" data-name="Path 1238" d="M212.691,165.284a.161.161,0,0,1-.1-.036l-.7-.639a.155.155,0,0,1,0-.215.143.143,0,0,1,.209,0l.6.537,1.116-1.194a.149.149,0,1,1,.215.2l-1.194,1.284A.155.155,0,0,1,212.691,165.284Z" transform="translate(-194.434 -93.828)" fill="#fff"/>
        <path id="Path_1239" data-name="Path 1239" d="M288.918,169.166a3.228,3.228,0,0,0,.555-.072,2.985,2.985,0,0,0,1.451-.716,3.08,3.08,0,0,0,1.045-2.346V153.769a9.467,9.467,0,0,0-.054-1.427,2.985,2.985,0,0,0-1.791-2.2,3.492,3.492,0,0,0-1.522-.239h-8.669l-46.944.029-30.071.019a2.949,2.949,0,0,0-2.316,1.128,2.985,2.985,0,0,0-.561,1.194,6.758,6.758,0,0,0-.066,1.361v12.346a3.051,3.051,0,0,0,.233,1.248,2.985,2.985,0,0,0,1.827,1.654,3.7,3.7,0,0,0,1.266.131h19.1l34.627.03,23.343.054h6.346l-6.346.03-23.343.048-34.627.036H203.3a4.072,4.072,0,0,1-1.355-.143,3.3,3.3,0,0,1-2.018-1.827,3.379,3.379,0,0,1-.263-1.367V153.644a7.258,7.258,0,0,1,.072-1.427,3.26,3.26,0,0,1,3.182-2.567l77.014.042H288.6a3.743,3.743,0,0,1,1.6.257,3.218,3.218,0,0,1,1.869,2.346,8.615,8.615,0,0,1,.054,1.457v12.263a3.123,3.123,0,0,1-1.093,2.388,3.05,3.05,0,0,1-1.487.7,2.58,2.58,0,0,1-.418.036Z" transform="translate(-189.521 -88.176)" fill="#fab228"/>
        <path id="Path_1240" data-name="Path 1240" d="M256.718,173.205c0,.09-6.609.155-14.758.155s-14.77-.066-14.77-.155,6.609-.155,14.77-.155S256.718,173.122,256.718,173.205Z" transform="translate(-200.617 -97.606)" fill="#e0e0e0"/>
        <path id="Path_1241" data-name="Path 1241" d="M334.4,165.243a.126.126,0,0,1-.03.078l-.931.919a.113.113,0,0,1-.155,0l-.913-.943a.108.108,0,0,1,.155-.149l.836.866.86-.866a.106.106,0,0,1,.179.1Z" transform="translate(-242.991 -94.408)" fill="#fab228"/>
        <path id="Path_1242" data-name="Path 1242" d="M226.976,202.4v-1.69h.31v1.678c0,.7.328,1.021.9,1.021s.907-.322.907-1.021V200.71h.269v1.69a1.212,1.212,0,0,1-2.424,0Z" transform="translate(-200.516 -108.752)" fill="#263238"/>
        <path id="Path_1243" data-name="Path 1243" d="M234.733,203.026a1.075,1.075,0,0,1-1.1,1.128.967.967,0,0,1-.83-.412v1.194h-.3V201.9h.3v.436a.967.967,0,0,1,.854-.454,1.075,1.075,0,0,1,1.081,1.146Zm-.3,0a.83.83,0,1,0-.824.86.812.812,0,0,0,.824-.86Z" transform="translate(-202.757 -109.223)" fill="#263238"/>
        <path id="Path_1244" data-name="Path 1244" d="M239.119,200.41v3.128h-.287V203.1a.961.961,0,0,1-.854.46,1.128,1.128,0,1,1,0-2.257.967.967,0,0,1,.842.436V200.41Zm-.293,2.024a.824.824,0,1,0-.824.86.812.812,0,0,0,.824-.86Z" transform="translate(-204.51 -108.631)" fill="#263238"/>
        <path id="Path_1245" data-name="Path 1245" d="M243.6,202.759v1.373h-.287v-.34a.83.83,0,0,1-.764.364c-.5,0-.806-.263-.806-.645s.221-.627.854-.627h.7v-.137a.541.541,0,0,0-.6-.6,1.14,1.14,0,0,0-.74.263l-.131-.227a1.391,1.391,0,0,1,.9-.3.788.788,0,0,1,.866.872Zm-.3.71V203.1h-.693c-.43,0-.6.167-.6.4s.209.412.561.412A.7.7,0,0,0,243.3,203.469Z" transform="translate(-206.48 -109.225)" fill="#263238"/>
        <path id="Path_1246" data-name="Path 1246" d="M247.146,203.7a.7.7,0,0,1-.466.155.6.6,0,0,1-.651-.645v-1.343h-.4v-.251h.4v-.484h.3v.484H247v.251h-.675v1.325a.358.358,0,0,0,.382.406.477.477,0,0,0,.328-.113Z" transform="translate(-208.048 -108.922)" fill="#263238"/>
        <path id="Path_1247" data-name="Path 1247" d="M250.7,203.21h-1.857a.818.818,0,0,0,.872.77.878.878,0,0,0,.681-.287l.167.191a1.075,1.075,0,0,1-.854.364,1.1,1.1,0,0,1-1.194-1.128,1.081,1.081,0,0,1,2.161,0A.15.15,0,0,1,250.7,203.21Zm-1.857-.221h1.576a.788.788,0,1,0-1.576,0Z" transform="translate(-209.212 -109.288)" fill="#263238"/>
        <path id="Path_1248" data-name="Path 1248" d="M257.448,201.719c0,.633-.454,1.009-1.194,1.009h-.788v.931h-.316V200.71h1.1C257.013,200.71,257.448,201.092,257.448,201.719Zm-.31,0c0-.472-.31-.74-.9-.74h-.782v1.475h.8c.6,0,.9-.269.9-.734Z" transform="translate(-211.885 -108.752)" fill="#263238"/>
        <path id="Path_1249" data-name="Path 1249" d="M261.1,201.909v.293h-.072a.716.716,0,0,0-.746.818v1.128H260v-2.215h.287v.436A.842.842,0,0,1,261.1,201.909Z" transform="translate(-213.839 -109.234)" fill="#263238"/>
        <path id="Path_1250" data-name="Path 1250" d="M264.484,203.178h-1.857a.818.818,0,0,0,.872.77.884.884,0,0,0,.681-.287l.167.191a1.08,1.08,0,0,1-.854.364,1.1,1.1,0,0,1-1.164-1.128,1.069,1.069,0,0,1,1.081-1.128,1.057,1.057,0,0,1,1.075,1.128Zm-1.857-.221h1.57a.788.788,0,0,0-1.57,0Z" transform="translate(-214.777 -109.256)" fill="#263238"/>
        <path id="Path_1251" data-name="Path 1251" d="M266.45,203.892l.137-.233a1.331,1.331,0,0,0,.788.245c.418,0,.6-.143.6-.364,0-.6-1.439-.119-1.439-1,0-.364.316-.633.878-.633a1.475,1.475,0,0,1,.788.209l-.131.239a1.128,1.128,0,0,0-.657-.191c-.4,0-.6.155-.6.37,0,.6,1.433.143,1.433,1,0,.382-.334.633-.913.633A1.487,1.487,0,0,1,266.45,203.892Z" transform="translate(-216.438 -109.236)" fill="#263238"/>
        <path id="Path_1252" data-name="Path 1252" d="M272.179,203.19h-1.857a.824.824,0,0,0,.878.77.872.872,0,0,0,.675-.287l.173.191a1.194,1.194,0,0,1-2.048-.794,1.081,1.081,0,0,1,2.161,0A.476.476,0,0,1,272.179,203.19Zm-1.857-.221H271.9a.788.788,0,1,0-1.576,0Z" transform="translate(-217.869 -109.268)" fill="#263238"/>
        <path id="Path_1253" data-name="Path 1253" d="M276.722,202.877v1.284h-.3v-1.254a.6.6,0,0,0-.669-.71.728.728,0,0,0-.776.8v1.194h-.3v-2.215h.287v.406a.931.931,0,0,1,.842-.424.848.848,0,0,1,.913.919Z" transform="translate(-219.755 -109.254)" fill="#263238"/>
        <path id="Path_1254" data-name="Path 1254" d="M280.4,203.7a.71.71,0,0,1-.472.155.6.6,0,0,1-.651-.645v-1.343h-.394v-.251h.394v-.484h.3v.484h.675v.251h-.675v1.325a.352.352,0,0,0,.382.406.49.49,0,0,0,.328-.113Z" transform="translate(-221.447 -108.922)" fill="#263238"/>
        <path id="Path_1255" data-name="Path 1255" d="M283.873,202.756v1.373h-.287v-.34a.842.842,0,0,1-.764.364c-.5,0-.812-.263-.812-.645s.221-.627.86-.627h.7v-.137a.55.55,0,0,0-.627-.6,1.128,1.128,0,0,0-.74.263l-.137-.227a1.415,1.415,0,0,1,.9-.3.788.788,0,0,1,.9.872Zm-.3.71V203.1h-.7c-.43,0-.567.167-.567.4s.209.412.561.412A.711.711,0,0,0,283.574,203.466Z" transform="translate(-222.709 -109.222)" fill="#263238"/>
        <path id="Path_1256" data-name="Path 1256" d="M287.426,203.7a.71.71,0,0,1-.472.155.6.6,0,0,1-.651-.645v-1.343h-.394v-.251h.394v-.484h.3v.484h.675v.251h-.675v1.325a.352.352,0,0,0,.382.406.49.49,0,0,0,.328-.113Z" transform="translate(-224.28 -108.922)" fill="#263238"/>
        <path id="Path_1257" data-name="Path 1257" d="M289.24,200.617a.221.221,0,1,1,.221.215A.221.221,0,0,1,289.24,200.617Zm.072.7h.3v2.215h-.3Z" transform="translate(-225.622 -108.623)" fill="#263238"/>
        <path id="Path_1258" data-name="Path 1258" d="M290.879,203.038a1.128,1.128,0,1,1,1.128,1.128,1.087,1.087,0,0,1-1.128-1.128Zm1.952,0a.824.824,0,1,0-.824.86.812.812,0,0,0,.824-.86Z" transform="translate(-226.283 -109.236)" fill="#263238"/>
        <path id="Path_1259" data-name="Path 1259" d="M297.722,202.877v1.284h-.3v-1.254a.6.6,0,0,0-.669-.71.728.728,0,0,0-.776.8v1.194h-.3v-2.215h.287v.406a.931.931,0,0,1,.842-.424.848.848,0,0,1,.913.919Z" transform="translate(-228.218 -109.254)" fill="#263238"/>
        <path id="Path_1260" data-name="Path 1260" d="M214.559,201.789a2.549,2.549,0,1,1-2.549-2.549,2.549,2.549,0,0,1,2.549,2.549Z" transform="translate(-193.472 -108.16)" fill="#fab228"/>
        <path id="Path_1261" data-name="Path 1261" d="M212.691,203.744a.161.161,0,0,1-.1-.036l-.7-.639a.155.155,0,0,1,0-.215.149.149,0,0,1,.209,0l.6.537,1.116-1.194a.149.149,0,1,1,.215.2l-1.194,1.284A.155.155,0,0,1,212.691,203.744Z" transform="translate(-194.434 -109.326)" fill="#fff"/>
        <path id="Path_1263" data-name="Path 1263" d="M256.718,211.665c0,.09-6.609.155-14.758.155s-14.77-.066-14.77-.155,6.609-.155,14.77-.155S256.718,211.582,256.718,211.665Z" transform="translate(-200.617 -113.105)" fill="#e0e0e0"/>
        <path id="Path_1264" data-name="Path 1264" d="M334.4,203.719a.126.126,0,0,1-.03.078l-.931.943a.113.113,0,0,1-.155,0l-.913-.943a.108.108,0,1,1,.155-.149l.836.866.86-.866a.1.1,0,0,1,.179.072Z" transform="translate(-242.991 -109.923)" fill="#fab228"/>
        <path id="Path_1265" data-name="Path 1265" d="M226.55,240.627a1.481,1.481,0,0,1,1.552-1.5,1.433,1.433,0,0,1,1.081.43l-.2.2a1.194,1.194,0,0,0-.872-.352,1.224,1.224,0,0,0,0,2.448,1.194,1.194,0,0,0,.872-.352l.2.2a1.445,1.445,0,0,1-1.087.436,1.487,1.487,0,0,1-1.546-1.5Z" transform="translate(-200.359 -124.234)" fill="#263238"/>
        <path id="Path_1266" data-name="Path 1266" d="M233.093,240.368v.293h-.072a.722.722,0,0,0-.746.818v1.128H232v-2.221h.287v.436a.836.836,0,0,1,.806-.454Z" transform="translate(-202.555 -124.733)" fill="#263238"/>
        <path id="Path_1267" data-name="Path 1267" d="M236.484,241.588h-1.857a.818.818,0,0,0,.872.77.884.884,0,0,0,.681-.287l.167.191a1.081,1.081,0,0,1-.854.364,1.1,1.1,0,0,1-1.164-1.128,1.069,1.069,0,0,1,1.081-1.128,1.057,1.057,0,0,1,1.075,1.128Zm-1.857-.221h1.57a.788.788,0,0,0-1.57,0Z" transform="translate(-203.493 -124.735)" fill="#263238"/>
        <path id="Path_1268" data-name="Path 1268" d="M240.407,241.239v1.373h-.287v-.34a.83.83,0,0,1-.764.364c-.5,0-.806-.263-.806-.645s.215-.6.854-.6h.7v-.137a.541.541,0,0,0-.6-.6,1.14,1.14,0,0,0-.74.263l-.131-.227a1.391,1.391,0,0,1,.9-.3.788.788,0,0,1,.866.842Zm-.3.71v-.364h-.693c-.436,0-.6.167-.6.4s.209.412.561.412A.7.7,0,0,0,240.108,241.949Z" transform="translate(-205.195 -124.744)" fill="#263238"/>
        <path id="Path_1269" data-name="Path 1269" d="M243.976,242.157a.71.71,0,0,1-.466.155.6.6,0,0,1-.651-.645v-1.343h-.4v-.251h.4v-.484h.3v.484h.675v.251h-.675v1.3a.358.358,0,0,0,.382.406.478.478,0,0,0,.328-.113Z" transform="translate(-206.771 -124.42)" fill="#263238"/>
        <path id="Path_1270" data-name="Path 1270" d="M247.525,241.62h-1.857a.818.818,0,0,0,.872.77.878.878,0,0,0,.681-.287l.167.191a1.075,1.075,0,0,1-.854.364,1.1,1.1,0,0,1-1.194-1.128,1.081,1.081,0,1,1,2.161,0A.354.354,0,0,1,247.525,241.62Zm-1.857-.221h1.576a.788.788,0,0,0-1.576,0Z" transform="translate(-207.931 -124.767)" fill="#263238"/>
        <path id="Path_1271" data-name="Path 1271" d="M254.454,239.17v2.949h-.31v-1.361H252.3v1.361H252V239.17h.316v1.313h1.845V239.17Z" transform="translate(-210.615 -124.251)" fill="#263238"/>
        <path id="Path_1272" data-name="Path 1272" d="M257.23,241.5a1.128,1.128,0,1,1,1.128,1.128,1.093,1.093,0,0,1-1.128-1.128Zm1.952,0a.824.824,0,1,0-.824.86.806.806,0,0,0,.824-.86Z" transform="translate(-212.722 -124.735)" fill="#263238"/>
        <path id="Path_1273" data-name="Path 1273" d="M265.678,241.34v1.284h-.3V241.34c0-.472-.233-.71-.633-.71a.716.716,0,0,0-.746.8v1.194h-.3V241.34c0-.472-.239-.71-.639-.71a.716.716,0,0,0-.746.8v1.194H262v-2.239h.287v.406a.9.9,0,0,1,.818-.424.8.8,0,0,1,.788.466.961.961,0,0,1,.878-.466.836.836,0,0,1,.908.973Z" transform="translate(-214.645 -124.732)" fill="#263238"/>
        <path id="Path_1274" data-name="Path 1274" d="M271.315,241.62h-1.857a.818.818,0,0,0,.872.77.878.878,0,0,0,.681-.287l.167.191a1.075,1.075,0,0,1-.854.364,1.1,1.1,0,0,1-1.164-1.128,1.081,1.081,0,0,1,2.161,0S271.315,241.59,271.315,241.62Zm-1.857-.221h1.576a.788.788,0,0,0-1.576,0Z" transform="translate(-217.53 -124.767)" fill="#263238"/>
        <path id="Path_1275" data-name="Path 1275" d="M276.045,241.5a1.075,1.075,0,0,1-1.1,1.128.967.967,0,0,1-.842-.436v1.236h-.3v-3.039h.287v.436a.967.967,0,0,1,.854-.454,1.075,1.075,0,0,1,1.1,1.128Zm-.3,0a.83.83,0,1,0-.824.86.812.812,0,0,0,.824-.86Z" transform="translate(-219.4 -124.734)" fill="#263238"/>
        <path id="Path_1276" data-name="Path 1276" d="M280.113,241.236v1.373h-.287v-.34a.842.842,0,0,1-.764.364c-.5,0-.812-.263-.812-.645s.221-.6.86-.6h.7v-.137a.552.552,0,0,0-.633-.6,1.11,1.11,0,0,0-.734.263l-.137-.227a1.415,1.415,0,0,1,.9-.3.788.788,0,0,1,.9.842Zm-.3.71v-.364h-.7c-.43,0-.567.167-.567.4s.2.412.561.412A.71.71,0,0,0,279.814,241.946Z" transform="translate(-221.194 -124.741)" fill="#263238"/>
        <path id="Path_1277" data-name="Path 1277" d="M284.669,240.387v1.946a.973.973,0,0,1-1.11,1.11,1.546,1.546,0,0,1-1.033-.34l.155-.227a1.343,1.343,0,0,0,.872.3c.561,0,.818-.263.818-.806v-.287a.991.991,0,0,1-.866.43,1.075,1.075,0,1,1,0-2.149,1,1,0,0,1,.878.442v-.424Zm-.293,1.051a.842.842,0,1,0-.842.818.788.788,0,0,0,.842-.818Z" transform="translate(-222.878 -124.734)" fill="#263238"/>
        <path id="Path_1278" data-name="Path 1278" d="M289.345,241.62h-1.857a.818.818,0,0,0,.872.77.878.878,0,0,0,.681-.287l.167.191a1.074,1.074,0,0,1-.854.364,1.1,1.1,0,0,1-1.194-1.128,1.081,1.081,0,0,1,2.161,0A.353.353,0,0,1,289.345,241.62Zm-1.857-.221h1.576a.788.788,0,1,0-1.576,0Z" transform="translate(-224.784 -124.767)" fill="#263238"/>
        <path id="Path_1279" data-name="Path 1279" d="M214.466,240.2a4.479,4.479,0,0,0-.137-.6,2.513,2.513,0,0,0-.937-1.331,2.388,2.388,0,1,0,0,3.875,2.513,2.513,0,0,0,.937-1.331c.113-.382.107-.6.137-.6a1.367,1.367,0,0,1,0,.639,2.525,2.525,0,0,1-.919,1.475,2.645,2.645,0,0,1-2.525.418,2.681,2.681,0,0,1,0-5.057,2.645,2.645,0,0,1,2.525.412,2.555,2.555,0,0,1,.919,1.481A1.326,1.326,0,0,1,214.466,240.2Z" transform="translate(-193.38 -123.595)" fill="#e0e0e0"/>
        <path id="Path_1280" data-name="Path 1280" d="M288.918,246.086a3.228,3.228,0,0,0,.555-.072,2.985,2.985,0,0,0,1.451-.716,3.08,3.08,0,0,0,1.045-2.346V230.689a9.467,9.467,0,0,0-.054-1.427,2.985,2.985,0,0,0-1.791-2.2,3.492,3.492,0,0,0-1.522-.239h-8.669l-77.014.048A2.949,2.949,0,0,0,200.6,228a2.985,2.985,0,0,0-.561,1.194,6.758,6.758,0,0,0-.066,1.361v12.334a3.033,3.033,0,0,0,.233,1.248,2.985,2.985,0,0,0,1.827,1.654,3.7,3.7,0,0,0,1.266.131h19.1l34.627.03,23.343.054h6.346l-6.346.03-23.343.048-34.627.036H203.3a4.073,4.073,0,0,1-1.355-.143,3.3,3.3,0,0,1-2.018-1.827,3.36,3.36,0,0,1-.263-1.367V230.564a7.258,7.258,0,0,1,.072-1.427,3.26,3.26,0,0,1,3.182-2.567l77.014.048H288.6a3.742,3.742,0,0,1,1.6.257,3.218,3.218,0,0,1,1.839,2.34,8.606,8.606,0,0,1,.054,1.457v12.263A3.122,3.122,0,0,1,291,245.322a3.051,3.051,0,0,1-1.487.7,2.587,2.587,0,0,1-.418.036Z" transform="translate(-189.521 -119.174)" fill="#e0e0e0"/>
        <path id="Path_1281" data-name="Path 1281" d="M256.718,250.125c0,.09-6.609.155-14.758.155s-14.77-.066-14.77-.155,6.609-.155,14.77-.155S256.718,250.042,256.718,250.125Z" transform="translate(-200.617 -128.603)" fill="#e0e0e0"/>
        <path id="Path_1282" data-name="Path 1282" d="M334.4,242.2a.114.114,0,0,1-.03.078l-.931.967a.113.113,0,0,1-.155,0l-.913-.943a.108.108,0,0,1,.155-.149l.836.866.86-.866a.109.109,0,0,1,.179.048Z" transform="translate(-242.991 -125.438)" fill="#e0e0e0"/>
        <path id="Path_1283" data-name="Path 1283" d="M229.3,277.779c0,.627-.454,1.009-1.194,1.009h-.788v.931H227V276.77h1.1C228.851,276.77,229.3,277.146,229.3,277.779Zm-.31,0c0-.472-.31-.74-.9-.74h-.782v1.475h.782C228.684,278.513,228.994,278.245,228.994,277.779Z" transform="translate(-200.54 -139.404)" fill="#263238"/>
        <path id="Path_1284" data-name="Path 1284" d="M232.906,278v.287h-.072a.716.716,0,0,0-.746.818v1.128h-.3V278h.287v.43a.842.842,0,0,1,.83-.43Z" transform="translate(-202.471 -139.896)" fill="#263238"/>
        <path id="Path_1285" data-name="Path 1285" d="M234.159,279.092a1.128,1.128,0,1,1,1.128,1.134,1.087,1.087,0,0,1-1.128-1.134Zm1.952,0a.824.824,0,1,0-.824.866.812.812,0,0,0,.824-.866Z" transform="translate(-203.425 -139.887)" fill="#263238"/>
        <path id="Path_1286" data-name="Path 1286" d="M237.62,280.295l.107-.227a.537.537,0,0,0,.346.113c.233,0,.364-.143.364-.418v-2.388h.3v2.388a.6.6,0,0,1-.645.675.752.752,0,0,1-.472-.143Zm.752-3.618a.215.215,0,1,1,.065.154.215.215,0,0,1-.065-.154Z" transform="translate(-204.82 -139.281)" fill="#263238"/>
        <path id="Path_1287" data-name="Path 1287" d="M242.666,279.178H240.8a.818.818,0,0,0,.872.77.871.871,0,0,0,.681-.293l.167.2a1.194,1.194,0,0,1-2.018-.77,1.079,1.079,0,1,1,2.155,0Zm-1.857-.227h1.57a.788.788,0,0,0-1.57,0Z" transform="translate(-205.98 -139.883)" fill="#263238"/>
        <path id="Path_1288" data-name="Path 1288" d="M244.78,279.091a1.092,1.092,0,0,1,1.14-1.122.967.967,0,0,1,.872.436l-.227.155a.74.74,0,0,0-.645-.334.866.866,0,1,0,0,1.731.746.746,0,0,0,.645-.322l.227.149a.985.985,0,0,1-.872.442,1.1,1.1,0,0,1-1.14-1.134Z" transform="translate(-207.705 -139.886)" fill="#263238"/>
        <path id="Path_1289" data-name="Path 1289" d="M250.106,279.747a.716.716,0,0,1-.472.161.6.6,0,0,1-.645-.645V277.92h-.4v-.251h.4v-.49h.3v.49h.675v.251h-.675v1.325a.352.352,0,0,0,.382.406.508.508,0,0,0,.328-.113Z" transform="translate(-209.241 -139.569)" fill="#263238"/>
        <path id="Path_1290" data-name="Path 1290" d="M253.55,278.223a1.487,1.487,0,0,1,1.552-1.5,1.415,1.415,0,0,1,1.075.43l-.2.2a1.194,1.194,0,0,0-.872-.352,1.224,1.224,0,1,0,0,2.448,1.146,1.146,0,0,0,.872-.358l.2.2a1.415,1.415,0,0,1-1.081.43,1.481,1.481,0,0,1-1.546-1.5Z" transform="translate(-211.24 -139.382)" fill="#263238"/>
        <path id="Path_1291" data-name="Path 1291" d="M259,276.47h.3V279.6H259Z" transform="translate(-213.436 -139.283)" fill="#263238"/>
        <path id="Path_1292" data-name="Path 1292" d="M260.75,276.677a.24.24,0,1,1,.215.215.215.215,0,0,1-.215-.215Zm.066.7h.3V279.6h-.3Z" transform="translate(-214.141 -139.281)" fill="#263238"/>
        <path id="Path_1293" data-name="Path 1293" d="M264.545,279.194h-1.851a.818.818,0,0,0,.872.77.877.877,0,0,0,.681-.293l.167.2a1.194,1.194,0,0,1-2.024-.77,1.069,1.069,0,0,1,1.081-1.1,1.057,1.057,0,0,1,1.075,1.122Zm-1.851-.227h1.57a.788.788,0,0,0-1.57,0Z" transform="translate(-214.802 -139.899)" fill="#263238"/>
        <path id="Path_1294" data-name="Path 1294" d="M269.054,278.916V280.2h-.3v-1.254a.6.6,0,0,0-.669-.71.722.722,0,0,0-.776.8V280.2H267v-2.215h.287v.406a.931.931,0,0,1,.842-.424.848.848,0,0,1,.925.949Z" transform="translate(-216.66 -139.884)" fill="#263238"/>
        <path id="Path_1295" data-name="Path 1295" d="M272.736,279.747a.717.717,0,0,1-.472.161.6.6,0,0,1-.645-.645V277.92h-.4v-.251h.4v-.49h.3v.49h.675v.251h-.675v1.325a.352.352,0,0,0,.382.406.519.519,0,0,0,.328-.113Z" transform="translate(-218.361 -139.569)" fill="#263238"/>
        <path id="Path_1296" data-name="Path 1296" d="M278.1,279.433v.269H276.03v-.215l1.23-1.194c.334-.328.394-.531.394-.728,0-.346-.239-.555-.692-.555a1.015,1.015,0,0,0-.806.328l-.215-.185a1.331,1.331,0,0,1,1.045-.424c.6,0,.979.3.979.8a1.194,1.194,0,0,1-.484.925l-1,.985Z" transform="translate(-220.263 -139.386)" fill="#263238"/>
        <path id="Path_1297" data-name="Path 1297" d="M214.469,277.775a4.478,4.478,0,0,0-.137-.6,2.514,2.514,0,0,0-.937-1.331,2.388,2.388,0,1,0,0,3.881,2.555,2.555,0,0,0,.937-1.331c.113-.382.107-.6.137-.6a1.355,1.355,0,0,1,0,.639,2.543,2.543,0,0,1-.919,1.475,2.645,2.645,0,0,1-2.525.418,2.687,2.687,0,0,1,0-5.063,2.645,2.645,0,0,1,2.525.418,2.526,2.526,0,0,1,.919,1.475A1.355,1.355,0,0,1,214.469,277.775Z" transform="translate(-193.382 -138.736)" fill="#e0e0e0"/>
        <path id="Path_1298" data-name="Path 1298" d="M288.918,283.676a4.773,4.773,0,0,0,.555-.066,3.093,3.093,0,0,0,2.5-3.063V268.279a9.4,9.4,0,0,0-.054-1.421,3.027,3.027,0,0,0-1.791-2.209,3.493,3.493,0,0,0-1.522-.233h-8.669l-77.014.048a2.914,2.914,0,0,0-2.316,1.128,2.986,2.986,0,0,0-.561,1.194,6.724,6.724,0,0,0-.066,1.355v12.334a3.08,3.08,0,0,0,.233,1.254,2.985,2.985,0,0,0,1.827,1.654,3.854,3.854,0,0,0,1.266.131h19.1l34.627.036,23.343.048,6.346.03h-6.346l-23.343.048H203.3a4.077,4.077,0,0,1-1.355-.149,3.277,3.277,0,0,1-2.018-1.821,3.391,3.391,0,0,1-.263-1.373V268.154a7.222,7.222,0,0,1,.072-1.421,3.272,3.272,0,0,1,3.182-2.573l77.015.048H288.6a3.748,3.748,0,0,1,1.6.263,3.194,3.194,0,0,1,1.869,2.346,8.539,8.539,0,0,1,.054,1.451v12.269a3.146,3.146,0,0,1-1.093,2.388,3.032,3.032,0,0,1-1.487.7,2.754,2.754,0,0,1-.418.042Z" transform="translate(-189.521 -134.322)" fill="#e0e0e0"/>
        <path id="Path_1299" data-name="Path 1299" d="M256.718,287.725c0,.084-6.609.155-14.758.155s-14.77-.072-14.77-.155,6.609-.155,14.77-.155S256.718,287.642,256.718,287.725Z" transform="translate(-200.617 -143.756)" fill="#e0e0e0"/>
        <path id="Path_1300" data-name="Path 1300" d="M334.391,279.78a.126.126,0,0,1-.03.078l-.931.937a.1.1,0,0,1-.155,0l-.913-.925a.107.107,0,1,1,.155-.143l.836.866.86-.866a.107.107,0,0,1,.149,0,.125.125,0,0,1,.03.054Z" transform="translate(-242.982 -140.575)" fill="#e0e0e0"/>
        <path id="Path_1301" data-name="Path 1301" d="M229.466,316.537c0,.5-.376.788-1.11.788H227V314.37h1.278c.657,0,1.033.281,1.033.758a.693.693,0,0,1-.448.675A.7.7,0,0,1,229.466,316.537Zm-2.155-1.91V315.7h.937c.472,0,.746-.185.746-.537s-.275-.537-.746-.537Zm1.839,1.881c0-.382-.281-.549-.8-.549H227.31v1.11h1.039c.519-.006.8-.179.8-.567Z" transform="translate(-200.54 -154.556)" fill="#263238"/>
        <path id="Path_1302" data-name="Path 1302" d="M234.19,315.57v2.221H233.9v-.406a.883.883,0,0,1-.8.424.86.86,0,0,1-.937-.949v-1.29h.3v1.26a.6.6,0,0,0,.669.711.722.722,0,0,0,.758-.806V315.54Z" transform="translate(-202.62 -155.027)" fill="#263238"/>
        <path id="Path_1303" data-name="Path 1303" d="M238.468,315.59l-1.11,2.484c-.185.436-.418.6-.734.6a.758.758,0,0,1-.543-.2l.143-.221a.555.555,0,0,0,.4.167c.2,0,.334-.09.46-.37l.1-.215-.991-2.215h.31l.836,1.887.836-1.887Z" transform="translate(-204.2 -155.048)" fill="#263238"/>
        <path id="Path_1304" data-name="Path 1304" d="M244.549,315.823h.3v1.128a1.612,1.612,0,0,1-1.081.376,1.5,1.5,0,1,1,0-2.985,1.451,1.451,0,0,1,1.093.424l-.191.2a1.234,1.234,0,1,0-.89,2.1,1.259,1.259,0,0,0,.77-.227Z" transform="translate(-206.615 -154.54)" fill="#263238"/>
        <path id="Path_1305" data-name="Path 1305" d="M248,314.275a.215.215,0,1,1,.215.215A.215.215,0,0,1,248,314.275Zm.066.7h.3v2.221h-.3Z" transform="translate(-209.003 -154.431)" fill="#263238"/>
        <path id="Path_1306" data-name="Path 1306" d="M250.1,314.691v.263h.687v.245h-.675v1.97h-.3V315.2h-.394v-.251h.394v-.275a.6.6,0,0,1,.675-.657.722.722,0,0,1,.442.137l-.1.227a.508.508,0,0,0-.328-.113A.37.37,0,0,0,250.1,314.691Z" transform="translate(-209.571 -154.411)" fill="#263238"/>
        <path id="Path_1307" data-name="Path 1307" d="M253.316,317.343a.71.71,0,0,1-.466.155.6.6,0,0,1-.651-.645V315.5h-.4v-.251h.4v-.484h.3v.484h.675v.251h-.657v1.325a.352.352,0,0,0,.382.406.478.478,0,0,0,.328-.113Z" transform="translate(-210.535 -154.717)" fill="#263238"/>
        <path id="Path_1308" data-name="Path 1308" d="M214.466,315.365a4.479,4.479,0,0,0-.137-.6,2.514,2.514,0,0,0-.937-1.331,2.388,2.388,0,1,0,0,3.875,2.513,2.513,0,0,0,.937-1.331c.113-.382.107-.6.137-.6a1.367,1.367,0,0,1,0,.639,2.555,2.555,0,0,1-.919,1.481,2.678,2.678,0,1,1,0-4.233,2.555,2.555,0,0,1,.919,1.481A1.325,1.325,0,0,1,214.466,315.365Z" transform="translate(-193.38 -153.885)" fill="#e0e0e0"/>
        <path id="Path_1309" data-name="Path 1309" d="M288.918,321.276a3.508,3.508,0,0,0,.555-.066,3.093,3.093,0,0,0,2.5-3.069c0-1.063,0-2.287,0-3.66v-8.6a9.467,9.467,0,0,0-.054-1.427,2.985,2.985,0,0,0-1.791-2.2,3.493,3.493,0,0,0-1.522-.239h-8.669l-77.014.042a2.985,2.985,0,0,0-2.878,2.322,6.782,6.782,0,0,0-.066,1.361V318.07a3.033,3.033,0,0,0,.233,1.248,2.985,2.985,0,0,0,1.827,1.654,3.855,3.855,0,0,0,1.266.137h19.1l34.627.036,23.343.048h6.346l-6.346.03-23.343.048-34.627.036H203.3a4.071,4.071,0,0,1-1.355-.143,3.314,3.314,0,0,1-2.018-1.791,3.409,3.409,0,0,1-.263-1.373V305.754a7.259,7.259,0,0,1,.072-1.427,3.236,3.236,0,0,1,.6-1.319,3.283,3.283,0,0,1,2.561-1.248l77.015.048h8.669a3.744,3.744,0,0,1,1.6.257,3.218,3.218,0,0,1,1.869,2.346,8.615,8.615,0,0,1,.054,1.457v12.281a3.146,3.146,0,0,1-1.093,2.388,3.033,3.033,0,0,1-1.487.7,2.042,2.042,0,0,1-.418.036Z" transform="translate(-189.521 -149.474)" fill="#e0e0e0"/>
        <path id="Path_1310" data-name="Path 1310" d="M256.718,325.325c0,.084-6.609.155-14.758.155s-14.77-.072-14.77-.155,6.609-.155,14.77-.155S256.718,325.236,256.718,325.325Z" transform="translate(-200.617 -158.908)" fill="#e0e0e0"/>
        <path id="Path_1311" data-name="Path 1311" d="M334.4,317.375a.108.108,0,0,1-.03.072l-.931.943a.113.113,0,0,1-.155,0l-.913-.943a.108.108,0,0,1,.155-.149l.836.866.86-.866a.107.107,0,0,1,.149,0A.114.114,0,0,1,334.4,317.375Z" transform="translate(-242.991 -155.722)" fill="#e0e0e0"/>
        <path id="Path_1314" data-name="Path 1314" d="M333.3,133.8l-.06,1.439,1.427-.191,3.313-3.278-1.337-1.337Z" transform="translate(-243.354 -80.43)" fill="#fab228"/>
        <path id="Path_1315" data-name="Path 1315" d="M339.26,129.86l1.3,1.3.2-.191a.83.83,0,0,0,0-1.194l-.137-.131a.818.818,0,0,0-1.194,0Z" transform="translate(-245.78 -80.01)" fill="#fab228"/>
        <rect id="Rectangle_278" data-name="Rectangle 278" width="100.895" height="197.014" rx="38" transform="translate(5.355 23.463)" fill="#fff"/>
        <g id="Group_27" data-name="Group 27" transform="translate(70.701 184.974)">
          <circle id="Ellipse_22" data-name="Ellipse 22" cx="12.394" cy="12.394" r="12.394" transform="matrix(0.161, -0.987, 0.987, 0.161, 0, 24.463)" fill="#fab228"/>
          <path id="Path_1312" data-name="Path 1312" d="M325.879,376.109a.3.3,0,0,1-.3-.3v-6.472a.3.3,0,0,1,.6,0v6.472A.3.3,0,0,1,325.879,376.109Z" transform="translate(-311.651 -358.353)" fill="#fff"/>
          <path id="Path_1313" data-name="Path 1313" d="M326.93,375.057h-6.472a.3.3,0,1,1,0-.6h6.472a.3.3,0,1,1,0,.6Z" transform="translate(-309.467 -360.537)" fill="#fff"/>
        </g>
      </g>
    </g>
    <path id="Path_1028" data-name="Path 1028" d="M173.317,63.806a10.461,10.461,0,0,1,5.3-2.384,13.508,13.508,0,0,1,6.874.716,16.132,16.132,0,0,1,6.606,4.622,16.716,16.716,0,0,1,3.763,6.512,11.946,11.946,0,0,1,.172,6.465,10.255,10.255,0,0,1-3.126,5.1,8.867,8.867,0,0,1-3.854,2.118,13.033,13.033,0,0,1-3.941.362q-1.908-.123-6.62-.652a20.926,20.926,0,0,0-2.214-.123,6.29,6.29,0,0,0-1.5.172,5.972,5.972,0,0,0-1.134.415c-.351.172-.944.491-1.785.961a3.2,3.2,0,0,1-4.511-.555,3.506,3.506,0,0,1-.949-2.527,3.85,3.85,0,0,1,1.484-2.7,10.182,10.182,0,0,1,7.254-2.828,45.661,45.661,0,0,1,4.59.386c1.618.2,2.813.318,3.585.359a8.2,8.2,0,0,0,2.282-.19,4.382,4.382,0,0,0,2-1.037,5.089,5.089,0,0,0,1.753-3.865,6.267,6.267,0,0,0-1.753-4.344,6.1,6.1,0,0,0-4.3-2.4,12.83,12.83,0,0,0-5.2,1.256q-3.071,1.44-4.894-.584a3.643,3.643,0,0,1-.967-2.781A3.506,3.506,0,0,1,173.317,63.806ZM159.194,95.268A4.523,4.523,0,0,1,158,92.227a3.991,3.991,0,0,1,1.493-3.094,4.1,4.1,0,0,1,3.117-1.078,4.274,4.274,0,0,1,2.992,1.49,4.219,4.219,0,0,1-.336,6.051,4.011,4.011,0,0,1-3.214,1.145A4.382,4.382,0,0,1,159.194,95.268Z" transform="translate(3457.741 688.645)" fill="#fab228"/>
    <g id="Group_16" data-name="Group 16" transform="translate(3656.454 768.269)" opacity="0.5">
      <path id="Path_1029" data-name="Path 1029" d="M298.086,127.912a5.55,5.55,0,0,1,1.96-2.413,7.263,7.263,0,0,1,3.465-1.309,8.648,8.648,0,0,1,4.274.625,8.987,8.987,0,0,1,3.366,2.206,6.409,6.409,0,0,1,1.636,3.053,5.506,5.506,0,0,1-.263,3.214,4.742,4.742,0,0,1-1.338,1.94,6.981,6.981,0,0,1-1.8,1.122q-.941.4-3.328,1.28a10.224,10.224,0,0,0-1.09.473,3.281,3.281,0,0,0-.678.444,3.045,3.045,0,0,0-.444.47c-.126.167-.333.462-.622.876a1.719,1.719,0,0,1-2.293.818,1.885,1.885,0,0,1-1.063-.982,2.045,2.045,0,0,1,.064-1.648,5.458,5.458,0,0,1,2.793-3.1,24.651,24.651,0,0,1,2.288-.929c.821-.292,1.423-.523,1.8-.687a4.408,4.408,0,0,0,1.046-.64,2.364,2.364,0,0,0,.71-.979,2.717,2.717,0,0,0-.091-2.27,3.345,3.345,0,0,0-1.879-1.642,3.253,3.253,0,0,0-2.629-.12,6.783,6.783,0,0,0-2.185,1.846,2.023,2.023,0,0,1-2.489.876,1.96,1.96,0,0,1-1.131-1.1A1.852,1.852,0,0,1,298.086,127.912Zm.8,18.464a2.428,2.428,0,0,1-1.3-1.169,2.138,2.138,0,0,1-.035-1.826,2.188,2.188,0,0,1,1.23-1.271,2.315,2.315,0,0,1,3.085,2.977,2.147,2.147,0,0,1-1.268,1.321A2.337,2.337,0,0,1,298.884,146.376Z" transform="translate(-297.358 -124.14)" fill="#fab228"/>
    </g>
    <path id="Path_1031" data-name="Path 1031" d="M180.439,395.994l-2.209-.573,1.318-5.051,2.209.573Z" transform="translate(3443.42 455.679)" fill="#ffc3bd"/>
    <path id="Path_1032" data-name="Path 1032" d="M167.009,405.586l2.466.78a.158.158,0,0,1,.114.2l-.52,1.914a.415.415,0,0,1-.514.254c-.853-.292-1.248-.462-2.337-.806-.669-.21-2.282-.687-3.214-.979s-.584-1.169-.178-1.113a8.49,8.49,0,0,0,3.745-.234A.681.681,0,0,1,167.009,405.586Z" transform="translate(3454.618 444.93)" fill="#263238"/>
    <path id="Path_1033" data-name="Path 1033" d="M183.306,390.953l-2.209-.573-.678,2.6,2.209.573Z" transform="translate(3441.87 455.672)" opacity="0.2"/>
    <path id="Path_1034" data-name="Path 1034" d="M187.9,215.53s-4.043,19.215-5.119,25.505c-1.169,6.889-3.737,26.612-3.737,26.612l3.754,1.364s5.875-20.915,6.766-27.539c1.867-6.474,6.6-25.943,6.6-25.943Z" transform="translate(3442.847 579.439)" fill="#fab228"/>
    <path id="Path_1035" data-name="Path 1035" d="M223.207,234.2c-1.312,3.149-1.788,8.884-1.56,12.314,1.04-4.049,2.194-8.674,3.088-12.3C224.446,233.217,224.049,232.171,223.207,234.2Z" transform="translate(3412.726 567.045)" opacity="0.3"/>
    <path id="Path_1036" data-name="Path 1036" d="M181.876,393.166,177.85,392l.152-1.7,4.791,1.347Z" transform="translate(3443.689 455.728)" fill="#263238"/>
    <path id="Path_1037" data-name="Path 1037" d="M174.085,404.55a3,3,0,0,0,.611.108.054.054,0,0,0,.053-.082c-.056-.07-.538-.675-.839-.657a.2.2,0,0,0-.169.1.292.292,0,0,0-.026.292A.62.62,0,0,0,174.085,404.55Zm.5,0c-.421-.05-.7-.152-.774-.292a.181.181,0,0,1,.023-.187.1.1,0,0,1,.082-.053c.158-.006.467.289.669.526Z" transform="translate(3446.636 446.089)" fill="#fab228"/>
    <path id="Path_1038" data-name="Path 1038" d="M176.4,403.861h.026a.056.056,0,0,0,.041-.029c0-.026.269-.619.117-.894a.292.292,0,0,0-.193-.137.21.21,0,0,0-.237.091,1.1,1.1,0,0,0,.222.952A.047.047,0,0,0,176.4,403.861Zm0-.952a.154.154,0,0,1,.093.079,1.1,1.1,0,0,1-.085.716,1,1,0,0,1-.155-.76c0-.026.044-.056.12-.041Z" transform="translate(3444.925 446.886)" fill="#fab228"/>
    <path id="Path_1039" data-name="Path 1039" d="M181.441,153.729c-.2.473-.383.894-.584,1.326s-.418.856-.637,1.28c-.444.844-.912,1.677-1.426,2.489a22.874,22.874,0,0,1-3.681,4.607l-.053.053a1.247,1.247,0,0,1-.245.172,2.045,2.045,0,0,1-.786.237,3.315,3.315,0,0,1-.473,0,4.9,4.9,0,0,1-.7-.1c-.415-.088-.783-.2-1.145-.31-.719-.228-1.388-.505-2.045-.786s-1.306-.584-1.943-.914-1.262-.66-1.881-1.034a.707.707,0,0,1,.532-1.291h0c1.356.327,2.708.692,4.04,1.017.663.167,1.326.313,1.963.435a8.2,8.2,0,0,0,.909.131,2.98,2.98,0,0,0,.345,0h.05a.567.567,0,0,0-.292.091l-.292.225a19.494,19.494,0,0,0,1.569-1.981c.491-.71.955-1.461,1.4-2.215s.876-1.545,1.283-2.337.809-1.607,1.169-2.369l.018-.038a1.6,1.6,0,1,1,2.921,1.3Z" transform="translate(3452.431 624.782)" fill="#ffc3bd"/>
    <path id="Path_1040" data-name="Path 1040" d="M207.846,148.617c-1.881.053-3.173,2.095-4.406,4.639a10.865,10.865,0,0,0,3.929,3.944S212.313,148.491,207.846,148.617Z" transform="translate(3425.575 626.804)" fill="#e0e0e0"/>
    <path id="Path_1041" data-name="Path 1041" d="M162.234,178.12l-1.695-.432,1.321-1.7a2.858,2.858,0,0,1,2.016,1.461l-.6.429A1.283,1.283,0,0,1,162.234,178.12Z" transform="translate(3455.942 607.427)" fill="#ffc3bd"/>
    <path id="Path_1042" data-name="Path 1042" d="M158.554,174.7l.327-.292a.757.757,0,0,1,.973-.02l.432.348-1.321,1.7-.54-.841A.687.687,0,0,1,158.554,174.7Z" transform="translate(3457.516 608.681)" fill="#ffc3bd"/>
    <path id="Path_1043" data-name="Path 1043" d="M246.523,396.248h-2.311l-.552-5.148h2.311Z" transform="translate(3397.106 455.162)" fill="#ffc3bd"/>
    <path id="Path_1044" data-name="Path 1044" d="M234.2,407.839h2.6a.164.164,0,0,1,.172.152l.126,1.975a.406.406,0,0,1-.406.4c-.9-.018-1.335-.067-2.477-.067-.7,0-2.629.07-3.608.07s-.944-.923-.532-1.005a9.828,9.828,0,0,0,3.731-1.385A.655.655,0,0,1,234.2,407.839Z" transform="translate(3406.919 443.313)" fill="#263238"/>
    <path id="Path_1045" data-name="Path 1045" d="M245.971,391.1H243.66l.286,2.656h2.311Z" transform="translate(3397.106 455.162)" opacity="0.2"/>
    <path id="Path_1046" data-name="Path 1046" d="M224.81,215.516s.511,19.317.876,25.683c.409,6.971,3.871,27.623,3.871,27.623h4.236s-.929-20.915-1.63-27.755c.292-7.491.485-25.558.485-25.558Z" transform="translate(3410.448 579.453)" fill="#fab228"/>
    <path id="Path_1047" data-name="Path 1047" d="M243.951,394.245h-4.8l-.228-1.545,5.159.088Z" transform="translate(3400.461 454.03)" fill="#263238"/>
    <path id="Path_1048" data-name="Path 1048" d="M240.8,407.8a2.959,2.959,0,0,0,.616-.079.053.053,0,0,0,.018-.094c-.073-.047-.728-.479-1.011-.371a.2.2,0,0,0-.126.146.275.275,0,0,0,.067.292A.646.646,0,0,0,240.8,407.8Zm.467-.152c-.415.079-.719.064-.827-.038a.184.184,0,0,1-.038-.184.1.1,0,0,1,.058-.073C240.615,407.3,241,407.483,241.269,407.65Z" transform="translate(3399.497 443.737)" fill="#fab228"/>
    <path id="Path_1049" data-name="Path 1049" d="M242.776,406.491h.026a.061.061,0,0,0,.029-.044c0-.026.053-.666-.181-.876a.265.265,0,0,0-.228-.07.2.2,0,0,0-.2.155c-.053.242.292.707.523.838Zm-.327-.9a.158.158,0,0,1,.117.047,1.113,1.113,0,0,1,.152.707c-.2-.164-.432-.517-.4-.675,0-.032.026-.067.105-.076Z" transform="translate(3398.124 444.971)" fill="#fab228"/>
    <path id="Path_1050" data-name="Path 1050" d="M209.667,149.224a2.217,2.217,0,0,1,1.706-1.487,14.159,14.159,0,0,1,1.732-.292,47.7,47.7,0,0,1,5.259,0c.917.041,1.852.149,2.6.254h.026a1.42,1.42,0,0,1,1.236,1.648,67.427,67.427,0,0,0-1.142,9.019c-.181,4.4.064,7.853-.023,8.914H208.694C207.943,156.548,208.913,151.669,209.667,149.224Z" transform="translate(3422.048 627.684)" fill="#e0e0e0"/>
    <path id="Path_1051" data-name="Path 1051" d="M238.416,124.96a1.537,1.537,0,0,1-.231,2.629c.5.827-.83,2.288-2.168,1.37S236.57,124.18,238.416,124.96Z" transform="translate(3402.835 643.621)" fill="#263238"/>
    <path id="Path_1052" data-name="Path 1052" d="M223.1,114.424a1.06,1.06,0,0,1-.979-1.537c-.622-.242-.511-1.6.611-1.659S224.427,114.082,223.1,114.424Z" transform="translate(3412.622 653.269)" fill="#263238"/>
    <path id="Path_1053" data-name="Path 1053" d="M224.616,135.51a.654.654,0,0,1,.231-1.1,1.8,1.8,0,0,0,1.242-2.124,6.281,6.281,0,0,0-.123-.745l1.914-1.528,1.408-1.122c-.351,1.461-.742,4.005,0,5.294a.663.663,0,0,1-.134.853,4.249,4.249,0,0,1-3.114.9A2.326,2.326,0,0,1,224.616,135.51Z" transform="translate(3410.736 640.766)" fill="#ffc3bd"/>
    <path id="Path_1054" data-name="Path 1054" d="M206.829,149.337a2.574,2.574,0,0,1,1.873-1.7,15.855,15.855,0,0,1,1.674-.175.356.356,0,0,1,.394.447,67.025,67.025,0,0,0-1.943,19.913.412.412,0,0,1-.421.427h-2.454a.418.418,0,0,1-.424-.386C204.789,156.857,206.1,151.373,206.829,149.337Z" transform="translate(3424.252 627.623)" fill="#263238"/>
    <path id="Path_1055" data-name="Path 1055" d="M239.579,147.212A23.22,23.22,0,0,0,237.21,147h0a.611.611,0,0,0-.637.462c-.909,4-1.718,12.9-1.753,20.051a.415.415,0,0,0,.424.406h4.382a.415.415,0,0,0,.424-.4c.029-1.44-.169-4.815,0-9a62.815,62.815,0,0,1,1.122-8.887A2.487,2.487,0,0,0,239.579,147.212Z" transform="translate(3403.363 627.951)" fill="#263238"/>
    <path id="Path_1056" data-name="Path 1056" d="M249.263,150.32c.938,1.414,1.791,2.831,2.6,4.318.4.745.789,1.5,1.142,2.3.175.4.348.8.508,1.233a8.677,8.677,0,0,1,.409,1.432,3.472,3.472,0,0,1,.047,1.081,4.672,4.672,0,0,1-.225.856,8.638,8.638,0,0,1-.611,1.309,20.025,20.025,0,0,1-1.434,2.185,35.553,35.553,0,0,1-3.307,3.816.795.795,0,0,1-1.239-.979v-.018c.85-1.37,1.709-2.767,2.486-4.152.386-.689.754-1.391,1.049-2.068s.511-1.42.359-1.44a7.519,7.519,0,0,0-.339-.912c-.146-.333-.313-.678-.488-1.02-.356-.687-.739-1.385-1.139-2.071-.8-1.379-1.654-2.77-2.5-4.116v-.018a1.6,1.6,0,1,1,2.682-1.732Z" transform="translate(3395.219 626.114)" fill="#ffc3bd"/>
    <path id="Path_1057" data-name="Path 1057" d="M246.208,147.609c1.881-.035,2.878,1.557,4.111,4.09a9.145,9.145,0,0,1-4.061,3.7S242.51,147.673,246.208,147.609Z" transform="translate(3396.457 627.517)" fill="#e0e0e0"/>
    <path id="Path_1058" data-name="Path 1058" d="M244.234,211.614l-1.084.345,2.007,1.525s1.642-.853,1.128-1.627l-.333-.149A2.433,2.433,0,0,0,244.234,211.614Z" transform="translate(3397.467 582.291)" fill="#ffc3bd"/>
    <path id="Path_1059" data-name="Path 1059" d="M240.817,214.408l1.218,1.224a.4.4,0,0,0,.584-.032l.809-1.005-2.007-1.525-.625.856A.356.356,0,0,0,240.817,214.408Z" transform="translate(3399.192 581.18)" fill="#ffc3bd"/>
    <path id="Path_1060" data-name="Path 1060" d="M229.75,134.3a6.276,6.276,0,0,1,.123.745,1.81,1.81,0,0,0,1.849-1.35,4.488,4.488,0,0,0-.058-.923Z" transform="translate(3406.952 638.02)" opacity="0.2"/>
    <path id="Path_1061" data-name="Path 1061" d="M228.658,112.963c-.494,2.156-.669,3.442-2,4.4a3.041,3.041,0,0,1-4.823-2.171c-.169-2.022.666-5.209,3.027-5.776A3.016,3.016,0,0,1,228.658,112.963Z" transform="translate(3412.567 654.619)" fill="#ffc3bd"/>
    <path id="Path_1062" data-name="Path 1062" d="M228.511,108.652c-.625.032-1.291-2.174.088-3.237-.219.12-.818-.1-.713-.511-.406.169-2.182.1-1.753-.625-.9.234-2.872-.158-3.082-1.02s.806-.891.964-.777a1.135,1.135,0,0,1,.748-1.876c1.186-.333,2.974,1.382,2.974,1.382-.187-.453.47-.818,1.151-.429a2.89,2.89,0,0,1,1,1.493c0-.333,1.589.114.836,1.51.78.292,1.136.707,1.087,1.429s-.543.763-.543.763a1.253,1.253,0,0,1-.429,1.484C230.028,108.889,229.32,108.123,228.511,108.652Z" transform="translate(3411.714 660.817)" fill="#263238"/>
    <path id="Path_1063" data-name="Path 1063" d="M241.663,125.85a2.1,2.1,0,0,1-1.148.833c-.6.161-.806-.377-.561-.938.222-.505.8-1.2,1.367-1.113S242,125.348,241.663,125.85Z" transform="translate(3399.801 643.786)" fill="#ffc3bd"/>
    <path id="Path_1064" data-name="Path 1064" d="M231.923,120.641c-.029.175-.152.307-.272.292s-.2-.172-.167-.351a.314.314,0,0,1,.272-.292C231.876,120.29,231.938,120.462,231.923,120.641Z" transform="translate(3405.729 646.854)" fill="#263238"/>
    <path id="Path_1065" data-name="Path 1065" d="M224.61,119.311c-.029.178-.149.31-.269.292s-.2-.172-.167-.351a.312.312,0,0,1,.269-.292C224.563,118.96,224.639,119.135,224.61,119.311Z" transform="translate(3410.903 647.795)" fill="#263238"/>
    <path id="Path_1066" data-name="Path 1066" d="M225.831,121.52a6.56,6.56,0,0,1-1.131,1.394,1.1,1.1,0,0,0,.856.292Z" transform="translate(3410.527 645.983)" fill="#ed847e"/>
    <path id="Path_1067" data-name="Path 1067" d="M228.3,129.2a1.607,1.607,0,0,0,1.195-.351.056.056,0,0,0,0-.076.058.058,0,0,0-.076,0,1.54,1.54,0,0,1-1.312.292.053.053,0,0,0-.064.041.05.05,0,0,0,.041.061A1.49,1.49,0,0,0,228.3,129.2Z" transform="translate(3408.159 640.857)" fill="#263238"/>
    <path id="Path_1068" data-name="Path 1068" d="M233.109,117.31a.108.108,0,0,0-.047.026.1.1,0,0,0,0,.149,1.057,1.057,0,0,0,.917.345.1.1,0,0,0,.091-.12.108.108,0,0,0-.126-.088.844.844,0,0,1-.716-.292A.117.117,0,0,0,233.109,117.31Z" transform="translate(3404.631 648.969)" fill="#263238"/>
    <path id="Path_1069" data-name="Path 1069" d="M223.472,114.746a.126.126,0,0,0,.1,0,.952.952,0,0,1,.806-.02.106.106,0,1,0,.105-.184h0a1.169,1.169,0,0,0-1.011,0,.1.1,0,0,0-.047.14A.114.114,0,0,0,223.472,114.746Z" transform="translate(3411.436 651.004)" fill="#263238"/>
  </g>
</svg>
