<?xml version="1.0" encoding="UTF-8"?>
<svg xmlns="http://www.w3.org/2000/svg" viewBox="0 0 464.96 461.91">
  <g id="Background_Simple" data-name="Background Simple">
    <g>
      <path d="m464.18,196.23c-1.75-18.91-1.94-35.65-10.77-53.56-7.09-14.38-14.96-28.93-25.77-41.52-32.99-38.44-84.65-55.57-138.43-57.32-88.18-2.86-174.03,46.2-203.51,119-4.76,11.76-12.59,21.67-21.46,31-.92-.49-1.45-1.79-1.45-4.05,0-20.1-26.08,2.38-30.17,7.85-52.88,70.82-41.5,187.27,46.63,232.55,36.19,18.59,76.3,27.53,117.92,30.43,37.86,2.64,78.87-2.34,107.43-26.03,24.73-20.52,33.17-50.99,53.84-73.54-1.66,2.87-5.83,11.06-5.77,20.74.08,12.07,35.03,7.22,70.78-46.04,33.54-49.97,44.7-96.29,40.71-139.52Z" style="fill: #ff966c; stroke-width: 0px;"/>
      <path d="m464.18,196.23c-1.75-18.91-1.94-35.65-10.77-53.56-7.09-14.38-14.96-28.93-25.77-41.52-32.99-38.44-84.65-55.57-138.43-57.32-88.18-2.86-174.03,46.2-203.51,119-4.76,11.76-12.59,21.67-21.46,31-.92-.49-1.45-1.79-1.45-4.05,0-20.1-26.08,2.38-30.17,7.85-52.88,70.82-41.5,187.27,46.63,232.55,36.19,18.59,76.3,27.53,117.92,30.43,37.86,2.64,78.87-2.34,107.43-26.03,24.73-20.52,33.17-50.99,53.84-73.54-1.66,2.87-5.83,11.06-5.77,20.74.08,12.07,35.03,7.22,70.78-46.04,33.54-49.97,44.7-96.29,40.71-139.52Z" style="fill: #fff; opacity: .7; stroke-width: 0px;"/>
    </g>
  </g>
  <g id="Brain">
    <g>
      <path d="m383.58,237.96c0-7.25-2.61-13.89-6.94-19.03,1.55-3.59,2.42-7.56,2.42-11.72,0-15.24-11.52-27.78-26.33-29.4-1.16-15.28-13.92-27.32-29.49-27.32-1.74,0-3.45.16-5.11.45-4.32-12.74-19.49-22.16-37.53-22.16-6.19,0-12.04,1.11-17.23,3.08-6.91-8.11-18.89-13.48-32.52-13.48-9.6,0-18.38,2.67-25.15,7.08-4.63-3.05-10.17-4.82-16.13-4.82-14.1,0-25.87,9.93-28.73,23.17-4.29-4.26-10.2-6.89-16.72-6.89-10.26,0-19.01,6.51-22.32,15.63-2.61-1.04-5.45-1.61-8.43-1.61-12.61,0-22.84,10.23-22.84,22.84,0,2.13.3,4.19.84,6.15-2.52-.9-5.24-1.4-8.08-1.4-13.24,0-23.97,10.73-23.97,23.97,0,6.92,2.93,13.14,7.62,17.52-5.76,4.85-9.43,12.12-9.43,20.24,0,14.61,11.84,26.46,26.46,26.46,2.45,0,4.83-.34,7.08-.97-3.99,4.63-6.4,10.66-6.4,17.25,0,14.61,11.84,26.46,26.46,26.46,6.2,0,11.91-2.14,16.42-5.72,4.34,12.79,16.44,22,30.69,22,11.45,0,21.51-5.95,27.28-14.92,5.81,8.72,15.73,14.46,26.99,14.46,13.28,0,24.69-7.99,29.7-19.43,5.94,6.91,14.74,11.28,24.57,11.28,8.92,0,16.99-3.6,22.85-9.43,5.12,3.38,11.25,5.36,17.85,5.36,11.01,0,20.73-5.49,26.59-13.88,2.15.64,4.44.99,6.8.99,13.11,0,23.74-10.63,23.74-23.74,0-3.61-.81-7.03-2.25-10.09,12.28-3.6,21.24-14.94,21.24-28.39Z" style="fill: #ff966c; stroke: #263238; stroke-linecap: round; stroke-linejoin: round;"/>
      <path d="m333.03,189.19c1.36,7.03-.74,6.43-5.01,7.25-4.27.83-9.08,2.76-10.44-4.26-1.36-7.03,2.94-4.17,7.2-4.99,4.27-.83,6.89-5.02,8.25,2Z" style="fill: #263238; stroke-width: 0px;"/>
      <path d="m320.86,201.61s7.21,5.69,18.22,1.52" style="fill: none; stroke: #263238; stroke-linecap: round; stroke-linejoin: round;"/>
      <path d="m311.6,235.67s9.18-13.52,18.35-8.21" style="fill: none; stroke: #263238; stroke-linecap: round; stroke-linejoin: round; stroke-width: 2px;"/>
      <g>
        <path d="m282.85,196.87c1.36,7.03-.99,13.39-5.26,14.22-4.27.83-8.83-4.2-10.19-11.23-1.36-7.03.99-13.39,5.26-14.22,4.27-.83,8.83,4.2,10.19,11.23Z" style="fill: #263238; stroke-width: 0px;"/>
        <ellipse cx="272.35" cy="194.56" rx="2.77" ry="3.8" style="fill: #fff; stroke-width: 0px;"/>
      </g>
      <g>
        <path d="m205.69,125.46s4.32,1.44,8.05,7.64c0,0,20.85-7.28,32.86,3.1,8.75,7.56,6.82,15.5,6.82,15.5,0,0,10.16-5.34,22.28-.58,12.13,4.76,11.69,21.65,11.69,21.65" style="fill: none; stroke: #263238; stroke-linecap: round; stroke-linejoin: round;"/>
        <path d="m289.6,307.71s4.12-3.47,5.98-9.67c0,0,14.26-2.48,18.6-16.74,3.12-10.24-1.86-14.26-1.86-14.26,0,0,9.92-3.72,7.44-19.22" style="fill: none; stroke: #263238; stroke-linecap: round; stroke-linejoin: round;"/>
        <path d="m88.18,196.17s-.43-16.46,14.72-19.92" style="fill: none; stroke: #263238; stroke-linecap: round; stroke-linejoin: round;"/>
        <path d="m114.6,162.82s4.76-12.56,17.76-9.53" style="fill: none; stroke: #263238; stroke-linecap: round; stroke-linejoin: round;"/>
        <path d="m84.28,255.06s3.03,13.86,18.62,14.72" style="fill: none; stroke: #263238; stroke-linecap: round; stroke-linejoin: round;"/>
        <path d="m146.85,298.42c-.77-2.99-1.73-6.6-3.66-10.88-6.06-13.43-21.22-15.59-25.12-9.53" style="fill: none; stroke: #263238; stroke-linecap: round; stroke-linejoin: round;"/>
        <path d="m127.52,303.73s-5.56-10.13-18.98-10.13" style="fill: none; stroke: #263238; stroke-linecap: round; stroke-linejoin: round;"/>
        <path d="m196.88,307.03c-15.59,3.46-25.55-2.6-25.55-2.6,0,0-3.9,6.06-14.72,4.76-5.53-.66-7.33-2.8-8.58-6.52" style="fill: none; stroke: #263238; stroke-linecap: round; stroke-linejoin: round;"/>
        <path d="m107.24,214.35c3.46,6.5,4.33,13.43-2.6,18.19" style="fill: none; stroke: #263238; stroke-linecap: round; stroke-linejoin: round;"/>
        <path d="m80.82,194.87s-2.6,6.5,3.9,11.69c4.72,3.78,12.64,2.75,17.95,4.4" style="fill: none; stroke: #263238; stroke-linecap: round; stroke-linejoin: round;"/>
        <path d="m66.94,220.02s8.69,9.06,21.24,8.63" style="fill: none; stroke: #263238; stroke-linecap: round; stroke-linejoin: round;"/>
        <path d="m164.25,151.37c8.64.56,20.14.6,26.14-2.41,10.39-5.2,5.63-11.69-3.9-7.8-9.53,3.9-12.13,5.2-12.13,5.2" style="fill: none; stroke: #263238; stroke-linecap: round; stroke-linejoin: round;"/>
        <path d="m153.14,150.26s2.66.39,6.62.75" style="fill: none; stroke: #263238; stroke-linecap: round; stroke-linejoin: round;"/>
        <path d="m342.83,173.65s9.09,2.17,12.13,13.86" style="fill: none; stroke: #263238; stroke-linecap: round; stroke-linejoin: round;"/>
        <path d="m260.88,296.37c1.5-.86,3.01-1.81,4.49-2.86" style="fill: none; stroke: #263238; stroke-linecap: round; stroke-linejoin: round;"/>
        <path d="m228.8,303.89s12.4,1.15,26.14-4.61" style="fill: none; stroke: #263238; stroke-linecap: round; stroke-linejoin: round;"/>
        <path d="m127.4,255.86c-3.2.85-7.12,1.43-11.45,1.09-11.29-.9-19.41-4.51-24.38-13.09" style="fill: none; stroke: #263238; stroke-linecap: round; stroke-linejoin: round;"/>
        <path d="m196.26,220.08c2.49-1.33,5.11-2.61,7.82-3.8" style="fill: none; stroke: #263238; stroke-linecap: round; stroke-linejoin: round;"/>
        <path d="m169.65,238.82s7.94-7.6,20.24-15.1" style="fill: none; stroke: #263238; stroke-linecap: round; stroke-linejoin: round;"/>
        <path d="m208.47,196.24c-12.71,0-29.63,10.69-36.43,15.38-2.67,1.84-6.27,1.96-8.88.03-3.07-2.27-4.35-6.87,5.86-16.03" style="fill: none; stroke: #263238; stroke-linecap: round; stroke-linejoin: round;"/>
        <path d="m135.81,252.43s-1.39.87-3.77,1.86" style="fill: none; stroke: #263238; stroke-linecap: round; stroke-linejoin: round;"/>
        <path d="m216.16,159.89s-11.74-8.58-1.81-14.45,36.56.45,46.95,13.54" style="fill: none; stroke: #263238; stroke-linecap: round; stroke-linejoin: round;"/>
      </g>
    </g>
  </g>
  <g id="Glasses">
    <g>
      <path d="m132.24,218.23s12.25-18.67,15.27-22.55c3.02-3.89,11.23-6.48,19-8.2,7.77-1.73,21.59-3.02,21.59-3.02,0,0,23.32.43,26.34,1.73,3.02,1.3,6.48,3.89,6.48,3.89,0,0,6.48-9.93,16.41-9.93s48.79.86,49.66,4.75,5.18,28.93,5.18,28.93c0,0,0-28.93,2.16-29.36,2.16-.43,6.05-3.02,8.2,1.3,2.16,4.32,5.61,18.14,5.61,18.14,0,0,3.02-23.32,12.95-24.61,9.93-1.3,30.73-7.95,30.73-7.95l-.94-3.7-38.99,12.32s-8.51-2.39-14.99-2.39-12.95.43-12.95.43c0,0-41.45-6.05-51.39-4.75-9.93,1.3-18.14,5.18-18.14,5.18,0,0-55.7,4.75-58.29,5.18-2.59.43-15.55,3.45-18.14,7.77-2.59,4.32-5.77,26.87-5.77,26.87Z" style="fill: #263238; stroke: #263238; stroke-linecap: round; stroke-linejoin: round;"/>
      <g>
        <path d="m223.91,170.21s-70.28,11.35-78.57,11.35-22.26,26.63-24.01,31.87,6.55,5.67,10.91,4.8,11.79-27.94,17.46-29.68c5.67-1.75,68.16-4.25,68.16-4.25l6.05-14.08Z" style="fill: #fff; stroke: #263238; stroke-linecap: round; stroke-linejoin: round;"/>
        <path d="m354.03,162.29c-18.17,1.25-32.48,6.43-32.48,6.43,0,0-7.58,1.91-12.45,4.65-6.43,1.62-14.77,1.61-17.37,1.56-6.18-2.48-16.07-3.64-16.07-3.64,0,0-22.6-4.68-44.02-3.75-21.41.93-20.82,8.1-19.95,9.25,1.17,1.55,6.15,7.5,6.15,7.5,0,0,1.61,37.16,13.38,43.2,11.78,6.04,55.14-.93,64.24-3.72,8.2-2.51,3.87-30.52,1.69-41.95,2.95-1.28,5.79-1.38,7.88-1.15-.1,10.85.51,37.07,7.78,38.58,8.08,1.68,45.64,3.86,54.64-2.89,9-6.75,4.72-41.31,4.72-41.31l3.42-4.34c3.42-4.34-3.42-9.68-21.59-8.43Zm-64.97,54.52c-5.35,2.32-47.11,6.5-53.53.93-6.42-5.57-10.71-34.37-9.1-38.09,1.61-3.72,4.82-1.39,14.45-1.86,9.64-.46,48.18,4.18,48.18,4.18,0,0,5.35,32.51,0,34.84Zm73.34-9.04c-4.56,5.79-40.35,6.04-45.21,4.41-4.86-1.62-5.28-32.25-5.28-32.25,0,0,31.74-8.1,39.93-8.62,8.18-.52,10.53-2.99,12.45.3,1.92,3.28,2.67,30.37-1.89,36.16Z" style="fill: #fff; stroke: #263238; stroke-linecap: round; stroke-linejoin: round;"/>
      </g>
    </g>
  </g>
  <g id="Hands">
    <g>
      <path d="m139.23,422.53s-5.22-11.23.4-19.26,9.63-13.24,16.05-11.64c6.42,1.61,8.02,6.82,4.81,12.44-3.21,5.62-6.82,10.43-6.82,10.43,0,0,11.18,7.93,10.78,11.54-.4,3.61-7.62,8.02-11.23,7.62-3.61-.4-13.19-9.14-13.99-11.14Z" style="fill: #c9c9c9; stroke: #263238; stroke-linecap: round; stroke-linejoin: round;"/>
      <path d="m128.3,422.86s-5.22-11.23.4-19.26c5.62-8.02,9.63-13.24,16.05-11.64,6.42,1.6,8.02,6.82,4.81,12.44-3.21,5.62-6.82,10.43-6.82,10.43,0,0,11.18,7.93,10.78,11.54-.4,3.61-7.62,8.02-11.23,7.62-3.61-.4-13.19-9.14-13.99-11.14Z" style="fill: #c9c9c9; stroke: #263238; stroke-linecap: round; stroke-linejoin: round;"/>
      <path d="m117.35,427.7s-3.82-19.2,8.36-30.47c6.13-5.67,10.9-7.25,14.51-2.03,3.61,5.22-3.61,13.64-5.62,19.26-2.01,5.62,1.2,11.23,2.41,11.64,1.2.4,14.04,2.01,14.04,2.01,0,0,4.81,24.07-3.61,24.07s-29.69-16.1-30.09-24.48Z" style="fill: #c9c9c9; stroke: #263238; stroke-linecap: round; stroke-linejoin: round;"/>
      <path d="m180.87,316.47c-4.08,4-9.21,6.92-14.94,8.32v60.59l-3.47,3.73s-4.47,6.7-8.94,16.39c-4.47,9.68-5.96,27.56-5.96,27.56l-22.34-7.45s-3.72-14.15-4.47-20.11c-.74-5.96-11.17-12.66-16.39-2.98-5.21,9.68,2.23,26.81,14.15,39.48,11.92,12.66,26.07,18.62,40.96,19.37,14.9.74,39.45-8.77,43.17-23.67,3.72-14.9-21.53-52.46-21.53-52.46l-.26-68.76Z" style="fill: #c9c9c9; stroke: #263238; stroke-linecap: round; stroke-linejoin: round;"/>
      <path d="m165.93,324.8v11.28c3.98-.76,9.65-2.2,14.99-4.86l-.06-14.73c-4.08,4-9.21,6.92-14.94,8.32Z" style="fill: #263238; stroke: #263238; stroke-linecap: round; stroke-linejoin: round;"/>
    </g>
    <g>
      <g>
        <path d="m364.51,274.64c.04.59.08,1.19.08,1.8,0,9.58-5.67,17.82-13.84,21.58,16.1,8.75,40.81,23.02,42.17,28.81,2.03,8.63-16.25-2.03-16.25-2.03l8.63,24.38s39.11,13.21,46.73-13.71c6.01-21.23-45.5-49.73-67.52-60.82Z" style="fill: #c9c9c9; stroke: #263238; stroke-linecap: round; stroke-linejoin: round;"/>
        <path d="m364.58,276.44c0,9.58-5.67,17.82-13.84,21.58,4.49,2.44,9.64,5.31,14.78,8.3-.09-1.77-.02-6.73,2.77-14.16,2.13-5.67,5.12-9.57,7.17-11.79-4.09-2.22-7.81-4.15-10.95-5.73.04.59.08,1.19.08,1.8Z" style="fill: #263238; stroke: #263238; stroke-linecap: round; stroke-linejoin: round;"/>
      </g>
      <g>
        <path d="m364.75,301.59s-35.25,6.06-44.72,4.93c-9.47-1.14-15.16-2.65-15.54,4.55-.38,7.2,5.31,9.85,10.61,11.75,5.31,1.9,17.43,3.79,20.47,3.41,3.03-.38,33.35-.76,35.62-9.85,2.27-9.1-1.52-15.92-6.44-14.78Z" style="fill: #c9c9c9; stroke: #263238; stroke-linecap: round; stroke-linejoin: round;"/>
        <path d="m400.8,347.23s-11.46,13.75-21.2,8.59c-9.74-5.16-9.17-12.03-9.17-12.03l-11.46,6.88s7.45,4.58,6.3,10.31c-1.15,5.73-12.6,4.58-18.91,1.15s-7.45-8.02-7.45-8.02c0,0-3.44-.57-6.88-4.01-3.44-3.44-2.86-10.31-2.86-10.31,0,0-5.16-5.73-5.73-9.74-.57-4.01-.57-16.62,4.01-20.63,4.58-4.01,34.38-9.17,34.38-9.17,0,0-14.32-6.3-18.91-6.3s-18.91,6.88-24.06,7.45c-5.16.57-9.17-5.73-5.73-13.75,3.44-8.02,31.51-17.19,40.26-12.23,8.75,4.96,19.32,13.37,19.32,13.37l28.65,35.52s8.81,2.01,18.46-2.57" style="fill: #c9c9c9; stroke: #263238; stroke-linecap: round; stroke-linejoin: round;"/>
        <path d="m329.19,339.79s4.31-19.05,6.84-21.08,30.98-8.13,30.98-8.13" style="fill: none; stroke: #263238; stroke-linecap: round; stroke-linejoin: round;"/>
        <path d="m338.93,354.11s3.2-19.15,6.75-21.69c3.56-2.54,24.89-7.62,24.89-7.62" style="fill: none; stroke: #263238; stroke-linecap: round; stroke-linejoin: round;"/>
      </g>
    </g>
  </g>
  <g id="Eyesbrows">
    <g>
      <path d="m225.89,158.31s12.6-18,41.06-21.47c5.67-.69,11.43.28,16.59,2.75l9.95,4.76-9.55,16.17s-.73-6.61-20.57-7.35-30.86,12.49-34.54,11.02-7.35-2.2-2.94-5.88Z" style="fill: #263238; stroke-width: 0px;"/>
      <path d="m309.47,153.67s22.8,7.36,33.1-5.88c10.3-13.24,11.03-19.13,13.98-14.71s0,24.27-13.98,33.84c-13.98,9.56-32.37,3.68-32.37,3.68l-.74-16.92Z" style="fill: #263238; stroke-width: 0px;"/>
    </g>
  </g>
  <g id="Speech_Bubble" data-name="Speech Bubble">
    <g>
      <rect x="349.81" y="20.02" width="83.83" height="96.28" rx="7.03" ry="7.03" transform="translate(783.46 136.32) rotate(180)" style="fill: #263238; stroke: #263238; stroke-linecap: round; stroke-linejoin: round;"/>
      <rect x="331.42" y="94.33" width="15.77" height="21.58" rx="2.64" ry="2.64" transform="translate(678.6 210.23) rotate(180)" style="fill: #263238; stroke: #263238; stroke-linecap: round; stroke-linejoin: round;"/>
      <rect x="318.33" y="107.97" width="10.73" height="14.68" rx="2.64" ry="2.64" transform="translate(647.38 230.62) rotate(180)" style="fill: #263238; stroke: #263238; stroke-linecap: round; stroke-linejoin: round;"/>
    </g>
  </g>
  <g id="Question_Marks_2" data-name="Question Marks 2">
    <path d="m138.1,33.82c-1.21.94-1.96,2.38-2.24,4.33-.18,1.25-.21,2.38-.08,3.39.13,1.01.31,2.09.54,3.24l-17.76,1.46c-.35-1.96-.57-3.84-.67-5.65-.09-1.8,0-3.68.29-5.63,1-6.85,3.87-11.9,8.6-15.15,4.73-3.25,10.99-4.3,18.78-3.16,7.87,1.15,13.62,4.1,17.26,8.85,3.64,4.75,4.9,10.94,3.79,18.57-.68,4.67-2.11,9-4.29,12.98-.31.57-.64,1.14-.98,1.7m-1.97,2.93c-1.63,2.22-3.5,4.31-5.63,6.29-3.55,3.3-7.7,6.27-12.46,8.92l-1.67,11.45-17.29-2.53,2.2-15.07c3.9-2.21,7.5-4.79,10.8-7.73,3.29-2.94,6.03-6.18,8.22-9.72,2.19-3.54,3.58-7.33,4.17-11.38.42-2.88.2-5.04-.66-6.48-.86-1.44-2.31-2.31-4.33-2.6m-24.62,77.78l2.65-18.11,18.58,2.72-2.65,18.11-18.58-2.72Z" style="fill: none; stroke: #263238; stroke-linecap: round; stroke-linejoin: round;"/>
    <path d="m438.73,233.91c1.15-2.51,1.89-5.14,2.21-7.89.3-2.57.05-4.49-.75-5.75-.8-1.26-2.11-1.99-3.92-2.21-1.67-.2-3.03.14-4.09,1-1.05.86-1.68,2.17-1.89,3.91-.13,1.11-.13,2.12.01,3.02.14.9.33,1.86.56,2.87l-15.76,1.74c-.36-1.74-.6-3.4-.73-5.01-.13-1.6-.09-3.27.11-5.01.72-6.12,3.14-10.69,7.27-13.69,4.13-3.01,9.67-4.1,16.63-3.28,5.27.62,9.51,2.17,12.72,4.65m3.32,3.38c3.02,4.06,4.14,9.34,3.38,15.84-.49,4.17-1.65,8.06-3.49,11.65-1.84,3.59-4.29,6.9-7.36,9.93-3.07,3.02-6.69,5.77-10.87,8.25l-1.2,10.23-15.45-1.82,1.58-13.47c3.42-2.07,6.56-4.45,9.41-7.15,2.86-2.7,5.21-5.65,7.07-8.85m-21.21,51.63l1.9-16.18,16.6,1.95-1.9,16.18-16.6-1.95Z" style="fill: none; stroke: #263238; stroke-linecap: round; stroke-linejoin: round;"/>
    <path d="m10.9,261.28c2.62-1.27,5.73-2.16,9.31-2.66,7.23-1.01,13.07.11,17.5,3.36,4.43,3.25,7.14,8.39,8.12,15.41.6,4.3.45,8.48-.44,12.55-.42,1.93-1,3.83-1.74,5.71m-1.72,3.8c-.4.78-.83,1.56-1.29,2.33-2.28,3.82-5.18,7.51-8.69,11.07l1.47,10.53-15.9,2.22-1.94-13.86c2.87-2.96,5.38-6.16,7.53-9.6,2.15-3.44,3.73-7,4.75-10.69,1.02-3.68,1.27-7.39.75-11.11-.37-2.65-1.12-4.5-2.25-5.54-1.13-1.05-2.63-1.44-4.49-1.18-1.72.24-2.99.93-3.82,2.07-.83,1.14-1.11,2.6-.86,4.39.16,1.15.43,2.15.8,3.01.38.86.81,1.77,1.31,2.72l-15.28,5.86c-.81-1.64-1.49-3.24-2.04-4.81s-.95-3.24-1.2-5.04c-.88-6.3.35-11.49,3.68-15.57,1.15-1.41,2.54-2.64,4.15-3.68m11.57,85.99l-2.33-16.65,17.08-2.39,2.33,16.65-17.08,2.39Z" style="fill: none; stroke: #263238; stroke-linecap: round; stroke-linejoin: round;"/>
    <path d="m263.96,401.54c.41-.52.8-1.04,1.18-1.58,1.56-2.21,2.75-4.52,3.57-6.94.82-2.41,1.13-4.87.92-7.37-.14-1.78-.57-3.04-1.29-3.78-.71-.74-1.7-1.06-2.95-.96-1.15.09-2.03.5-2.62,1.23-.59.73-.84,1.69-.74,2.89.06.77.2,1.45.42,2.04.22.59.47,1.21.77,1.86l-10.4,3.32c-.48-1.12-.87-2.22-1.17-3.28-.3-1.06-.51-2.2-.6-3.4-.34-4.23.67-7.64,3.05-10.23,2.38-2.59,5.97-4.08,10.78-4.47,4.86-.4,8.7.57,11.53,2.91m1.89,1.97c1.66,2.2,2.64,5.06,2.93,8.6.23,2.89-.02,5.67-.77,8.34-.75,2.67-1.96,5.24-3.62,7.7-1.66,2.46-3.74,4.81-6.22,7.04l.58,7.07-10.68.87-.76-9.31c1.03-.95,2.01-1.94,2.92-2.98m-1.27,27.68l-.91-11.18,11.47-.93.91,11.18-11.47.93Z" style="fill: none; stroke: #263238; stroke-linecap: round; stroke-linejoin: round;"/>
  </g>
  <g id="Question_Mark_1" data-name="Question Mark 1">
    <path d="m379.29,82.35v-17.37c4.04-3.14,7.67-6.64,10.91-10.5,3.23-3.86,5.79-7.96,7.67-12.32,1.89-4.35,2.83-8.86,2.83-13.53,0-3.32-.61-5.72-1.82-7.2-1.21-1.48-2.98-2.22-5.32-2.22-2.15,0-3.84.63-5.05,1.88-1.21,1.26-1.82,3.01-1.82,5.25,0,1.44.16,2.71.47,3.84.31,1.12.69,2.31,1.14,3.57l-19.79,4.58c-.72-2.15-1.28-4.24-1.68-6.26-.4-2.02-.6-4.15-.6-6.4,0-7.9,2.4-14.07,7.2-18.51,4.8-4.44,11.69-6.66,20.67-6.66s16.04,2.38,20.93,7.14c4.89,4.76,7.34,11.53,7.34,20.33,0,5.38-.9,10.5-2.69,15.35-1.8,4.85-4.42,9.42-7.87,13.73-3.46,4.31-7.65,8.35-12.59,12.12v13.19h-19.92Zm-.67,28.67v-20.87h21.4v20.87h-21.4Z" style="fill: #ff966c; stroke: #263238; stroke-linecap: round; stroke-linejoin: round;"/>
  </g>
</svg>