<svg xmlns="http://www.w3.org/2000/svg" width="283.286" height="283.298" viewBox="0 0 283.286 283.298">
  <g id="Chat-pana" transform="translate(-55.228 -46.58)">
    <g id="freepik--background-complete--inject-2" transform="translate(62.348 46.58)">
      <path id="Path_288" data-name="Path 288" d="M369.969,285.545v29.54a9.682,9.682,0,0,1-9.682,9.682H254.367a9.682,9.682,0,0,1-9.675-9.682V290.121L231.5,276.267l128.76-.4a9.675,9.675,0,0,1,9.71,9.675Z" transform="translate(-115.842 -116.164)" fill="#f5f5f5"/>
      <path id="Path_289" data-name="Path 289" d="M272.847,300.079l96.12-.446-.014-2.953-96.113.446Z" transform="translate(-128.388 -122.479)" fill="#e6e6e6"/>
      <path id="Path_290" data-name="Path 290" d="M272.847,314.032l96.12-.439-.014-2.953-96.113.439Z" transform="translate(-128.388 -126.716)" fill="#e6e6e6"/>
      <rect id="Rectangle_112" data-name="Rectangle 112" width="38.03" height="2.953" transform="translate(144.442 193.845) rotate(-0.28)" fill="#e6e6e6"/>
      <path id="Path_291" data-name="Path 291" d="M160.79,46.58h62.471a5.572,5.572,0,0,1,5.572,5.572V82.737a5.572,5.572,0,0,1-5.572,5.572H170.249a5.572,5.572,0,0,1-5.572-5.572v-32.3Z" transform="translate(-94.383 -46.58)" fill="#f5f5f5"/>
      <path id="Path_292" data-name="Path 292" d="M273.47,125.226V136.2a2.786,2.786,0,0,0,2.786,2.786h61.336a2.786,2.786,0,0,0,2.786-2.786v-6l7.042-7.536-71.157-.23a2.786,2.786,0,0,0-2.793,2.786Z" transform="translate(-128.579 -69.602)" fill="#f0f0f0"/>
      <path id="Path_293" data-name="Path 293" d="M174.1,92.295v19.593a6.415,6.415,0,0,1-6.415,6.422H97.4a6.415,6.415,0,0,1-6.415-6.422V95.339L82.26,86.145l85.4-.265a6.415,6.415,0,0,1,6.436,6.415Z" transform="translate(-70.551 -58.507)" fill="#e0e0e0"/>
      <path id="Path_294" data-name="Path 294" d="M109.687,101.94l63.746-.293-.007-1.957-63.746.293Z" transform="translate(-78.873 -62.698)" fill="#f0f0f0"/>
      <path id="Path_295" data-name="Path 295" d="M109.687,111.2l63.746-.3-.007-1.957-63.746.293Z" transform="translate(-78.873 -65.505)" fill="#f0f0f0"/>
      <rect id="Rectangle_113" data-name="Rectangle 113" width="25.221" height="1.957" transform="translate(30.799 50.019) rotate(-0.28)" fill="#f0f0f0"/>
      <path id="Path_296" data-name="Path 296" d="M65.45,183.7v29.547a9.675,9.675,0,0,0,9.682,9.675H181.052a9.675,9.675,0,0,0,9.682-9.675V188.279l13.185-13.854L75.16,174a9.682,9.682,0,0,0-9.71,9.7Z" transform="translate(-65.45 -85.249)" fill="#f0f0f0"/>
      <path id="Path_297" data-name="Path 297" d="M181.02,198.242,84.9,197.8l.014-2.953,96.113.439Z" transform="translate(-71.353 -91.576)" fill="#e6e6e6"/>
      <path id="Path_298" data-name="Path 298" d="M181.02,212.2l-96.12-.446.014-2.953,96.113.446Z" transform="translate(-71.353 -95.81)" fill="#e6e6e6"/>
      <rect id="Rectangle_114" data-name="Rectangle 114" width="2.953" height="38.03" transform="translate(71.627 125.666) rotate(-89.72)" fill="#e6e6e6"/>
      <circle id="Ellipse_8" data-name="Ellipse 8" cx="12.865" cy="12.865" r="12.865" transform="matrix(0.41, -0.912, 0.912, 0.41, 179.197, 30.007)" fill="#f5f5f5"/>
      <path id="Path_299" data-name="Path 299" d="M340.428,75.739c.481-.042.926.495.982,1.2s-.286,1.309-.773,1.351-.933-.5-.989-1.205S339.94,75.774,340.428,75.739Z" transform="translate(-148.66 -55.428)" fill="#e0e0e0"/>
      <path id="Path_300" data-name="Path 300" d="M340.5,71a7.694,7.694,0,0,0-4.339,1.6A4.047,4.047,0,0,1,340.5,71Z" transform="translate(-147.604 -53.952)" fill="#e0e0e0"/>
      <path id="Path_301" data-name="Path 301" d="M352.1,75.5c-.495,0-.912.529-.94,1.24s.341,1.289.836,1.309.905-.536.933-1.24S352.587,75.514,352.1,75.5Z" transform="translate(-152.155 -55.356)" fill="#e0e0e0"/>
      <path id="Path_302" data-name="Path 302" d="M350.69,70.811a4.04,4.04,0,0,1,4.4,1.393A14.09,14.09,0,0,0,353,71.152a15.588,15.588,0,0,0-2.306-.341Z" transform="translate(-152.013 -53.879)" fill="#e0e0e0"/>
      <path id="Path_303" data-name="Path 303" d="M350.712,80.2a2.326,2.326,0,0,1-.091.7,5.906,5.906,0,0,1-.78,1.741,6.841,6.841,0,0,1-1.957,2.027,6.22,6.22,0,0,1-6.638.348A6.924,6.924,0,0,1,339.08,83.2a5.914,5.914,0,0,1-.919-1.658,1.888,1.888,0,0,1-.16-.7,9.8,9.8,0,0,0,1.289,2.166,6.736,6.736,0,0,0,2.09,1.679,6.018,6.018,0,0,0,6.269-.327,6.839,6.839,0,0,0,1.929-1.888,10.044,10.044,0,0,0,1.135-2.271Z" transform="translate(-148.162 -56.783)" fill="#e0e0e0"/>
      <path id="Path_304" data-name="Path 304" d="M93.35,284.088H95.2l4.068-5.419V275.11s2.877-.167,2.542,4.493,0,3.483,0,3.483,6.109,0,6.617.529c.369.369.536,6.178.6,9.326a3.427,3.427,0,0,1-2.521,3.441,3.126,3.126,0,0,1-.7.084c-1.449-.035-9.215-1.233-9.215-1.233H93.35Z" transform="translate(-73.917 -115.933)" fill="#f0f0f0"/>
      <path id="Path_305" data-name="Path 305" d="M85.7,286.57l1.142,12.182h3.19V286.814Z" transform="translate(-71.595 -119.411)" fill="#f0f0f0"/>
      <path id="Path_306" data-name="Path 306" d="M456.23,135.579a2.466,2.466,0,0,0-3.441-.16,4.179,4.179,0,0,0-1.567,3.176,4.277,4.277,0,0,0-2.09-2.939,2.494,2.494,0,0,0-3.42.613,3.337,3.337,0,0,0-.348,2.382,4.527,4.527,0,0,0,.989,2.222c1.929,2.048,2.925,2.375,5.315,3.761a16.061,16.061,0,0,0,4.507-4.409,4.556,4.556,0,0,0,.7-2.333A3.364,3.364,0,0,0,456.23,135.579Z" transform="translate(-180.719 -73.351)" fill="#f0f0f0"/>
    </g>
    <g id="freepik--Device--inject-2" transform="translate(134.87 83.092)">
      <path id="Path_307" data-name="Path 307" d="M257.785,312.645,185.29,312.3a15.783,15.783,0,0,1-15.721-15.853l.773-181.744A15.8,15.8,0,0,1,186.2,99l72.494.334a15.8,15.8,0,0,1,15.721,15.86l-.766,181.723a15.8,15.8,0,0,1-15.867,15.728Z" transform="translate(-169.57 -99)" fill="#263238"/>
      <path id="Path_308" data-name="Path 308" d="M260.69,108.32l-14.056-.063a3.483,3.483,0,0,0-3.427,3.552v2.549a3.483,3.483,0,0,1-3.427,3.552l-27.415-.125a3.483,3.483,0,0,1-3.4-3.587V111.65a3.483,3.483,0,0,0-3.4-3.587h-4.945L188.342,108a11.061,11.061,0,0,0-11.11,11.012L176.48,296.4a11.068,11.068,0,0,0,11.012,11.11l72.348.334a11.061,11.061,0,0,0,11.11-11.012l.752-177.391A11.068,11.068,0,0,0,260.69,108.32Z" transform="translate(-171.667 -101.731)" fill="#fff"/>
      <path id="Path_309" data-name="Path 309" d="M238.967,362.1a1.518,1.518,0,1,1-1.518-1.518A1.518,1.518,0,0,1,238.967,362.1Z" transform="translate(-189.708 -178.383)" fill="#455a64"/>
      <path id="Path_310" data-name="Path 310" d="M247.247,362.1a1.518,1.518,0,1,1-1.518-1.518,1.518,1.518,0,0,1,1.518,1.518Z" transform="translate(-192.221 -178.383)" fill="#455a64"/>
      <path id="Path_311" data-name="Path 311" d="M255.527,362.1a1.518,1.518,0,1,1-1.518-1.518A1.518,1.518,0,0,1,255.527,362.1Z" transform="translate(-194.734 -178.383)" fill="#455a64"/>
      <path id="Path_312" data-name="Path 312" d="M196.874,177.186V176.8a5.029,5.029,0,0,1,1.024-2.786,5.183,5.183,0,0,1,1.957-1.616,6.359,6.359,0,0,1,3.155-.522h13.178l55.722.111h.411l-.286.3L264.9,179.8l.049-.118v12.433a9.321,9.321,0,0,1-.181,2.473,5.336,5.336,0,0,1-1.177,2.194,5.4,5.4,0,0,1-2.006,1.435,5.983,5.983,0,0,1-2.41.411H236.436l-30.445-.063h-3.2a6.038,6.038,0,0,1-2.988-.536,5.349,5.349,0,0,1-3.009-4.451c0-3.483,0-6.415,0-8.846s0-4.3.035-5.572v5.572c0,2.4,0,5.4.049,8.832a5.133,5.133,0,0,0,2.911,4.256,5.767,5.767,0,0,0,2.884.5h3.322l30.48-.035h22.721a5.572,5.572,0,0,0,2.271-.383,5.12,5.12,0,0,0,1.881-1.337,4.938,4.938,0,0,0,1.087-2.048,8.942,8.942,0,0,0,.174-2.382V179.617l.049-.049,7.146-7.509.132.3-55.722-.237-9.361-.049h-3.824a6.268,6.268,0,0,0-3.093.481,5.113,5.113,0,0,0-1.936,1.56,5.328,5.328,0,0,0-.85,1.63A7.926,7.926,0,0,0,196.874,177.186Z" transform="translate(-177.83 -121.109)" fill="#455a64"/>
      <path id="Path_313" data-name="Path 313" d="M259.529,185.106l-52.079-.244.007-1.6,52.072.244Z" transform="translate(-181.065 -124.571)" fill="#455a64"/>
      <path id="Path_314" data-name="Path 314" d="M259.529,192.666l-52.079-.244.007-1.6,52.072.244Z" transform="translate(-181.065 -126.865)" fill="#455a64"/>
      <rect id="Rectangle_115" data-name="Rectangle 115" width="1.602" height="20.603" transform="translate(57.847 70.827) rotate(-89.72)" fill="#455a64"/>
      <path id="Path_315" data-name="Path 315" d="M265.876,227.868v16.02a5.245,5.245,0,0,1-5.238,5.245H203.244A5.245,5.245,0,0,1,198,243.888V230.354l-7.139-7.509,69.75-.216a5.238,5.238,0,0,1,5.266,5.238Z" transform="translate(-176.031 -136.518)" fill="#fab228"/>
      <path id="Path_316" data-name="Path 316" d="M213.257,235.746l52.079-.244-.007-1.6-52.079.244Z" transform="translate(-182.826 -139.939)" fill="#fff"/>
      <path id="Path_317" data-name="Path 317" d="M213.257,243.309l52.079-.244-.007-1.6-52.079.237Z" transform="translate(-182.826 -142.236)" fill="#fff"/>
      <rect id="Rectangle_116" data-name="Rectangle 116" width="20.603" height="1.602" transform="translate(30.415 104.608) rotate(-0.28)" fill="#fff"/>
      <path id="Path_318" data-name="Path 318" d="M251.182,139.776a2.786,2.786,0,0,0,1.672-2.605,2.64,2.64,0,1,0-5.273,0,2.786,2.786,0,0,0,1.679,2.626c-4.061.613-3.88,5.029-3.88,5.029l9.605.042S255.207,140.389,251.182,139.776Z" transform="translate(-192.576 -109.742)" fill="#fab228"/>
      <path id="Path_319" data-name="Path 319" d="M251.182,139.776a2.786,2.786,0,0,0,1.672-2.605,2.64,2.64,0,1,0-5.273,0,2.786,2.786,0,0,0,1.679,2.626c-4.061.613-3.88,5.029-3.88,5.029l9.605.042S255.207,140.389,251.182,139.776Z" transform="translate(-192.576 -109.742)" fill="#fff" opacity="0.5"/>
      <path id="Path_320" data-name="Path 320" d="M243.612,139.748a2.828,2.828,0,0,0,1.679-2.6,2.647,2.647,0,1,0-5.28,0,2.786,2.786,0,0,0,1.679,2.626c-4.061.613-3.88,5.029-3.88,5.029l9.605.042S247.637,140.361,243.612,139.748Z" transform="translate(-190.278 -109.714)" fill="#fab228"/>
      <rect id="Rectangle_117" data-name="Rectangle 117" width="25.82" height="3.204" transform="translate(42.2 36.96) rotate(0.26)" fill="#fab228"/>
      <rect id="Rectangle_118" data-name="Rectangle 118" width="25.82" height="3.204" transform="translate(42.2 36.96) rotate(0.26)" fill="#fff" opacity="0.3"/>
      <path id="Path_321" data-name="Path 321" d="M198.6,281.266a1.91,1.91,0,0,1,0-.376,2.688,2.688,0,0,1,.355-1.066,2.828,2.828,0,0,1,1.393-1.191,6.965,6.965,0,0,1,2.48-.216H218.8l53.779.111h.411l-.306.286-7.035,7.55.049-.125V292.4a2.946,2.946,0,0,1-1.978,2.64,3.19,3.19,0,0,1-1.135.167H238.847l-27.457-.056h-9.4a5.409,5.409,0,0,1-1.205-.07,2.884,2.884,0,0,1-2.229-2.326,6.6,6.6,0,0,1-.042-1.038q0-2,0-3.636c0-2.18,0-3.873.035-5.043v0c0,1.17,0,2.863.035,5.043v3.636a6.015,6.015,0,0,0,.049,1,2.682,2.682,0,0,0,2.09,2.166,5.767,5.767,0,0,0,1.163.056h9.5l27.485-.042h23.731a2.841,2.841,0,0,0,1.01-.146,2.619,2.619,0,0,0,1.491-1.33,2.563,2.563,0,0,0,.251-.989v-6.213l.049-.049,7.049-7.536.125.3-53.772-.23-15.971-.1a6.688,6.688,0,0,0-2.438.181,2.786,2.786,0,0,0-1.727,2.159A3.145,3.145,0,0,1,198.6,281.266Z" transform="translate(-178.353 -153.439)" fill="#455a64"/>
      <path id="Path_322" data-name="Path 322" d="M262.879,287.779l-52.079-.237.007-1.6,52.079.244Z" transform="translate(-182.082 -155.732)" fill="#455a64"/>
      <rect id="Rectangle_119" data-name="Rectangle 119" width="1.602" height="21.133" transform="translate(59.667 137.097) rotate(-89.72)" fill="#455a64"/>
      <path id="Path_323" data-name="Path 323" d="M263.71,322.326V333.3a2.786,2.786,0,0,1-2.786,2.786H199.588A2.786,2.786,0,0,1,196.8,333.3v-6l-7.042-7.536,71.164-.223A2.786,2.786,0,0,1,263.71,322.326Z" transform="translate(-175.697 -165.928)" fill="#fab228"/>
      <path id="Path_324" data-name="Path 324" d="M209.007,328.8l52.079-.237-.007-1.6L209,327.2Z" transform="translate(-181.536 -168.18)" fill="#fff"/>
      <path id="Path_325" data-name="Path 325" d="M209.007,336.2l52.079-.244-.007-1.6L209,334.6Z" transform="translate(-181.536 -170.426)" fill="#fff"/>
    </g>
    <g id="freepik--Emojis--inject-2" transform="translate(55.228 91.638)">
      <circle id="Ellipse_9" data-name="Ellipse 9" cx="8.17" cy="8.17" r="8.17" transform="translate(243.43)" fill="#fab228"/>
      <circle id="Ellipse_10" data-name="Ellipse 10" cx="8.17" cy="8.17" r="8.17" transform="translate(243.43)" fill="#fff" opacity="0.5"/>
      <path id="Path_326" data-name="Path 326" d="M412.334,119.64c.306,0,.585.327.613.773s-.2.829-.515.843-.585-.327-.613-.773S412.021,119.654,412.334,119.64Z" transform="translate(-163.444 -113.81)" fill="#263238"/>
      <path id="Path_327" data-name="Path 327" d="M412.453,116.607c0,.118-.7.084-1.393.348s-1.261.7-1.344.613.341-.7,1.205-1S412.488,116.5,412.453,116.607Z" transform="translate(-162.803 -112.832)" fill="#263238"/>
      <path id="Path_328" data-name="Path 328" d="M421.037,121.081c-.091.07-.529-.4-1.233-.474s-1.233.286-1.3.2.056-.2.286-.362a1.693,1.693,0,0,1,1.066-.251,1.63,1.63,0,0,1,.982.474C421.03,120.879,421.079,121.046,421.037,121.081Z" transform="translate(-165.466 -113.976)" fill="#263238"/>
      <path id="Path_329" data-name="Path 329" d="M421.749,119.2c-.063.1-.7-.244-1.609-.272s-1.574.251-1.63.139a1.888,1.888,0,0,1,1.644-.55C421.171,118.555,421.818,119.126,421.749,119.2Z" transform="translate(-165.475 -113.463)" fill="#263238"/>
      <path id="Path_330" data-name="Path 330" d="M418.807,122.77a2.585,2.585,0,0,1-.515,1.567,4.137,4.137,0,0,1-6.965.216,2.479,2.479,0,0,1-.606-1.532,9.8,9.8,0,0,0,.836,1.393,4.012,4.012,0,0,0,6.471-.2,11.693,11.693,0,0,0,.78-1.442Z" transform="translate(-163.111 -114.76)" fill="#263238"/>
      <path id="Path_331" data-name="Path 331" d="M78.208,325.329a11.493,11.493,0,1,1-11.144-11.841,11.493,11.493,0,0,1,11.144,11.841Z" transform="translate(-55.228 -172.636)" fill="#fab228"/>
      <path id="Path_332" data-name="Path 332" d="M78.208,325.329a11.493,11.493,0,1,1-11.144-11.841,11.493,11.493,0,0,1,11.144,11.841Z" transform="translate(-55.228 -172.636)" fill="#fff" opacity="0.5"/>
      <path id="Path_333" data-name="Path 333" d="M65.979,325.189a1.282,1.282,0,0,0-1.769-.258,2.2,2.2,0,0,0-.954,1.56,2.25,2.25,0,0,0-.919-1.616,1.3,1.3,0,0,0-1.79.153,1.727,1.727,0,0,0-.293,1.2,2.382,2.382,0,0,0,.4,1.191,9.054,9.054,0,0,0,2.556,2.194,8.42,8.42,0,0,0,2.528-2.048,2.4,2.4,0,0,0,.467-1.163,1.706,1.706,0,0,0-.223-1.219Z" transform="translate(-56.749 -176.007)" fill="#fab228"/>
      <path id="Path_334" data-name="Path 334" d="M80.5,325.6a1.275,1.275,0,0,0-1.769-.251,2.159,2.159,0,0,0-.954,1.56,2.25,2.25,0,0,0-.919-1.616,1.3,1.3,0,0,0-1.79.153,1.713,1.713,0,0,0-.293,1.205,2.312,2.312,0,0,0,.4,1.191,9.055,9.055,0,0,0,2.556,2.194,8.636,8.636,0,0,0,2.528-2.048,2.417,2.417,0,0,0,.467-1.17A1.72,1.72,0,0,0,80.5,325.6Z" transform="translate(-61.155 -176.133)" fill="#fab228"/>
      <path id="Path_335" data-name="Path 335" d="M73.79,333.9a3.789,3.789,0,0,1-7.55-.348Z" transform="translate(-58.57 -178.726)" fill="#fff"/>
    </g>
    <g id="freepik--character-2--inject-2" transform="translate(239.739 111.933)">
      <path id="Path_336" data-name="Path 336" d="M374.242,432.715l-1.393-7.355-13.2,2.34,1.915,11.026.829-.091c3.685-.439,18.639-2.723,20.938-3.928C385.93,433.363,374.242,432.715,374.242,432.715Z" transform="translate(-332.123 -226.883)" fill="#fab228"/>
      <path id="Path_337" data-name="Path 337" d="M384.4,437.725c0,.125-4.876,1.135-10.977,2.257s-11.033,1.929-11.054,1.8,4.876-1.128,10.97-2.25S384.359,437.607,384.4,437.725Z" transform="translate(-332.949 -230.632)" fill="#263238"/>
      <path id="Path_338" data-name="Path 338" d="M381.3,437.338c-.118-.042-.1-.446.118-.878s.515-.7.62-.634,0,.425-.216.829S381.417,437.386,381.3,437.338Z" transform="translate(-338.671 -230.056)" fill="#263238"/>
      <path id="Path_339" data-name="Path 339" d="M382.626,437.72c-.125,0-.146-.467,0-.975s.467-.843.578-.787,0,.467-.146.933S382.751,437.74,382.626,437.72Z" transform="translate(-339.065 -230.097)" fill="#263238"/>
      <path id="Path_340" data-name="Path 340" d="M366.178,441.537c-.049.049-.279-.111-.627-.383a8.36,8.36,0,0,0-1.393-.94,3.058,3.058,0,0,0-1.463-.376c-.411,0-.662.132-.7.07s.181-.272.655-.39a2.675,2.675,0,0,1,1.8.272,4.876,4.876,0,0,1,1.393,1.121C366.094,441.231,366.24,441.5,366.178,441.537Z" transform="translate(-332.835 -231.164)" fill="#263238"/>
      <path id="Path_341" data-name="Path 341" d="M380.482,435.987c.084.091-.1.39-.446.6s-.7.223-.738.1.2-.313.508-.5S380.412,435.9,380.482,435.987Z" transform="translate(-338.085 -230.099)" fill="#263238"/>
      <path id="Path_342" data-name="Path 342" d="M379.854,435c0,.125-.3.293-.745.383s-.815.056-.829-.07.32-.293.738-.376S379.819,434.883,379.854,435Z" transform="translate(-337.777 -229.775)" fill="#263238"/>
      <path id="Path_343" data-name="Path 343" d="M378.13,306.763c-4.089-8.254-26-40.183-26-40.183l-11.695,1.226v-.07l-13.088,1.435h0l-7.216.794,26.127,114.112,18.068-.327-4.346-21.112C362.966,355.15,380.393,311.332,378.13,306.763Zm-18.639,4.924-6.457,17.336L345.72,293.5Z" transform="translate(-320.13 -178.697)" fill="#263238"/>
      <path id="Path_344" data-name="Path 344" d="M349.76,177.779a48.054,48.054,0,0,1,.474-6.143s4.548-.334,4.973-4.82.474-14.871.474-14.871l-8.128-4.3-9.313,6.589-2.41,6.269,3.176,7.787-.1,2.577v5.9Z" transform="translate(-324.895 -142.602)" fill="#ffbe9d"/>
      <path id="Path_345" data-name="Path 345" d="M362.956,164.362a.578.578,0,1,1-.557-.592.571.571,0,0,1,.557.592Z" transform="translate(-332.776 -147.497)" fill="#263238"/>
      <path id="Path_346" data-name="Path 346" d="M362.526,163.431c-.077.077-.495-.3-1.108-.355s-1.094.23-1.156.146.049-.174.258-.306a1.511,1.511,0,0,1,.933-.209,1.491,1.491,0,0,1,.871.376C362.505,163.257,362.561,163.4,362.526,163.431Z" transform="translate(-332.304 -147.172)" fill="#263238"/>
      <path id="Path_347" data-name="Path 347" d="M352.6,163.561a.578.578,0,1,1-.808.125A.578.578,0,0,1,352.6,163.561Z" transform="translate(-329.705 -147.4)" fill="#263238"/>
      <path id="Path_348" data-name="Path 348" d="M352.656,163.119c-.077.07-.488-.306-1.107-.355s-1.094.23-1.156.139.049-.167.258-.3a1.539,1.539,0,0,1,.933-.216,1.512,1.512,0,0,1,.878.383C352.642,162.938,352.7,163.084,352.656,163.119Z" transform="translate(-329.309 -147.075)" fill="#263238"/>
      <path id="Path_349" data-name="Path 349" d="M356.62,168.7a4.137,4.137,0,0,1,1.017-.1c.16,0,.313,0,.355-.132a.961.961,0,0,0-.077-.508c-.118-.411-.244-.843-.383-1.3a23.434,23.434,0,0,1-.836-3.378,4.682,4.682,0,0,1,.362.954c.2.6.453,1.428.7,2.354.125.453.251.892.362,1.3a.989.989,0,0,1,.042.655.369.369,0,0,1-.272.209.947.947,0,0,1-.272,0,4.22,4.22,0,0,1-1-.063Z" transform="translate(-331.204 -147.351)" fill="#263238"/>
      <path id="Path_350" data-name="Path 350" d="M353.615,171.766c-.62-.432,1.693,1.094,2.96,1.128a1.72,1.72,0,0,1-2.09.522A1.3,1.3,0,0,1,353.615,171.766Z" transform="translate(-330.26 -149.9)" fill="#fff"/>
      <path id="Path_351" data-name="Path 351" d="M353.943,181.131a11.228,11.228,0,0,1-5.893-2.2s1.24,3.343,5.76,3.3Z" transform="translate(-328.603 -152.098)" fill="#eb996e"/>
      <path id="Path_352" data-name="Path 352" d="M340.363,166.6a1.542,1.542,0,0,1-.174.111.7.7,0,0,1-.5.035,1.637,1.637,0,0,1-.85-1.435,2.2,2.2,0,0,1,.125-.968.759.759,0,0,1,.474-.536.334.334,0,0,1,.4.153c.056.1.035.188.056.188s.084-.07.042-.223a.418.418,0,0,0-.167-.23.488.488,0,0,0-.376-.077.94.94,0,0,0-.662.634,2.306,2.306,0,0,0-.167,1.087,1.748,1.748,0,0,0,1.08,1.6.7.7,0,0,0,.6-.139C340.363,166.666,340.377,166.6,340.363,166.6Z" transform="translate(-325.722 -147.447)" fill="#eb996e"/>
      <path id="Path_353" data-name="Path 353" d="M356.21,150.495a2.911,2.911,0,0,1-.759.146,4.827,4.827,0,0,0,2-1.971,3.831,3.831,0,0,0,0-3.817,2.716,2.716,0,0,0-3.483-.975,2.194,2.194,0,0,0-.773-2.786,3.587,3.587,0,0,0-3.093-.272,10.712,10.712,0,0,0-2.786,1.588,2.285,2.285,0,0,0-1.275-1.672,3.545,3.545,0,0,0-2.131-.272,5.189,5.189,0,0,0-4.228,4.179,2.744,2.744,0,0,0-4.569,1.052.513.513,0,0,1,0,.1,2.187,2.187,0,0,0-1,.878,2.626,2.626,0,0,0-.216,2.229,3.594,3.594,0,0,0,1.393,1.748,2.87,2.87,0,0,1,.641.62,1.5,1.5,0,0,1,.244.7c-.063,1.5-.829,2.925-1.205,4.4-.515,2.048.62,4.841,1.275,6.847s.885,2.786,2.159,2.946l.2-5.391c-1.393,1.142-3.253-2.786-2.034-4.353s2.514-1.031,2.737-.042a9.631,9.631,0,0,0,.327,1.121h1.393l-.153-1.177s-.286-5.231,2.215-5.572a2.528,2.528,0,0,1,1.895.348,5.315,5.315,0,0,0,2.542.355,2.356,2.356,0,0,0,2.09-1.9,4.876,4.876,0,0,0,4.179,1.679,4.542,4.542,0,0,0,1.177-.286,2.473,2.473,0,0,0,1.435-.035,2.438,2.438,0,0,0,1.2-.857c.223-.313.265-.55.223-.571A4.555,4.555,0,0,1,356.21,150.495Zm-20.756-.167a3.378,3.378,0,0,1-1.24-1.6,2.333,2.333,0,0,1,.16-1.929,1.922,1.922,0,0,1,.62-.7c-.237,1.581.794,3.183,1.066,4.834a3.483,3.483,0,0,0-.578-.606Z" transform="translate(-324.26 -140.407)" fill="#fab228"/>
      <path id="Path_354" data-name="Path 354" d="M400.38,162.678v8.978a3.685,3.685,0,0,0,3.685,3.685h15.553v5.133l2.786-4.91h0a3.274,3.274,0,0,0,3.037-3.267v-9.619A3.685,3.685,0,0,0,421.708,159H404.065A3.685,3.685,0,0,0,400.38,162.678Z" transform="translate(-344.484 -146.049)" fill="#fab228"/>
      <path id="Path_355" data-name="Path 355" d="M411.207,170.748a1.518,1.518,0,1,1-1.518-1.518A1.518,1.518,0,0,1,411.207,170.748Z" transform="translate(-346.848 -149.154)" fill="#fff"/>
      <path id="Path_356" data-name="Path 356" d="M419.487,170.748a1.518,1.518,0,1,1-1.518-1.518A1.518,1.518,0,0,1,419.487,170.748Z" transform="translate(-349.361 -149.154)" fill="#fff"/>
      <path id="Path_357" data-name="Path 357" d="M427.767,170.748a1.518,1.518,0,1,1-1.518-1.518A1.518,1.518,0,0,1,427.767,170.748Z" transform="translate(-351.874 -149.154)" fill="#fff"/>
      <path id="Path_358" data-name="Path 358" d="M388.344,197.958c-.313-.7-20.095,16.765-24.037,17.364l-11.534-15.031s-2.4-3.8-7.543-10.3c-3.315-4.179-12.475-3.329-14.885,1.79-4.089,8.686-4.228,20.2-7.39,38.7l-2.675,15.693s3.949-.467,3.935-.432l28.084-2.918.7-18.806c5.572,5.628,7.272,6.805,10.162,6.359,7.265-1.128,32.681-23.988,32.681-23.988S388.651,198.669,388.344,197.958Z" transform="translate(-320.176 -154.646)" fill="#455a64"/>
      <path id="Path_359" data-name="Path 359" d="M420.408,215.232a7.285,7.285,0,0,1-1.393-1.1,31.345,31.345,0,0,1-5.628-6.6,7.076,7.076,0,0,1-.857-1.588,11.761,11.761,0,0,1,1.024,1.435c.641.9,1.553,2.124,2.647,3.406s2.152,2.375,2.939,3.155A10.94,10.94,0,0,1,420.408,215.232Z" transform="translate(-348.171 -160.294)" fill="#263238"/>
      <path id="Path_360" data-name="Path 360" d="M381.88,233.475a25.94,25.94,0,0,1,1.059-5.955,24.977,24.977,0,0,1-1.059,5.955Z" transform="translate(-338.87 -166.843)" fill="#263238"/>
      <path id="Path_361" data-name="Path 361" d="M384.881,232.889A10.321,10.321,0,0,1,384,230.3a10.1,10.1,0,0,1-.536-2.675,10.662,10.662,0,0,1,.885,2.584,10.445,10.445,0,0,1,.536,2.675Z" transform="translate(-339.349 -166.877)" fill="#263238"/>
      <path id="Path_362" data-name="Path 362" d="M345.84,211.67l14.62,27.638.327-8.2Z" transform="translate(-327.932 -162.033)" opacity="0.2"/>
      <path id="Path_363" data-name="Path 363" d="M344.48,209.74a6.458,6.458,0,0,1,.7.836l1.741,2.333c1.47,1.978,3.524,4.688,5.83,7.662l5.92,7.585,1.776,2.312a6.268,6.268,0,0,1,.613.878,6.454,6.454,0,0,1-.7-.787c-.481-.585-1.107-1.337-1.867-2.243-1.56-1.908-3.7-4.555-6-7.522s-4.332-5.712-5.753-7.724c-.7-1.01-1.275-1.832-1.651-2.41A6.082,6.082,0,0,1,344.48,209.74Z" transform="translate(-327.52 -161.448)" fill="#263238"/>
      <path id="Path_364" data-name="Path 364" d="M341.832,219.706a3.7,3.7,0,0,1-.258-.843c-.139-.55-.32-1.337-.536-2.306l.216.1-2.877,1.553-.2.1-.063-.216c-.1-.376-.216-.773-.334-1.177l-.5-1.8.258.1-2.835,1.6-.174.1v-.2a16.886,16.886,0,0,1-.293-2.605,16.861,16.861,0,0,1,.557,2.563l-.2-.1,2.786-1.665.2-.118.063.223c.16.578.334,1.184.508,1.8.118.4.23.8.334,1.177l-.258-.1,2.9-1.511.174-.1.035.2c.181.968.327,1.769.411,2.326a3.554,3.554,0,0,1,.084.892Z" transform="translate(-324.412 -162.777)" fill="#263238"/>
      <path id="Path_365" data-name="Path 365" d="M346,198.806a3.351,3.351,0,0,1-.78-.425c-.481-.3-1.156-.738-1.978-1.282l.223-.077c-.293.926-.62,1.985-.975,3.12l-.07.216-.2-.111-1.059-.62-1.616-.947.258-.1-.926,3.12-.056.188-.153-.118a17.188,17.188,0,0,1-2.02-1.672,17.821,17.821,0,0,1,2.18,1.456l-.209.07c.244-.919.529-1.978.843-3.134l.063-.223.2.118,1.623.933,1.059.62-.258.1,1.017-3.113.07-.188.16.111c.8.571,1.456,1.045,1.908,1.393A3.657,3.657,0,0,1,346,198.806Z" transform="translate(-325.143 -157.499)" fill="#263238"/>
      <path id="Path_366" data-name="Path 366" d="M360.694,206.261a3.481,3.481,0,0,1-.662-.592c-.4-.4-.975-.975-1.658-1.686h.237c-.488.843-1.045,1.8-1.637,2.835l-.111.188-.167-.153-.9-.829-1.393-1.275.279-.049c-.585,1.052-1.121,2.006-1.588,2.835l-.1.174-.125-.146a17.53,17.53,0,0,1-1.6-2.09,17.782,17.782,0,0,1,1.811,1.895h-.223l1.511-2.877.111-.2.167.153,1.393,1.275.892.836h-.272l1.686-2.786.1-.167.132.146c.7.7,1.2,1.337,1.56,1.769a3.336,3.336,0,0,1,.55.745Z" transform="translate(-329.58 -159.584)" fill="#e0e0e0"/>
      <path id="Path_367" data-name="Path 367" d="M399.622,231.417a6.775,6.775,0,0,1-.585-.662c-.348-.439-.843-1.087-1.428-1.881h.237l-1.978,2.605-.139.174-.139-.167-.794-.94-1.191-1.435h.279l-1.929,2.612-.118.16-.1-.16a17.873,17.873,0,0,1-1.33-2.257,16.885,16.885,0,0,1,1.553,2.09h-.223c.55-.773,1.177-1.672,1.867-2.661l.132-.181.146.174,1.2,1.435.787.94h-.279l2.027-2.563.125-.16.111.16c.564.815,1.017,1.484,1.33,1.957a4.033,4.033,0,0,1,.439.759Z" transform="translate(-341.455 -167.153)" fill="#263238"/>
      <path id="Path_368" data-name="Path 368" d="M375.484,229.615a3.893,3.893,0,0,1-.7-.508c-.446-.348-1.08-.857-1.839-1.477l.23-.056-1.323,2.981-.084.2-.181-.132-1-.7-1.511-1.114.272-.077c-.46,1.114-.878,2.09-1.247,3l-.077.188-.139-.139a16.535,16.535,0,0,1-1.832-1.867,17.247,17.247,0,0,1,2.013,1.672l-.216.049c.341-.892.738-1.915,1.17-3.03l.084-.216.181.132,1.518,1.1.989.7-.272.077,1.351-2.981.084-.181.146.125c.738.655,1.344,1.191,1.762,1.574A2.564,2.564,0,0,1,375.484,229.615Z" transform="translate(-334.069 -166.759)" fill="#e0e0e0"/>
      <path id="Path_369" data-name="Path 369" d="M410.916,222.29a3.686,3.686,0,0,1-.181-.864c-.084-.564-.2-1.393-.32-2.34l.209.118-3.009,1.3-.2.084-.042-.216c-.07-.39-.146-.794-.223-1.2-.118-.641-.23-1.254-.334-1.846l.244.125-2.96,1.365-.181.077v-.2a16.516,16.516,0,0,1-.049-2.619,16.6,16.6,0,0,1,.313,2.605l-.188-.118,2.932-1.393.2-.1.042.23c.111.592.23,1.2.348,1.839.077.418.146.822.216,1.205l-.244-.132,3.03-1.233.188-.077v.2c.091.982.16,1.79.2,2.354a3.754,3.754,0,0,1,.014.85Z" transform="translate(-345.533 -163.369)" fill="#e0e0e0"/>
      <path id="Path_370" data-name="Path 370" d="M364.491,214.34a3.858,3.858,0,0,1-.738.46c-.488.279-1.2.7-2.09,1.135l.042-.237,2.278,2.347.153.16-.188.118-1.045.634-1.6.975v-.279l2.3,2.3.139.146-.181.077a16.886,16.886,0,0,1-2.431.975,17.812,17.812,0,0,1,2.319-1.226l-.035.223-2.354-2.243-.167-.153.2-.118,1.6-.982,1.045-.634v.272c-.815-.864-1.574-1.679-2.236-2.389l-.139-.146.181-.084c.885-.432,1.616-.787,2.124-1.017A3.329,3.329,0,0,1,364.491,214.34Z" transform="translate(-332.5 -162.844)" fill="#263238"/>
      <path id="Path_371" data-name="Path 371" d="M382.868,236.07a3.7,3.7,0,0,1-.745.481c-.488.279-1.2.7-2.09,1.128l.035-.23,2.285,2.347.153.153-.188.118-1.045.641-1.609.968.035-.272,2.3,2.3.139.139-.181.077a17.98,17.98,0,0,1-2.431.982,17.806,17.806,0,0,1,2.361-1.219l-.042.223-2.347-2.243-.167-.16.2-.118,1.6-.975,1.052-.641-.035.279-2.236-2.389-.139-.146.174-.084c.885-.439,1.616-.787,2.131-1.024A3.356,3.356,0,0,1,382.868,236.07Z" transform="translate(-338.096 -169.438)" fill="#e0e0e0"/>
      <path id="Path_372" data-name="Path 372" d="M344.683,233.352a4.047,4.047,0,0,1-.258-.85c-.139-.55-.32-1.337-.536-2.3l.216.1-2.9,1.567-.2.111-.056-.216c-.111-.383-.223-.78-.334-1.184-.174-.62-.348-1.226-.509-1.8l.258.1-2.828,1.6-.174.1v-.2a18.106,18.106,0,0,1-.293-2.6,16.353,16.353,0,0,1,.557,2.556l-.2-.1,2.786-1.665.2-.111.063.216c.16.578.334,1.184.515,1.8l.327,1.184-.258-.111,2.9-1.511.174-.091.042.188c.181.968.32,1.769.411,2.326a3.755,3.755,0,0,1,.1.885Z" transform="translate(-325.271 -166.922)" fill="#e0e0e0"/>
      <path id="Path_373" data-name="Path 373" d="M361.355,242.792a3.868,3.868,0,0,1-.258-.85c-.139-.55-.32-1.337-.536-2.3l.216.1-2.87,1.567-.2.111-.063-.216c-.111-.383-.223-.78-.334-1.177-.174-.627-.341-1.233-.509-1.811l.258.1-2.828,1.6-.174.1v-.188a18.246,18.246,0,0,1-.293-2.605,16.616,16.616,0,0,1,.557,2.556l-.2-.091,2.786-1.665.2-.118.063.223c.167.578.334,1.177.515,1.8l.327,1.184-.251-.111,2.9-1.511.181-.091.035.188c.181.968.32,1.769.411,2.326A3.337,3.337,0,0,1,361.355,242.792Z" transform="translate(-330.339 -169.787)" fill="#263238"/>
      <path id="Path_374" data-name="Path 374" d="M336.908,263.584a3.707,3.707,0,0,1-.258-.843c-.139-.55-.32-1.337-.536-2.3l.216.1-2.87,1.567-.2.1L333.2,262c-.111-.376-.223-.773-.334-1.177l-.5-1.8.251.1-2.821,1.623-.174.1v-.2a18.045,18.045,0,0,1-.293-2.605,16.862,16.862,0,0,1,.557,2.563l-.2-.1,2.786-1.665.2-.118.063.223c.167.578.334,1.184.515,1.8l.327,1.177-.251-.1,2.9-1.511.181-.1.035.2c.181.968.32,1.769.411,2.326a2.96,2.96,0,0,1,.063.85Z" transform="translate(-322.922 -176.106)" fill="#e0e0e0"/>
      <path id="Path_375" data-name="Path 375" d="M336.581,243.173a3.484,3.484,0,0,1-.731-.5c-.453-.334-1.094-.836-1.86-1.456l.23-.056-1.261,3.023-.084.2-.181-.132c-.327-.223-.662-.467-1-.7l-1.518-1.094.265-.077-1.212,3.016-.077.181-.139-.132a18.528,18.528,0,0,1-1.86-1.846,16.6,16.6,0,0,1,2.041,1.644l-.216.056c.327-.892.7-1.922,1.135-3.044l.077-.216.188.132,1.546,1.073,1,.7-.265.07,1.316-3,.084-.181.146.125c.745.648,1.358,1.177,1.776,1.56A3.783,3.783,0,0,1,336.581,243.173Z" transform="translate(-322.26 -170.886)" fill="#263238"/>
      <path id="Path_376" data-name="Path 376" d="M348.05,244.78a3.519,3.519,0,0,1-.7.529c-.467.313-1.149.752-1.985,1.275v-.237l2.445,2.18.16.153-.181.125-1,.7-1.532,1.08v-.272l2.5,2.145.146.132-.167.091a17.248,17.248,0,0,1-2.361,1.142,18.165,18.165,0,0,1,2.229-1.393v.223l-2.508-2.09-.174-.146.188-.132,1.525-1.087,1-.7v.279l-2.4-2.222-.146-.139.167-.1c.85-.495,1.553-.9,2.055-1.17A3.3,3.3,0,0,1,348.05,244.78Z" transform="translate(-327.656 -172.081)" fill="#263238"/>
      <path id="Path_377" data-name="Path 377" d="M358.011,251.6a3.485,3.485,0,0,1-.488.738c-.334.46-.829,1.1-1.435,1.881l-.056-.23,3.037,1.219.2.077-.125.188-.7,1.01-1.073,1.539-.084-.272,3.03,1.17.188.077-.132.139a16.6,16.6,0,0,1-1.825,1.881,18.187,18.187,0,0,1,1.623-2.055l.056.216-3.058-1.094-.216-.077.132-.188c.334-.495.7-1.01,1.059-1.546.244-.341.474-.7.7-1l.077.265-3-1.275-.181-.077.125-.153c.634-.759,1.156-1.393,1.532-1.8A7.95,7.95,0,0,1,358.011,251.6Z" transform="translate(-330.937 -174.151)" fill="#e0e0e0"/>
      <path id="Path_378" data-name="Path 378" d="M353.338,267.9a.593.593,0,0,0,.077.23,5.047,5.047,0,0,1,.2.7c.167.606.418,1.5.7,2.668s.634,2.584.878,4.277a4.534,4.534,0,0,1-.355,2.723,8.825,8.825,0,0,1-1.783,2.528V280.9c1.825,8.665,4.381,20.805,7.216,34.234,2.751,13.234,5.21,25.179,6.965,33.851.871,4.332,1.56,7.843,2.013,10.274.23,1.212.4,2.159.5,2.786a4.177,4.177,0,0,1,.111.989s-.056-.334-.181-.975-.327-1.6-.571-2.786c-.508-2.445-1.233-5.941-2.124-10.253-1.811-8.672-4.3-20.624-7.049-33.823-2.786-13.443-5.307-25.59-7.1-34.255v-.07l.049-.049c1.477-1.484,2.473-3.357,2.09-5.043-.223-1.679-.564-3.113-.822-4.277s-.481-2.041-.634-2.675l-.167-.7A1.01,1.01,0,0,1,353.338,267.9Z" transform="translate(-330.054 -179.098)" fill="#455a64"/>
      <path id="Path_379" data-name="Path 379" d="M329.565,270.3a1.844,1.844,0,0,1,.216.474,5.419,5.419,0,0,1,.265,1.393,6.436,6.436,0,0,1-5.315,6.805,5.627,5.627,0,0,1-1.393.084,1.338,1.338,0,0,1-.508-.091c0-.07.738,0,1.874-.244a6.506,6.506,0,0,0,5.106-6.547A16.031,16.031,0,0,0,329.565,270.3Z" transform="translate(-320.949 -179.826)" fill="#455a64"/>
      <path id="Path_380" data-name="Path 380" d="M349.021,271.227s0-.1.167-.2a.912.912,0,0,1,.7-.091.926.926,0,0,1,.7.773,1.045,1.045,0,0,1-1.874.773,1,1,0,0,1-.118-1.038c.286-.564.745-.578.731-.536a1.25,1.25,0,0,0-.488.627.745.745,0,0,0,.132.738.8.8,0,0,0,.85.23.766.766,0,0,0,.432-.752.648.648,0,0,0-.453-.571,1.24,1.24,0,0,0-.773.042Z" transform="translate(-328.738 -180.008)" fill="#455a64"/>
      <path id="Path_381" data-name="Path 381" d="M367.369,271.669a2.57,2.57,0,0,1-1.351.467,4.876,4.876,0,0,1-5.412-3.483,2.661,2.661,0,0,1-.132-1.393c.063,0,.077.543.369,1.344a5.015,5.015,0,0,0,5.147,3.329C366.839,271.822,367.348,271.613,367.369,271.669Z" transform="translate(-332.361 -178.904)" fill="#455a64"/>
      <path id="Path_382" data-name="Path 382" d="M373.647,426.456a2.355,2.355,0,0,1-.7.084l-1.895.1-6.269.3-6.269.327-1.9.077a2.474,2.474,0,0,1-.7,0,2.36,2.36,0,0,1,.7-.125c.439-.056,1.087-.125,1.888-.2,1.6-.146,3.81-.306,6.269-.432s4.667-.181,6.269-.188h1.9a2.562,2.562,0,0,1,.7.049Z" transform="translate(-330.991 -227.199)" fill="#455a64"/>
      <path id="Path_383" data-name="Path 383" d="M335.719,281.71c.1,0,5.572,22.588,12.252,50.5s11.994,50.568,11.9,50.589-5.572-22.581-12.252-50.505S335.622,281.731,335.719,281.71Z" transform="translate(-324.861 -183.289)" fill="#455a64"/>
      <path id="Path_384" data-name="Path 384" d="M361.31,283a.83.83,0,0,1,.125.153l.341.453,1.3,1.776,4.695,6.554,6.93,9.751,4.075,5.774a16.253,16.253,0,0,1,3.155,6.9,16.074,16.074,0,0,1-1.2,7.495c-.8,2.292-1.679,4.52-2.487,6.617-1.63,4.179-3.176,7.954-4.52,11.082s-2.48,5.642-3.274,7.369l-.94,1.985-.251.508c-.063.111-.091.174-.1.167a.654.654,0,0,1,.063-.181c.056-.139.132-.313.223-.529l.871-2.006c.759-1.748,1.86-4.277,3.169-7.411s2.835-6.9,4.444-11.1c.8-2.09,1.63-4.311,2.459-6.617a15.349,15.349,0,0,0,1.191-7.327,16.4,16.4,0,0,0-3.093-6.749l-4.054-5.781-6.868-9.828-4.6-6.624-1.233-1.811c-.132-.2-.237-.348-.313-.474S361.3,283,361.31,283Z" transform="translate(-332.627 -183.68)" fill="#455a64"/>
      <path id="Path_385" data-name="Path 385" d="M412.13,198.663l15.553-11.353.766,1.219-15.456,11.493Z" transform="translate(-348.05 -154.641)" fill="#263238"/>
      <path id="Path_386" data-name="Path 386" d="M417.65,198.838s2.09-5.433,2.556-6.589,1.261-3.169,1.56-3.211,1.393.125-.035,3.58,1.679,1.344,1.679,1.344l3-2.145s2.368,7.077,1.024,9.208a34.744,34.744,0,0,1-3.552,4.5Z" transform="translate(-349.725 -155.164)" fill="#ffbe9d"/>
    </g>
    <g id="freepik--character-1--inject-2" transform="translate(59.919 208.515)">
      <path id="Path_387" data-name="Path 387" d="M132.006,319.657a38.544,38.544,0,0,0-.244-5.482s-4.513-.481-4.785-4.952,0-14.794,0-14.794l8.219-4.019,9.055,6.847-1.393,22.379Z" transform="translate(-81.656 -282.511)" fill="#b78876"/>
      <path id="Path_388" data-name="Path 388" d="M128.82,306.671a.571.571,0,1,0,.571-.571.571.571,0,0,0-.571.571Z" transform="translate(-82.252 -287.273)" fill="#263238"/>
      <path id="Path_389" data-name="Path 389" d="M127.615,306.025c.07.07.495-.286,1.107-.32s1.08.265,1.149.181-.049-.174-.251-.313a1.5,1.5,0,0,0-.919-.244,1.546,1.546,0,0,0-.885.355C127.635,305.844,127.573,305.99,127.615,306.025Z" transform="translate(-81.882 -287.038)" fill="#263238"/>
      <circle id="Ellipse_11" data-name="Ellipse 11" cx="0.571" cy="0.571" r="0.571" transform="translate(53.234 18.723)" fill="#263238"/>
      <path id="Path_390" data-name="Path 390" d="M137.176,305.868c.077.077.495-.286,1.114-.313s1.08.265,1.142.181-.042-.174-.244-.313a1.511,1.511,0,0,0-1.8.111C137.2,305.694,137.141,305.841,137.176,305.868Z" transform="translate(-84.785 -286.993)" fill="#263238"/>
      <path id="Path_391" data-name="Path 391" d="M133.453,311.217a3.892,3.892,0,0,0-1.01-.125c-.153,0-.306-.035-.341-.146a.891.891,0,0,1,.091-.5l.418-1.275a22.327,22.327,0,0,0,.94-3.329,24.624,24.624,0,0,0-1.177,3.253c-.146.446-.279.878-.4,1.282a.961.961,0,0,0-.063.648.383.383,0,0,0,.265.223.9.9,0,0,0,.265,0A4.221,4.221,0,0,0,133.453,311.217Z" transform="translate(-83.18 -287.194)" fill="#263238"/>
      <path id="Path_392" data-name="Path 392" d="M135.768,314.4a6.8,6.8,0,0,1-2.988,1.024,1.714,1.714,0,0,0,2.048.578C136.144,315.452,135.768,314.4,135.768,314.4Z" transform="translate(-83.454 -289.792)" fill="#fff"/>
      <path id="Path_393" data-name="Path 393" d="M133.9,323.656a11.144,11.144,0,0,0,5.927-2.006s-1.344,3.288-5.83,3.107Z" transform="translate(-83.794 -291.992)" fill="#a36957"/>
      <path id="Path_394" data-name="Path 394" d="M157.339,304.891s1.825,10.316-6.889,12.175l.258-12.426Z" transform="translate(-88.816 -286.83)" fill="#263238"/>
      <path id="Path_395" data-name="Path 395" d="M149.288,294.846a15.686,15.686,0,0,0-2.981-6.046c1.254.522,2.09,1.045,2.264.878s-.146-.481-.7-.947a7.432,7.432,0,0,0-2.41-1.316l-.411-.111a4.792,4.792,0,0,0,1.546-1,3.608,3.608,0,0,0,.871-4.005A3.316,3.316,0,0,0,144.2,280.6a4.179,4.179,0,0,0-3.093,2.152,4.959,4.959,0,0,0-.369.864,12.24,12.24,0,0,1,.153-1.477c.279-1.72.919-3.009.815-3.065a6.074,6.074,0,0,0-1.191,3,3.734,3.734,0,0,1-.063.488,10.04,10.04,0,0,0-.5-1.3c-.425-.9-.829-1.393-.947-1.316-.244.118.55,2.006.878,4.555a9.057,9.057,0,0,0-2.424-.453c-1.518,0-4.04-.7-7.606,2.166a10.908,10.908,0,0,0-3.072,2.946,11.026,11.026,0,0,0-1.915,5.837,9.646,9.646,0,0,0,.118,1.874,2.089,2.089,0,0,0,.174.662c.07,0-.132-.968,0-2.521a11.186,11.186,0,0,1,.759-3.357,8.5,8.5,0,0,0,.334,5.621l7.975-1.247a15.153,15.153,0,0,1,.1-5.879,15.625,15.625,0,0,0,7,9.64l8.393-1.316C149.608,297.709,149.469,295.529,149.288,294.846Z" transform="translate(-81.051 -279.07)" fill="#263238"/>
      <path id="Path_396" data-name="Path 396" d="M187.65,442.427c.258.125,20.833,4.179,20.074,1.393s-19.893-7.16-19.893-7.16Z" transform="translate(-100.105 -326.895)" fill="#fab228"/>
      <path id="Path_397" data-name="Path 397" d="M201.025,442.33c.1,0,.244.474.237,1.094s-.153,1.107-.251,1.094-.118-.5-.111-1.094S200.927,442.337,201.025,442.33Z" transform="translate(-104.126 -328.615)" fill="#263238"/>
      <path id="Path_398" data-name="Path 398" d="M199.4,441.79a1.785,1.785,0,0,1,.2,1.275c-.07.724-.327,1.254-.418,1.219s0-.578.056-1.254S199.295,441.8,199.4,441.79Z" transform="translate(-103.594 -328.451)" fill="#263238"/>
      <path id="Path_399" data-name="Path 399" d="M197.55,441.63c.1,0,.237.543.251,1.24s-.1,1.254-.2,1.247-.146-.557-.16-1.24S197.452,441.637,197.55,441.63Z" transform="translate(-103.075 -328.403)" fill="#263238"/>
      <path id="Path_400" data-name="Path 400" d="M193.991,438.739a1.018,1.018,0,0,1,.32.035,5.375,5.375,0,0,1,.905.188c.787.167,1.922.439,3.309.822s3.03.864,4.827,1.477c.9.306,1.853.62,2.786,1.031a9.054,9.054,0,0,1,2.744,1.734,1.114,1.114,0,0,1,.3.369.467.467,0,0,1-.174.578,1.692,1.692,0,0,1-.871.188c-.536.042-1.066.063-1.581.077-1.038,0-2.041,0-3-.077-1.9-.118-3.6-.355-5.022-.578s-2.563-.446-3.35-.606l-.905-.188a1.115,1.115,0,0,1-.313-.091,7.922,7.922,0,0,1,1.24.139l3.364.488c1.393.2,3.12.4,5.008.508.947.049,1.936.077,2.967.049.508,0,1.038-.035,1.56-.077a1.463,1.463,0,0,0,.7-.132c.063-.049.07-.077.049-.139a1.039,1.039,0,0,0-.216-.251,8.8,8.8,0,0,0-2.64-1.665c-.933-.4-1.881-.7-2.786-1.045-1.79-.62-3.42-1.135-4.792-1.546s-2.5-.7-3.274-.933a9.237,9.237,0,0,1-1.156-.355Z" transform="translate(-102.023 -327.525)" fill="#263238"/>
      <path id="Path_401" data-name="Path 401" d="M209.529,443.13c.1.035-.1.815,0,1.776a14.805,14.805,0,0,1,.272,1.755,3.308,3.308,0,0,1-.244-3.531Z" transform="translate(-106.633 -328.858)" fill="#263238"/>
      <path id="Path_402" data-name="Path 402" d="M81.491,439.09c-.286,0-21.049,2.863-19.44,5.2s21.14.286,21.14.286Z" transform="translate(-61.962 -327.632)" fill="#fab228"/>
      <path id="Path_403" data-name="Path 403" d="M77.777,445.048c-.084.042-.383-.376-.578-.961A1.7,1.7,0,0,1,77.081,443a2.751,2.751,0,0,1,.46,1C77.728,444.567,77.868,445,77.777,445.048Z" transform="translate(-66.537 -328.819)" fill="#263238"/>
      <path id="Path_404" data-name="Path 404" d="M79.458,444.871c-.084.049-.439-.432-.613-1.135s-.1-1.3,0-1.3.188.55.355,1.205S79.548,444.822,79.458,444.871Z" transform="translate(-67.054 -328.649)" fill="#263238"/>
      <path id="Path_405" data-name="Path 405" d="M81.228,444.44c-.091.042-.4-.439-.641-1.094s-.313-1.219-.216-1.247.32.488.557,1.121S81.319,444.4,81.228,444.44Z" transform="translate(-67.536 -328.545)" fill="#263238"/>
      <path id="Path_406" data-name="Path 406" d="M78.88,444.958a1.059,1.059,0,0,1-.313.07l-.919.118c-.8.1-1.957.209-3.392.3s-3.148.167-5.05.181c-.954,0-1.95,0-3-.063a8.748,8.748,0,0,1-3.155-.738,1.163,1.163,0,0,1-.411-.251.474.474,0,0,1,0-.6,1.637,1.637,0,0,1,.759-.467c.495-.216.982-.4,1.47-.592.975-.355,1.936-.648,2.856-.905,1.839-.508,3.524-.836,4.938-1.087s2.57-.418,3.364-.522l.919-.118a1.018,1.018,0,0,1,.32,0,7.945,7.945,0,0,1-1.219.272l-3.336.634c-1.393.286-3.079.641-4.876,1.156-.912.265-1.86.557-2.786.919-.481.188-.968.376-1.456.585a1.462,1.462,0,0,0-.606.348c-.042.07-.042.091,0,.146a.984.984,0,0,0,.293.167,8.589,8.589,0,0,0,3.03.7c1.017.084,2.02.077,2.967.084,1.895,0,3.6-.042,5.036-.1s2.591-.139,3.392-.188a8.794,8.794,0,0,1,1.17-.049Z" transform="translate(-62.137 -327.991)" fill="#263238"/>
      <path id="Path_407" data-name="Path 407" d="M69.1,446.58c-.111,0-.167-.8-.557-1.686s-.905-1.5-.829-1.567.759.453,1.163,1.393a2.522,2.522,0,0,1,.223,1.86Z" transform="translate(-63.706 -328.916)" fill="#263238"/>
      <path id="Path_408" data-name="Path 408" d="M151.894,402.51H141.328l-39.005,1.01-11.144-1.442a10.055,10.055,0,0,0-3.246-.425,9.481,9.481,0,0,0-3.81,2.9c-4.249,5.071-1.574,12.886,4.82,14.627l6,1.63L81.81,425.029l4.437,12.593s19.614-4.242,38.636-8.72l30.438,8.233L159.709,423l-5.161-1.679c3.239-.989,5.287-1.769,5.572-2.243,1.915-2.967,5.308-16.765-8.275-16.556" transform="translate(-67.986 -316.259)" fill="#455a64"/>
      <path id="Path_409" data-name="Path 409" d="M173.163,429.98l-22.623,9.368L143.7,437.5Z" transform="translate(-86.768 -324.867)" opacity="0.2"/>
      <path id="Path_410" data-name="Path 410" d="M100.81,404.42l28.962,8.3,22.059-7.522Z" transform="translate(-73.752 -317.111)" opacity="0.2"/>
      <path id="Path_411" data-name="Path 411" d="M92.814,446.313a10.014,10.014,0,0,1-.926-1.818c-.515-1.149-1.184-2.786-1.839-4.569s-1.191-3.483-1.532-4.681a10.364,10.364,0,0,1-.467-1.985,12.463,12.463,0,0,1,.7,1.909c.4,1.191.968,2.835,1.623,4.632s1.289,3.42,1.741,4.59A13.41,13.41,0,0,1,92.814,446.313Z" transform="translate(-69.879 -325.863)" fill="#263238"/>
      <path id="Path_412" data-name="Path 412" d="M163.42,409.64a.7.7,0,0,1-.181.077l-.543.2-2.09.738-7.724,2.626c-6.554,2.187-15.623,5.147-25.674,8.3s-19.189,5.907-25.813,7.857l-7.857,2.271L91.4,432.3l-.564.146a.766.766,0,0,1-.2.035l.188-.07.55-.181,2.09-.662,7.822-2.382c6.61-2.006,15.728-4.8,25.771-7.954s19.127-6.074,25.695-8.2l7.787-2.514,2.124-.7.55-.167a.7.7,0,0,1,.2-.021Z" transform="translate(-70.665 -318.694)" fill="#263238"/>
      <path id="Path_413" data-name="Path 413" d="M145.164,408.91a2.022,2.022,0,0,1-.446.188l-1.3.474c-1.128.4-2.786.975-4.806,1.665-4.068,1.393-9.7,3.232-15.937,5.231s-11.9,3.761-16.02,5c-2.09.62-3.726,1.108-4.876,1.435l-1.33.369a3.533,3.533,0,0,1-.474.1,2.088,2.088,0,0,1,.453-.174l1.309-.432,4.876-1.546,15.978-5.1,15.964-5.133,4.841-1.553,1.323-.411A2.133,2.133,0,0,1,145.164,408.91Z" transform="translate(-73.5 -318.473)" fill="#263238"/>
      <path id="Path_414" data-name="Path 414" d="M129.625,412.664c0,.1-6.5-1.672-14.46-3.949s-14.383-4.179-14.355-4.3,6.5,1.672,14.453,3.949S129.653,412.567,129.625,412.664Z" transform="translate(-73.752 -317.108)" fill="#263238"/>
      <path id="Path_415" data-name="Path 415" d="M185.271,430.94a72.864,72.864,0,0,1-2.494,6.93c-1.47,3.789-2.737,6.826-2.828,6.791a71.635,71.635,0,0,1,2.494-6.923C183.913,433.949,185.181,430.905,185.271,430.94Z" transform="translate(-97.769 -325.159)" fill="#263238"/>
      <path id="Path_416" data-name="Path 416" d="M178.783,438.006a49.762,49.762,0,0,1-5.691-1.33,47.188,47.188,0,0,1-5.572-1.686,49.051,49.051,0,0,1,5.691,1.33,47.179,47.179,0,0,1,5.572,1.686Z" transform="translate(-93.996 -326.388)" fill="#263238"/>
      <path id="Path_417" data-name="Path 417" d="M109.958,418.9a7.125,7.125,0,0,1-1.08-.216l-2.911-.7c-2.452-.627-5.844-1.477-9.542-2.591a75.931,75.931,0,0,1-9.3-3.406c-1.149-.529-2.09-.989-2.689-1.33a5.681,5.681,0,0,1-.947-.564,7.089,7.089,0,0,1,1.01.439c.641.3,1.567.7,2.73,1.219a92.684,92.684,0,0,0,9.3,3.295c3.692,1.114,7.07,2,9.508,2.689l2.877.829A5.474,5.474,0,0,1,109.958,418.9Z" transform="translate(-68.495 -318.834)" fill="#263238"/>
      <path id="Path_418" data-name="Path 418" d="M138.389,330.217h-.857l-.125-2.967-11.764.7s.118,1.393.111,2.361c-7.244.7-18.855,4.416-19.134,20.722l9.292.216c-.787,7.481-.7,11.945-1.456,14.752-1.3,4.639-5.4,14.432-4.576,14.927s38.95,1.2,40.768.209-1.491-13.77-2.319-17.239c-.522-2.215-.634-7.286-.648-11.207l10.671-.481S159.124,330.155,138.389,330.217Z" transform="translate(-75.515 -293.691)" fill="#fab228"/>
      <path id="Path_419" data-name="Path 419" d="M145.721,331.33a7.354,7.354,0,0,1-1.727.293c-1.08.125-2.57.244-4.221.279a40.447,40.447,0,0,1-4.221-.1,7.933,7.933,0,0,1-1.741-.223,8.907,8.907,0,0,1,1.748-.035h4.179c1.616,0,3.127-.111,4.179-.167a9.4,9.4,0,0,1,1.8-.049Z" transform="translate(-83.766 -294.923)" fill="#263238"/>
      <path id="Path_420" data-name="Path 420" d="M136.921,328.11c.1,0,.181.571.181,1.275s-.077,1.282-.181,1.282-.181-.571-.181-1.282S136.789,328.11,136.921,328.11Z" transform="translate(-84.656 -293.952)" fill="#263238"/>
      <path id="Path_421" data-name="Path 421" d="M141.394,327.79a2.94,2.94,0,0,1,.216,1.393,3.009,3.009,0,0,1-.139,1.393c-.1,0-.2-.627-.223-1.393a2.9,2.9,0,0,1,.146-1.393Z" transform="translate(-86.015 -293.855)" fill="#263238"/>
      <path id="Path_422" data-name="Path 422" d="M146.076,327.63a2.6,2.6,0,0,1,.251,1.393c.014.78-.091,1.393-.2,1.393a3.4,3.4,0,0,1-.167-1.393A4.294,4.294,0,0,1,146.076,327.63Z" transform="translate(-87.451 -293.807)" fill="#263238"/>
      <path id="Path_423" data-name="Path 423" d="M149.456,327.47c.1,0,.174.613.272,1.358a3.582,3.582,0,0,1,.077,1.393c-.1.035-.341-.564-.432-1.344S149.358,327.463,149.456,327.47Z" transform="translate(-88.477 -293.758)" fill="#263238"/>
      <path id="Path_424" data-name="Path 424" d="M121.965,358.415a17.209,17.209,0,0,1-.209-3.483,16.264,16.264,0,0,1,.153-3.483,17.72,17.72,0,0,1,.209,3.483,17.509,17.509,0,0,1-.153,3.483Z" transform="translate(-80.098 -301.036)" fill="#263238"/>
      <path id="Path_425" data-name="Path 425" d="M164.707,359.827a20.676,20.676,0,0,1-.5-3.761,19.432,19.432,0,0,1-.132-3.8,40.509,40.509,0,0,1,.634,7.557Z" transform="translate(-92.939 -301.284)" fill="#263238"/>
      <path id="Path_426" data-name="Path 426" d="M117.33,361.307a7.929,7.929,0,0,1-1.6.049h-7.683a7.828,7.828,0,0,1-1.6-.049,6.415,6.415,0,0,1,1.588-.2c.982-.077,2.347-.132,3.852-.125s2.87.056,3.852.132a6.755,6.755,0,0,1,1.588.2Z" transform="translate(-75.463 -303.927)" fill="#263238"/>
      <path id="Path_427" data-name="Path 427" d="M175.91,363.032a43.684,43.684,0,0,1-5.677.181,43.748,43.748,0,0,1-5.684-.181,45.275,45.275,0,0,1,5.684-.181,45.222,45.222,0,0,1,5.677.181Z" transform="translate(-93.095 -304.489)" fill="#263238"/>
      <path id="Path_428" data-name="Path 428" d="M167.614,363.25s2.786,26-5.182,28.557-23.682-9.549-23.682-9.549l4.527-9.166s10.448,7.258,12.7,5.621,1.08-15.463,1.08-15.463Z" transform="translate(-85.266 -304.617)" fill="#b78876"/>
      <path id="Path_429" data-name="Path 429" d="M106.6,361.413s-2.835,25.737,5.126,28.3,23.682-9.556,23.682-9.556l-4.534-9.166s-10.511,6.721-12.691,5.022c-1.261-.989-1.3-14.467-1.3-14.467C113.178,361.385,109.745,361.225,106.6,361.413Z" transform="translate(-75.359 -304.033)" fill="#b78876"/>
      <path id="Path_430" data-name="Path 430" d="M154.95,369.15l-5.287,25.911s-32.486-.251-32.82-.348-3.483-25.562-3.483-25.562Z" transform="translate(-77.56 -306.407)" fill="#263238"/>
      <path id="Path_431" data-name="Path 431" d="M139.568,387.208a1.95,1.95,0,1,0,1.95-1.818A1.9,1.9,0,0,0,139.568,387.208Z" transform="translate(-85.512 -311.335)" fill="#fff"/>
      <path id="Path_432" data-name="Path 432" d="M149.294,306.244a2.09,2.09,0,0,1,1.978-.118,2.041,2.041,0,0,1,.738,1.3,2.7,2.7,0,0,1-.592,2.361,1.839,1.839,0,0,1-2.3.313" transform="translate(-88.413 -287.222)" fill="#b78876"/>
      <path id="Path_433" data-name="Path 433" d="M150.488,309.783c0-.056.223-.091.481-.286a1.135,1.135,0,0,0,.515-1.031,1.156,1.156,0,0,0-.662-.933c-.293-.139-.515-.132-.522-.188s.223-.16.613-.063a1.33,1.33,0,0,1,.23,2.459C150.739,309.895,150.488,309.86,150.488,309.783Z" transform="translate(-88.771 -287.62)" fill="#a36957"/>
    </g>
  </g>
</svg>
