<?xml version="1.0" encoding="UTF-8"?>
<svg xmlns="http://www.w3.org/2000/svg" viewBox="0 0 677.26 474.61">
  <g id="Background_Complete" data-name="Background Complete">
    <g>
      <circle cx="194.84" cy="71.75" r="32.87" transform="translate(80.81 245.27) rotate(-76.91)" style="fill: #ebebeb; stroke-width: 0px;"/>
      <path d="m186.15,72.75v-9.58c0-2.49,2.7-4.05,4.86-2.81l8.29,4.79,8.29,4.79c2.16,1.25,2.16,4.36,0,5.61l-8.29,4.79-8.29,4.79c-2.16,1.25-4.86-.31-4.86-2.81v-9.58Z" style="fill: #fff; stroke-width: 0px;"/>
    </g>
    <g>
      <path d="m481.42,84.58h0c-10.23,0-18.53-8.3-18.53-18.53v-21.77c0-10.23,8.3-18.53,18.53-18.53h0c10.23,0,18.53,8.3,18.53,18.53v21.77c0,10.23-8.3,18.53-18.53,18.53Z" style="fill: #ebebeb; stroke-width: 0px;"/>
      <path d="m481.42,95.87c-15.09,0-27.36-12.27-27.36-27.36h2.65c0,13.62,11.08,24.71,24.71,24.71,14.55-.02,24.71-10.17,24.71-24.71h2.65c0,16.09-11.25,27.34-27.35,27.36Z" style="fill: #ebebeb; stroke-width: 0px;"/>
      <rect x="480.09" y="94.53" width="2.65" height="13.39" style="fill: #ebebeb; stroke-width: 0px;"/>
      <rect x="465.24" y="106.01" width="32.35" height="2.65" style="fill: #ebebeb; stroke-width: 0px;"/>
      <path d="m454.1,37.87c-.97,0-2.45-.53-4.78-1.52-3.95-1.68-5.27-2.53-4.8-3.94l.18-.55.62-.32c1.38-.62,4.89.81,5.58,1.11.69.29,4.15,1.82,4.66,3.25l.19.55-.27.63s0,0,0,0h0c-.28.54-.71.8-1.38.8Z" style="fill: #ebebeb; stroke-width: 0px;"/>
      <path d="m464.68,24c-.84,0-2.12-.94-4.79-4.56-3.16-4.29-3-5.33-2.95-5.67l.09-.54.93-.73.63.06c.34.05,1.38.21,4.54,4.5,3.7,5.02,3.27,5.97,2.38,6.62h0c-.25.18-.51.33-.83.33Z" style="fill: #ebebeb; stroke-width: 0px;"/>
      <path d="m481,18.99l-.51-.44c-.25-.24-1.01-.96-.95-6.01.05-5.06.83-5.76,1.08-5.99l.43-.39h.67c.81.07,1.92.16,1.85,6.43-.07,6.27-1.18,6.33-1.99,6.38l-.58.03Z" style="fill: #ebebeb; stroke-width: 0px;"/>
      <path d="m497.26,22.58l-.55-.44c-1.16-1.08-.12-2.59,2.17-5.64,2.29-3.03,3.45-4.46,4.82-3.65l.51.3.18.69c.32,1.57-2.02,4.73-2.29,5.08-.26.35-2.65,3.47-4.24,3.61l-.6.05Z" style="fill: #ebebeb; stroke-width: 0px;"/>
      <path d="m509.25,37.67c-.73,0-1.04-.35-1.27-.75-.71-1.25.66-2.31,1.32-2.82.77-.6,1.84-1.3,3.01-1.96,4.92-2.8,5.82-2.17,6.33-1.28.71,1.25-.66,2.31-1.32,2.82-.77.6-1.84,1.3-3.01,1.96-2.68,1.53-4.17,2.03-5.05,2.03Z" style="fill: #ebebeb; stroke-width: 0px;"/>
    </g>
    <g>
      <path d="m369.3,413.79c-1.67,0-3.02-1.35-3.02-3.02v-43.61c0-1.67,1.35-3.02,3.02-3.02s3.02,1.35,3.02,3.02v43.61c0,1.67-1.35,3.02-3.02,3.02Z" style="fill: #e0e0e0; stroke-width: 0px;"/>
      <path d="m355.11,406.97c-1.67,0-3.02-1.35-3.02-3.02v-29.97c0-1.67,1.35-3.02,3.02-3.02s3.02,1.35,3.02,3.02v29.97c0,1.67-1.35,3.02-3.02,3.02Z" style="fill: #e0e0e0; stroke-width: 0px;"/>
      <path d="m383.48,406.97c-1.67,0-3.02-1.35-3.02-3.02v-29.97c0-1.67,1.35-3.02,3.02-3.02s3.02,1.35,3.02,3.02v29.97c0,1.67-1.35,3.02-3.02,3.02Z" style="fill: #e0e0e0; stroke-width: 0px;"/>
      <path d="m397.66,400.85c-1.67,0-3.02-1.35-3.02-3.02v-17.72c0-1.67,1.35-3.02,3.02-3.02s3.02,1.35,3.02,3.02v17.72c0,1.67-1.35,3.02-3.02,3.02Z" style="fill: #e0e0e0; stroke-width: 0px;"/>
      <path d="m624.57,413.79c-1.67,0-3.02-1.35-3.02-3.02v-43.61c0-1.67,1.35-3.02,3.02-3.02s3.02,1.35,3.02,3.02v43.61c0,1.67-1.35,3.02-3.02,3.02Z" style="fill: #e0e0e0; stroke-width: 0px;"/>
      <path d="m610.38,406.97c-1.67,0-3.02-1.35-3.02-3.02v-29.97c0-1.67,1.35-3.02,3.02-3.02s3.02,1.35,3.02,3.02v29.97c0,1.67-1.35,3.02-3.02,3.02Z" style="fill: #e0e0e0; stroke-width: 0px;"/>
      <path d="m638.75,406.97c-1.67,0-3.02-1.35-3.02-3.02v-29.97c0-1.67,1.35-3.02,3.02-3.02s3.02,1.35,3.02,3.02v29.97c0,1.67-1.35,3.02-3.02,3.02Z" style="fill: #e0e0e0; stroke-width: 0px;"/>
      <path d="m652.93,400.85c-1.67,0-3.02-1.35-3.02-3.02v-17.72c0-1.67,1.35-3.02,3.02-3.02s3.02,1.35,3.02,3.02v17.72c0,1.67-1.35,3.02-3.02,3.02Z" style="fill: #e0e0e0; stroke-width: 0px;"/>
      <path d="m411.84,406.41c-1.67,0-3.02-1.35-3.02-3.02v-28.84c0-1.67,1.35-3.02,3.02-3.02s3.02,1.35,3.02,3.02v28.84c0,1.67-1.35,3.02-3.02,3.02Z" style="fill: #e0e0e0; stroke-width: 0px;"/>
      <path d="m426.02,412.71c-1.67,0-3.02-1.35-3.02-3.02v-41.44c0-1.67,1.35-3.02,3.02-3.02s3.02,1.35,3.02,3.02v41.44c0,1.67-1.35,3.02-3.02,3.02Z" style="fill: #e0e0e0; stroke-width: 0px;"/>
      <path d="m440.2,420.26c-1.67,0-3.02-1.35-3.02-3.02v-56.55c0-1.67,1.35-3.02,3.02-3.02s3.02,1.35,3.02,3.02v56.55c0,1.67-1.35,3.02-3.02,3.02Z" style="fill: #e0e0e0; stroke-width: 0px;"/>
      <path d="m454.39,413.03c-1.67,0-3.02-1.35-3.02-3.02v-42.09c0-1.67,1.35-3.02,3.02-3.02s3.02,1.35,3.02,3.02v42.09c0,1.67-1.35,3.02-3.02,3.02Z" style="fill: #e0e0e0; stroke-width: 0px;"/>
      <path d="m468.57,406.25c-1.67,0-3.02-1.35-3.02-3.02v-28.52c0-1.67,1.35-3.02,3.02-3.02s3.02,1.35,3.02,3.02v28.52c0,1.67-1.35,3.02-3.02,3.02Z" style="fill: #e0e0e0; stroke-width: 0px;"/>
      <path d="m482.75,402.62c-1.67,0-3.02-1.35-3.02-3.02v-21.27c0-1.67,1.35-3.02,3.02-3.02s3.02,1.35,3.02,3.02v21.27c0,1.67-1.35,3.02-3.02,3.02Z" style="fill: #e0e0e0; stroke-width: 0px;"/>
      <path d="m496.93,413.5c-1.67,0-3.02-1.35-3.02-3.02v-43.02c0-1.67,1.35-3.02,3.02-3.02s3.02,1.35,3.02,3.02v43.02c0,1.67-1.35,3.02-3.02,3.02Z" style="fill: #e0e0e0; stroke-width: 0px;"/>
      <path d="m553.66,413.5c-1.67,0-3.02-1.35-3.02-3.02v-43.02c0-1.67,1.35-3.02,3.02-3.02s3.02,1.35,3.02,3.02v43.02c0,1.67-1.35,3.02-3.02,3.02Z" style="fill: #e0e0e0; stroke-width: 0px;"/>
      <path d="m511.11,420.26c-1.67,0-3.02-1.35-3.02-3.02v-56.55c0-1.67,1.35-3.02,3.02-3.02s3.02,1.35,3.02,3.02v56.55c0,1.67-1.35,3.02-3.02,3.02Z" style="fill: #e0e0e0; stroke-width: 0px;"/>
      <path d="m525.29,431.7c-1.67,0-3.02-1.35-3.02-3.02v-79.43c0-1.67,1.35-3.02,3.02-3.02s3.02,1.35,3.02,3.02v79.43c0,1.67-1.35,3.02-3.02,3.02Z" style="fill: #e0e0e0; stroke-width: 0px;"/>
      <path d="m539.48,420.26c-1.67,0-3.02-1.35-3.02-3.02v-56.55c0-1.67,1.35-3.02,3.02-3.02s3.02,1.35,3.02,3.02v56.55c0,1.67-1.35,3.02-3.02,3.02Z" style="fill: #e0e0e0; stroke-width: 0px;"/>
      <path d="m567.84,402.62c-1.67,0-3.02-1.35-3.02-3.02v-21.27c0-1.67,1.35-3.02,3.02-3.02s3.02,1.35,3.02,3.02v21.27c0,1.67-1.35,3.02-3.02,3.02Z" style="fill: #e0e0e0; stroke-width: 0px;"/>
      <path d="m596.2,402.62c-1.67,0-3.02-1.35-3.02-3.02v-21.27c0-1.67,1.35-3.02,3.02-3.02s3.02,1.35,3.02,3.02v21.27c0,1.67-1.35,3.02-3.02,3.02Z" style="fill: #e0e0e0; stroke-width: 0px;"/>
      <path d="m582.02,399.07c-1.67,0-3.02-1.35-3.02-3.02v-14.17c0-1.67,1.35-3.02,3.02-3.02s3.02,1.35,3.02,3.02v14.17c0,1.67-1.35,3.02-3.02,3.02Z" style="fill: #e0e0e0; stroke-width: 0px;"/>
      <path d="m340.93,402.62c-1.67,0-3.02-1.35-3.02-3.02v-21.27c0-1.67,1.35-3.02,3.02-3.02s3.02,1.35,3.02,3.02v21.27c0,1.67-1.35,3.02-3.02,3.02Z" style="fill: #e0e0e0; stroke-width: 0px;"/>
    </g>
    <g>
      <path d="m203.03,237.21c-1.23,0-2.22-.99-2.22-2.22v-32c0-1.23.99-2.22,2.22-2.22s2.22.99,2.22,2.22v32c0,1.23-.99,2.22-2.22,2.22Z" style="fill: #f5f5f5; stroke-width: 0px;"/>
      <path d="m192.62,232.2c-1.23,0-2.22-.99-2.22-2.22v-21.99c0-1.23.99-2.22,2.22-2.22s2.22.99,2.22,2.22v21.99c0,1.23-.99,2.22-2.22,2.22Z" style="fill: #f5f5f5; stroke-width: 0px;"/>
      <path d="m213.44,232.2c-1.23,0-2.22-.99-2.22-2.22v-21.99c0-1.23.99-2.22,2.22-2.22s2.22.99,2.22,2.22v21.99c0,1.23-.99,2.22-2.22,2.22Z" style="fill: #f5f5f5; stroke-width: 0px;"/>
      <path d="m223.84,227.71c-1.23,0-2.22-.99-2.22-2.22v-13c0-1.23.99-2.22,2.22-2.22s2.22.99,2.22,2.22v13c0,1.23-.99,2.22-2.22,2.22Z" style="fill: #f5f5f5; stroke-width: 0px;"/>
      <path d="m390.34,237.21c-1.23,0-2.22-.99-2.22-2.22v-32c0-1.23.99-2.22,2.22-2.22s2.22.99,2.22,2.22v32c0,1.23-.99,2.22-2.22,2.22Z" style="fill: #f5f5f5; stroke-width: 0px;"/>
      <path d="m379.94,232.2c-1.23,0-2.22-.99-2.22-2.22v-21.99c0-1.23.99-2.22,2.22-2.22s2.22.99,2.22,2.22v21.99c0,1.23-.99,2.22-2.22,2.22Z" style="fill: #f5f5f5; stroke-width: 0px;"/>
      <path d="m400.75,232.2c-1.23,0-2.22-.99-2.22-2.22v-21.99c0-1.23.99-2.22,2.22-2.22s2.22.99,2.22,2.22v21.99c0,1.23-.99,2.22-2.22,2.22Z" style="fill: #f5f5f5; stroke-width: 0px;"/>
      <path d="m411.16,227.71c-1.23,0-2.22-.99-2.22-2.22v-13c0-1.23.99-2.22,2.22-2.22s2.22.99,2.22,2.22v13c0,1.23-.99,2.22-2.22,2.22Z" style="fill: #f5f5f5; stroke-width: 0px;"/>
      <path d="m234.25,231.79c-1.23,0-2.22-.99-2.22-2.22v-21.16c0-1.23.99-2.22,2.22-2.22s2.22.99,2.22,2.22v21.16c0,1.23-.99,2.22-2.22,2.22Z" style="fill: #f5f5f5; stroke-width: 0px;"/>
      <path d="m244.66,236.41c-1.23,0-2.22-.99-2.22-2.22v-30.41c0-1.23.99-2.22,2.22-2.22s2.22.99,2.22,2.22v30.41c0,1.23-.99,2.22-2.22,2.22Z" style="fill: #f5f5f5; stroke-width: 0px;"/>
      <path d="m255.06,241.95c-1.23,0-2.22-.99-2.22-2.22v-41.5c0-1.23.99-2.22,2.22-2.22s2.22.99,2.22,2.22v41.5c0,1.23-.99,2.22-2.22,2.22Z" style="fill: #f5f5f5; stroke-width: 0px;"/>
      <path d="m265.47,236.65c-1.23,0-2.22-.99-2.22-2.22v-30.88c0-1.23.99-2.22,2.22-2.22s2.22.99,2.22,2.22v30.88c0,1.23-.99,2.22-2.22,2.22Z" style="fill: #f5f5f5; stroke-width: 0px;"/>
      <path d="m275.88,231.67c-1.23,0-2.22-.99-2.22-2.22v-20.93c0-1.23.99-2.22,2.22-2.22s2.22.99,2.22,2.22v20.93c0,1.23-.99,2.22-2.22,2.22Z" style="fill: #f5f5f5; stroke-width: 0px;"/>
      <path d="m286.28,229.01c-1.23,0-2.22-.99-2.22-2.22v-15.61c0-1.23.99-2.22,2.22-2.22s2.22.99,2.22,2.22v15.61c0,1.23-.99,2.22-2.22,2.22Z" style="fill: #f5f5f5; stroke-width: 0px;"/>
      <path d="m296.69,236.99c-1.23,0-2.22-.99-2.22-2.22v-31.57c0-1.23.99-2.22,2.22-2.22s2.22.99,2.22,2.22v31.57c0,1.23-.99,2.22-2.22,2.22Z" style="fill: #f5f5f5; stroke-width: 0px;"/>
      <path d="m338.31,236.99c-1.23,0-2.22-.99-2.22-2.22v-31.57c0-1.23.99-2.22,2.22-2.22s2.22.99,2.22,2.22v31.57c0,1.23-.99,2.22-2.22,2.22Z" style="fill: #f5f5f5; stroke-width: 0px;"/>
      <path d="m307.09,241.95c-1.23,0-2.22-.99-2.22-2.22v-41.5c0-1.23.99-2.22,2.22-2.22s2.22.99,2.22,2.22v41.5c0,1.23-.99,2.22-2.22,2.22Z" style="fill: #f5f5f5; stroke-width: 0px;"/>
      <path d="m317.5,250.35c-1.23,0-2.22-.99-2.22-2.22v-58.28c0-1.23.99-2.22,2.22-2.22s2.22.99,2.22,2.22v58.28c0,1.23-.99,2.22-2.22,2.22Z" style="fill: #f5f5f5; stroke-width: 0px;"/>
      <path d="m327.91,241.95c-1.23,0-2.22-.99-2.22-2.22v-41.5c0-1.23.99-2.22,2.22-2.22s2.22.99,2.22,2.22v41.5c0,1.23-.99,2.22-2.22,2.22Z" style="fill: #f5f5f5; stroke-width: 0px;"/>
      <path d="m348.72,229.01c-1.23,0-2.22-.99-2.22-2.22v-15.61c0-1.23.99-2.22,2.22-2.22s2.22.99,2.22,2.22v15.61c0,1.23-.99,2.22-2.22,2.22Z" style="fill: #f5f5f5; stroke-width: 0px;"/>
      <path d="m369.53,229.01c-1.23,0-2.22-.99-2.22-2.22v-15.61c0-1.23.99-2.22,2.22-2.22s2.22.99,2.22,2.22v15.61c0,1.23-.99,2.22-2.22,2.22Z" style="fill: #f5f5f5; stroke-width: 0px;"/>
      <path d="m359.13,226.4c-1.23,0-2.22-.99-2.22-2.22v-10.4c0-1.23.99-2.22,2.22-2.22s2.22.99,2.22,2.22v10.4c0,1.23-.99,2.22-2.22,2.22Z" style="fill: #f5f5f5; stroke-width: 0px;"/>
      <path d="m182.22,229.01c-1.23,0-2.22-.99-2.22-2.22v-15.61c0-1.23.99-2.22,2.22-2.22s2.22.99,2.22,2.22v15.61c0,1.23-.99,2.22-2.22,2.22Z" style="fill: #f5f5f5; stroke-width: 0px;"/>
    </g>
    <g>
      <path d="m275.72,237.21c-1.23,0-2.22-.99-2.22-2.22v-32c0-1.23.99-2.22,2.22-2.22s2.22.99,2.22,2.22v32c0,1.23-.99,2.22-2.22,2.22Z" style="fill: #f5f5f5; stroke-width: 0px;"/>
      <path d="m265.32,232.2c-1.23,0-2.22-.99-2.22-2.22v-21.99c0-1.23.99-2.22,2.22-2.22s2.22.99,2.22,2.22v21.99c0,1.23-.99,2.22-2.22,2.22Z" style="fill: #f5f5f5; stroke-width: 0px;"/>
      <path d="m286.13,232.2c-1.23,0-2.22-.99-2.22-2.22v-21.99c0-1.23.99-2.22,2.22-2.22s2.22.99,2.22,2.22v21.99c0,1.23-.99,2.22-2.22,2.22Z" style="fill: #f5f5f5; stroke-width: 0px;"/>
      <path d="m296.54,227.71c-1.23,0-2.22-.99-2.22-2.22v-13c0-1.23.99-2.22,2.22-2.22s2.22.99,2.22,2.22v13c0,1.23-.99,2.22-2.22,2.22Z" style="fill: #f5f5f5; stroke-width: 0px;"/>
      <path d="m463.04,237.21c-1.23,0-2.22-.99-2.22-2.22v-32c0-1.23.99-2.22,2.22-2.22s2.22.99,2.22,2.22v32c0,1.23-.99,2.22-2.22,2.22Z" style="fill: #f5f5f5; stroke-width: 0px;"/>
      <path d="m452.63,232.2c-1.23,0-2.22-.99-2.22-2.22v-21.99c0-1.23.99-2.22,2.22-2.22s2.22.99,2.22,2.22v21.99c0,1.23-.99,2.22-2.22,2.22Z" style="fill: #f5f5f5; stroke-width: 0px;"/>
      <path d="m473.44,232.2c-1.23,0-2.22-.99-2.22-2.22v-21.99c0-1.23.99-2.22,2.22-2.22s2.22.99,2.22,2.22v21.99c0,1.23-.99,2.22-2.22,2.22Z" style="fill: #f5f5f5; stroke-width: 0px;"/>
      <path d="m483.85,227.71c-1.23,0-2.22-.99-2.22-2.22v-13c0-1.23.99-2.22,2.22-2.22s2.22.99,2.22,2.22v13c0,1.23-.99,2.22-2.22,2.22Z" style="fill: #f5f5f5; stroke-width: 0px;"/>
      <path d="m306.94,231.79c-1.23,0-2.22-.99-2.22-2.22v-21.16c0-1.23.99-2.22,2.22-2.22s2.22.99,2.22,2.22v21.16c0,1.23-.99,2.22-2.22,2.22Z" style="fill: #f5f5f5; stroke-width: 0px;"/>
      <path d="m317.35,236.41c-1.23,0-2.22-.99-2.22-2.22v-30.41c0-1.23.99-2.22,2.22-2.22s2.22.99,2.22,2.22v30.41c0,1.23-.99,2.22-2.22,2.22Z" style="fill: #f5f5f5; stroke-width: 0px;"/>
      <path d="m327.76,241.95c-1.23,0-2.22-.99-2.22-2.22v-41.5c0-1.23.99-2.22,2.22-2.22s2.22.99,2.22,2.22v41.5c0,1.23-.99,2.22-2.22,2.22Z" style="fill: #f5f5f5; stroke-width: 0px;"/>
      <path d="m338.16,236.65c-1.23,0-2.22-.99-2.22-2.22v-30.88c0-1.23.99-2.22,2.22-2.22s2.22.99,2.22,2.22v30.88c0,1.23-.99,2.22-2.22,2.22Z" style="fill: #f5f5f5; stroke-width: 0px;"/>
      <path d="m348.57,231.67c-1.23,0-2.22-.99-2.22-2.22v-20.93c0-1.23.99-2.22,2.22-2.22s2.22.99,2.22,2.22v20.93c0,1.23-.99,2.22-2.22,2.22Z" style="fill: #f5f5f5; stroke-width: 0px;"/>
      <path d="m358.97,229.01c-1.23,0-2.22-.99-2.22-2.22v-15.61c0-1.23.99-2.22,2.22-2.22s2.22.99,2.22,2.22v15.61c0,1.23-.99,2.22-2.22,2.22Z" style="fill: #f5f5f5; stroke-width: 0px;"/>
      <path d="m369.38,236.99c-1.23,0-2.22-.99-2.22-2.22v-31.57c0-1.23.99-2.22,2.22-2.22s2.22.99,2.22,2.22v31.57c0,1.23-.99,2.22-2.22,2.22Z" style="fill: #f5f5f5; stroke-width: 0px;"/>
      <path d="m411.01,236.99c-1.23,0-2.22-.99-2.22-2.22v-31.57c0-1.23.99-2.22,2.22-2.22s2.22.99,2.22,2.22v31.57c0,1.23-.99,2.22-2.22,2.22Z" style="fill: #f5f5f5; stroke-width: 0px;"/>
      <path d="m379.79,241.95c-1.23,0-2.22-.99-2.22-2.22v-41.5c0-1.23.99-2.22,2.22-2.22s2.22.99,2.22,2.22v41.5c0,1.23-.99,2.22-2.22,2.22Z" style="fill: #f5f5f5; stroke-width: 0px;"/>
      <path d="m390.19,250.35c-1.23,0-2.22-.99-2.22-2.22v-58.28c0-1.23.99-2.22,2.22-2.22s2.22.99,2.22,2.22v58.28c0,1.23-.99,2.22-2.22,2.22Z" style="fill: #f5f5f5; stroke-width: 0px;"/>
      <path d="m400.6,241.95c-1.23,0-2.22-.99-2.22-2.22v-41.5c0-1.23.99-2.22,2.22-2.22s2.22.99,2.22,2.22v41.5c0,1.23-.99,2.22-2.22,2.22Z" style="fill: #f5f5f5; stroke-width: 0px;"/>
      <path d="m421.41,229.01c-1.23,0-2.22-.99-2.22-2.22v-15.61c0-1.23.99-2.22,2.22-2.22s2.22.99,2.22,2.22v15.61c0,1.23-.99,2.22-2.22,2.22Z" style="fill: #f5f5f5; stroke-width: 0px;"/>
      <path d="m442.22,229.01c-1.23,0-2.22-.99-2.22-2.22v-15.61c0-1.23.99-2.22,2.22-2.22s2.22.99,2.22,2.22v15.61c0,1.23-.99,2.22-2.22,2.22Z" style="fill: #f5f5f5; stroke-width: 0px;"/>
      <path d="m431.82,226.4c-1.23,0-2.22-.99-2.22-2.22v-10.4c0-1.23.99-2.22,2.22-2.22s2.22.99,2.22,2.22v10.4c0,1.23-.99,2.22-2.22,2.22Z" style="fill: #f5f5f5; stroke-width: 0px;"/>
      <path d="m254.91,229.01c-1.23,0-2.22-.99-2.22-2.22v-15.61c0-1.23.99-2.22,2.22-2.22s2.22.99,2.22,2.22v15.61c0,1.23-.99,2.22-2.22,2.22Z" style="fill: #f5f5f5; stroke-width: 0px;"/>
    </g>
    <g>
      <path d="m47.62,413.79c-1.67,0-3.02-1.35-3.02-3.02v-43.61c0-1.67,1.35-3.02,3.02-3.02s3.02,1.35,3.02,3.02v43.61c0,1.67-1.35,3.02-3.02,3.02Z" style="fill: #e0e0e0; stroke-width: 0px;"/>
      <path d="m33.44,406.97c-1.67,0-3.02-1.35-3.02-3.02v-29.97c0-1.67,1.35-3.02,3.02-3.02s3.02,1.35,3.02,3.02v29.97c0,1.67-1.35,3.02-3.02,3.02Z" style="fill: #e0e0e0; stroke-width: 0px;"/>
      <path d="m61.8,406.97c-1.67,0-3.02-1.35-3.02-3.02v-29.97c0-1.67,1.35-3.02,3.02-3.02s3.02,1.35,3.02,3.02v29.97c0,1.67-1.35,3.02-3.02,3.02Z" style="fill: #e0e0e0; stroke-width: 0px;"/>
      <path d="m75.98,400.85c-1.67,0-3.02-1.35-3.02-3.02v-17.72c0-1.67,1.35-3.02,3.02-3.02s3.02,1.35,3.02,3.02v17.72c0,1.67-1.35,3.02-3.02,3.02Z" style="fill: #e0e0e0; stroke-width: 0px;"/>
      <path d="m302.89,413.79c-1.67,0-3.02-1.35-3.02-3.02v-43.61c0-1.67,1.35-3.02,3.02-3.02s3.02,1.35,3.02,3.02v43.61c0,1.67-1.35,3.02-3.02,3.02Z" style="fill: #e0e0e0; stroke-width: 0px;"/>
      <path d="m288.71,406.97c-1.67,0-3.02-1.35-3.02-3.02v-29.97c0-1.67,1.35-3.02,3.02-3.02s3.02,1.35,3.02,3.02v29.97c0,1.67-1.35,3.02-3.02,3.02Z" style="fill: #e0e0e0; stroke-width: 0px;"/>
      <path d="m317.07,406.97c-1.67,0-3.02-1.35-3.02-3.02v-29.97c0-1.67,1.35-3.02,3.02-3.02s3.02,1.35,3.02,3.02v29.97c0,1.67-1.35,3.02-3.02,3.02Z" style="fill: #e0e0e0; stroke-width: 0px;"/>
      <path d="m331.25,400.85c-1.67,0-3.02-1.35-3.02-3.02v-17.72c0-1.67,1.35-3.02,3.02-3.02s3.02,1.35,3.02,3.02v17.72c0,1.67-1.35,3.02-3.02,3.02Z" style="fill: #e0e0e0; stroke-width: 0px;"/>
      <path d="m90.16,406.41c-1.67,0-3.02-1.35-3.02-3.02v-28.84c0-1.67,1.35-3.02,3.02-3.02s3.02,1.35,3.02,3.02v28.84c0,1.67-1.35,3.02-3.02,3.02Z" style="fill: #e0e0e0; stroke-width: 0px;"/>
      <path d="m104.35,412.71c-1.67,0-3.02-1.35-3.02-3.02v-41.44c0-1.67,1.35-3.02,3.02-3.02s3.02,1.35,3.02,3.02v41.44c0,1.67-1.35,3.02-3.02,3.02Z" style="fill: #e0e0e0; stroke-width: 0px;"/>
      <path d="m118.53,420.27c-1.67,0-3.02-1.35-3.02-3.02v-56.55c0-1.67,1.35-3.02,3.02-3.02s3.02,1.35,3.02,3.02v56.55c0,1.67-1.35,3.02-3.02,3.02Z" style="fill: #e0e0e0; stroke-width: 0px;"/>
      <path d="m132.71,413.03c-1.67,0-3.02-1.35-3.02-3.02v-42.09c0-1.67,1.35-3.02,3.02-3.02s3.02,1.35,3.02,3.02v42.09c0,1.67-1.35,3.02-3.02,3.02Z" style="fill: #e0e0e0; stroke-width: 0px;"/>
      <path d="m146.89,406.25c-1.67,0-3.02-1.35-3.02-3.02v-28.52c0-1.67,1.35-3.02,3.02-3.02s3.02,1.35,3.02,3.02v28.52c0,1.67-1.35,3.02-3.02,3.02Z" style="fill: #e0e0e0; stroke-width: 0px;"/>
      <path d="m161.07,402.62c-1.67,0-3.02-1.35-3.02-3.02v-21.27c0-1.67,1.35-3.02,3.02-3.02s3.02,1.35,3.02,3.02v21.27c0,1.67-1.35,3.02-3.02,3.02Z" style="fill: #e0e0e0; stroke-width: 0px;"/>
      <path d="m175.25,413.5c-1.67,0-3.02-1.35-3.02-3.02v-43.02c0-1.67,1.35-3.02,3.02-3.02s3.02,1.35,3.02,3.02v43.02c0,1.67-1.35,3.02-3.02,3.02Z" style="fill: #e0e0e0; stroke-width: 0px;"/>
      <path d="m231.98,413.5c-1.67,0-3.02-1.35-3.02-3.02v-43.02c0-1.67,1.35-3.02,3.02-3.02s3.02,1.35,3.02,3.02v43.02c0,1.67-1.35,3.02-3.02,3.02Z" style="fill: #e0e0e0; stroke-width: 0px;"/>
      <path d="m189.44,420.27c-1.67,0-3.02-1.35-3.02-3.02v-56.55c0-1.67,1.35-3.02,3.02-3.02s3.02,1.35,3.02,3.02v56.55c0,1.67-1.35,3.02-3.02,3.02Z" style="fill: #e0e0e0; stroke-width: 0px;"/>
      <path d="m203.62,431.7c-1.67,0-3.02-1.35-3.02-3.02v-79.43c0-1.67,1.35-3.02,3.02-3.02s3.02,1.35,3.02,3.02v79.43c0,1.67-1.35,3.02-3.02,3.02Z" style="fill: #e0e0e0; stroke-width: 0px;"/>
      <path d="m217.8,420.27c-1.67,0-3.02-1.35-3.02-3.02v-56.55c0-1.67,1.35-3.02,3.02-3.02s3.02,1.35,3.02,3.02v56.55c0,1.67-1.35,3.02-3.02,3.02Z" style="fill: #e0e0e0; stroke-width: 0px;"/>
      <path d="m246.16,402.62c-1.67,0-3.02-1.35-3.02-3.02v-21.27c0-1.67,1.35-3.02,3.02-3.02s3.02,1.35,3.02,3.02v21.27c0,1.67-1.35,3.02-3.02,3.02Z" style="fill: #e0e0e0; stroke-width: 0px;"/>
      <path d="m274.53,402.62c-1.67,0-3.02-1.35-3.02-3.02v-21.27c0-1.67,1.35-3.02,3.02-3.02s3.02,1.35,3.02,3.02v21.27c0,1.67-1.35,3.02-3.02,3.02Z" style="fill: #e0e0e0; stroke-width: 0px;"/>
      <path d="m260.34,399.07c-1.67,0-3.02-1.35-3.02-3.02v-14.17c0-1.67,1.35-3.02,3.02-3.02s3.02,1.35,3.02,3.02v14.17c0,1.67-1.35,3.02-3.02,3.02Z" style="fill: #e0e0e0; stroke-width: 0px;"/>
      <path d="m19.26,402.62c-1.67,0-3.02-1.35-3.02-3.02v-21.27c0-1.67,1.35-3.02,3.02-3.02s3.02,1.35,3.02,3.02v21.27c0,1.67-1.35,3.02-3.02,3.02Z" style="fill: #e0e0e0; stroke-width: 0px;"/>
    </g>
    <g>
      <rect x="627.63" y="89.41" width="49.63" height="13.13" style="fill: #f5f5f5; stroke-width: 0px;"/>
      <path d="m656.28,116.37s-.01-.09-.02-.24c0-.18,0-.4-.02-.67,0-.62-.02-1.48-.04-2.58-.02-2.27-.05-5.53-.08-9.63l.15.15c-11.33.02-29.36.06-49.63.1.11-.11-.25.25.25-.25h0v.84s0,.84,0,.84c0,.56,0,1.12,0,1.68,0,1.11,0,2.22,0,3.31,0,2.19,0,4.35,0,6.46l-.25-.25c14.13.04,26.5.08,35.37.11,4.42.03,7.96.05,10.44.07,1.2.01,2.15.02,2.82.03.3,0,.55.01.74.02.17,0,.26.01.26.02,0,0-.07.01-.23.02-.18,0-.42,0-.71.02-.66,0-1.59.02-2.77.03-2.46.02-5.99.04-10.38.07-8.91.03-21.34.07-35.54.11h-.25s0-.25,0-.25c0-2.11,0-4.27,0-6.46,0-1.1,0-2.2,0-3.31,0-.56,0-1.11,0-1.68v-.84s0-.42,0-.42v-.4h0v-.02h0c.51-.51.14-.14.26-.26,20.27.04,38.3.08,49.63.1h.16s0,.15,0,.15c-.04,4.15-.06,7.44-.08,9.73-.02,1.09-.03,1.94-.04,2.55,0,.27-.01.48-.02.65,0,.14-.01.21-.02.21Z" style="fill: #e0e0e0; stroke-width: 0px;"/>
    </g>
    <g>
      <rect x="323.75" width="49.63" height="13.13" style="fill: #f5f5f5; stroke-width: 0px;"/>
      <path d="m352.4,26.96s-.01-.09-.02-.24c0-.18,0-.4-.02-.67,0-.62-.02-1.48-.04-2.58-.02-2.27-.05-5.53-.09-9.63l.15.15c-11.33.02-29.36.06-49.63.1.11-.11-.26.25.25-.25h0v.84s0,.84,0,.84c0,.56,0,1.12,0,1.68,0,1.11,0,2.22,0,3.31,0,2.19,0,4.35,0,6.46l-.25-.25c14.13.04,26.5.08,35.37.11,4.42.03,7.96.05,10.44.07,1.2.01,2.15.02,2.82.03.3,0,.55.01.74.02.17,0,.26.01.26.02,0,0-.07.01-.23.02-.18,0-.42,0-.71.02-.66,0-1.59.02-2.77.03-2.46.02-5.99.04-10.38.07-8.91.03-21.34.07-35.54.11h-.25s0-.25,0-.25c0-2.11,0-4.27,0-6.46,0-1.1,0-2.2,0-3.31,0-.56,0-1.11,0-1.68v-.84s0-.42,0-.42v-.4h0v-.02h0c.51-.51.14-.14.26-.26,20.27.04,38.3.08,49.63.1h.16s0,.15,0,.15c-.04,4.15-.07,7.44-.09,9.73-.02,1.09-.03,1.94-.04,2.55,0,.27-.01.48-.02.65,0,.14-.01.21-.02.21Z" style="fill: #e0e0e0; stroke-width: 0px;"/>
    </g>
    <g>
      <rect x="30.6" y="267.27" width="49.63" height="13.13" style="fill: #f5f5f5; stroke-width: 0px;"/>
      <path d="m59.24,294.23s-.01-.09-.02-.24c0-.18,0-.4-.02-.67,0-.62-.02-1.48-.04-2.58-.02-2.27-.05-5.53-.09-9.63l.15.15c-11.33.02-29.36.06-49.63.1.11-.11-.26.25.25-.25h0v.84s0,.84,0,.84c0,.56,0,1.12,0,1.68,0,1.11,0,2.22,0,3.31,0,2.19,0,4.35,0,6.46l-.25-.25c14.13.04,26.5.08,35.37.11,4.42.03,7.96.05,10.44.07,1.2.01,2.15.02,2.82.03.3,0,.55.01.74.02.17,0,.26.01.26.02,0,0-.07.01-.23.02-.18,0-.42,0-.71.02-.66,0-1.59.02-2.77.03-2.46.02-5.99.04-10.38.07-8.91.03-21.34.07-35.54.11h-.25s0-.25,0-.25c0-2.11,0-4.27,0-6.46,0-1.1,0-2.2,0-3.31,0-.56,0-1.11,0-1.68v-.84s0-.42,0-.42v-.4h0v-.02h0c.51-.51.14-.14.26-.26,20.28.04,38.3.08,49.63.1h.16s0,.15,0,.15c-.04,4.15-.07,7.44-.09,9.73-.02,1.09-.03,1.94-.04,2.55,0,.27-.01.48-.02.65,0,.14-.01.21-.02.21Z" style="fill: #e0e0e0; stroke-width: 0px;"/>
    </g>
    <g>
      <path d="m647.05,264.59s-.01-.09-.02-.24c0-.18,0-.4-.02-.67,0-.62-.02-1.48-.04-2.58-.02-2.27-.05-5.53-.09-9.63l.15.15c-11.33.02-29.36.06-49.63.1.11-.11-.26.25.25-.25h0v.42s0,.42,0,.42v.84c0,.56,0,1.12,0,1.68,0,1.11,0,2.22,0,3.31,0,2.19,0,4.35,0,6.46l-.25-.25c14.13.05,26.5.08,35.37.11,4.42.03,7.96.05,10.44.07,1.2.01,2.15.02,2.82.03.3,0,.55.01.74.02.17,0,.26.01.26.02,0,0-.07.01-.23.02-.18,0-.42,0-.71.02-.66,0-1.59.02-2.77.03-2.46.02-5.99.04-10.38.07-8.91.03-21.34.07-35.54.11h-.25s0-.25,0-.25c0-2.11,0-4.27,0-6.46,0-1.1,0-2.2,0-3.31,0-.56,0-1.11,0-1.68v-.84s0-.42,0-.42v-.4h0v-.02h0c.51-.51.14-.14.26-.26,20.27.04,38.3.08,49.63.1h.16s0,.15,0,.15c-.04,4.15-.07,7.44-.08,9.73-.02,1.09-.03,1.94-.04,2.55,0,.27-.01.48-.02.65,0,.14-.01.21-.02.21Z" style="fill: #e0e0e0; stroke-width: 0px;"/>
      <path d="m653.78,251.46s-.01-.09-.02-.25c0-.19-.01-.42-.02-.7-.01-.65-.03-1.52-.05-2.63-.02-2.3-.06-5.55-.1-9.55l.18.18c-7.73.02-18.24.04-29.82.07-.23.23.31-.31.25-.25h0v.43s0,.43,0,.43v.86c0,.57,0,1.14,0,1.7,0,1.13,0,2.24,0,3.34,0,2.2,0,4.33,0,6.37l-.24-.24c8.61.05,16.02.09,21.33.11,2.62.03,4.72.05,6.21.07.7.01,1.25.02,1.68.03.38,0,.59.02.6.03,0,.01-.18.02-.54.03-.41,0-.95.02-1.63.03-1.48.02-3.56.04-6.16.07-5.35.03-12.82.07-21.5.11h-.24s0-.24,0-.24c0-2.04,0-4.17,0-6.37,0-1.1,0-2.21,0-3.34,0-.56,0-1.13,0-1.7v-.86s0-.43,0-.43v-.4h0v-.02h0c-.06.05.48-.48.25-.26,11.58.03,22.09.05,29.82.07h.18s0,.18,0,.18c-.04,4.04-.07,7.33-.1,9.66-.02,1.09-.03,1.96-.05,2.59-.01.59-.03.89-.04.88Z" style="fill: #e0e0e0; stroke-width: 0px;"/>
    </g>
    <g>
      <path d="m57.19,100.36s-.01-.09-.02-.24c0-.18,0-.4-.02-.67,0-.62-.02-1.48-.04-2.58-.02-2.27-.05-5.53-.09-9.63l.15.15c-11.33.02-29.36.06-49.63.1.11-.11-.26.25.25-.25h0v.42s0,.42,0,.42v.84c0,.56,0,1.12,0,1.68,0,1.11,0,2.22,0,3.31,0,2.19,0,4.35,0,6.46l-.25-.25c14.13.05,26.5.08,35.37.11,4.42.03,7.96.05,10.44.07,1.2.01,2.15.02,2.82.03.3,0,.55.01.74.02.17,0,.26.01.26.02,0,0-.07.01-.23.02-.18,0-.42,0-.71.02-.66,0-1.59.02-2.77.03-2.46.02-5.99.04-10.38.07-8.91.03-21.34.07-35.54.11h-.25s0-.25,0-.25c0-2.11,0-4.27,0-6.46,0-1.1,0-2.2,0-3.31,0-.56,0-1.11,0-1.68v-.84s0-.42,0-.42v-.4h0v-.02h0c.51-.51.14-.14.26-.26,20.27.04,38.3.08,49.63.1h.16s0,.15,0,.15c-.04,4.15-.07,7.44-.09,9.73-.02,1.09-.03,1.94-.04,2.55,0,.27-.01.48-.02.65,0,.14-.01.21-.02.21Z" style="fill: #e0e0e0; stroke-width: 0px;"/>
      <path d="m63.92,87.23s-.01-.09-.02-.25c0-.19-.01-.42-.02-.7-.01-.65-.03-1.52-.05-2.63-.02-2.3-.06-5.55-.1-9.55l.18.18c-7.73.02-18.24.04-29.82.07-.23.23.31-.31.25-.25h0v.43s0,.43,0,.43v.86c0,.57,0,1.14,0,1.7,0,1.13,0,2.24,0,3.34,0,2.2,0,4.33,0,6.37l-.24-.24c8.61.05,16.02.09,21.33.11,2.62.03,4.72.05,6.21.07.7.01,1.25.02,1.68.03.38,0,.59.02.6.03,0,.01-.18.02-.54.03-.41,0-.95.02-1.63.03-1.48.02-3.56.04-6.16.07-5.35.03-12.82.07-21.5.11h-.24s0-.24,0-.24c0-2.04,0-4.17,0-6.37,0-1.1,0-2.21,0-3.34,0-.56,0-1.13,0-1.7v-.86s0-.43,0-.43v-.4h0v-.02h0c-.06.05.48-.48.26-.26,11.58.03,22.09.05,29.82.07h.18s0,.18,0,.18c-.04,4.04-.07,7.33-.1,9.66-.02,1.09-.03,1.96-.05,2.59-.01.59-.03.89-.04.88Z" style="fill: #e0e0e0; stroke-width: 0px;"/>
    </g>
  </g>
  <g id="Floor">
    <path d="m638.44,456.83c0,.14-135.93.26-303.56.26s-303.59-.12-303.59-.26,135.9-.26,303.59-.26,303.56.12,303.56.26Z" style="fill: #263238; stroke-width: 0px;"/>
  </g>
  <g id="Device">
    <g>
      <g>
        <path d="m411.26,457.43l-140.69-.65c-16.92-.08-30.58-13.94-30.5-30.97l1.49-354.91c.07-17.04,13.86-30.79,30.79-30.71l140.69.65c16.92.08,30.58,13.94,30.5,30.97l-1.49,354.91c-.07,17.04-13.86,30.79-30.79,30.71Z" style="fill: #263238; stroke-width: 0px;"/>
        <path d="m412.83,53.09l-27.28-.13-79.66-.37-9.59-.05-23.87-.11c-11.86-.05-21.51,9.57-21.56,21.51l-1.46,346.42c-.05,11.93,9.51,21.63,21.36,21.69l140.41.65c11.86.06,21.51-9.57,21.56-21.51l1.46-346.42c.05-11.92-9.51-21.63-21.36-21.69Z" style="fill: #fff; stroke-width: 0px;"/>
      </g>
      <g>
        <path d="m416.55,79.24c0,.96-.79,1.74-1.75,1.73-.96,0-1.74-.79-1.73-1.75,0-.96.79-1.74,1.75-1.73.96,0,1.74.79,1.73,1.75Z" style="fill: #e0e0e0; stroke-width: 0px;"/>
        <path d="m416.53,85.5c0,.96-.79,1.74-1.75,1.73-.96,0-1.74-.79-1.73-1.75,0-.96.79-1.74,1.75-1.73.96,0,1.74.79,1.73,1.75Z" style="fill: #e0e0e0; stroke-width: 0px;"/>
        <path d="m416.5,91.76c0,.96-.79,1.74-1.75,1.73-.96,0-1.74-.79-1.73-1.75,0-.96.79-1.74,1.75-1.73.96,0,1.74.79,1.73,1.75Z" style="fill: #e0e0e0; stroke-width: 0px;"/>
      </g>
      <circle cx="277.94" cy="84.48" r="11.49" transform="translate(131.57 335.41) rotate(-76.65)" style="fill: #e0e0e0; stroke-width: 0px;"/>
      <rect x="314.12" y="83.17" width="66.57" height="7.89" rx="3.2" ry="3.2" style="fill: #e0e0e0; stroke-width: 0px;"/>
    </g>
  </g>
  <g id="Voice_Chat" data-name="Voice Chat">
    <g>
      <g>
        <rect x="184.46" y="130.88" width="243.49" height="63" rx="29.91" ry="29.91" style="fill: #fafafa; stroke-width: 0px;"/>
        <path d="m398.04,194.38h-183.67c-16.77,0-30.41-13.64-30.41-30.41v-3.17c0-16.77,13.64-30.41,30.41-30.41h183.67c16.77,0,30.41,13.64,30.41,30.41v3.17c0,16.77-13.64,30.41-30.41,30.41Zm-183.67-63c-16.22,0-29.41,13.19-29.41,29.41v3.17c0,16.22,13.19,29.41,29.41,29.41h183.67c16.22,0,29.41-13.19,29.41-29.41v-3.17c0-16.22-13.19-29.41-29.41-29.41h-183.67Z" style="fill: #263238; stroke-width: 0px;"/>
      </g>
      <g>
        <path d="m259.34,175.88c-.83,0-1.5-.67-1.5-1.5v-22.97c0-.83.67-1.5,1.5-1.5s1.5.67,1.5,1.5v22.97c0,.83-.67,1.5-1.5,1.5Z" style="fill: #ff966c; stroke-width: 0px;"/>
        <path d="m251.87,172.29c-.83,0-1.5-.67-1.5-1.5v-15.78c0-.83.67-1.5,1.5-1.5s1.5.67,1.5,1.5v15.78c0,.83-.67,1.5-1.5,1.5Z" style="fill: #ff966c; stroke-width: 0px;"/>
        <path d="m266.81,172.29c-.83,0-1.5-.67-1.5-1.5v-15.78c0-.83.67-1.5,1.5-1.5s1.5.67,1.5,1.5v15.78c0,.83-.67,1.5-1.5,1.5Z" style="fill: #ff966c; stroke-width: 0px;"/>
        <path d="m274.28,169.06c-.83,0-1.5-.67-1.5-1.5v-9.33c0-.83.67-1.5,1.5-1.5s1.5.67,1.5,1.5v9.33c0,.83-.67,1.5-1.5,1.5Z" style="fill: #ff966c; stroke-width: 0px;"/>
        <path d="m393.79,175.88c-.83,0-1.5-.67-1.5-1.5v-22.97c0-.83.67-1.5,1.5-1.5s1.5.67,1.5,1.5v22.97c0,.83-.67,1.5-1.5,1.5Z" style="fill: #ff966c; stroke-width: 0px;"/>
        <path d="m386.32,172.29c-.83,0-1.5-.67-1.5-1.5v-15.78c0-.83.67-1.5,1.5-1.5s1.5.67,1.5,1.5v15.78c0,.83-.67,1.5-1.5,1.5Z" style="fill: #ff966c; stroke-width: 0px;"/>
        <path d="m401.26,172.29c-.83,0-1.5-.67-1.5-1.5v-15.78c0-.83.67-1.5,1.5-1.5s1.5.67,1.5,1.5v15.78c0,.83-.67,1.5-1.5,1.5Z" style="fill: #ff966c; stroke-width: 0px;"/>
        <path d="m408.73,169.06c-.83,0-1.5-.67-1.5-1.5v-9.33c0-.83.67-1.5,1.5-1.5s1.5.67,1.5,1.5v9.33c0,.83-.67,1.5-1.5,1.5Z" style="fill: #ff966c; stroke-width: 0px;"/>
        <path d="m281.75,171.99c-.83,0-1.5-.67-1.5-1.5v-15.19c0-.83.67-1.5,1.5-1.5s1.5.67,1.5,1.5v15.19c0,.83-.67,1.5-1.5,1.5Z" style="fill: #ff966c; stroke-width: 0px;"/>
        <path d="m289.22,175.31c-.83,0-1.5-.67-1.5-1.5v-21.83c0-.83.67-1.5,1.5-1.5s1.5.67,1.5,1.5v21.83c0,.83-.67,1.5-1.5,1.5Z" style="fill: #ff966c; stroke-width: 0px;"/>
        <path d="m296.69,179.29c-.83,0-1.5-.67-1.5-1.5v-29.78c0-.83.67-1.5,1.5-1.5s1.5.67,1.5,1.5v29.78c0,.83-.67,1.5-1.5,1.5Z" style="fill: #ff966c; stroke-width: 0px;"/>
        <path d="m304.16,175.48c-.83,0-1.5-.67-1.5-1.5v-22.17c0-.83.67-1.5,1.5-1.5s1.5.67,1.5,1.5v22.17c0,.83-.67,1.5-1.5,1.5Z" style="fill: #ff966c; stroke-width: 0px;"/>
        <path d="m311.63,171.91c-.83,0-1.5-.67-1.5-1.5v-15.02c0-.83.67-1.5,1.5-1.5s1.5.67,1.5,1.5v15.02c0,.83-.67,1.5-1.5,1.5Z" style="fill: #ff966c; stroke-width: 0px;"/>
        <path d="m319.1,170c-.83,0-1.5-.67-1.5-1.5v-11.2c0-.83.67-1.5,1.5-1.5s1.5.67,1.5,1.5v11.2c0,.83-.67,1.5-1.5,1.5Z" style="fill: #ff966c; stroke-width: 0px;"/>
        <path d="m326.56,175.72c-.83,0-1.5-.67-1.5-1.5v-22.66c0-.83.67-1.5,1.5-1.5s1.5.67,1.5,1.5v22.66c0,.83-.67,1.5-1.5,1.5Z" style="fill: #ff966c; stroke-width: 0px;"/>
        <path d="m356.44,175.72c-.83,0-1.5-.67-1.5-1.5v-22.66c0-.83.67-1.5,1.5-1.5s1.5.67,1.5,1.5v22.66c0,.83-.67,1.5-1.5,1.5Z" style="fill: #ff966c; stroke-width: 0px;"/>
        <path d="m334.03,179.29c-.83,0-1.5-.67-1.5-1.5v-29.78c0-.83.67-1.5,1.5-1.5s1.5.67,1.5,1.5v29.78c0,.83-.67,1.5-1.5,1.5Z" style="fill: #ff966c; stroke-width: 0px;"/>
        <path d="m341.5,185.31c-.83,0-1.5-.67-1.5-1.5v-41.83c0-.83.67-1.5,1.5-1.5s1.5.67,1.5,1.5v41.83c0,.83-.67,1.5-1.5,1.5Z" style="fill: #ff966c; stroke-width: 0px;"/>
        <path d="m348.97,179.29c-.83,0-1.5-.67-1.5-1.5v-29.78c0-.83.67-1.5,1.5-1.5s1.5.67,1.5,1.5v29.78c0,.83-.67,1.5-1.5,1.5Z" style="fill: #ff966c; stroke-width: 0px;"/>
        <path d="m363.91,170c-.83,0-1.5-.67-1.5-1.5v-11.2c0-.83.67-1.5,1.5-1.5s1.5.67,1.5,1.5v11.2c0,.83-.67,1.5-1.5,1.5Z" style="fill: #ff966c; stroke-width: 0px;"/>
        <path d="m378.85,170c-.83,0-1.5-.67-1.5-1.5v-11.2c0-.83.67-1.5,1.5-1.5s1.5.67,1.5,1.5v11.2c0,.83-.67,1.5-1.5,1.5Z" style="fill: #ff966c; stroke-width: 0px;"/>
        <path d="m371.38,168.13c-.83,0-1.5-.67-1.5-1.5v-7.46c0-.83.67-1.5,1.5-1.5s1.5.67,1.5,1.5v7.46c0,.83-.67,1.5-1.5,1.5Z" style="fill: #ff966c; stroke-width: 0px;"/>
        <path d="m244.4,170c-.83,0-1.5-.67-1.5-1.5v-11.2c0-.83.67-1.5,1.5-1.5s1.5.67,1.5,1.5v11.2c0,.83-.67,1.5-1.5,1.5Z" style="fill: #ff966c; stroke-width: 0px;"/>
      </g>
      <circle cx="214.71" cy="162.25" r="21.19" style="fill: #ff966c; stroke-width: 0px;"/>
      <path d="m209.1,162.9v-6.17c0-1.61,1.74-2.61,3.13-1.81l5.35,3.09,5.35,3.09c1.39.8,1.39,2.81,0,3.62l-5.35,3.09-5.35,3.09c-1.39.8-3.13-.2-3.13-1.81v-6.17Z" style="fill: #fff; stroke-width: 0px;"/>
    </g>
    <g>
      <g>
        <rect x="196.97" y="307.16" width="243.49" height="63" rx="29.91" ry="29.91" style="fill: #fafafa; stroke-width: 0px;"/>
        <path d="m410.54,370.66h-183.66c-16.77,0-30.41-13.64-30.41-30.41v-3.17c0-16.77,13.64-30.41,30.41-30.41h183.66c16.77,0,30.41,13.64,30.41,30.41v3.17c0,16.77-13.64,30.41-30.41,30.41Zm-183.66-63c-16.22,0-29.41,13.19-29.41,29.41v3.17c0,16.22,13.19,29.41,29.41,29.41h183.66c16.22,0,29.41-13.19,29.41-29.41v-3.17c0-16.22-13.19-29.41-29.41-29.41h-183.66Z" style="fill: #263238; stroke-width: 0px;"/>
      </g>
      <g>
        <path d="m271.85,352.16c-.83,0-1.5-.67-1.5-1.5v-22.97c0-.83.67-1.5,1.5-1.5s1.5.67,1.5,1.5v22.97c0,.83-.67,1.5-1.5,1.5Z" style="fill: #ff966c; stroke-width: 0px;"/>
        <path d="m264.38,348.57c-.83,0-1.5-.67-1.5-1.5v-15.78c0-.83.67-1.5,1.5-1.5s1.5.67,1.5,1.5v15.78c0,.83-.67,1.5-1.5,1.5Z" style="fill: #ff966c; stroke-width: 0px;"/>
        <path d="m279.32,348.57c-.83,0-1.5-.67-1.5-1.5v-15.78c0-.83.67-1.5,1.5-1.5s1.5.67,1.5,1.5v15.78c0,.83-.67,1.5-1.5,1.5Z" style="fill: #ff966c; stroke-width: 0px;"/>
        <path d="m286.79,345.35c-.83,0-1.5-.67-1.5-1.5v-9.33c0-.83.67-1.5,1.5-1.5s1.5.67,1.5,1.5v9.33c0,.83-.67,1.5-1.5,1.5Z" style="fill: #ff966c; stroke-width: 0px;"/>
        <path d="m406.29,352.16c-.83,0-1.5-.67-1.5-1.5v-22.97c0-.83.67-1.5,1.5-1.5s1.5.67,1.5,1.5v22.97c0,.83-.67,1.5-1.5,1.5Z" style="fill: #e0e0e0; stroke-width: 0px;"/>
        <path d="m398.82,348.57c-.83,0-1.5-.67-1.5-1.5v-15.78c0-.83.67-1.5,1.5-1.5s1.5.67,1.5,1.5v15.78c0,.83-.67,1.5-1.5,1.5Z" style="fill: #e0e0e0; stroke-width: 0px;"/>
        <path d="m413.76,348.57c-.83,0-1.5-.67-1.5-1.5v-15.78c0-.83.67-1.5,1.5-1.5s1.5.67,1.5,1.5v15.78c0,.83-.67,1.5-1.5,1.5Z" style="fill: #e0e0e0; stroke-width: 0px;"/>
        <path d="m421.23,345.35c-.83,0-1.5-.67-1.5-1.5v-9.33c0-.83.67-1.5,1.5-1.5s1.5.67,1.5,1.5v9.33c0,.83-.67,1.5-1.5,1.5Z" style="fill: #e0e0e0; stroke-width: 0px;"/>
        <path d="m294.26,348.28c-.83,0-1.5-.67-1.5-1.5v-15.19c0-.83.67-1.5,1.5-1.5s1.5.67,1.5,1.5v15.19c0,.83-.67,1.5-1.5,1.5Z" style="fill: #ff966c; stroke-width: 0px;"/>
        <path d="m301.72,351.59c-.83,0-1.5-.67-1.5-1.5v-21.83c0-.83.67-1.5,1.5-1.5s1.5.67,1.5,1.5v21.83c0,.83-.67,1.5-1.5,1.5Z" style="fill: #ff966c; stroke-width: 0px;"/>
        <path d="m309.19,355.57c-.83,0-1.5-.67-1.5-1.5v-29.78c0-.83.67-1.5,1.5-1.5s1.5.67,1.5,1.5v29.78c0,.83-.67,1.5-1.5,1.5Z" style="fill: #ff966c; stroke-width: 0px;"/>
        <path d="m316.66,351.76c-.83,0-1.5-.67-1.5-1.5v-22.17c0-.83.67-1.5,1.5-1.5s1.5.67,1.5,1.5v22.17c0,.83-.67,1.5-1.5,1.5Z" style="fill: #e0e0e0; stroke-width: 0px;"/>
        <path d="m324.13,348.19c-.83,0-1.5-.67-1.5-1.5v-15.02c0-.83.67-1.5,1.5-1.5s1.5.67,1.5,1.5v15.02c0,.83-.67,1.5-1.5,1.5Z" style="fill: #e0e0e0; stroke-width: 0px;"/>
        <path d="m331.6,346.28c-.83,0-1.5-.67-1.5-1.5v-11.2c0-.83.67-1.5,1.5-1.5s1.5.67,1.5,1.5v11.2c0,.83-.67,1.5-1.5,1.5Z" style="fill: #e0e0e0; stroke-width: 0px;"/>
        <path d="m339.07,352.01c-.83,0-1.5-.67-1.5-1.5v-22.66c0-.83.67-1.5,1.5-1.5s1.5.67,1.5,1.5v22.66c0,.83-.67,1.5-1.5,1.5Z" style="fill: #e0e0e0; stroke-width: 0px;"/>
        <path d="m368.95,352.01c-.83,0-1.5-.67-1.5-1.5v-22.66c0-.83.67-1.5,1.5-1.5s1.5.67,1.5,1.5v22.66c0,.83-.67,1.5-1.5,1.5Z" style="fill: #e0e0e0; stroke-width: 0px;"/>
        <path d="m346.54,355.57c-.83,0-1.5-.67-1.5-1.5v-29.78c0-.83.67-1.5,1.5-1.5s1.5.67,1.5,1.5v29.78c0,.83-.67,1.5-1.5,1.5Z" style="fill: #e0e0e0; stroke-width: 0px;"/>
        <path d="m354.01,361.6c-.83,0-1.5-.67-1.5-1.5v-41.83c0-.83.67-1.5,1.5-1.5s1.5.67,1.5,1.5v41.83c0,.83-.67,1.5-1.5,1.5Z" style="fill: #e0e0e0; stroke-width: 0px;"/>
        <path d="m361.48,355.57c-.83,0-1.5-.67-1.5-1.5v-29.78c0-.83.67-1.5,1.5-1.5s1.5.67,1.5,1.5v29.78c0,.83-.67,1.5-1.5,1.5Z" style="fill: #e0e0e0; stroke-width: 0px;"/>
        <path d="m376.42,346.28c-.83,0-1.5-.67-1.5-1.5v-11.2c0-.83.67-1.5,1.5-1.5s1.5.67,1.5,1.5v11.2c0,.83-.67,1.5-1.5,1.5Z" style="fill: #e0e0e0; stroke-width: 0px;"/>
        <path d="m391.36,346.28c-.83,0-1.5-.67-1.5-1.5v-11.2c0-.83.67-1.5,1.5-1.5s1.5.67,1.5,1.5v11.2c0,.83-.67,1.5-1.5,1.5Z" style="fill: #e0e0e0; stroke-width: 0px;"/>
        <path d="m383.89,344.41c-.83,0-1.5-.67-1.5-1.5v-7.46c0-.83.67-1.5,1.5-1.5s1.5.67,1.5,1.5v7.46c0,.83-.67,1.5-1.5,1.5Z" style="fill: #e0e0e0; stroke-width: 0px;"/>
        <path d="m256.91,346.28c-.83,0-1.5-.67-1.5-1.5v-11.2c0-.83.67-1.5,1.5-1.5s1.5.67,1.5,1.5v11.2c0,.83-.67,1.5-1.5,1.5Z" style="fill: #ff966c; stroke-width: 0px;"/>
      </g>
      <circle cx="227.21" cy="338.54" r="21.19" transform="translate(-155.54 479.02) rotate(-76.29)" style="fill: #ff966c; stroke-width: 0px;"/>
      <path d="m221.61,339.18v-6.17c0-1.61,1.74-2.61,3.13-1.81l5.35,3.09,5.35,3.09c1.39.8,1.39,2.81,0,3.62l-5.35,3.09-5.35,3.09c-1.39.8-3.13-.2-3.13-1.81v-6.17Z" style="fill: #fff; stroke-width: 0px;"/>
    </g>
    <g>
      <g>
        <rect x="262.6" y="222.34" width="243.49" height="63" rx="29.91" ry="29.91" style="fill: #fafafa; stroke-width: 0px;"/>
        <path d="m476.18,285.84h-183.66c-16.77,0-30.41-13.64-30.41-30.41v-3.17c0-16.77,13.64-30.41,30.41-30.41h183.66c16.77,0,30.41,13.64,30.41,30.41v3.17c0,16.77-13.64,30.41-30.41,30.41Zm-183.66-63c-16.22,0-29.41,13.19-29.41,29.41v3.17c0,16.22,13.19,29.41,29.41,29.41h183.66c16.22,0,29.41-13.19,29.41-29.41v-3.17c0-16.22-13.19-29.41-29.41-29.41h-183.66Z" style="fill: #263238; stroke-width: 0px;"/>
      </g>
      <circle cx="292.85" cy="253.72" r="21.19" transform="translate(-78.08 141.72) rotate(-24.1)" style="fill: #455a64; stroke-width: 0px;"/>
      <path d="m287.24,254.36v-6.17c0-1.61,1.74-2.61,3.13-1.81l5.35,3.09,5.35,3.09c1.39.8,1.39,2.81,0,3.62l-5.35,3.09-5.35,3.09c-1.39.8-3.13-.2-3.13-1.81v-6.17Z" style="fill: #fff; stroke-width: 0px;"/>
      <g>
        <path d="m337.27,267.85c-.83,0-1.5-.67-1.5-1.5v-23.98c0-.83.67-1.5,1.5-1.5s1.5.67,1.5,1.5v23.98c0,.83-.67,1.5-1.5,1.5Z" style="fill: #455a64; stroke-width: 0px;"/>
        <path d="m329.39,264.1c-.83,0-1.5-.67-1.5-1.5v-16.48c0-.83.67-1.5,1.5-1.5s1.5.67,1.5,1.5v16.48c0,.83-.67,1.5-1.5,1.5Z" style="fill: #455a64; stroke-width: 0px;"/>
        <path d="m431.79,267.85c-.83,0-1.5-.67-1.5-1.5v-23.98c0-.83.67-1.5,1.5-1.5s1.5.67,1.5,1.5v23.98c0,.83-.67,1.5-1.5,1.5Z" style="fill: #455a64; stroke-width: 0px;"/>
        <path d="m423.91,264.1c-.83,0-1.5-.67-1.5-1.5v-16.48c0-.83.67-1.5,1.5-1.5s1.5.67,1.5,1.5v16.48c0,.83-.67,1.5-1.5,1.5Z" style="fill: #455a64; stroke-width: 0px;"/>
        <path d="m439.66,264.1c-.83,0-1.5-.67-1.5-1.5v-16.48c0-.83.67-1.5,1.5-1.5s1.5.67,1.5,1.5v16.48c0,.83-.67,1.5-1.5,1.5Z" style="fill: #455a64; stroke-width: 0px;"/>
        <path d="m447.54,260.73c-.83,0-1.5-.67-1.5-1.5v-9.74c0-.83.67-1.5,1.5-1.5s1.5.67,1.5,1.5v9.74c0,.83-.67,1.5-1.5,1.5Z" style="fill: #455a64; stroke-width: 0px;"/>
        <path d="m463.07,267.85c-.83,0-1.5-.67-1.5-1.5v-23.98c0-.83.67-1.5,1.5-1.5s1.5.67,1.5,1.5v23.98c0,.83-.67,1.5-1.5,1.5Z" style="fill: #455a64; stroke-width: 0px;"/>
        <path d="m455.2,264.1c-.83,0-1.5-.67-1.5-1.5v-16.48c0-.83.67-1.5,1.5-1.5s1.5.67,1.5,1.5v16.48c0,.83-.67,1.5-1.5,1.5Z" style="fill: #455a64; stroke-width: 0px;"/>
        <path d="m470.95,264.1c-.83,0-1.5-.67-1.5-1.5v-16.48c0-.83.67-1.5,1.5-1.5s1.5.67,1.5,1.5v16.48c0,.83-.67,1.5-1.5,1.5Z" style="fill: #455a64; stroke-width: 0px;"/>
        <path d="m478.83,260.73c-.83,0-1.5-.67-1.5-1.5v-9.74c0-.83.67-1.5,1.5-1.5s1.5.67,1.5,1.5v9.74c0,.83-.67,1.5-1.5,1.5Z" style="fill: #455a64; stroke-width: 0px;"/>
        <path d="m485.93,259.37c-.83,0-1.5-.67-1.5-1.5v-5.39c0-.83.67-1.5,1.5-1.5s1.5.67,1.5,1.5v5.39c0,.83-.67,1.5-1.5,1.5Z" style="fill: #455a64; stroke-width: 0px;"/>
        <path d="m368.78,267.69c-.83,0-1.5-.67-1.5-1.5v-23.65c0-.83.67-1.5,1.5-1.5s1.5.67,1.5,1.5v23.65c0,.83-.67,1.5-1.5,1.5Z" style="fill: #455a64; stroke-width: 0px;"/>
        <path d="m345.15,271.4c-.83,0-1.5-.67-1.5-1.5v-31.09c0-.83.67-1.5,1.5-1.5s1.5.67,1.5,1.5v31.09c0,.83-.67,1.5-1.5,1.5Z" style="fill: #455a64; stroke-width: 0px;"/>
        <path d="m353.02,277.7c-.83,0-1.5-.67-1.5-1.5v-43.67c0-.83.67-1.5,1.5-1.5s1.5.67,1.5,1.5v43.67c0,.83-.67,1.5-1.5,1.5Z" style="fill: #455a64; stroke-width: 0px;"/>
        <path d="m360.9,271.4c-.83,0-1.5-.67-1.5-1.5v-31.09c0-.83.67-1.5,1.5-1.5s1.5.67,1.5,1.5v31.09c0,.83-.67,1.5-1.5,1.5Z" style="fill: #455a64; stroke-width: 0px;"/>
        <path d="m384.53,267.85c-.83,0-1.5-.67-1.5-1.5v-23.98c0-.83.67-1.5,1.5-1.5s1.5.67,1.5,1.5v23.98c0,.83-.67,1.5-1.5,1.5Z" style="fill: #455a64; stroke-width: 0px;"/>
        <path d="m376.65,264.1c-.83,0-1.5-.67-1.5-1.5v-16.48c0-.83.67-1.5,1.5-1.5s1.5.67,1.5,1.5v16.48c0,.83-.67,1.5-1.5,1.5Z" style="fill: #455a64; stroke-width: 0px;"/>
        <path d="m416.03,267.69c-.83,0-1.5-.67-1.5-1.5v-23.65c0-.83.67-1.5,1.5-1.5s1.5.67,1.5,1.5v23.65c0,.83-.67,1.5-1.5,1.5Z" style="fill: #455a64; stroke-width: 0px;"/>
        <path d="m392.4,271.4c-.83,0-1.5-.67-1.5-1.5v-31.09c0-.83.67-1.5,1.5-1.5s1.5.67,1.5,1.5v31.09c0,.83-.67,1.5-1.5,1.5Z" style="fill: #455a64; stroke-width: 0px;"/>
        <path d="m400.28,277.7c-.83,0-1.5-.67-1.5-1.5v-43.67c0-.83.67-1.5,1.5-1.5s1.5.67,1.5,1.5v43.67c0,.83-.67,1.5-1.5,1.5Z" style="fill: #455a64; stroke-width: 0px;"/>
        <path d="m408.16,271.4c-.83,0-1.5-.67-1.5-1.5v-31.09c0-.83.67-1.5,1.5-1.5s1.5.67,1.5,1.5v31.09c0,.83-.67,1.5-1.5,1.5Z" style="fill: #455a64; stroke-width: 0px;"/>
        <path d="m321.52,261.71c-.83,0-1.5-.67-1.5-1.5v-11.69c0-.83.67-1.5,1.5-1.5s1.5.67,1.5,1.5v11.69c0,.83-.67,1.5-1.5,1.5Z" style="fill: #455a64; stroke-width: 0px;"/>
      </g>
    </g>
  </g>
  <g id="Character_2" data-name="Character 2">
    <g>
      <g>
        <path d="m474.67,152.38s3.03,4.04,5.04,5.54c2.01,1.51,3.66,1.47,5.45,4.59,1.8,3.11,3.87,6.38,3.87,6.38,0,0,14.85,6.8,14.56,7.01l-8.97,13.69-15.68-11.99-17.46-5.12-9.07-9.39.27-1.03-1.21-1.99s.56-2.78,3-1.4c0,0-1.02-2.9,2.57-1.64,3.59,1.26,10.49,5.17,10.95,5.14.47-.03,6.64.78,6.64.78l2.67-.95s-2.41-.91-3.52-2.94c-1.1-2.03-2.84-3.03-2.04-5.05.79-2.02,2.93-1.62,2.93-1.62Z" style="fill: #ffbf9d; stroke-width: 0px;"/>
        <path d="m479.83,169.29s-.35-.05-.98-.17c-.63-.09-1.55-.17-2.7-.12-2.3.11-5.49.68-8.97,1.73l-.08.03-.08-.03c-.62-.23-1.28-.48-1.94-.72-.32-.12-.65-.24-.96-.36l-.08-.03-.04-.07c-.74-1.19-1.45-2.34-2.13-3.42-.31-.52-.72-.95-1.2-1.12-.48-.18-1.03-.02-1.4.25l.07-.21c.9,3.8,1.26,6.34,1.11,6.35-.04,0-.12-.62-.39-1.71-.25-1.09-.64-2.65-1.12-4.54l-.03-.13.1-.08c.48-.37,1.15-.58,1.81-.36.64.22,1.12.74,1.46,1.3.68,1.07,1.4,2.21,2.14,3.39l-.12-.1c.32.12.64.24.97.36.66.25,1.32.49,1.94.73h-.16c3.54-1.06,6.77-1.57,9.12-1.59,1.17,0,2.11.12,2.74.27.63.18.95.33.94.35Z" style="fill: #ff9a6c; stroke-width: 0px;"/>
        <path d="m465.86,165.06c-.07.12-2.65-1.27-5.75-3.1-3.11-1.83-5.57-3.41-5.5-3.53.07-.12,2.65,1.27,5.75,3.1,3.11,1.83,5.57,3.41,5.5,3.53Z" style="fill: #ff9a6c; stroke-width: 0px;"/>
        <path d="m458.39,165.22c-.05.05-.36-.23-.81-.69-.46-.46-1.08-1.1-1.87-1.64-.79-.53-1.63-.79-2.25-.85-.62-.07-1.02.03-1.04-.05-.02-.05.36-.28,1.05-.31.69-.03,1.65.2,2.52.79.86.58,1.46,1.3,1.86,1.82.39.53.6.88.54.93Z" style="fill: #ff9a6c; stroke-width: 0px;"/>
        <path d="m469.33,163.2c.07.13-1.41.84-2.47,2.47-1.09,1.61-1.17,3.25-1.32,3.23-.06,0-.13-.41-.04-1.08.09-.66.37-1.57.94-2.43.57-.86,1.3-1.48,1.87-1.81.58-.34.99-.44,1.01-.38Z" style="fill: #ff9a6c; stroke-width: 0px;"/>
      </g>
      <g>
        <path d="m530.91,133.41l-1.84.38s-7.06,4.09-8.15,13.85c-.63,5.65-3.11,33.25-3.11,33.25l-17.03-8.66-11.53,20.91s24.55,20.85,29.74,22.82c10.19,3.86,16.39-5.24,16.39-5.24l-4.47-77.31Z" style="fill: #455a64; stroke-width: 0px;"/>
        <path d="m504.2,172.09c-1.97-.81-3.88-1.67-5.64-.49-1.77,1.18-2.89,3.03-3.95,4.83-3.24,5.46-5.45,9.35-8.68,14.81l3.38,3.45c2.68,2.32,6.27,2.82,7.85-.07,1.15-2.11,1.55-2.25,2.77-4.33l6.55-11.23c.6-1.04,1.22-2.11,1.35-3.29.22-2.04-1.65-2.87-3.62-3.67Z" style="fill: #455a64; stroke-width: 0px;"/>
        <path d="m507.26,176.52s-.06.35-.26.94c-.2.59-.52,1.44-.93,2.48-.83,2.07-2.08,4.9-3.65,7.93-.79,1.51-1.55,2.95-2.36,4.2-.8,1.26-1.68,2.3-2.54,3.04-.87.74-1.7,1.16-2.3,1.38-.6.22-.95.24-.95.22-.05-.1,1.39-.36,3-1.87.8-.75,1.62-1.78,2.38-3.02.77-1.24,1.51-2.68,2.3-4.19,1.56-3.02,2.86-5.8,3.77-7.83.91-2.03,1.46-3.3,1.53-3.27Z" style="fill: #263238; stroke-width: 0px;"/>
        <path d="m522.07,200.47c-.09,0,0-1.18-.03-3.06-.03-1.88-.26-4.48-.91-7.28-.66-2.79-1.62-5.22-2.42-6.92-.8-1.7-1.4-2.71-1.33-2.76.03-.02.21.21.51.66.3.44.7,1.1,1.15,1.94.9,1.68,1.93,4.13,2.6,6.97.67,2.84.83,5.49.77,7.4-.03.95-.09,1.72-.17,2.25-.07.53-.13.82-.17.81Z" style="fill: #263238; stroke-width: 0px;"/>
      </g>
      <g>
        <g>
          <path d="m554.12,422.72l1.04,22.37s-22.39,8.57-22.6,12.72l43.45-.46-.19-34.92-21.7.29Z" style="fill: #455a64; stroke-width: 0px;"/>
          <path d="m568.57,443.06c.84.22,1.43,1.16,1.25,2.01-.19.85-1.14,1.46-1.98,1.25-.85-.21-1.59-1.31-1.31-2.14.28-.83,1.43-1.48,2.21-1.08" style="fill: #e0e0e0; stroke-width: 0px;"/>
          <path d="m576,457.35l-.16-3.52-41.6,1.76s-1.93.86-1.69,2.22l43.45-.46Z" style="fill: #263238; stroke-width: 0px;"/>
          <path d="m554.45,444.87c0,.21,1.07.3,2.12.97,1.07.64,1.62,1.56,1.81,1.47.19-.04-.13-1.31-1.42-2.1-1.28-.8-2.56-.53-2.51-.34Z" style="fill: #fff; stroke-width: 0px;"/>
          <path d="m549.91,446.81c-.05.21.88.56,1.61,1.45.76.87.95,1.84,1.16,1.82.2.03.33-1.21-.6-2.3-.92-1.1-2.17-1.17-2.17-.97Z" style="fill: #fff; stroke-width: 0px;"/>
          <path d="m547.38,452.29c.19.04.48-1.02-.08-2.18-.55-1.16-1.55-1.61-1.64-1.43-.12.18.53.79.98,1.75.47.95.54,1.84.75,1.86Z" style="fill: #fff; stroke-width: 0px;"/>
          <path d="m554.78,439.75c.09.19,1.06-.11,2.26-.04,1.2.04,2.14.44,2.25.25.12-.15-.8-.93-2.21-.99-1.41-.07-2.4.61-2.3.78Z" style="fill: #fff; stroke-width: 0px;"/>
        </g>
        <g>
          <path d="m605.02,420.32l2.35,26.99-4.29,21.89c-.31,1.58.78,3.09,2.38,3.29h0c.89.11,1.78-.21,2.39-.87,3.87-4.22,17.63-20.01,17.63-21.46,0-2.3-.46-28.97-.46-28.97l-19.99-.87Z" style="fill: #455a64; stroke-width: 0px;"/>
          <path d="m605.46,472.49l20.03-24.49.07,1.15c-.03,1.17-.22,1.97-.82,2.77-1.59,2.13-6.1,7.91-16.82,19.7-.62.69-1.55,1.02-2.47.88h0Z" style="fill: #263238; stroke-width: 0px;"/>
          <path d="m619.38,439.64c-.65.51-.8,1.55-.32,2.22.49.67,1.54.84,2.2.33.66-.5.88-1.74.32-2.35-.56-.61-1.81-.74-2.32-.1" style="fill: #e0e0e0; stroke-width: 0px;"/>
          <path d="m610.88,460.28c-.15.08-.85-1.29-2.51-1.95-1.64-.71-3.11-.23-3.15-.4-.03-.06.3-.3.93-.43.62-.13,1.54-.1,2.45.27.91.38,1.58,1.01,1.92,1.54.35.54.42.93.35.96Z" style="fill: #fff; stroke-width: 0px;"/>
          <path d="m609.19,464.02c-.12.13-1.05-.7-2.47-1.01-1.42-.34-2.61,0-2.66-.17-.09-.13,1.18-.79,2.8-.41,1.62.36,2.47,1.51,2.34,1.59Z" style="fill: #fff; stroke-width: 0px;"/>
          <path d="m614.17,455.41c-.12.14-1.53-1.14-3.71-1.81-2.16-.71-4.05-.5-4.07-.68-.05-.14,1.93-.65,4.25.11,2.33.73,3.65,2.3,3.52,2.38Z" style="fill: #fff; stroke-width: 0px;"/>
          <path d="m614.14,447.14c-.06.17-1.6-.36-3.54-.31-1.95.03-3.46.62-3.53.46-.08-.13,1.42-1.02,3.52-1.05,2.09-.05,3.63.77,3.56.9Z" style="fill: #fff; stroke-width: 0px;"/>
          <path d="m613.65,439.2c-.07.16-1.63-.64-3.68-.42-2.05.18-3.42,1.27-3.53,1.13-.05-.05.23-.41.83-.81.6-.4,1.54-.8,2.64-.91,1.1-.11,2.11.1,2.77.38.67.27,1.01.57.97.63Z" style="fill: #fff; stroke-width: 0px;"/>
          <path d="m609.92,437.27s-.12-.36-.1-1.02c.02-.66.15-1.63.64-2.73.26-.52.52-1.19,1.25-1.59.36-.2.93-.17,1.27.17.34.33.47.77.51,1.19.08,1.72-1.28,3.47-3.2,3.84-1.92.34-3.75-.66-4.61-2.09-.19-.37-.34-.84-.16-1.31.18-.47.71-.69,1.11-.65.81.07,1.35.5,1.84.81.98.69,1.61,1.44,1.98,1.98.37.55.51.89.48.91-.09.08-.77-1.28-2.69-2.54-.48-.29-1.04-.65-1.62-.67-.28,0-.52.12-.6.35-.09.22-.01.56.15.85.73,1.17,2.4,2.08,4.02,1.77,1.62-.3,2.82-1.84,2.76-3.22-.02-.33-.13-.66-.32-.85-.19-.18-.46-.22-.7-.1-.51.25-.83.84-1.09,1.33-1.01,2.06-.8,3.59-.92,3.57Z" style="fill: #fff; stroke-width: 0px;"/>
        </g>
        <path d="m626.43,437.48l-8-93.25-9.31-89.48-3.5-26.05-74.72,6.01s-3.29,12.76-2.1,28.3c.02.31.1,1.07.23,2.21l-.49-.19s1.52,45.28,3.26,57.68c1.74,12.4,4.79,31.39,6.98,38.99,2.31,8,3.23,35.22,3.41,42.35.1,3.88.73,14.75,2.84,21.48,1.19,3.8,4.55,6.51,8.51,6.89h0l.9,5.85,22.51-2.9-7-139.64c-.05-1.06,1.31-1.1,2.35-1.3.43-.08.8.04,1.11.3,2.84,23.4,7.98,65.95,9.67,70.65,2.31,6.42,6.97,48.56,10.6,58.18,2.79,7.39,10.36,10.07,10.36,10.07l.57,3.61,21.82.25Z" style="fill: #263238; stroke-width: 0px;"/>
        <path d="m608.6,354.11c-.1.09-2.61-2.58-5.59-5.98-2.98-3.39-5.32-6.21-5.22-6.3.1-.09,2.6,2.58,5.59,5.98,2.98,3.39,5.32,6.21,5.22,6.3Z" style="fill: #455a64; stroke-width: 0px;"/>
        <path d="m553.59,345.76c.12.07-1,2-2.49,4.31-1.49,2.31-2.8,4.11-2.91,4.04-.12-.07,1-2,2.49-4.31,1.49-2.31,2.79-4.11,2.91-4.04Z" style="fill: #455a64; stroke-width: 0px;"/>
      </g>
      <g>
        <g>
          <path d="m536.89,67.11c1-2.01,2.2-3.97,3.91-5.42,1.71-1.45,4.01-2.34,6.21-1.95,2.21.39,4.19,2.27,4.3,4.51l1.61.61c-3.24,1.76-5.18,5.2-6.61,8.6-1.43,3.4-1.53,6.66-3.85,9.53-1.68-2.34-3.69-4.83-3.78-7.71-.98,1.67-1.33,3.71-.95,5.61-2-1.5-2.94-4.12-2.9-6.62.04-2.5.95-4.91,2.06-7.15Z" style="fill: #263238; stroke-width: 0px;"/>
          <path d="m549.24,61.5c1.73-7.61,11.53-8.52,17.79-8.26,6.26.26,12.1,3.54,16.4,7.99,4.3,4.45,7.23,9.99,9.64,15.65-1.51.18-3.03.36-4.54.54,1.29-.21,2.52.83,2.96,2.03.44,1.21.28,2.53.09,3.8-.45,3.03-1.02,6.05-1.94,8.98-2.41,7.66-7.14,14.38-11.8,20.97-1.09-6,.11-12.15,1.5-18.08.49-2.11,1-4.35.25-6.38-.68-1.83-2.29-3.18-4.02-4.15-1.72-.97-3.61-1.64-5.33-2.63-3.84-2.2-6.69-5.98-7.72-10.21l-13.29-10.25Z" style="fill: #263238; stroke-width: 0px;"/>
          <g>
            <path d="m582.31,83.07l-3.23,45.48c-.55,7.73-2.94,18.98-15.12,17.55h0c-10.48-2.04-12.45-12.28-11.93-19.5.25-3.42.45-6.28.45-6.63,0,0-11.5-1.91-11.52-13.43-.01-5.57.9-17.03,1.85-27.4,1.02-11.13,10.42-19.61,21.6-19.49h1.11c11.97.84,17.96,11.47,16.81,23.41Z" style="fill: #ffbf9d; stroke-width: 0px;"/>
            <path d="m552.47,119.97s7.25.5,15.04-4.28c0,0-3.75,8.37-15.23,7.22l.19-2.94Z" style="fill: #ff9a6c; stroke-width: 0px;"/>
            <path d="m561.95,85.46c.21.25,1.62-.7,3.54-.59,1.92.08,3.27,1.17,3.49.94.11-.1-.09-.54-.68-1.03-.58-.49-1.58-.99-2.78-1.05-1.2-.06-2.23.34-2.83.77-.62.43-.84.85-.74.97Z" style="fill: #263238; stroke-width: 0px;"/>
            <path d="m560.99,90.61c-.04.82.63,1.53,1.48,1.59.85.05,1.58-.56,1.62-1.39.04-.82-.63-1.53-1.48-1.59-.86-.06-1.58.57-1.62,1.39Z" style="fill: #263238; stroke-width: 0px;"/>
            <path d="m556.04,98.39c0-.1-1.09-.3-2.87-.55-.45-.05-.88-.15-.95-.45-.1-.33.09-.81.32-1.34.44-1.09.89-2.23,1.37-3.43,1.91-4.88,3.29-8.89,3.1-8.97-.2-.08-1.9,3.82-3.81,8.7-.46,1.2-.9,2.35-1.32,3.45-.18.51-.48,1.09-.25,1.77.12.34.45.59.74.67.29.09.54.1.77.11,1.79.12,2.91.14,2.91.03Z" style="fill: #263238; stroke-width: 0px;"/>
            <path d="m563.37,78.33c.15.44,1.71.25,3.54.5,1.83.21,3.3.78,3.55.39.11-.19-.14-.6-.74-1.03-.59-.43-1.53-.84-2.63-.98-1.1-.14-2.11.03-2.78.31-.68.27-1.02.61-.95.82Z" style="fill: #263238; stroke-width: 0px;"/>
            <path d="m544.88,80.36c.17.36,1.7.1,3.52.2,1.82.06,3.3.45,3.52.11.1-.17-.17-.5-.78-.83-.6-.33-1.55-.62-2.64-.67-1.09-.05-2.07.16-2.72.43-.65.27-.97.58-.89.76Z" style="fill: #263238; stroke-width: 0px;"/>
            <path d="m581.28,91.58c.2-.08,7.94-2.26,7.6,5.61-.33,7.87-8.17,5.91-8.17,5.69,0-.23.57-11.3.57-11.3Z" style="fill: #ffbf9d; stroke-width: 0px;"/>
            <path d="m583.24,100s.13.1.36.22c.22.11.61.2,1.02.06.84-.27,1.6-1.56,1.7-2.98.05-.72-.07-1.4-.3-1.98-.22-.59-.57-1-.99-1.1-.41-.11-.72.12-.82.34-.11.22-.07.37-.11.39-.02.02-.16-.14-.09-.46.04-.15.14-.34.33-.48.2-.15.48-.21.77-.17.61.07,1.13.65,1.38,1.28.29.64.44,1.41.38,2.21-.12,1.58-.99,3.03-2.14,3.31-.56.12-1.01-.07-1.24-.26-.24-.2-.27-.38-.24-.4Z" style="fill: #ff9a6c; stroke-width: 0px;"/>
            <path d="m544.43,84.72c.21.25,1.62-.7,3.54-.59,1.92.08,3.27,1.17,3.49.94.11-.1-.09-.54-.68-1.03-.58-.49-1.58-.99-2.78-1.05-1.2-.06-2.23.34-2.83.77-.62.43-.84.85-.74.97Z" style="fill: #263238; stroke-width: 0px;"/>
            <path d="m545.86,90c-.04.82.63,1.53,1.48,1.59.85.05,1.58-.56,1.62-1.39.04-.82-.63-1.53-1.48-1.59-.86-.06-1.58.57-1.62,1.39Z" style="fill: #263238; stroke-width: 0px;"/>
          </g>
          <path d="m548.94,65.53c-1.24-4.81,2.73-7,6.87-9.73,4.15-2.73,10.02-2.51,13.95.52,2.06,1.59,3.54,3.79,5.34,5.67,1.8,1.88,4.16,3.51,6.76,3.4-2.69,2.64-7.12,3.31-10.47,1.59,2.87,3.52,6.8,6.16,11.14,7.49-3.32,2.12-8.17,1.36-10.69-1.68,1,3.72,2.92,7.18,5.56,9.99.45.48.95,1.08.75,1.7-.2.63-1,.83-1.66.86-3.87.17-7.75-1.96-9.69-5.31-2.09-3.61-3.44-7.43-5.34-11.14-.9-1.76-3.81-4.86-6.15-4.95-1.96-.08-5.68.55-6.61,2.28" style="fill: #263238; stroke-width: 0px;"/>
          <path d="m566.75,61.44c.34-.56,1.04-.79,1.69-.89,4.34-.7,8.7,1.96,11.16,5.61s3.35,8.11,3.91,12.47c.45,3.54.7,7.23-.5,10.6l-2.13,2.79c-.65.82-.66,1.95-.92,2.96-.26,1.01-1.05,2.1-2.09,1.94-.76-.12-1.26-.87-1.48-1.61-.67-2.22.28-4.71-.46-6.91-.5-1.47-1.68-2.59-2.59-3.86-1.6-2.24-2.34-4.96-3.04-7.62-1.19-4.48-2.38-8.95-3.56-13.43-.18-.68-.35-1.44.01-2.04Z" style="fill: #263238; stroke-width: 0px;"/>
          <path d="m548.94,65.53c-1.24-4.81,2.73-7,6.87-9.73,4.15-2.73,10.02-2.51,13.95.52,2.06,1.59,3.54,3.79,5.34,5.67,1.8,1.88,4.16,3.51,6.76,3.4-2.69,2.64-7.12,3.31-10.47,1.59,2.87,3.52,6.8,6.16,11.14,7.49-3.32,2.12-8.17,1.36-10.69-1.68,1,3.72,2.92,7.18,5.56,9.99.45.48.95,1.08.75,1.7-.2.63-1,.83-1.66.86-3.87.17-7.75-1.96-9.69-5.31-2.09-3.61-3.44-7.43-5.34-11.14-.9-1.76-3.81-4.86-6.15-4.95-1.96-.08-5.68.55-6.61,2.28" style="fill: #263238; stroke-width: 0px;"/>
          <path d="m573.76,64.6s-.39-.12-1.05-.4c-.66-.28-1.56-.81-2.52-1.66-.98-.83-1.99-2-3.23-3.2-.63-.6-1.33-1.2-2.14-1.7-.82-.5-1.77-.88-2.78-1.03-2.03-.31-4,.16-5.57.91-1.59.75-2.8,1.78-3.74,2.68-.94.92-1.6,1.74-2.05,2.31-.44.58-.66.92-.64.94.07.06,1.04-1.24,2.92-3,.95-.86,2.16-1.82,3.69-2.52,1.52-.7,3.39-1.13,5.3-.83,1.92.27,3.46,1.42,4.69,2.57,1.24,1.16,2.29,2.32,3.32,3.14,1.02.83,1.98,1.34,2.68,1.57.7.23,1.11.25,1.12.23Z" style="fill: #455a64; stroke-width: 0px;"/>
          <path d="m567.81,71.31c.06-.05-.75-1.01-1.79-2.77-.53-.87-1.13-1.93-1.92-3.04-.78-1.11-1.8-2.29-3.18-3.11-1.38-.83-2.9-1.22-4.28-1.25-1.39-.04-2.62.28-3.58.69-.96.41-1.65.91-2.08,1.29-.44.38-.63.63-.61.66.06.08.94-.89,2.82-1.62.93-.36,2.11-.62,3.43-.56,1.31.06,2.75.44,4.05,1.22,1.3.78,2.28,1.89,3.07,2.96.79,1.08,1.42,2.12,1.99,2.97.56.85,1.07,1.52,1.45,1.95.38.43.62.65.64.63Z" style="fill: #455a64; stroke-width: 0px;"/>
          <path d="m541.04,70.23c.07.02.31-.65.82-1.66.51-1,1.32-2.37,2.62-3.47,1.3-1.1,2.81-1.62,3.91-1.73,1.11-.12,1.81.07,1.83-.02.02-.04-.66-.37-1.85-.33-1.17.02-2.82.52-4.2,1.7-1.38,1.18-2.18,2.64-2.62,3.7-.44,1.08-.56,1.79-.5,1.8Z" style="fill: #455a64; stroke-width: 0px;"/>
          <path d="m573.22,84.13s.11.04.33.09c.22.04.55.1.99.12.87.06,2.19.03,3.77-.51.76-.28,1.68-.6,2.35-1.43.33-.4.5-1.05.24-1.6-.25-.57-.82-.88-1.35-1.09-.55-.22-1.14-.35-1.7-.54-.57-.2-1.13-.44-1.69-.75-1.11-.61-2.17-1.46-3.06-2.53l-.26.31c2.11,1.21,5.31,1.03,7.39-.99l.23-.22-.29-.14c-1.98-1-3.82-2.52-5.21-4.48l-.29.36c2.75,1.1,6.22.64,8.67-1.4.09-.08.19-.16.28-.23l.31-.26-.39-.15c-1.32-.5-2.41-1.44-3.3-2.5-.9-1.06-1.61-2.26-2.33-3.43-.71-1.17-1.47-2.32-2.37-3.32-.89-1-1.88-1.87-2.92-2.6-4.2-2.97-9.12-3.64-12.87-2.87-3.8.73-6.48,2.54-8.07,3.93-1.61,1.42-2.22,2.45-2.22,2.45.05.05.72-.95,2.35-2.31,1.61-1.33,4.28-3.07,8.01-3.74,1.85-.34,3.95-.37,6.12.08,2.17.44,4.4,1.37,6.43,2.81,2.05,1.43,3.78,3.43,5.14,5.8.72,1.17,1.43,2.39,2.36,3.49.92,1.1,2.07,2.11,3.5,2.65l-.08-.41c-.08.07-.17.14-.26.22-2.3,1.92-5.59,2.36-8.17,1.33l-.76-.3.47.67c1.44,2.02,3.35,3.59,5.4,4.61l-.06-.37c-1.9,1.87-4.91,2.07-6.87.96l-.99-.56.73.87c.93,1.11,2.04,1.97,3.19,2.59.58.31,1.17.56,1.75.76.59.2,1.17.31,1.69.52.51.2,1,.48,1.19.91.21.44.1.94-.19,1.3-.58.75-1.46,1.09-2.2,1.38-1.53.55-2.82.62-3.68.6-.87-.02-1.32-.12-1.33-.09Z" style="fill: #455a64; stroke-width: 0px;"/>
        </g>
        <g>
          <path d="m555.01,103.21c1.88-.84,3.76-1.67,5.64-2.51.45.75.91,1.51,1.14,2.36.23.85.19,1.8-.29,2.53-.46.69-1.25,1.09-2.03,1.38-.68.26-1.43.47-2.14.3-.81-.2-1.43-.88-1.78-1.64-.34-.76-.45-1.6-.55-2.43" style="fill: #ff9a6c; stroke-width: 0px;"/>
          <path d="m557.33,107.27s.21.14.63.16c.42.02,1.04-.1,1.73-.36.67-.26,1.59-.63,2.13-1.58.52-.94.42-2.19-.04-3.24-.26-.62-.6-1.17-.92-1.68l-.11-.18-.19.09c-1.62.73-3.01,1.39-4,1.87s-1.57.8-1.54.85c.02.05.65-.17,1.67-.57,1.02-.41,2.45-1.01,4.07-1.72l-.3-.09c.3.51.63,1.05.87,1.63.43.97.5,2.05.1,2.83-.41.79-1.22,1.18-1.86,1.47-.66.29-1.21.45-1.6.49-.39.04-.62,0-.63.04Z" style="fill: #263238; stroke-width: 0px;"/>
        </g>
      </g>
      <g>
        <polygon points="603.86 215.33 604.35 184.93 602.29 134.26 583.59 127.75 578.67 121.53 566.49 133.82 559.73 150.2 553.98 133.44 551.26 123.96 547.55 126.75 529.07 133.78 528.52 172.93 528.21 221.13 527.52 257.23 526.78 269.82 553.86 271.74 555.95 258.62 559.43 270.72 612.59 270.96 610.27 253.84 603.86 215.33" style="fill: #455a64; stroke-width: 0px;"/>
        <g style="opacity: .3;">
          <path d="m580.26,206.18c1.86,1.64,3.92,3.23,6.37,3.65,3.36.58,6.69-1.17,9.33-3.33,2.64-2.15,4.94-4.77,7.9-6.46l-.6,2.17c-2.84,6.41-6.38,11.69-11.55,16.42-2.19,2-4.73,3.89-7.69,4.15-4.54.4-8.53-3.19-10.79-7.15-2.27-3.96-3.48-8.49-6.04-12.26-3.29-3.67-5.16-8.44-6.09-13.28-.93-4.84-.98-9.8-1.02-14.74,3.8,11.83,10.86,22.6,20.18,30.81Z" style="stroke-width: 0px;"/>
        </g>
        <path d="m564.23,188.03c-1.95,2.3-1.64,3.12-.72,6.32.53,1.84,2.5,1.85,2.5,1.85,3.8,6.48,10.83,18.75,18.08,19.11,9.08.45,18.82-9.54,22.7-21.47,0,0,9.77-33.73,6.87-45.75-2.55-10.55-11.36-13.84-11.36-13.84l-18.55,41.96-7.62-3.69-11.89,15.5Z" style="fill: #455a64; stroke-width: 0px;"/>
        <path d="m586.24,179.61s.11-.19.18-.58c.07-.38.12-.96,0-1.65-.11-.7-.41-1.5-.87-2.3-.45-.8-1.04-1.64-1.79-2.4-.76-.75-1.62-1.35-2.51-1.67-.89-.33-1.77-.36-2.47-.24-.69.15-1.22.38-1.55.58-.33.21-.5.33-.48.36.05.09.77-.41,2.08-.6.65-.06,1.45,0,2.25.32.81.32,1.6.89,2.33,1.6,1.41,1.46,2.37,3.13,2.67,4.41.29,1.3.06,2.15.16,2.16Z" style="fill: #263238; stroke-width: 0px;"/>
        <path d="m584.78,174.9c.13.04,2.11-5.53,4.42-12.44,2.31-6.91,4.08-12.55,3.95-12.6-.13-.04-2.11,5.53-4.42,12.44-2.31,6.91-4.08,12.55-3.95,12.6Z" style="fill: #263238; stroke-width: 0px;"/>
        <path d="m564.23,188.03s-.05.04-.13.12c-.08.09-.2.21-.35.4-.28.36-.74.9-.98,1.78-.24.9.03,2,.35,3.19.08.3.17.61.26.93.1.34.27.67.52.95.5.58,1.27.92,2.1.97l-.15-.09c1.6,2.76,3.49,6.09,5.96,9.56,1.24,1.73,2.62,3.51,4.25,5.19,1.63,1.65,3.55,3.27,5.95,4.09.58.24,1.21.3,1.82.39.61.06,1.22,0,1.83,0,.6-.06,1.19-.18,1.78-.26.58-.14,1.14-.32,1.7-.47,2.21-.76,4.14-1.94,5.83-3.22,3.39-2.59,5.76-5.67,7.5-8.35,1.72-2.7,2.79-5.08,3.44-6.74.34-.83.52-1.5.68-1.94.14-.45.21-.68.2-.69-.02,0-.12.22-.29.66-.18.43-.4,1.09-.76,1.9-.7,1.64-1.81,3.97-3.55,6.63-1.76,2.63-4.13,5.65-7.48,8.17-1.67,1.25-3.57,2.4-5.71,3.13-.54.15-1.09.32-1.65.45-.57.08-1.14.2-1.71.25-.58,0-1.17.06-1.75,0-.57-.09-1.16-.14-1.71-.37-2.27-.77-4.16-2.34-5.76-3.96-1.61-1.64-2.98-3.4-4.23-5.11-2.48-3.44-4.4-6.74-6.03-9.48l-.05-.08h-.1c-.72-.04-1.44-.33-1.87-.83-.45-.48-.55-1.16-.75-1.76-.35-1.19-.62-2.24-.43-3.08.19-.83.62-1.39.87-1.76.27-.37.42-.56.4-.58Z" style="fill: #263238; stroke-width: 0px;"/>
        <path d="m566.01,196.2s.36-.11.97-.38c.61-.27,1.48-.71,2.53-1.29,2.1-1.16,4.92-2.93,7.8-5.2,2.88-2.27,5.26-4.61,6.77-6.49.77-.93,1.32-1.73,1.67-2.31.34-.58.52-.9.49-.92-.07-.05-.85,1.22-2.43,3-1.56,1.8-3.96,4.07-6.81,6.33-2.86,2.25-5.62,4.06-7.66,5.29-2.04,1.23-3.36,1.9-3.33,1.98Z" style="fill: #263238; stroke-width: 0px;"/>
        <path d="m585.96,179.63c-.05.14,2.05.59,3.84,2.4,1.82,1.77,2.28,3.88,2.42,3.82.06-.01.03-.55-.26-1.36-.28-.81-.88-1.88-1.82-2.81-.94-.93-2.01-1.52-2.82-1.8-.81-.28-1.35-.31-1.36-.25Z" style="fill: #263238; stroke-width: 0px;"/>
        <path d="m553.43,157.61s-.01.1-.01.28c0,.21.01.48.02.82.03.75.07,1.81.12,3.15.1,2.77.25,6.71.42,11.57.33,9.77.63,23.27.87,38.19.24,14.91.45,28.4.61,38.2.12,4.86.21,8.81.28,11.58.05,1.34.08,2.39.11,3.15.02.34.03.61.04.82.01.18.02.28.03.28,0,0,.01-.09.02-.28,0-.21,0-.48,0-.82,0-.75-.01-1.81-.02-3.15-.03-2.77-.07-6.72-.12-11.58-.12-9.81-.28-23.3-.47-38.21-.23-14.92-.59-28.42-1.01-38.19-.2-4.89-.41-8.84-.58-11.57-.09-1.34-.16-2.39-.21-3.14-.03-.34-.05-.6-.07-.82-.02-.18-.03-.28-.04-.28Z" style="fill: #263238; stroke-width: 0px;"/>
        <path d="m541,220.04c-.05.13,6.42,2.69,14.44,5.73,8.02,3.04,14.57,5.39,14.61,5.27.05-.13-6.42-2.69-14.44-5.73-8.02-3.03-14.57-5.39-14.61-5.27Z" style="fill: #263238; stroke-width: 0px;"/>
        <path d="m563.7,141.97s.46-.67,1.16-1.91c.74-1.33,1.71-3.09,2.87-5.16l-.36.02c1.29,1.83,2.78,3.94,4.38,6.2l.18.25.21-.23c.2-.23.41-.47.63-.71,3.04-3.46,5.78-6.61,7.74-8.9.92-1.1,1.7-2.02,2.3-2.73.54-.65.82-1.02.79-1.05-.03-.02-.36.31-.94.92-.64.69-1.45,1.57-2.42,2.63-2.03,2.24-4.8,5.35-7.85,8.81-.21.24-.43.48-.62.71l.38.02c-1.62-2.25-3.13-4.35-4.44-6.16l-.2-.28-.16.3c-1.09,2.11-2.01,3.89-2.71,5.25-.64,1.27-.99,2.01-.95,2.03Z" style="fill: #263238; stroke-width: 0px;"/>
        <path d="m539.8,226.77c-.07.12,10.15,6.27,22.82,13.75,12.67,7.48,23,13.44,23.07,13.32.07-.12-10.15-6.27-22.82-13.75-12.67-7.47-23-13.44-23.07-13.32Z" style="fill: #263238; stroke-width: 0px;"/>
        <path d="m549.07,218.52c.09.04.03-.78.87-1.4.4-.29,1.04-.44,1.65-.2.6.22,1.11.86,1.11,1.61,0,.75-.51,1.39-1.11,1.61-.61.24-1.25.09-1.65-.2-.84-.62-.78-1.44-.87-1.4-.03,0-.08.17-.03.5.05.32.22.8.69,1.18.45.39,1.23.63,2.02.35.77-.25,1.46-1.07,1.45-2.03,0-.97-.67-1.79-1.45-2.03-.78-.27-1.56-.03-2.02.35-.47.39-.65.87-.69,1.18-.05.32,0,.5.03.5Z" style="fill: #263238; stroke-width: 0px;"/>
        <path d="m547.38,188.63c.09.04.03-.78.87-1.4.4-.29,1.04-.44,1.65-.2.6.22,1.11.86,1.11,1.61,0,.75-.51,1.39-1.11,1.61-.61.24-1.25.09-1.65-.2-.84-.62-.78-1.44-.87-1.4-.03,0-.08.17-.03.5.05.32.22.8.69,1.18.45.39,1.23.63,2.02.35.77-.25,1.46-1.07,1.45-2.03,0-.97-.67-1.79-1.45-2.03-.78-.27-1.56-.03-2.02.35-.47.39-.65.87-.69,1.18-.05.32,0,.5.03.5Z" style="fill: #263238; stroke-width: 0px;"/>
        <g style="opacity: .3;">
          <path d="m568.16,230.32c-9.18.42-19.27-3.15-25.73-9.68,8.32,3.27,17.62,6.12,25.73,9.68" style="stroke-width: 0px;"/>
        </g>
      </g>
      <g>
        <path d="m540.8,126.26c-1.43,1.01-4,2.6-4,2.6l-.57,7.32,4.41.92.24-8.29s2.85-.86,2.65-2.04c0-.01,0-.03,0-.04-.25-1.33-1.63-1.25-2.73-.46Z" style="fill: #ff9a6c; stroke-width: 0px;"/>
        <path d="m565.37,124.79l-17.02,12.94c-.24.18-.54.28-.84.28h-15.85c-.77,0-1.39-.62-1.39-1.39v-.18c0-.44.21-.86.57-1.12l17.55-12.76c.24-.17.52-.27.82-.27h15.33c.71,0,1.31.54,1.38,1.25h0c.05.48-.16.95-.54,1.25Z" style="fill: #263238; stroke-width: 0px;"/>
        <path d="m564.23,123.01s-.17.12-.39.28c-2.55,1.91-16.94,12.45-16.94,12.45h-15.36l17.48-12.73" style="fill: #e0e0e0; stroke-width: 0px;"/>
        <g>
          <path d="m556.2,123.41l3.41,5.25s4.4,7.67,4.69,9.65c.28,1.99.96,6.96.96,6.96l13.23,25.94-13.23,17.24-10.91-35.78s-10.64-4.7-11.35-5.83c-.71-1.14-1.42-4.26-1.42-4.26,0,0-2.83-.23-3.97-1.08-.63-.47-3-2.59-4.47-5.04l-1.54-3.63c-.02-.06,0-.12.05-.15l.81-.47c.43-.25.93-.35,1.42-.29.74.1,1.73.42,2.15,1.43.71,1.7,2.13,2.84,2.13,2.84l1.28.71,9.49.31c2.27.07,4.46-.84,6-2.5l.34-.36v-3.83s-1.18-2.05-1.6-4.01c-.34-1.59.89-3.09,2.52-3.09h0Z" style="fill: #ffbf9d; stroke-width: 0px;"/>
          <path d="m556.2,123.41s-.2-.03-.58.04c-.37.08-.96.29-1.46.88-.51.57-.81,1.62-.43,2.69.29,1.07.77,2.27,1.46,3.54v-.05c-.02,1.14-.03,2.44-.03,3.83l.03-.08c-1.42,1.7-3.85,3-6.63,2.78-2.79-.1-5.84-.21-9.1-.32l.08.02c-.39-.22-.83-.46-1.28-.71l.03.02c-.7-.6-1.33-1.36-1.8-2.21-.12-.22-.21-.43-.32-.68-.12-.25-.29-.48-.49-.67-.41-.39-.94-.62-1.5-.7-.56-.08-1.14,0-1.67.21-.13.05-.26.12-.39.19-.14.08-.27.2-.36.33-.19.28-.24.65-.11.97.42,1.01.85,2.03,1.29,3.07h0s0,.03,0,.03c.92,1.51,2.1,2.88,3.43,4.15.34.32.67.63,1.05.92.4.31.86.48,1.31.63.92.28,1.85.44,2.81.53l-.2-.17c.33,1.33.66,2.68,1.26,4,.12.33.48.68.77.86.3.22.61.39.92.58.62.36,1.26.7,1.9,1.03,2.58,1.32,5.28,2.56,8.04,3.8l-.13-.15c1.89,6.21,3.88,12.73,5.92,19.43,1.71,5.59,3.38,11.07,4.99,16.35l.14.45.29-.37c4.65-6.06,9.08-11.85,13.22-17.25l.09-.11-.06-.13c-5.09-9.93-9.6-18.73-13.28-25.91l.02.05c-.26-1.86-.51-3.63-.75-5.3-.14-.83-.17-1.65-.45-2.43-.27-.76-.58-1.46-.9-2.13-1.29-2.67-2.55-4.88-3.57-6.67-1.13-1.71-2.01-3.04-2.61-3.96-.29-.43-.52-.77-.69-1.02-.16-.23-.25-.34-.25-.34,0,0,.06.13.21.36.16.25.37.6.65,1.04.59.93,1.44,2.27,2.53,4,1,1.81,2.23,4.02,3.49,6.69.31.67.62,1.37.88,2.11.26.72.28,1.56.42,2.38.23,1.67.46,3.44.72,5.3v.03s.02.03.02.03c3.65,7.2,8.13,16.01,13.18,25.96l.02-.24c-4.15,5.4-8.59,11.18-13.25,17.23l.42.08c-1.61-5.29-3.28-10.76-4.98-16.36-2.04-6.7-4.03-13.22-5.93-19.43l-.03-.11-.1-.04c-2.76-1.23-5.45-2.47-8.02-3.77-.64-.33-1.27-.66-1.88-1.01-.3-.18-.61-.36-.88-.56-.3-.21-.48-.35-.63-.69-.57-1.23-.91-2.59-1.23-3.89l-.04-.16-.16-.02c-.92-.09-1.85-.24-2.72-.51-.43-.14-.85-.3-1.18-.56-.35-.27-.69-.58-1.02-.89-1.31-1.24-2.47-2.59-3.37-4.05v.03c-.43-1.03-.86-2.05-1.29-3.06-.08-.19-.05-.42.06-.59.1-.17.33-.27.57-.37.46-.19.97-.26,1.46-.19.48.07.95.28,1.29.6.36.3.48.78.74,1.25.5.91,1.15,1.68,1.91,2.32h.01s.02.02.02.02c.45.25.89.49,1.28.7l.04.02h.04c3.27.1,6.31.19,9.11.27,2.86.21,5.39-1.18,6.82-2.92l.03-.04v-.04c0-1.4-.01-2.69-.02-3.83v-.03s-.01-.02-.01-.02c-.69-1.24-1.19-2.42-1.49-3.47-.38-1.04-.11-2.01.36-2.58.47-.58,1.03-.8,1.39-.9.37-.09.57-.07.57-.09Z" style="fill: #ff9a6c; stroke-width: 0px;"/>
        </g>
        <path d="m540.83,142.71c-.01.14,1.15.37,2.61.52,1.46.15,2.65.17,2.66.03.01-.14-1.15-.37-2.61-.52-1.46-.15-2.65-.17-2.66-.03Z" style="fill: #ff9a6c; stroke-width: 0px;"/>
      </g>
      <g>
        <path d="m521.97,127.22s-.08-.11-.25-.3c-.2-.22-.45-.49-.76-.82-.33-.35-.76-.76-1.17-1.32-.21-.27-.44-.56-.68-.86-.12-.15-.25-.31-.37-.47-.12-.17-.23-.35-.35-.53-.46-.73-1.02-1.5-1.44-2.43-.22-.46-.49-.91-.69-1.41-.19-.51-.39-1.02-.6-1.56-.72-2.16-1.2-4.65-1.17-7.28,0-2.64.62-5.11,1.38-7.25.21-.53.39-1.06.61-1.55.24-.48.48-.95.71-1.41.11-.23.23-.45.34-.67.13-.21.26-.41.38-.61.25-.4.49-.78.72-1.15,1-1.41,1.86-2.52,2.54-3.21.3-.34.55-.62.74-.83.17-.19.25-.3.24-.31,0,0-.11.08-.29.26-.21.21-.47.47-.79.79-.71.67-1.61,1.76-2.64,3.17-.24.37-.49.75-.75,1.15-.13.2-.26.4-.4.61-.11.22-.23.44-.35.67-.24.46-.48.93-.73,1.42-.22.5-.41,1.03-.63,1.57-.79,2.16-1.42,4.68-1.43,7.36-.03,2.68.46,5.21,1.21,7.4.21.54.42,1.06.62,1.57.21.51.49.96.71,1.42.44.93,1.02,1.7,1.49,2.43.12.18.24.36.36.53.13.16.26.32.39.47.25.3.49.59.71.85.42.55.87.95,1.22,1.29.33.31.6.57.81.77.19.17.29.26.3.25Z" style="fill: #263238; stroke-width: 0px;"/>
        <path d="m528.57,122.43c.07-.07-1.22-1.02-2.55-3.15-.16-.27-.34-.54-.5-.84-.15-.31-.3-.63-.45-.96-.08-.17-.16-.33-.24-.51-.06-.18-.13-.36-.19-.55-.12-.37-.28-.75-.39-1.14-.45-1.59-.71-3.41-.72-5.32-.02-1.92.34-3.72.79-5.31.13-.39.26-.77.38-1.15.13-.37.31-.71.45-1.05.27-.69.65-1.26.96-1.8.29-.56.69-.97.97-1.38.28-.41.59-.72.83-.97.48-.51.74-.8.73-.82-.02-.02-.31.24-.83.73-.26.24-.58.54-.88.94-.3.4-.72.81-1.03,1.37-.33.54-.73,1.12-1.02,1.82-.15.34-.34.68-.48,1.06-.13.38-.27.77-.4,1.16-.47,1.61-.85,3.45-.83,5.4,0,1.95.29,3.79.76,5.41.12.4.28.78.41,1.16.07.19.14.37.2.55.08.18.17.35.25.52.17.34.33.66.48.97.17.3.36.58.53.85.18.26.33.53.51.75.18.22.36.43.52.62.16.19.31.37.45.54.15.15.31.28.44.4.53.47.83.73.84.71Z" style="fill: #263238; stroke-width: 0px;"/>
        <path d="m534.88,117.17c.05-.05-.64-.66-1.34-1.92-.72-1.24-1.36-3.19-1.41-5.39-.06-2.21.58-4.15,1.31-5.39.73-1.24,1.43-1.84,1.38-1.89-.02-.02-.19.13-.49.41-.15.14-.34.31-.51.55-.17.24-.42.48-.59.81-.8,1.24-1.51,3.25-1.44,5.53.04,2.27.75,4.26,1.54,5.51.1.15.19.3.28.45.1.13.2.25.29.37.18.23.34.43.5.56.3.29.47.43.49.41Z" style="fill: #263238; stroke-width: 0px;"/>
      </g>
      <path d="m529.33,151.78s.03.27.03.78c0,.56,0,1.31,0,2.24-.04,2-.09,4.8-.15,8.24-.17,7.01-.4,16.6-.66,27.19-.24,10.62-.38,20.24-.39,27.2,0,3.44,0,6.24.01,8.24,0,.93,0,1.68,0,2.24,0,.51-.02.78-.04.78-.02,0-.04-.27-.07-.78-.02-.56-.06-1.31-.1-2.24-.07-1.95-.14-4.76-.18-8.24-.09-6.96,0-16.59.23-27.21.25-10.62.57-20.23.82-27.19.13-3.44.24-6.24.31-8.24.04-.93.08-1.68.11-2.24.03-.51.05-.78.07-.78Z" style="fill: #263238; stroke-width: 0px;"/>
    </g>
  </g>
  <g id="Character_1" data-name="Character 1">
    <g>
      <g>
        <g>
          <g>
            <path d="m134.76,101.35l3.66,3.53,5.4-5.25,1.52-3.93,6.81-6.12c.15,1.02,0,3.93,0,3.93l3.86,7.43v13.85l3.84,7.51-13.28,6.05-4.3-10.81s-4.17-2.48-6.33-5.1c-2.16-2.62-4.38-11.87-4.38-11.87,1.12-.34,2.34-.05,3.19.76Z" style="fill: #ae7461; stroke-width: 0px;"/>
            <path d="m146.12,104.41c.38-.35.54-.89.4-1.4l-2.02-7.26-6.1-19.57c-.3-.96-1.49-1.3-2.25-.62l-8.37,7.44c-.41.37-.57.94-.4,1.46l8.55,26.64c.31.97,1.52,1.28,2.26.6l7.93-7.28Z" style="fill: #e0e0e0; stroke-width: 0px;"/>
            <path d="m145.09,103.79c.35-.32.49-.81.36-1.27l-1.89-6.82-5.6-18.42c-.27-.88-1.36-1.18-2.05-.57l-7.72,6.76c-.37.33-.52.85-.36,1.33l8.25,25.09c.28.88,1.38,1.17,2.06.54l6.94-6.64Z" style="fill: #263238; stroke-width: 0px;"/>
            <path d="m145.33,95.7s-.78.26-2.81,1.05c-2.43.94-3.02-.32-3.02-.32h0c-.35-.88.07-1.88.95-2.24l4.89-1.99-.06-1.03s-2.54.31-4.41.31c-3.92,0-2.44-3.36-2.44-3.36l4.5-.59-2.29-3.32c-1.7-2.04.41-3.66.41-3.66l8.48,6.99s2.47,1.02,2.62,2.04c.15,1.02,0,3.93,0,3.93l-6.81,2.19Z" style="fill: #ae7461; stroke-width: 0px;"/>
            <path d="m140.4,97.04c0,.07.75.18,1.93-.02,1.18-.19,2.77-.68,4.43-1.39.21-.09.42-.18.61-.27l-.35-.11c.87,1.36,1.48,2.69,2.03,3.6.54.91.95,1.41,1.01,1.37.06-.04-.23-.61-.68-1.55-.45-.94-1-2.3-1.89-3.72l-.13-.2-.22.1c-.19.08-.4.17-.61.26-1.64.7-3.16,1.24-4.29,1.52-1.12.29-1.85.33-1.85.41Z" style="fill: #6f4439; stroke-width: 0px;"/>
            <path d="m145.29,92.43c.05.07.42-.17,1.05-.39.62-.22,1.55-.39,2.53-.18.98.21,1.76.73,2.24,1.19.49.45.73.82.8.78.06-.03-.05-.48-.51-1.05-.45-.57-1.29-1.23-2.42-1.47-1.12-.23-2.16.03-2.8.37-.65.34-.93.7-.89.75Z" style="fill: #6f4439; stroke-width: 0px;"/>
            <path d="m139.12,88.04c.04.16,2.35-.36,5.25-.47,2.9-.13,5.25.19,5.27.02.03-.14-2.33-.72-5.3-.58-2.97.12-5.27.9-5.23,1.03Z" style="fill: #6f4439; stroke-width: 0px;"/>
            <path d="m145.18,115.1c.09-.02-.13-.81-.17-2.09-.05-1.27.14-3.06.96-4.82.82-1.76,2.08-3.05,3.08-3.83,1.01-.79,1.75-1.12,1.71-1.21-.02-.06-.83.15-1.94.89-1.11.72-2.49,2.05-3.36,3.91-.87,1.86-1,3.78-.85,5.09.15,1.33.51,2.08.57,2.06Z" style="fill: #6f4439; stroke-width: 0px;"/>
          </g>
          <path d="m131.57,124.65l.45-.97c3.92,2.1,5.43.97,10.99,6.54l10.6,15.83-11.32-28.5,13.73-2.75s13.63,25.73,19.72,37.44c3.28,6.3,3.85,11.51,3.12,17.42-.83,6.67-8.26,12.14-14.92,11.19-6.28-.9-12.43-6.09-16.26-11l-12.83-14.4-3.26-30.8Z" style="fill: #ae7461; stroke-width: 0px;"/>
        </g>
        <g>
          <path d="m141.85,115.79c5.98,15.84,12.32,30.61,19.5,47.88" style="fill: #ff9a6c; stroke-width: 0px;"/>
          <path d="m161.36,163.67s-.1-.15-.25-.46c-.17-.37-.37-.82-.62-1.37-.55-1.27-1.3-2.99-2.21-5.08-1.85-4.3-4.38-10.25-7.1-16.84-2.73-6.6-5.11-12.61-6.77-16.99-.83-2.19-1.48-3.96-1.92-5.2-.2-.57-.36-1.04-.49-1.43-.11-.33-.15-.5-.14-.51s.1.16.24.47c.16.37.35.83.58,1.39.52,1.28,1.22,3.02,2.07,5.14,1.74,4.34,4.18,10.32,6.91,16.92,2.7,6.57,5.15,12.51,6.96,16.9.85,2.12,1.54,3.86,2.06,5.15.21.57.39,1.03.53,1.41.12.32.17.5.15.51Z" style="fill: #263238; stroke-width: 0px;"/>
        </g>
      </g>
      <g>
        <path d="m109.07,47.62c1.15-1.89,3.6-2.88,5.73-2.33,2.69-1.84,6.65-1.48,8.96.82,2-1,4.52-.87,6.4.34,1.88,1.21,3.06,3.45,2.99,5.69,2.25-.2,4.56,1.19,5.45,3.28.89,2.09.31,4.73-1.38,6.24,2.37.97,3.76,3.87,3.04,6.34-.72,2.47-3.45,4.16-5.96,3.69l-24.69-17.86c-1.46-1.66-1.69-4.3-.53-6.19Z" style="fill: #263238; stroke-width: 0px;"/>
        <g>
          <g>
            <path d="m135,72.46c-.1-11.6-9.03-21.17-20.54-22l-1.14-.08c-12.38-.16-17.09,10.98-16.92,23.43l-2.22,46.08h0l18.36,18.43,6.72-12.26,2.31-12.22s11.98-1,12.99-12.91c.48-5.75.52-17.67.43-28.46Z" style="fill: #ae7461; stroke-width: 0px;"/>
            <path d="m121.68,113.83s-7.6-.09-15.2-5.69c0,0,2.59,9.14,14.49,8.91l.71-3.23Z" style="fill: #6f4439; stroke-width: 0px;"/>
            <path d="m130.78,82.47c-.03.9-.82,1.62-1.76,1.6-.93-.02-1.67-.76-1.63-1.66.03-.9.82-1.62,1.75-1.6.94.02,1.67.76,1.64,1.66Z" style="fill: #263238; stroke-width: 0px;"/>
            <path d="m132.12,78.72c-.23.21-1.44-.84-3.26-.97-1.82-.15-3.22.69-3.4.46-.09-.11.15-.49.76-.88.6-.38,1.61-.73,2.74-.64,1.13.09,2.06.58,2.58,1.05.53.47.69.89.58.98Z" style="fill: #263238; stroke-width: 0px;"/>
            <path d="m115.11,81.66c-.03.9-.82,1.62-1.75,1.6-.93-.02-1.67-.76-1.63-1.66.03-.9.82-1.62,1.75-1.6.94.02,1.67.76,1.64,1.66Z" style="fill: #263238; stroke-width: 0px;"/>
            <path d="m114.72,77.22c-.23.21-1.44-.84-3.26-.96-1.82-.15-3.22.69-3.4.46-.09-.11.15-.49.77-.88.6-.38,1.61-.73,2.74-.64,1.13.09,2.06.58,2.58,1.05.53.47.69.89.58.98Z" style="fill: #263238; stroke-width: 0px;"/>
            <path d="m119.74,91.22c0-.11,1.14-.22,3-.32.47-.01.92-.08,1.02-.39.13-.33-.02-.85-.21-1.41-.36-1.16-.73-2.38-1.12-3.66-1.55-5.21-2.63-9.48-2.42-9.54.21-.06,1.63,4.11,3.18,9.32.37,1.28.72,2.51,1.06,3.68.14.54.4,1.17.11,1.85-.15.34-.51.57-.81.63-.3.07-.57.06-.8.05-1.85-.03-3-.11-3-.21Z" style="fill: #263238; stroke-width: 0px;"/>
            <path d="m114.29,92.1c.3,0,.16,1.99,1.75,3.52,1.59,1.54,3.71,1.46,3.71,1.74.02.13-.5.35-1.39.31-.87-.03-2.13-.41-3.1-1.34-.97-.94-1.33-2.13-1.34-2.95-.02-.84.24-1.31.37-1.29Z" style="fill: #263238; stroke-width: 0px;"/>
            <path d="m115.12,71.99c-.25.46-1.79-.08-3.7-.18-1.9-.15-3.52.18-3.69-.31-.07-.23.28-.64.98-1,.69-.36,1.74-.62,2.88-.55,1.14.08,2.13.48,2.74.92.62.44.89.9.78,1.12Z" style="fill: #263238; stroke-width: 0px;"/>
            <path d="m132.07,73.67c-.32.42-1.58,0-3.09,0-1.51-.06-2.79.31-3.09-.12-.13-.21.07-.63.62-1.03.55-.4,1.47-.73,2.51-.71,1.04.02,1.94.39,2.47.81.54.42.72.85.58,1.06Z" style="fill: #263238; stroke-width: 0px;"/>
            <path d="m134.25,66.91s-2.59-7.69-6.04-9.69c-4.18-2.42-6.39,2.23-10.43.77-4.04-1.46-8.03-3.78-12.48-.87-4.87,3.18-2.88,5.8-3.55,11.07-2.7,21.36-7.03,27.14-7.41,16.96-.04-1.11-3.03-2.21-3.15-6.92-.15-6.1.15-13.48,1.8-17.68,1.39-3.54,3.63-5.9,7.51-8.4,6.13-3.94,14.13-3.46,19.52-2.52,5.39.94,15.4,7.97,14.23,17.28Z" style="fill: #263238; stroke-width: 0px;"/>
            <path d="m96.62,85c.06-1.84-1.41-3.41-3.25-3.37-2.22.05-4.77,1.14-4.96,5.74-.33,8.17,7.89,6.8,7.92,6.57.02-.16.19-5.53.29-8.95Z" style="fill: #ae7461; stroke-width: 0px;"/>
            <path d="m94.68,90.8s-.15.09-.39.19c-.24.1-.64.16-1.06-.02-.85-.35-1.51-1.75-1.49-3.22,0-.74.19-1.45.48-2.02.27-.59.67-.99,1.11-1.05.43-.08.73.19.82.42.1.23.04.39.08.41.02.02.18-.13.13-.47-.03-.16-.11-.36-.3-.52-.19-.17-.47-.26-.77-.24-.63.02-1.21.58-1.53,1.21-.35.63-.57,1.42-.58,2.26-.01,1.65.76,3.22,1.92,3.61.57.17,1.05.02,1.3-.16.26-.19.31-.37.28-.39Z" style="fill: #6f4439; stroke-width: 0px;"/>
          </g>
          <path d="m96.41,69.11c1,.8,2.06,1.62,3.32,1.84,1.26.22,2.76-.41,3.07-1.66.14-.56.05-1.23.45-1.64.48-.49,1.28-.27,1.96-.15,2.34.42,4.87-1.08,5.63-3.34.54.95,1.94,1.01,2.89.48s1.61-1.45,2.38-2.22c.77-.77,1.82-1.43,2.88-1.2.59.13,1.13.53,1.73.52,1.07-.02,1.68-1.23,1.92-2.28.24-1.05.45-2.28,1.39-2.79.87-.47,1.93-.09,2.9.13.97.22,2.25.08,2.57-.87.17-.5,0-1.04-.26-1.5-1.12-2.09-3.8-3.17-6.05-2.44-.6-2.75-2.95-5.02-5.71-5.52-2.76-.49-5.75.82-7.26,3.19-1.6-1.69-4.04-2.52-6.33-2.16-2.29.36-4.37,1.89-5.39,3.98-1.93-.66-4.23-.06-5.6,1.47-1.36,1.53-1.71,3.9-.85,5.76-1.52.73-2.87,2.1-3.02,3.78-.15,1.68,1.36,3.48,3.01,3.15-.75,1.27-.34,3.09.87,3.91,1.21.82,3.04.52,3.93-.65" style="fill: #263238; stroke-width: 0px;"/>
        </g>
        <path d="m91.45,65.59s-.2.67.39,1.6c.29.44.82.92,1.55,1.09.72.18,1.63.06,2.36-.51l-.34-.08c.35.73.83,1.48,1.47,2.15.41.42.88.79,1.41,1.03.52.25,1.12.31,1.62.27,1.03-.04,1.97-.53,2.43-1.18.48-.63.66-1.24.78-1.65.11-.41.14-.65.11-.65-.03-.01-.12.21-.28.59-.16.38-.39.95-.86,1.5-.85,1.11-3.4,1.53-4.88-.23-.6-.62-1.06-1.33-1.41-2.01l-.13-.25-.21.17c-.59.48-1.37.61-2,.49-.64-.12-1.11-.5-1.41-.88-.6-.79-.54-1.45-.62-1.44Z" style="fill: #455a64; stroke-width: 0px;"/>
        <path d="m108.1,48.07s.21.07.56.25c.34.18.84.53,1.18,1.17l.09.16.12-.14c.83-.97,2.19-2.19,4.15-2.91.97-.35,2.08-.56,3.24-.47,1.15.08,2.34.5,3.36,1.23.79.57,1.44,1.3,1.9,2.09.45.8.69,1.68.71,2.52v.26s.26-.05.26-.05c1.24-.25,2.46.08,3.34.65.89.58,1.42,1.4,1.7,2.12.55,1.48.25,2.46.33,2.45.02,0,.1-.22.15-.66.04-.44.03-1.1-.23-1.88-.26-.77-.8-1.68-1.74-2.33-.93-.65-2.24-1.03-3.62-.78l.26.21c-.01-.92-.27-1.87-.75-2.74-.49-.86-1.18-1.64-2.03-2.25-1.09-.78-2.36-1.23-3.6-1.3-1.24-.08-2.41.16-3.41.54-2.03.79-3.4,2.1-4.2,3.13l.21.02c-.41-.69-.97-1.01-1.35-1.17-.39-.15-.61-.15-.61-.13Z" style="fill: #455a64; stroke-width: 0px;"/>
      </g>
      <g>
        <g>
          <path d="m137.54,421.44l-.84,22.21s22.29,8.31,22.54,12.43l-43.12-.08-.11-34.66,21.54.1Z" style="fill: #455a64; stroke-width: 0px;"/>
          <path d="m123.37,441.76c-.84.23-1.41,1.16-1.22,2.01.19.84,1.14,1.44,1.98,1.23.84-.21,1.57-1.32,1.28-2.13-.29-.82-1.44-1.46-2.2-1.05" style="fill: #e0e0e0; stroke-width: 0px;"/>
          <path d="m116.12,456l.13-3.49,41.3,1.38s1.92.84,1.7,2.19l-43.12-.08Z" style="fill: #263238; stroke-width: 0px;"/>
          <path d="m137.4,443.43c0,.21-1.06.3-2.1.98-1.06.65-1.59,1.56-1.78,1.48-.19-.04.12-1.3,1.39-2.09,1.26-.81,2.54-.55,2.49-.36Z" style="fill: #fff; stroke-width: 0px;"/>
          <path d="m141.92,445.31c.05.2-.86.56-1.58,1.45-.74.87-.92,1.83-1.13,1.82-.2.03-.34-1.2.57-2.29.9-1.1,2.14-1.18,2.15-.98Z" style="fill: #fff; stroke-width: 0px;"/>
          <path d="m144.48,450.73c-.19.04-.48-1.01.06-2.16.53-1.16,1.53-1.61,1.62-1.43.12.17-.52.79-.95,1.74-.45.94-.52,1.83-.72,1.85Z" style="fill: #fff; stroke-width: 0px;"/>
          <path d="m137.03,438.35c-.09.19-1.05-.1-2.24-.02-1.19.05-2.12.45-2.23.27-.12-.15.78-.93,2.19-1,1.4-.08,2.39.59,2.29.75Z" style="fill: #fff; stroke-width: 0px;"/>
        </g>
        <g>
          <path d="m85.8,422.81l-1.2,26.86,5.18,21.52c.37,1.55-.65,3.09-2.22,3.36h0c-.88.15-1.77-.13-2.4-.76-4.02-4.02-18.32-19.1-18.38-20.53-.1-2.28-.76-28.75-.76-28.75l19.78-1.7Z" style="fill: #455a64; stroke-width: 0px;"/>
          <path d="m87.57,474.56l-20.89-23.44-.02,1.14c.08,1.16.3,1.95.92,2.71,1.66,2.04,6.38,7.58,17.5,18.82.65.65,1.58.94,2.49.76h0Z" style="fill: #263238; stroke-width: 0px;"/>
          <g style="opacity: .6;">
            <path d="m72.38,442.57c.66.48.86,1.5.41,2.19-.45.68-1.49.89-2.16.42-.67-.47-.95-1.69-.42-2.32.53-.63,1.76-.81,2.3-.19" style="fill: #fff; stroke-width: 0px;"/>
          </g>
          <path d="m81.68,462.68c.15.08.79-1.32,2.4-2.04,1.59-.77,3.07-.36,3.11-.53.02-.07-.31-.28-.94-.38-.62-.11-1.53-.04-2.42.37-.88.41-1.52,1.07-1.84,1.61-.33.55-.38.94-.31.97Z" style="fill: #fff; stroke-width: 0px;"/>
          <path d="m83.52,466.32c.13.12,1.01-.74,2.41-1.1,1.39-.4,2.59-.12,2.63-.28.08-.14-1.2-.73-2.79-.29-1.59.43-2.39,1.6-2.25,1.67Z" style="fill: #fff; stroke-width: 0px;"/>
          <path d="m78.21,457.99c.12.13,1.47-1.19,3.6-1.95,2.11-.8,4-.66,4.01-.84.05-.14-1.94-.56-4.21.29-2.28.82-3.52,2.43-3.39,2.51Z" style="fill: #fff; stroke-width: 0px;"/>
          <path d="m77.9,449.79c.07.16,1.57-.43,3.5-.45,1.93-.05,3.46.47,3.52.3.08-.13-1.45-.95-3.53-.89-2.08.03-3.57.92-3.49,1.04Z" style="fill: #fff; stroke-width: 0px;"/>
          <path d="m78.05,441.9c.08.16,1.59-.71,3.63-.57,2.04.09,3.45,1.12,3.55.97.05-.06-.24-.4-.85-.77-.61-.37-1.56-.73-2.66-.79-1.1-.06-2.09.19-2.73.49-.65.3-.97.61-.93.67Z" style="fill: #fff; stroke-width: 0px;"/>
          <path d="m81.66,439.82s.1-.36.06-1.02c-.05-.65-.21-1.61-.75-2.68-.28-.51-.57-1.15-1.31-1.53-.37-.19-.93-.13-1.25.22-.32.34-.43.78-.45,1.2,0,1.71,1.42,3.39,3.33,3.68,1.92.25,3.69-.81,4.49-2.27.18-.38.3-.84.1-1.3-.2-.46-.74-.66-1.12-.6-.8.1-1.31.55-1.79.88-.94.72-1.53,1.5-1.88,2.05-.35.56-.46.9-.43.92.09.07.71-1.31,2.56-2.63.47-.3,1-.69,1.58-.73.28-.02.52.09.61.32.1.22.03.56-.12.85-.67,1.19-2.29,2.16-3.91,1.92-1.62-.23-2.87-1.71-2.88-3.08,0-.33.1-.66.28-.85.18-.19.44-.24.69-.13.52.22.86.79,1.13,1.27,1.09,2,.94,3.52,1.06,3.5Z" style="fill: #fff; stroke-width: 0px;"/>
        </g>
        <g>
          <path d="m150.81,235.65s3.8,12.51,3.27,27.97c-.21,5.98-13.33,171.78-13.33,171.78l-27.17,1.15,1.06-155.35-2.2.58s-12.03,66.75-12.78,77.5c-.68,9.67-10.22,80.1-10.22,80.1l-24.74-.68,3.92-90.78,5.47-89.11,2.38-25.97,74.34,2.81Z" style="fill: #263238; stroke-width: 0px;"/>
          <path d="m109.69,265.57s.39.25,1.16.59c.77.32,1.9.82,3.41,1.03.76.1,1.61.11,2.5-.09.88-.2,1.82-.62,2.56-1.37.74-.75,1.2-1.78,1.47-2.84.28-1.07.41-2.17.59-3.3.68-4.51,1.09-8.62,1.31-11.6.11-1.49.17-2.7.2-3.53.03-.84.02-1.3-.02-1.3-.04,0-.11.46-.2,1.28-.1.95-.23,2.12-.38,3.51-.32,2.96-.8,7.06-1.47,11.55-.34,2.22-.55,4.48-1.87,5.86-1.32,1.35-3.23,1.57-4.64,1.42-1.45-.15-2.59-.58-3.38-.84-.79-.27-1.23-.42-1.24-.38Z" style="fill: #455a64; stroke-width: 0px;"/>
          <path d="m116.97,244.2s-.18-.13-.57-.14c-.38-.01-.95.13-1.5.55-.53.42-1.07,1.17-1.06,2.15,0,.99.81,1.94,1.84,2.26,1.02.35,2.23.07,2.82-.73.59-.78.59-1.7.42-2.36-.19-.67-.57-1.12-.88-1.33-.31-.22-.53-.25-.54-.22-.07.08.78.42,1.03,1.65.11.58.05,1.35-.44,1.93-.46.59-1.39.8-2.23.52-.84-.27-1.47-.99-1.49-1.74-.05-.75.36-1.41.79-1.81.92-.84,1.81-.62,1.8-.72Z" style="fill: #455a64; stroke-width: 0px;"/>
          <path d="m74.4,257.21s.33.08.93.11c.6.04,1.48.02,2.55-.08,2.15-.19,5.1-.83,8.1-2.24,2.99-1.42,5.37-3.29,6.88-4.83.76-.77,1.33-1.43,1.68-1.92.36-.48.54-.76.51-.79-.08-.06-.91.97-2.47,2.41-1.56,1.44-3.92,3.21-6.84,4.6-2.93,1.38-5.8,2.07-7.9,2.36-2.1.29-3.43.27-3.43.38Z" style="fill: #455a64; stroke-width: 0px;"/>
        </g>
      </g>
      <path d="m86.22,232.84s.18.11.55.26c.42.17.95.38,1.61.65,1.4.56,3.45,1.3,6.01,2.14,2.56.85,5.64,1.73,9.1,2.6,3.46.84,7.3,1.64,11.36,2.29,4.07.63,7.97,1.04,11.52,1.3,3.56.23,6.76.33,9.46.31,2.69-.01,4.87-.09,6.37-.2.7-.05,1.28-.09,1.73-.13.39-.03.6-.06.6-.08,0-.02-.21-.03-.61-.03-.45,0-1.03.02-1.73.03-1.5.05-3.68.06-6.36.03-2.69-.02-5.88-.16-9.43-.42-3.54-.29-7.42-.71-11.47-1.33-4.05-.65-7.87-1.43-11.33-2.24-3.45-.84-6.54-1.69-9.1-2.49-2.57-.79-4.63-1.47-6.05-1.98-.67-.23-1.21-.41-1.64-.56-.38-.12-.58-.18-.59-.16Z" style="fill: #263238; stroke-width: 0px;"/>
      <g>
        <path d="m132.98,122.43l-12.76-2.25s-.68,5.75-9.33,5.94c-9.97.22-16.96-8.96-16.96-8.96,0,0-22.12,6.87-26.47,10.38-4.35,3.51,9.87,76.86,9.87,76.86l1.29,21.85s-2.14,3.53-2.14,7.33-.14,6.32-.14,6.32c26.58,8.02,52.96,14.96,77.23,7.2,0,0-.6-12.89-2.01-16.4-1.4-3.51-1.14-3.83-1.14-3.83l-3.98-38.25-3.82-37.21-9.63-28.98Z" style="fill: #ff966c; stroke-width: 0px;"/>
        <path d="m132.98,122.43s6.31,2.07,9.97,6.34c3.66,4.27,11.76,19.12,11.76,19.12l-7.05,24.52-10.21-5.31-4.47-44.67Z" style="fill: #ff966c; stroke-width: 0px;"/>
        <g>
          <path d="m147.79,198.39c-2.38-20.91-4.76-41.81-7.13-62.72" style="fill: #fafafa; stroke-width: 0px;"/>
          <path d="m140.66,135.68c.14-.02,1.86,14.01,3.83,31.33,1.97,17.32,3.45,31.37,3.31,31.39-.14.02-1.86-14.01-3.83-31.33-1.97-17.32-3.45-31.37-3.31-31.39Z" style="fill: #263238; stroke-width: 0px;"/>
        </g>
      </g>
      <g>
        <g>
          <path d="m66.62,198.39s12.09-40.94,13.7-45.56l-1.68-28.19c-5.12.67-15.15,2.19-17.76,10.31-3.3,10.23-12.24,39.22-17.39,54.93-2.24,6.82-.67,13.07.92,16.66,3.02,6.87,28.62,43.94,28.62,43.94l12.27-7.95s-9.83-24.48-18.67-44.15Z" style="fill: #ae7461; stroke-width: 0px;"/>
          <path d="m100.46,250.94c-.4-.14-3.33-.63-4.95-2.37-1.62-1.74-5.21-4.17-7.87-5.48l-2.38-.83-12.25,8.23,1.93,9.97s5.13.95,10.4-1.81c5.32-2.78,6.61-7.52,6.61-7.52,0,0,3.85,2.64,6.36,2.99s4.11-.67,3.84-1.68c-.27-1.01-1.7-1.51-1.7-1.51Z" style="fill: #ae7461; stroke-width: 0px;"/>
        </g>
        <path d="m48.81,164.71l28.74,14.17,7.91-25.22-6.47-29.98s-14.47.53-19.23,12.36c-4.76,11.83-10.96,28.67-10.96,28.67Z" style="fill: #ff966c; stroke-width: 0px;"/>
        <path d="m85.46,152.33s-.03.19-.13.54c-.13.4-.29.9-.48,1.51-.46,1.37-1.09,3.25-1.86,5.56-1.64,4.75-3.88,11.22-6.38,18.44l-.1.28-.26-.13c-.46-.22-.94-.47-1.44-.71-7.17-3.57-13.66-6.8-18.43-9.17-2.3-1.17-4.18-2.13-5.56-2.83-.61-.32-1.11-.59-1.5-.79-.34-.19-.52-.29-.51-.31,0-.02.2.06.55.21.4.19.92.42,1.54.71,1.39.66,3.3,1.57,5.63,2.68,4.79,2.34,11.3,5.52,18.5,9.04.49.24.98.48,1.44.71l-.36.15c2.56-7.2,4.85-13.65,6.53-18.39.83-2.28,1.52-4.14,2.02-5.5.23-.6.42-1.09.57-1.48.14-.34.21-.51.23-.5Z" style="fill: #263238; stroke-width: 0px;"/>
        <path d="m85.46,134.66c-.06.06-.82-.67-2.18-1.67-1.36-1-3.37-2.2-5.78-3.08-2.42-.87-4.73-1.24-6.41-1.34-1.68-.11-2.73-.03-2.74-.12,0-.04.26-.09.73-.15.47-.07,1.17-.11,2.03-.1,1.71.01,4.1.33,6.57,1.22,2.47.9,4.5,2.19,5.82,3.28.66.54,1.17,1.02,1.49,1.37.32.35.49.56.47.58Z" style="fill: #263238; stroke-width: 0px;"/>
      </g>
    </g>
  </g>
</svg>