<?xml version="1.0" encoding="UTF-8"?>
<svg xmlns="http://www.w3.org/2000/svg" viewBox="0 0 462.05 425.76">
  <g id="Background_Simple" data-name="Background Simple">
    <g>
      <path d="m449.99,145.72c-2.81-7.76-6.03-15.33-9.6-22.6C408.73,58.65,349.74,14.93,277.11,3.43c-3.13-.5-6.27-.93-9.42-1.31-59.28-7.13-142.28,1.77-176.11,56.57-17.57,28.46-10.36,64.35-29,92.04C38.45,186.58,7.43,204.51,1.68,260.52c-4.23,41.21-2.25,85.74,26.88,118.62,34.34,38.75,93.27,52.09,143.61,44.65,48.86-7.22,92.6-31.34,135.34-54,40.56-21.51,86.95-37.13,119.82-70.04,41.44-41.5,41.41-102.21,22.67-154.03Z" style="fill: #ff966c; stroke-width: 0px;"/>
      <path d="m449.99,145.72c-2.81-7.76-6.03-15.33-9.6-22.6C408.73,58.65,349.74,14.93,277.11,3.43c-3.13-.5-6.27-.93-9.42-1.31-59.28-7.13-142.28,1.77-176.11,56.57-17.57,28.46-10.36,64.35-29,92.04C38.45,186.58,7.43,204.51,1.68,260.52c-4.23,41.21-2.25,85.74,26.88,118.62,34.34,38.75,93.27,52.09,143.61,44.65,48.86-7.22,92.6-31.34,135.34-54,40.56-21.51,86.95-37.13,119.82-70.04,41.44-41.5,41.41-102.21,22.67-154.03Z" style="fill: #fff; opacity: .7; stroke-width: 0px;"/>
    </g>
  </g>
  <g id="Plants">
    <g>
      <path d="m51.59,128.54c3.97,1.73,13.69,1.52,13.69,1.52.1,0-2.09-6.36-2.27-6.75-2.13-4.46-8.87-11.82-14.36-11.08-3.95.53-6.15,4.49-5.26,8.21.91,3.8,4.81,6.62,8.19,8.1Z" style="fill: #ccc; stroke-width: 0px;"/>
      <path d="m149.86,130.67c.09.05,1.77-6.46,1.83-6.88.68-4.9-.88-14.75-5.86-17.16-3.59-1.73-7.6.35-8.91,3.95-1.34,3.67.36,8.18,2.36,11.28,2.36,3.64,10.58,8.82,10.59,8.82Z" style="fill: #ccc; stroke-width: 0px;"/>
      <path d="m178.85,95.47c-5.5-.59-12.04,6.95-14.05,11.46-.17.39-2.19,6.8-2.09,6.8,0,0,.09,0,.12,0-1.04,1.18-2.14,2.46-3.32,3.89-2.15,2.64-4.56,5.65-6.96,9.1-2.41,3.44-4.93,7.25-7.22,11.5-2.3,4.26-4.51,8.85-6.17,13.88-.02.06-.03.12-.05.18.03-1.62-.04-6.16-.09-6.5-.64-4.9-4.74-14-10.19-15.01-3.92-.72-7.24,2.35-7.55,6.16-.32,3.89,2.5,7.79,5.26,10.25,3.1,2.77,11.72,5.46,12.41,5.67-1.54,4.8-2.72,9.86-3.64,15.04-.53,2.96-.97,5.96-1.37,8.97-.02-1.4-.05-2.66-.07-2.83-.64-4.9-4.74-14-10.19-15-3.92-.72-7.24,2.35-7.55,6.16-.32,3.89,2.5,7.79,5.26,10.25,2.79,2.49,10.1,4.93,12.04,5.55-.14,1.16-.3,2.31-.44,3.47-.66,5.55-1.3,11.1-2.1,16.52-.28,1.91-.62,3.78-.96,5.65-.02-1.25-.05-2.29-.07-2.45-.64-4.9-4.74-14-10.19-15-3.92-.73-7.24,2.35-7.55,6.16-.32,3.89,2.5,7.79,5.26,10.25,2.67,2.38,9.39,4.69,11.69,5.44-.4,1.91-.8,3.82-1.28,5.65-.35,1.24-.61,2.46-1.03,3.69-.4,1.23-.79,2.44-1.17,3.64-.83,2.29-1.68,4.65-2.54,6.86-.59,1.54-1.18,3-1.78,4.47.3-1.9.81-5.63.81-5.94.08-3.28-1.09-8.62-3.41-12.37.01-.48-.01-.97-.09-1.45-.61-3.78-4.16-6.58-8.01-5.56-5.35,1.42-8.74,10.81-8.99,15.75-.02.29.18,3.47.33,5.47-.27-1.16-.52-2.3-.81-3.49-.56-2.37-1.19-4.71-1.86-7.23-.36-1.21-.73-2.43-1.11-3.66-.34-1.23-.86-2.48-1.29-3.74-1.06-2.89-2.27-5.77-3.56-8.65,2.07-.5,9.4-2.36,12.34-4.62,2.93-2.25,6.03-5.92,6.01-9.83-.03-3.83-3.11-7.14-7.07-6.71-5.5.6-10.28,9.36-11.28,14.2-.06.3-.39,3.86-.53,5.81-.79-1.72-1.56-3.44-2.41-5.16-2.46-4.95-5.1-9.89-7.72-14.83-.8-1.51-1.58-3.03-2.37-4.54.74-.17,9.5-2.2,12.79-4.73,2.93-2.25,6.03-5.92,6.01-9.83-.03-3.83-3.11-7.14-7.07-6.71-5.5.6-10.28,9.36-11.28,14.2-.07.36-.54,5.48-.59,6.79-1.73-3.34-3.43-6.68-4.97-10.04-2.13-4.64-3.96-9.3-5.4-13.95.34-.08,9.49-2.16,12.87-4.75,2.93-2.25,6.03-5.92,6.01-9.83-.03-3.83-3.11-7.14-7.07-6.71-5.5.6-10.28,9.36-11.28,14.2-.07.32-.42,4.22-.55,6.07-.17.02-.14.02-.31.03-1.48-5-2.29-10.03-2.82-14.78-.31-2.75-.45-5.39-.53-7.97,1.74-.21,9.7-1.27,13-3.27,3.16-1.91,6.65-5.23,7.05-9.11.39-3.81-2.31-7.44-6.3-7.44-5.53,0-11.24,8.18-12.77,12.88-.08.26-.64,2.95-1.01,4.91-.02-1.16-.06-2.36-.05-3.48,0-4.19.27-8.02.53-11.41.16-1.93.35-3.67.54-5.29,1.6-1.1,8-5.62,9.97-8.85,1.92-3.15,3.49-7.7,2.06-11.34-1.41-3.56-5.47-5.54-9.02-3.7-4.92,2.54-6.21,12.44-5.4,17.31.07.42,1.93,6.88,2.01,6.83,0,0,.08-.05.1-.07-.22,1.56-.43,3.24-.63,5.07-.34,3.39-.69,7.23-.78,11.43-.11,4.2-.11,8.76.32,13.57.43,4.82,1.12,9.87,2.51,14.98.02.06.04.12.06.17-.87-1.37-3.43-5.11-3.66-5.38-3.23-3.74-11.68-9.06-16.77-6.9-3.67,1.56-4.75,5.95-2.9,9.31,1.88,3.42,6.39,5.12,10.04,5.65,4.12.6,12.79-1.91,13.48-2.12,1.37,4.85,3.17,9.72,5.26,14.55,1.19,2.76,2.48,5.51,3.8,8.24-.79-1.16-1.51-2.19-1.62-2.32-3.23-3.74-11.68-9.06-16.77-6.9-3.67,1.56-4.75,5.95-2.9,9.31,1.88,3.42,6.39,5.12,10.04,5.65,3.71.54,11.14-1.45,13.1-2.01.52,1.04,1.03,2.09,1.55,3.13,2.51,5,5.04,9.98,7.37,14.93.82,1.75,1.57,3.5,2.32,5.25-.7-1.03-1.3-1.89-1.41-2.01-3.23-3.74-11.68-9.06-16.77-6.9-3.67,1.56-4.75,5.95-2.9,9.31,1.88,3.42,6.39,5.12,10.04,5.65,3.54.52,10.42-1.26,12.75-1.91.71,1.81,1.44,3.63,2.05,5.42.39,1.23.85,2.39,1.17,3.65.35,1.24.69,2.47,1.03,3.68.57,2.36,1.17,4.8,1.66,7.12.36,1.61.67,3.15.98,4.71-.8-1.75-2.43-5.14-2.6-5.41-2.63-4.18-10.17-10.72-15.54-9.36-3.86.99-5.59,5.17-4.28,8.76,1.34,3.67,5.54,6.03,9.07,7.11,3.89,1.19,12.49.1,13.57-.04.52,2.57.99,5.08,1.4,7.45,1.44,8.14,2.33,14.98,2.88,19.81h3.75c-.01-.11-.03-.21-.04-.32-.67-4.87-1.73-11.82-3.37-20.09-.51-2.61-1.11-5.4-1.76-8.25.65-.26,4.32-1.74,7.57-3.56,2.83,3.07,10.09,6.66,11.03,7.11-.99,2.43-1.97,4.78-2.94,6.99-3.29,7.58-6.33,13.78-8.52,18.11h4.12c2.03-4.3,4.64-10.02,7.42-16.83,1.01-2.46,2.05-5.11,3.08-7.85,1.04.22,9.56,1.95,13.53,1.05,3.6-.81,7.96-2.85,9.57-6.41,1.58-3.49.17-7.78-3.61-9.05-5.25-1.76-13.25,4.2-16.19,8.17-.17.23-1.77,2.99-2.74,4.74.42-1.12.84-2.2,1.25-3.36.84-2.28,1.61-4.58,2.44-7.06.36-1.21.73-2.43,1.1-3.66.39-1.21.65-2.55.99-3.83.71-3,1.29-6.07,1.8-9.17,2,.73,9.14,3.21,12.84,2.95,3.68-.26,8.3-1.61,10.43-4.89,2.09-3.21,1.34-7.67-2.2-9.5-4.92-2.54-13.74,2.14-17.24,5.63-.22.22-2.45,3-3.65,4.55.29-1.87.6-3.73.83-5.64.68-5.49,1.2-11.06,1.74-16.62.16-1.7.35-3.4.53-5.1.71.27,9.13,3.4,13.28,3.11,3.68-.26,8.3-1.61,10.43-4.89,2.09-3.21,1.34-7.67-2.2-9.5-4.92-2.54-13.74,2.14-17.24,5.63-.26.26-3.47,4.27-4.24,5.33.4-3.74.82-7.46,1.39-11.11.78-5.04,1.83-9.94,3.19-14.62.33.13,9.11,3.44,13.35,3.14,3.68-.26,8.3-1.61,10.43-4.89,2.09-3.21,1.34-7.67-2.2-9.5-4.92-2.54-13.74,2.14-17.24,5.63-.23.23-2.68,3.28-3.81,4.76-.15-.08-.13-.07-.28-.15,1.52-4.99,3.62-9.63,5.8-13.88,1.26-2.46,2.6-4.75,3.96-6.94,1.57.78,8.79,4.29,12.64,4.44,3.69.15,8.43-.69,10.91-3.71,2.43-2.96,2.18-7.47-1.14-9.68-4.61-3.06-13.89.62-17.75,3.7-.21.17-2.16,2.11-3.56,3.54.63-.98,1.26-2,1.87-2.93,2.32-3.49,4.65-6.54,6.74-9.22,1.2-1.52,2.32-2.86,3.37-4.11,1.94-.03,9.78-.27,13.2-1.88,3.34-1.57,7.16-4.5,7.97-8.32.79-3.74-1.51-7.64-5.48-8.06Z" style="fill: #ccc; stroke-width: 0px;"/>
    </g>
    <g>
      <path d="m214.11,272.06c3.97,1.74,13.69,1.52,13.69,1.52.1,0-2.09-6.36-2.27-6.75-2.13-4.46-8.87-11.82-14.36-11.08-3.95.53-6.15,4.49-5.26,8.21.91,3.8,4.81,6.62,8.19,8.1Z" style="fill: #ccc; stroke-width: 0px;"/>
      <path d="m312.37,274.19c.09.05,1.77-6.46,1.83-6.88.68-4.9-.88-14.75-5.86-17.16-3.59-1.73-7.6.35-8.91,3.95-1.34,3.67.36,8.18,2.36,11.28,2.36,3.64,10.58,8.82,10.59,8.82Z" style="fill: #ccc; stroke-width: 0px;"/>
      <path d="m341.37,238.99c-5.5-.59-12.04,6.95-14.05,11.46-.17.39-2.19,6.8-2.09,6.8,0,0,.09,0,.12,0-1.04,1.18-2.14,2.46-3.32,3.89-2.15,2.64-4.56,5.65-6.96,9.1-2.41,3.44-4.93,7.25-7.22,11.5-2.3,4.26-4.51,8.85-6.17,13.88-.02.06-.03.12-.05.18.03-1.62-.04-6.16-.09-6.5-.64-4.9-4.74-14-10.19-15.01-3.92-.72-7.24,2.35-7.55,6.16-.32,3.89,2.5,7.79,5.26,10.25,3.1,2.77,11.72,5.46,12.41,5.67-1.54,4.8-2.72,9.86-3.64,15.04-.53,2.96-.97,5.96-1.37,8.97-.02-1.4-.05-2.66-.07-2.83-.64-4.9-4.74-14-10.19-15-3.92-.72-7.24,2.35-7.55,6.16-.32,3.89,2.5,7.79,5.26,10.25,2.79,2.5,10.09,4.93,12.04,5.55-.14,1.16-.3,2.31-.44,3.47-.66,5.55-1.3,11.1-2.1,16.52-.28,1.91-.62,3.78-.96,5.65-.02-1.25-.05-2.29-.07-2.45-.64-4.9-4.74-14-10.19-15-3.92-.73-7.24,2.35-7.55,6.16-.32,3.89,2.5,7.79,5.26,10.25,2.67,2.38,9.39,4.69,11.69,5.44-.4,1.91-.8,3.82-1.28,5.65-.35,1.24-.61,2.46-1.03,3.69-.4,1.23-.79,2.44-1.17,3.64-.83,2.29-1.68,4.65-2.54,6.86-.59,1.54-1.18,3-1.78,4.47.3-1.9.81-5.63.81-5.94.08-3.28-1.09-8.62-3.41-12.37.01-.48-.01-.97-.09-1.45-.61-3.78-4.16-6.58-8.01-5.56-5.35,1.42-8.74,10.81-8.99,15.75-.02.29.18,3.47.33,5.47-.27-1.16-.52-2.3-.81-3.49-.56-2.37-1.19-4.71-1.86-7.23-.37-1.21-.73-2.43-1.11-3.66-.34-1.23-.86-2.48-1.29-3.74-1.06-2.89-2.27-5.77-3.56-8.65,2.07-.5,9.4-2.36,12.34-4.62,2.93-2.25,6.03-5.92,6.01-9.83-.03-3.83-3.11-7.14-7.07-6.71-5.5.6-10.28,9.36-11.28,14.2-.06.3-.39,3.86-.53,5.81-.79-1.72-1.56-3.44-2.41-5.16-2.46-4.95-5.1-9.89-7.72-14.83-.8-1.51-1.58-3.03-2.37-4.54.74-.17,9.5-2.2,12.79-4.73,2.93-2.25,6.03-5.92,6.01-9.83-.03-3.83-3.11-7.14-7.07-6.71-5.5.6-10.28,9.36-11.28,14.2-.07.36-.54,5.48-.59,6.79-1.73-3.34-3.43-6.68-4.97-10.04-2.13-4.64-3.96-9.3-5.4-13.95.34-.08,9.49-2.16,12.87-4.75,2.93-2.25,6.03-5.92,6.01-9.83-.03-3.83-3.11-7.14-7.07-6.71-5.5.6-10.28,9.36-11.28,14.2-.07.32-.42,4.22-.55,6.07-.17.02-.14.02-.31.03-1.48-5-2.29-10.03-2.82-14.78-.31-2.75-.45-5.39-.53-7.97,1.74-.21,9.7-1.27,13-3.27,3.16-1.91,6.65-5.23,7.05-9.11.39-3.81-2.31-7.44-6.3-7.44-5.53-.01-11.24,8.18-12.77,12.88-.08.26-.64,2.95-1.01,4.91-.02-1.16-.06-2.36-.05-3.48,0-4.19.27-8.02.53-11.41.16-1.93.35-3.67.54-5.29,1.6-1.1,8-5.62,9.97-8.85,1.92-3.15,3.49-7.7,2.06-11.34-1.41-3.56-5.47-5.54-9.02-3.7-4.92,2.54-6.21,12.44-5.4,17.31.07.42,1.93,6.88,2.01,6.83,0,0,.08-.05.1-.07-.22,1.56-.43,3.24-.63,5.07-.34,3.39-.69,7.23-.78,11.43-.11,4.2-.11,8.76.32,13.57.43,4.82,1.12,9.87,2.51,14.98.02.06.04.12.06.17-.87-1.37-3.43-5.11-3.66-5.38-3.23-3.74-11.68-9.06-16.77-6.9-3.67,1.56-4.75,5.95-2.9,9.31,1.88,3.42,6.39,5.12,10.04,5.65,4.12.6,12.79-1.91,13.48-2.12,1.37,4.85,3.17,9.72,5.26,14.55,1.19,2.76,2.48,5.51,3.8,8.24-.79-1.16-1.51-2.19-1.62-2.32-3.23-3.74-11.68-9.06-16.77-6.9-3.67,1.56-4.75,5.95-2.9,9.31,1.88,3.42,6.39,5.12,10.04,5.65,3.71.54,11.14-1.45,13.1-2.01.52,1.04,1.03,2.09,1.55,3.13,2.51,5,5.04,9.98,7.37,14.93.82,1.75,1.57,3.5,2.32,5.25-.7-1.03-1.3-1.89-1.41-2.01-3.23-3.74-11.68-9.06-16.77-6.9-3.67,1.56-4.75,5.95-2.9,9.31,1.88,3.42,6.39,5.12,10.04,5.65,3.54.52,10.42-1.26,12.75-1.91.71,1.81,1.44,3.63,2.05,5.42.39,1.23.85,2.39,1.17,3.65.35,1.24.69,2.47,1.03,3.68.57,2.36,1.17,4.8,1.66,7.12.36,1.61.67,3.15.98,4.71-.8-1.75-2.43-5.14-2.6-5.41-2.63-4.18-10.17-10.72-15.54-9.36-3.86.99-5.59,5.17-4.28,8.76,1.34,3.67,5.54,6.03,9.07,7.11,3.89,1.19,12.49.1,13.57-.04.52,2.57.99,5.08,1.4,7.45,1.44,8.14,2.33,14.98,2.88,19.81h3.75c-.01-.11-.03-.21-.04-.32-.67-4.87-1.73-11.82-3.37-20.09-.51-2.61-1.11-5.4-1.76-8.25.65-.26,4.32-1.74,7.57-3.56,2.83,3.07,10.09,6.66,11.03,7.11-.99,2.43-1.97,4.78-2.94,6.99-3.29,7.58-6.33,13.78-8.52,18.11h4.12c2.03-4.3,4.64-10.02,7.42-16.83,1.01-2.46,2.05-5.11,3.08-7.85,1.04.22,9.56,1.95,13.53,1.05,3.6-.81,7.96-2.85,9.57-6.41,1.58-3.49.17-7.78-3.61-9.05-5.25-1.76-13.25,4.2-16.19,8.17-.17.23-1.77,2.99-2.74,4.74.42-1.12.84-2.2,1.25-3.36.84-2.28,1.61-4.58,2.44-7.06.36-1.21.73-2.43,1.1-3.66.39-1.21.65-2.55.99-3.83.71-3,1.29-6.07,1.8-9.17,2,.73,9.14,3.21,12.84,2.95,3.68-.26,8.3-1.61,10.43-4.89,2.09-3.21,1.34-7.67-2.2-9.5-4.92-2.54-13.74,2.14-17.24,5.63-.22.22-2.45,3-3.65,4.55.29-1.87.6-3.73.83-5.64.68-5.49,1.2-11.06,1.74-16.62.16-1.7.35-3.4.53-5.1.71.27,9.13,3.4,13.28,3.11,3.68-.26,8.3-1.61,10.43-4.89,2.09-3.21,1.34-7.67-2.2-9.5-4.92-2.54-13.74,2.14-17.24,5.63-.26.26-3.47,4.27-4.24,5.33.4-3.74.82-7.46,1.39-11.11.78-5.04,1.83-9.94,3.19-14.62.33.13,9.11,3.44,13.35,3.14,3.68-.26,8.3-1.61,10.43-4.89,2.09-3.21,1.34-7.67-2.2-9.5-4.92-2.54-13.74,2.14-17.24,5.63-.23.23-2.68,3.28-3.81,4.76-.15-.08-.13-.07-.28-.15,1.52-4.99,3.62-9.63,5.8-13.88,1.26-2.46,2.6-4.75,3.96-6.94,1.57.78,8.79,4.29,12.64,4.44,3.69.15,8.43-.69,10.91-3.71,2.43-2.96,2.18-7.47-1.14-9.68-4.61-3.06-13.89.62-17.75,3.7-.21.17-2.16,2.11-3.56,3.54.63-.98,1.26-2,1.87-2.93,2.32-3.49,4.65-6.54,6.74-9.22,1.2-1.52,2.32-2.86,3.37-4.12,1.94-.03,9.78-.27,13.2-1.88,3.34-1.57,7.16-4.5,7.97-8.32.79-3.74-1.51-7.64-5.48-8.06Z" style="fill: #ccc; stroke-width: 0px;"/>
    </g>
    <g>
      <path d="m45.14,278.27c4.12,1.34,13.77.19,13.78.19.1-.01-2.69-6.13-2.91-6.49-2.55-4.23-9.97-10.91-15.36-9.64-3.88.91-5.69,5.06-4.44,8.68,1.27,3.69,5.43,6.13,8.94,7.27Z" style="fill: #ccc; stroke-width: 0px;"/>
      <path d="m143.15,270.91c.09.05,1.14-6.6,1.15-7.02.21-4.94-2.3-14.6-7.49-16.52-3.74-1.38-7.53,1.08-8.49,4.79-.98,3.78,1.15,8.1,3.44,11,2.7,3.39,11.38,7.75,11.39,7.76Z" style="fill: #ccc; stroke-width: 0px;"/>
      <path d="m168.61,233.07c-5.53-.06-11.31,8.08-12.88,12.77-.13.41-1.52,6.98-1.42,6.97,0,0,.09-.01.12-.01-.92,1.28-1.9,2.66-2.93,4.19-1.89,2.84-3.99,6.07-6.05,9.73-2.06,3.66-4.2,7.69-6.07,12.14-1.88,4.46-3.63,9.24-4.8,14.41-.01.06-.02.12-.03.18-.13-1.62-.64-6.12-.72-6.47-1.11-4.82-6.07-13.48-11.59-13.95-3.97-.34-6.98,3.04-6.92,6.86.06,3.91,3.24,7.51,6.22,9.7,3.36,2.46,12.19,4.3,12.9,4.45-1.07,4.93-1.76,10.07-2.17,15.32-.24,3-.39,6.03-.5,9.06-.16-1.39-.31-2.64-.35-2.81-1.11-4.82-6.07-13.48-11.59-13.95-3.97-.34-6.98,3.04-6.92,6.86.06,3.91,3.24,7.51,6.22,9.7,3.02,2.21,10.52,3.94,12.52,4.36-.03,1.17-.07,2.33-.1,3.49-.12,5.59-.22,11.17-.49,16.65-.09,1.93-.25,3.82-.41,5.72-.14-1.24-.27-2.28-.3-2.44-1.11-4.82-6.07-13.48-11.59-13.95-3.97-.34-6.98,3.03-6.92,6.86.06,3.91,3.25,7.51,6.22,9.7,2.88,2.11,9.79,3.76,12.16,4.28-.22,1.94-.43,3.88-.73,5.75-.23,1.27-.37,2.51-.67,3.77-.28,1.26-.55,2.5-.82,3.73-.61,2.35-1.22,4.79-1.87,7.07-.44,1.59-.89,3.1-1.34,4.62.12-1.92.26-5.68.24-5.99-.24-3.28-1.92-8.48-4.59-11.99-.03-.48-.11-.96-.23-1.43-.97-3.7-4.77-6.15-8.51-4.76-5.19,1.93-7.66,11.61-7.43,16.54.01.29.51,3.43.86,5.41-.38-1.13-.74-2.24-1.14-3.4-.79-2.3-1.64-4.57-2.55-7.02-.48-1.17-.97-2.35-1.46-3.54-.46-1.19-1.1-2.39-1.65-3.6-1.33-2.78-2.82-5.53-4.37-8.26,2.01-.69,9.12-3.26,11.83-5.79,2.7-2.52,5.43-6.48,5.03-10.36-.4-3.8-3.78-6.8-7.69-5.99-5.42,1.13-9.33,10.31-9.85,15.23-.03.31-.01,3.87.03,5.84-.95-1.64-1.89-3.28-2.9-4.9-2.93-4.69-6.03-9.35-9.11-14.01-.94-1.43-1.87-2.86-2.8-4.29.72-.24,9.24-3.11,12.27-5.94,2.7-2.52,5.43-6.48,5.03-10.36-.4-3.8-3.78-6.8-7.69-5.99-5.42,1.13-9.33,10.31-9.85,15.23-.04.37,0,5.51.07,6.81-2.05-3.15-4.06-6.31-5.91-9.51-2.57-4.41-4.84-8.87-6.72-13.36.33-.11,9.24-3.06,12.35-5.97,2.7-2.52,5.43-6.48,5.03-10.36-.4-3.81-3.78-6.8-7.69-5.99-5.42,1.13-9.33,10.31-9.85,15.23-.03.32-.01,4.24.04,6.1-.17.04-.14.03-.31.06-1.96-4.84-3.25-9.77-4.23-14.44-.57-2.71-.97-5.32-1.3-7.88,1.71-.38,9.53-2.2,12.62-4.51,2.96-2.21,6.11-5.84,6.14-9.75.02-3.83-3.01-7.18-6.98-6.8-5.51.52-10.4,9.23-11.46,14.05-.06.26-.35,3-.54,4.99-.13-1.16-.29-2.35-.39-3.46-.4-4.17-.5-8.01-.57-11.41-.02-1.93,0-3.68.03-5.32,1.49-1.25,7.42-6.37,9.07-9.77,1.61-3.32,2.73-8,.95-11.48-1.74-3.41-5.98-4.98-9.33-2.82-4.65,3-4.98,12.98-3.7,17.75.11.41,2.58,6.67,2.66,6.6,0,0,.07-.06.09-.08-.06,1.57-.12,3.26-.13,5.11,0,3.41.02,7.26.32,11.45.3,4.19.74,8.73,1.63,13.48.89,4.76,2.07,9.71,3.95,14.66.02.06.05.11.07.17-1-1.28-3.91-4.76-4.16-5-3.58-3.41-12.5-7.89-17.36-5.24-3.5,1.91-4.15,6.38-1.99,9.54,2.2,3.23,6.85,4.48,10.54,4.65,4.16.2,12.55-3.14,13.21-3.41,1.83,4.7,4.09,9.37,6.64,13.97,1.45,2.63,3,5.24,4.58,7.83-.9-1.08-1.71-2.03-1.84-2.15-3.58-3.41-12.5-7.89-17.36-5.24-3.5,1.91-4.15,6.38-1.99,9.54,2.2,3.23,6.85,4.48,10.54,4.65,3.74.18,10.95-2.52,12.85-3.26.62.99,1.22,1.98,1.84,2.97,2.98,4.73,5.98,9.44,8.77,14.15.99,1.66,1.9,3.33,2.81,5-.8-.96-1.48-1.75-1.6-1.86-3.58-3.41-12.5-7.89-17.36-5.24-3.5,1.91-4.15,6.38-1.99,9.54,2.2,3.23,6.85,4.48,10.54,4.65,3.57.17,10.25-2.26,12.5-3.13.89,1.74,1.78,3.47,2.56,5.2.51,1.19,1.08,2.3,1.52,3.52.46,1.2.92,2.39,1.38,3.57.79,2.3,1.63,4.67,2.34,6.93.51,1.57.97,3.07,1.43,4.59-.96-1.66-2.92-4.88-3.11-5.13-3.02-3.91-11.16-9.69-16.37-7.81-3.75,1.35-5.07,5.68-3.41,9.13,1.69,3.52,6.09,5.46,9.71,6.2,3.98.81,12.44-1.1,13.5-1.35.76,2.51,1.48,4.96,2.12,7.28,2.21,7.96,3.76,14.69,4.78,19.43l3.73-.36c-.03-.11-.05-.2-.07-.32-1.14-4.79-2.86-11.6-5.29-19.67-.76-2.55-1.63-5.26-2.54-8.04.62-.32,4.13-2.15,7.19-4.27,3.12,2.78,10.69,5.65,11.67,6.02-.75,2.51-1.5,4.95-2.25,7.24-2.55,7.86-4.97,14.32-6.73,18.85l4.1-.4c1.61-4.47,3.65-10.42,5.76-17.47.77-2.55,1.54-5.29,2.31-8.11,1.06.12,9.7,1.02,13.57-.26,3.51-1.16,7.65-3.61,8.91-7.3,1.23-3.62-.59-7.76-4.47-8.66-5.39-1.25-12.79,5.46-15.32,9.7-.15.25-1.47,3.15-2.27,4.99.31-1.15.62-2.27.92-3.46.61-2.35,1.16-4.72,1.75-7.26.24-1.24.49-2.49.74-3.75.27-1.25.4-2.6.61-3.91.42-3.05.7-6.16.91-9.3,2.06.53,9.41,2.32,13.07,1.7,3.64-.61,8.11-2.41,9.91-5.87,1.77-3.39.6-7.76-3.11-9.24-5.14-2.05-13.47,3.46-16.62,7.26-.2.24-2.15,3.22-3.19,4.89.11-1.89.23-3.77.28-5.69.15-5.53.13-11.13.13-16.71,0-1.71.02-3.42.03-5.12.73.2,9.42,2.51,13.51,1.82,3.64-.61,8.11-2.41,9.91-5.87,1.77-3.39.6-7.76-3.11-9.24-5.14-2.05-13.47,3.46-16.62,7.26-.24.29-3.04,4.59-3.7,5.72.03-3.76.1-7.51.32-11.2.29-5.09.86-10.07,1.76-14.86.34.09,9.4,2.54,13.59,1.84,3.64-.61,8.11-2.41,9.91-5.87,1.77-3.39.6-7.76-3.11-9.24-5.14-2.05-13.47,3.46-16.62,7.26-.21.25-2.35,3.52-3.33,5.11-.16-.06-.13-.05-.29-.12,1.03-5.11,2.68-9.94,4.44-14.37,1.02-2.57,2.13-4.98,3.27-7.29,1.64.63,9.17,3.42,13.01,3.2,3.69-.21,8.32-1.5,10.5-4.75,2.13-3.18,1.45-7.65-2.07-9.52-4.88-2.6-13.76,1.96-17.31,5.4-.19.19-1.94,2.31-3.2,3.87.53-1.04,1.06-2.12,1.58-3.1,1.97-3.69,4-6.96,5.82-9.83,1.05-1.63,2.03-3.07,2.96-4.42,1.93-.22,9.7-1.21,12.96-3.14,3.17-1.88,6.69-5.17,7.13-9.05.43-3.8-2.24-7.46-6.23-7.5Z" style="fill: #ccc; stroke-width: 0px;"/>
    </g>
  </g>
  <g id="Floor">
    <g>
      <line x1="447.05" y1="406.07" x2="458.05" y2="406.07" style="fill: none; stroke: #263238; stroke-linecap: round; stroke-linejoin: round;"/>
      <line x1="23.05" y1="406.07" x2="436.05" y2="406.07" style="fill: none; stroke: #263238; stroke-linecap: round; stroke-linejoin: round;"/>
    </g>
  </g>
  <g id="Device">
    <g>
      <rect x="99.18" y="37.07" width="189.09" height="369" rx="14.52" ry="14.52" style="fill: #263238; stroke-width: 0px;"/>
      <path d="m218.2,37.07h-104.5c-8.02,0-14.52,6.5-14.52,14.52v289.02L218.2,37.07Z" style="fill: #fff; opacity: .3; stroke-width: 0px;"/>
      <rect x="107.59" y="62.13" width="172.27" height="322.04" style="fill: #fff; stroke: #263238; stroke-linecap: round; stroke-linejoin: round;"/>
      <g>
        <g>
          <rect x="259.72" y="65.47" width="14.28" height="7.83" style="fill: none; stroke: #263238; stroke-linecap: round; stroke-linejoin: round; stroke-width: .82px;"/>
          <rect x="259.72" y="65.47" width="11.14" height="7.83" style="fill: #263238; stroke: #263238; stroke-linecap: round; stroke-linejoin: round; stroke-width: .73px;"/>
          <rect x="273.97" y="67.66" width="2.01" height="3.45" style="fill: #263238; stroke: #263238; stroke-linecap: round; stroke-linejoin: round; stroke-width: .73px;"/>
        </g>
        <g>
          <rect x="111.47" y="67.9" width="2.62" height="4.49" style="fill: #263238; stroke: #263238; stroke-linecap: round; stroke-linejoin: round; stroke-width: .88px;"/>
          <rect x="115.59" y="66.32" width="2.62" height="6.07" style="fill: #263238; stroke: #263238; stroke-linecap: round; stroke-linejoin: round; stroke-width: .88px;"/>
          <rect x="119.7" y="64.46" width="2.62" height="7.93" style="fill: #263238; stroke: #263238; stroke-linecap: round; stroke-linejoin: round; stroke-width: .88px;"/>
        </g>
      </g>
      <rect x="110.37" y="77.66" width="165.42" height="12.44" style="fill: #ff966c; stroke-width: 0px;"/>
    </g>
  </g>
  <g id="Chats">
    <g>
      <g>
        <path d="m259.08,151.68H126.18c-4.71,0-8.53-3.82-8.53-8.53v-45.83l10.09,10.69h131.34c4.71,0,8.53,3.82,8.53,8.53v26.61c0,4.71-3.82,8.53-8.53,8.53Z" style="fill: #ff966c; stroke-width: 0px;"/>
        <path d="m151.95,129.83c0-6.62-5.37-11.99-11.99-11.99s-11.99,5.37-11.99,11.99,5.37,11.99,11.99,11.99,11.99-5.37,11.99-11.99Z" style="fill: #fff; stroke-width: 0px;"/>
        <g>
          <line x1="158.08" y1="117.16" x2="182.94" y2="117.16" style="fill: none; stroke: #263238; stroke-linecap: round; stroke-linejoin: round; stroke-width: 2px;"/>
          <line x1="158.08" y1="125.83" x2="255.14" y2="125.83" style="fill: none; stroke: #263238; stroke-linecap: round; stroke-linejoin: round;"/>
          <line x1="158.08" y1="132.98" x2="255.14" y2="132.98" style="fill: none; stroke: #263238; stroke-linecap: round; stroke-linejoin: round;"/>
          <line x1="158.08" y1="140.89" x2="255.14" y2="140.89" style="fill: none; stroke: #263238; stroke-linecap: round; stroke-linejoin: round;"/>
        </g>
      </g>
      <g>
        <path d="m259.08,270.46H126.18c-4.71,0-8.53-3.82-8.53-8.53v-45.83l10.09,10.69h131.34c4.71,0,8.53,3.82,8.53,8.53v26.61c0,4.71-3.82,8.53-8.53,8.53Z" style="fill: #ff966c; stroke-width: 0px;"/>
        <path d="m151.95,248.61c0-6.62-5.37-11.99-11.99-11.99s-11.99,5.37-11.99,11.99,5.37,11.99,11.99,11.99,11.99-5.37,11.99-11.99Z" style="fill: #fff; stroke-width: 0px;"/>
        <g>
          <line x1="158.08" y1="235.94" x2="182.94" y2="235.94" style="fill: none; stroke: #263238; stroke-linecap: round; stroke-linejoin: round; stroke-width: 2px;"/>
          <line x1="158.08" y1="244.61" x2="255.14" y2="244.61" style="fill: none; stroke: #263238; stroke-linecap: round; stroke-linejoin: round;"/>
          <line x1="158.08" y1="251.76" x2="255.14" y2="251.76" style="fill: none; stroke: #263238; stroke-linecap: round; stroke-linejoin: round;"/>
          <line x1="158.08" y1="259.67" x2="255.14" y2="259.67" style="fill: none; stroke: #263238; stroke-linecap: round; stroke-linejoin: round;"/>
        </g>
      </g>
      <g>
        <path d="m129.17,342.07h132.9c4.71,0,8.53-3.82,8.53-8.53v-45.83l-10.09,10.69h-131.34c-4.71,0-8.53,3.82-8.53,8.53v26.61c0,4.71,3.82,8.53,8.53,8.53Z" style="fill: gray; stroke-width: 0px;"/>
        <circle cx="142.95" cy="320.23" r="11.99" transform="translate(-184.57 194.87) rotate(-45)" style="fill: #fff; stroke-width: 0px;"/>
        <g>
          <line x1="161.07" y1="307.56" x2="206.91" y2="307.56" style="fill: none; stroke: #263238; stroke-linecap: round; stroke-linejoin: round; stroke-width: 2px;"/>
          <line x1="161.07" y1="316.22" x2="258.13" y2="316.22" style="fill: none; stroke: #263238; stroke-linecap: round; stroke-linejoin: round;"/>
          <line x1="161.07" y1="323.37" x2="258.13" y2="323.37" style="fill: none; stroke: #263238; stroke-linecap: round; stroke-linejoin: round;"/>
          <line x1="161.07" y1="331.28" x2="258.13" y2="331.28" style="fill: none; stroke: #263238; stroke-linecap: round; stroke-linejoin: round;"/>
        </g>
      </g>
    </g>
  </g>
  <g id="Character">
    <path d="m188.15,401.47c0-3.55-2.88-6.42-6.42-6.42s-6.43,2.88-6.43,6.42,2.88,6.43,6.43,6.43,6.42-2.88,6.42-6.43Z" style="fill: none; stroke: #fff; stroke-linecap: round; stroke-linejoin: round;"/>
    <g>
      <path d="m352.58,385.36l-2.27,7.84s-9.54,6.11-11.07,10.6.5,7.48,4.1,7.38,9.12-1.38,11.25-4.5c2.13-3.12,3.7-6.22,6.14-8.23,2.44-2.02,5.78-1.84,6.73-7.14.95-5.3-3.26-6.85-6.6-7.3-3.35-.46-8.29,1.35-8.29,1.35Z" style="fill: #fff; stroke: #263238; stroke-linecap: round; stroke-linejoin: round;"/>
      <g>
        <path d="m326.45,212.9s-4.22,9.27-3.9,20.08c0,0-3.12,16.47.83,37.73s11.96,38.52,12.02,40.46-.75,21.68,1.69,29.1c2.44,7.42,14.82,41.21,14.82,41.21,0,0-.69,4.74.73,5.81,1.42,1.07,5.33,1.79,6.15,1.48.82-.3,3.04-.64,3.04-.64l1.52,4.4s.84.25,4.17.16c3.33-.1,6.04-2.4,6.04-2.4,0,0,5.96-24.05,9.64-40.26,3.69-16.21,5.47-40.7,5.47-40.7,0,0,7.95-31.88,9.03-51.63,1.08-19.74-3.01-26.84-3.01-26.84,0,0-.51-8.04-3.52-15.72-3-7.69-8.78-5.85-30.24-8.83-21.47-2.98-27.23-.59-29.14.3-1.92.89-5.32,6.28-5.32,6.28Z" style="fill: #263238; stroke: #263238; stroke-linecap: round; stroke-linejoin: round;"/>
        <g>
          <path d="m361.76,375.96c.24,2.7.39,4.4.39,4.4" style="fill: none; stroke: gray; stroke-linecap: round; stroke-linejoin: round;"/>
          <path d="m358.52,256.92s-2.66,37.06-.73,45.17c1.76,7.34,2.67,11.41,2.67,11.41,0,0-3.28,20.64-1.85,31.43.85,6.45,1.95,17.87,2.7,26" style="fill: none; stroke: gray; stroke-linecap: round; stroke-linejoin: round;"/>
          <path d="m376.25,237.9c1.59-.8,3.26-1.46,4.98-1.92" style="fill: none; stroke: gray; stroke-linecap: round; stroke-linejoin: round;"/>
          <path d="m360.05,252.15s4.89-6.83,12.08-11.79" style="fill: none; stroke: gray; stroke-linecap: round; stroke-linejoin: round;"/>
          <path d="m341.4,243.95s4.54,5.75,11.5,9.08" style="fill: none; stroke: gray; stroke-linecap: round; stroke-linejoin: round;"/>
          <path d="m369.93,239.09s5.72-3.78,12.61-5.65" style="fill: none; stroke: gray; stroke-linecap: round; stroke-linejoin: round;"/>
        </g>
      </g>
      <g>
        <path d="m358.94,121.92s-.32,7.2-1.59,9.37-14.61,1.5-19.88,3.25c-5.28,1.75-8.61,6.11-10.64,9.37-2.03,3.26-21.23,38.98-20.57,43.22.66,4.24.98,6.1,7.09,5.65,6.11-.45,21.05-17.93,21.05-17.93l.46,15.7-8.4,22.35s11.11,6.33,31.97,9.45c20.87,3.12,33.66-5.78,33.66-5.78l-3.28-20.95,4.04-16.63s8.79,18.12,11.58,22.57c2.79,4.45,9.44,3.98,12.75-1.17,3.31-5.16,2.4-8.86-.73-15.69-3.13-6.83-9.6-27.68-12.16-32.94-2.55-5.25-3.74-9.48-11.3-12.98-7.56-3.51-19.32-4.76-19.32-4.76l.2-11.46-14.93-.63Z" style="fill: #ff966c; stroke: #263238; stroke-linecap: round; stroke-linejoin: round;"/>
        <path d="m373.87,122.55l-14.93-.63s-.32,7.2-1.59,9.37c-.74,1.27-5.61,1.56-10.58,1.94,1.05,5.76,4.56,18.83,15.57,29.48,0,0,16.18-12.42,23.29-26.49-6.1-1.6-11.95-2.22-11.95-2.22l.2-11.46Z" style="fill: #263238; stroke: #263238; stroke-linecap: round; stroke-linejoin: round;"/>
        <path d="m331.91,174.73s-1.02-7.63,3.05-19.84" style="fill: none; stroke: #263238; stroke-linecap: round; stroke-linejoin: round;"/>
      </g>
      <g>
        <path d="m373.87,122.55l-14.93-.63s-.32,7.2-1.59,9.37c-.41.7-2.08,1.1-4.33,1.39-.08,2.5.06,8.26,2.62,13.04,3.38,6.29,7.22,10.18,7.22,10.18,0,0,7.79-6.89,12.09-14.47,1.47-2.59,2.48-4.88,3.17-6.78-2.65-.44-4.46-.64-4.46-.64l.2-11.46Z" style="fill: #fff; stroke: #263238; stroke-linecap: round; stroke-linejoin: round;"/>
        <path d="m358.53,126.51c1.97,1.98,4.81,4.11,8.62,5.22,2.42.71,4.63.93,6.55.91l.17-10.1-14.93-.63s-.1,2.24-.41,4.59Z" style="fill: #263238; stroke: #263238; stroke-linecap: round; stroke-linejoin: round;"/>
      </g>
      <g>
        <path d="m397.82,88.3s-3.96-26.71-24.79-28.98-39.47,11.26-41.8,20.26c-2.33,9.01,8.56,16.48,7.79,19.67s-9.43,2.87-11.26,9.56c-1.82,6.69,6.93,10.18,6.93,10.18,0,0-15.87-.11-10.18,6.93,5.69,7.04,14.23,3.33,16.47.96,2.24-2.37.99-5.51.99-5.51,0,0,7.33,4.11,14.44.73,7.11-3.38,8.09-9.47,8.09-9.47,0,0,8.85,6.66,22.79.19,13.94-6.47,12.37-20.55,10.53-24.54Z" style="fill: #263238; stroke: #263238; stroke-linecap: round; stroke-linejoin: round;"/>
        <path d="m389.43,97.11s.92,4.46-1.81,7.91c-2.73,3.45-5.1,1.43-5.1,1.43l.58-9.8,6.33.46Z" style="fill: #fff; stroke: #263238; stroke-linecap: round; stroke-linejoin: round;"/>
        <path d="m346.17,97.32s-1.31,4.36,1.1,8.04c2.42,3.68,4.96,1.87,4.96,1.87l.29-9.81-6.35-.1Z" style="fill: #fff; stroke: #263238; stroke-linecap: round; stroke-linejoin: round;"/>
        <g>
          <path d="m350.9,91.41s.16,15.28.9,20.74c.74,5.46,4.55,17.46,14.92,16.87,12.09-.69,14.03-13.39,15.9-18.35s2.59-19.69,2.59-19.69c0,0,.11-15.87-13.81-18.34-13.92-2.47-18.56,6.31-20.5,18.77Z" style="fill: #fff; stroke: #263238; stroke-linecap: round; stroke-linejoin: round;"/>
          <path d="m361.71,105.8c.03,1.03-.53,1.89-1.24,1.91-.72.02-1.32-.8-1.35-1.83-.03-1.03.53-1.89,1.24-1.91.72-.02,1.32.8,1.35,1.83Z" style="fill: #263238; stroke-width: 0px;"/>
          <path d="m374.41,106.29c.03,1.03-.53,1.89-1.24,1.91-.72.02-1.32-.8-1.35-1.83-.03-1.03.53-1.89,1.24-1.91.72-.02,1.32.8,1.35,1.83Z" style="fill: #263238; stroke-width: 0px;"/>
          <path d="m363.68,113.82s1.79,1.97,5.21.71" style="fill: none; stroke: #263238; stroke-linecap: round; stroke-linejoin: round;"/>
          <path d="m360.01,116.81s2.98,3.37,6.72,2.97,5.41-2.47,5.41-2.47" style="fill: none; stroke: #263238; stroke-linecap: round; stroke-linejoin: round;"/>
        </g>
        <g>
          <path d="m341.33,99.19s3.89,4.79,14.84,4.47c10.95-.32,18.57-6.03,18.57-6.03,0,0-6.47,5.67-1.28,5.52s9.18-1.71,14.75-8.51c5.57-6.8,4.7-16.58,1.09-21.66-3.61-5.09-18.97-7.52-33.49-1.32-14.53,6.2-17.24,21.85-14.48,27.54Z" style="fill: #263238; stroke: #263238; stroke-linecap: round; stroke-linejoin: round;"/>
          <path d="m345.59,95.24c-1.55-1.05-2.47-1.93-2.47-1.93" style="fill: none; stroke: gray; stroke-linecap: round; stroke-linejoin: round;"/>
          <path d="m387.77,85.58s-7.38,9.14-9.49,9.49c-2.11.35-1.76-6.33-1.76-6.33,0,0-8.44,5.98-16.87,9.14-3.89,1.46-7.7.6-10.69-.75" style="fill: none; stroke: gray; stroke-linecap: round; stroke-linejoin: round;"/>
        </g>
      </g>
      <path d="m363.34,392.54s-.29,8.89-.42,13.89c-.13,5,1.63,8.28,4.96,8.18,3.33-.1,11.44,1.88,13.26-2.33,1.82-4.22-4.85-14.02-5.8-17.88-.95-3.86-1.57-6.06-1.57-6.06l-10.49,1.97.07,2.22Z" style="fill: #fff; stroke: #263238; stroke-linecap: round; stroke-linejoin: round;"/>
      <g>
        <g>
          <path d="m262.32,164.5s-4.38-3.35-7.47-3.35-4.12-2.32-5.67-2.83c-1.55-.51-1.8,3.61,0,4.38,1.8.77,4.12,1.8,4.12,1.8l1.8,3.35,9.53,1.03-2.32-4.38Z" style="fill: #fff; stroke: #263238; stroke-linecap: round; stroke-linejoin: round;"/>
          <path d="m250.46,205.83l128.45,10.96c4.55.39,8.56-2.99,8.95-7.54l1.71-19.98.49-5.75,1.59-18.57-10.63,9.5-126.94-10.84c-4.55-.39-8.56,2.99-8.95,7.54l-2.2,25.72c-.39,4.55,2.99,8.56,7.54,8.95Z" style="fill: gray; stroke-width: 0px;"/>
          <path d="m277.17,186.85c.55-6.4-4.2-12.04-10.6-12.58-6.4-.55-12.04,4.2-12.58,10.6-.55,6.4,4.2,12.04,10.6,12.58,6.4.55,12.04-4.2,12.58-10.6Z" style="fill: #fff; stroke-width: 0px;"/>
          <g>
            <line x1="284.14" y1="175.11" x2="328.45" y2="178.89" style="fill: none; stroke: #263238; stroke-linecap: round; stroke-linejoin: round; stroke-width: 2px;"/>
            <line x1="283.43" y1="183.48" x2="377.23" y2="191.49" style="fill: none; stroke: #263238; stroke-linecap: round; stroke-linejoin: round;"/>
            <line x1="282.84" y1="190.4" x2="376.64" y2="198.41" style="fill: none; stroke: #263238; stroke-linecap: round; stroke-linejoin: round;"/>
            <line x1="282.19" y1="198.04" x2="375.99" y2="206.05" style="fill: none; stroke: #263238; stroke-linecap: round; stroke-linejoin: round;"/>
          </g>
        </g>
        <g>
          <path d="m394.02,188.65s5.27-1.62,10.74-2.84c5.47-1.22,12.56,2.43,14.18,6.28,1.62,3.85.81,6.89-1.22,9.93-2.03,3.04-5.06,4.46-9.72,3.44-3.17-.69-6.48-4.05-7.5-6.08l-1.01-2.03s-.81-1.22-1.62-1.22" style="fill: #ff966c; stroke: #263238; stroke-linecap: round; stroke-linejoin: round;"/>
          <g>
            <path d="m392,186.62s-4.64-5.58-6.89-4.94c-1.71.49-8.64,2.03-11.88,2.75-.85.19-1.27,1.13-.86,1.89h0c.24.43.7.7,1.19.68l9.73-.37,1.22,2.03-12.09,2.02c-.72.12-1.23.77-1.18,1.5h0c.06.75.7,1.33,1.45,1.31l12.51-.91-10.83,4.03c-1.09.32-1.36,1.74-.46,2.43h0c.3.23.68.33,1.05.27l12.26-2.58-5.35,4.29h0c.13,1.03.88,1.08,1.94.71l10.21-3.75s2.43,1.01,5.27,1.01,3.44-3.44,1.22-6.69c-2.23-3.24-8.51-5.67-8.51-5.67Z" style="fill: #fff; stroke: #263238; stroke-linecap: round; stroke-linejoin: round;"/>
            <path d="m384.5,188.65s3.14-.56,4.42-.45" style="fill: none; stroke: #263238; stroke-linecap: round; stroke-linejoin: round;"/>
            <line x1="385.19" y1="192.56" x2="388.81" y2="191.71" style="fill: none; stroke: #263238; stroke-linecap: round; stroke-linejoin: round;"/>
            <line x1="387.21" y1="196.71" x2="390.41" y2="195.54" style="fill: none; stroke: #263238; stroke-linecap: round; stroke-linejoin: round;"/>
          </g>
        </g>
        <path d="m245.08,161.37h0c-.62.48-.8,1.33-.42,2.02,1.02,1.85,3.1,5.17,4.78,4.98,2.32-.26.52-2.58,0-3.61-.3-.61-1.33-2.03-2.11-3.09-.53-.71-1.54-.85-2.25-.3Z" style="fill: #fff; stroke: #263238; stroke-linecap: round; stroke-linejoin: round;"/>
        <path d="m243.27,165.23h0c-.62.48-.8,1.33-.42,2.02,1.02,1.85,3.1,5.17,4.78,4.98,2.32-.26.51-2.58,0-3.61-.3-.61-1.33-2.03-2.11-3.09-.53-.71-1.54-.85-2.25-.3Z" style="fill: #fff; stroke: #263238; stroke-linecap: round; stroke-linejoin: round;"/>
        <path d="m240.33,172.38h0c-.5.39-.65,1.08-.34,1.64.83,1.5,2.52,4.19,3.88,4.04,1.88-.21.42-2.09,0-2.93-.25-.49-1.08-1.65-1.72-2.5-.43-.58-1.25-.69-1.82-.25Z" style="fill: #fff; stroke: #263238; stroke-linecap: round; stroke-linejoin: round;"/>
        <path d="m240.96,168.06h0c-.62.48-.8,1.33-.42,2.02,1.02,1.85,3.1,5.17,4.78,4.98,2.32-.26.52-2.58,0-3.61-.3-.61-1.33-2.03-2.11-3.09-.53-.71-1.54-.85-2.25-.3Z" style="fill: #fff; stroke: #263238; stroke-linecap: round; stroke-linejoin: round;"/>
      </g>
    </g>
  </g>
</svg>