<svg xmlns="http://www.w3.org/2000/svg" width="343" height="252.935" viewBox="0 0 343 252.935">
  <g id="Editing_body_text-rafiki_1_" data-name="Editing body text-rafiki (1)" transform="translate(0 -55)">
    <g id="freepik--background-complete--inject-1" transform="translate(0 55)">
      <rect id="Rectangle_120" data-name="Rectangle 120" width="22.72" height="0.171" transform="translate(285.911 235.634)" fill="#ebebeb"/>
      <rect id="Rectangle_121" data-name="Rectangle 121" width="5.961" height="0.171" transform="translate(221.256 237.5)" fill="#ebebeb"/>
      <rect id="Rectangle_122" data-name="Rectangle 122" width="13.164" height="0.171" transform="translate(272.061 229.268)" fill="#ebebeb"/>
      <rect id="Rectangle_123" data-name="Rectangle 123" width="29.628" height="0.171" transform="translate(35.988 230.421)" fill="#ebebeb"/>
      <rect id="Rectangle_124" data-name="Rectangle 124" width="4.342" height="0.171" transform="translate(71.728 230.421)" fill="#ebebeb"/>
      <rect id="Rectangle_125" data-name="Rectangle 125" width="64.264" height="0.171" transform="translate(90.188 233.315)" fill="#ebebeb"/>
      <path id="Path_723" data-name="Path 723" d="M174.58,249H42.127a3.917,3.917,0,0,1-3.917-3.917V58.883A3.917,3.917,0,0,1,42.127,55H174.58a3.917,3.917,0,0,1,3.917,3.917V245.084A3.917,3.917,0,0,1,174.58,249ZM42.127,55.137a3.752,3.752,0,0,0-3.746,3.746v186.2a3.752,3.752,0,0,0,3.746,3.746H174.58a3.752,3.752,0,0,0,3.746-3.746V58.883a3.752,3.752,0,0,0-3.746-3.746Z" transform="translate(-11.998 -55)" fill="#ebebeb"/>
      <path id="Path_724" data-name="Path 724" d="M390.884,249H258.417a3.924,3.924,0,0,1-3.917-3.917V58.883A3.924,3.924,0,0,1,258.417,55H390.884a3.917,3.917,0,0,1,3.9,3.883v186.2A3.917,3.917,0,0,1,390.884,249ZM258.417,55.137a3.752,3.752,0,0,0-3.746,3.746v186.2a3.752,3.752,0,0,0,3.746,3.746H390.884a3.753,3.753,0,0,0,3.746-3.746V58.883a3.752,3.752,0,0,0-3.746-3.746Z" transform="translate(-79.913 -55)" fill="#ebebeb"/>
      <rect id="Rectangle_126" data-name="Rectangle 126" width="343" height="0.171" transform="translate(0 224.596)" fill="#ebebeb"/>
      <rect id="Rectangle_127" data-name="Rectangle 127" width="60.114" height="90.435" transform="translate(225.914 129.681)" fill="#f5f5f5"/>
      <rect id="Rectangle_128" data-name="Rectangle 128" width="12.965" height="90.435" transform="translate(286.028 129.681)" fill="#ebebeb"/>
      <rect id="Rectangle_129" data-name="Rectangle 129" width="50.942" height="21.966" transform="translate(230.674 136.391)" fill="#fafafa"/>
      <path id="Path_725" data-name="Path 725" d="M367.94,253.82l.254,2.929a1.88,1.88,0,0,0,1.866,1.7H373.3a1.88,1.88,0,0,0,1.866-1.7l.254-2.929Z" transform="translate(-115.533 -117.429)" fill="#ebebeb"/>
      <rect id="Rectangle_130" data-name="Rectangle 130" width="50.942" height="21.966" transform="translate(230.674 160.75)" fill="#fafafa"/>
      <path id="Path_726" data-name="Path 726" d="M367.94,289.33l.254,2.929a1.88,1.88,0,0,0,1.866,1.708H373.3a1.88,1.88,0,0,0,1.866-1.708l.254-2.929Z" transform="translate(-115.533 -128.58)" fill="#ebebeb"/>
      <rect id="Rectangle_131" data-name="Rectangle 131" width="50.942" height="21.966" transform="translate(230.674 185.11)" fill="#fafafa"/>
      <path id="Path_727" data-name="Path 727" d="M367.94,324.84l.254,2.929a1.879,1.879,0,0,0,1.845,1.708h3.238a1.88,1.88,0,0,0,1.866-1.708l.254-2.929Z" transform="translate(-115.533 -139.73)" fill="#ebebeb"/>
      <path id="Path_728" data-name="Path 728" d="M387.2,380.381H336.973l-.713-4.521H387.2Z" transform="translate(-105.586 -155.75)" fill="#e6e6e6"/>
      <path id="Path_729" data-name="Path 729" d="M422.655,380.381H410.52V375.86h12.849Z" transform="translate(-128.903 -155.75)" fill="#e0e0e0"/>
      <path id="Path_730" data-name="Path 730" d="M371.556,232H392.54l-2.326-26.617H369.23Z" transform="translate(-115.938 -102.219)" fill="#fafafa"/>
      <path id="Path_731" data-name="Path 731" d="M371.094,232h-1L367.76,205.38h1.008Z" transform="translate(-115.477 -102.219)" fill="#ebebeb"/>
      <path id="Path_732" data-name="Path 732" d="M374.542,230.524h16.711l-1.859-21.184h-16.7Z" transform="translate(-117.025 -103.463)" fill="#f0f0f0"/>
      <path id="Path_733" data-name="Path 733" d="M376.47,229.579h13.953l-1.55-17.7H374.92Z" transform="translate(-117.725 -104.26)" fill="#e6e6e6"/>
      <path id="Path_734" data-name="Path 734" d="M396.092,237.57l-1.262-14.44h18.309l1.269,14.44Z" transform="translate(-123.977 -107.793)" fill="#f0f0f0"/>
      <path id="Path_735" data-name="Path 735" d="M395.64,237.57l-1.262-14.44h-.988l1.269,14.44Z" transform="translate(-123.524 -107.793)" fill="#e0e0e0"/>
      <path id="Path_736" data-name="Path 736" d="M398.748,236.771l-1.008-11.49h14.577l1.008,11.49Z" transform="translate(-124.89 -108.468)" fill="#ebebeb"/>
      <path id="Path_737" data-name="Path 737" d="M400.454,236.257l-.844-9.6h12.177l.844,9.6Z" transform="translate(-125.478 -108.901)" fill="#f5f5f5"/>
      <rect id="Rectangle_132" data-name="Rectangle 132" width="62.515" height="21.582" transform="translate(106.309 199.111) rotate(180)" fill="#ebebeb"/>
      <rect id="Rectangle_133" data-name="Rectangle 133" width="62.515" height="21.582" transform="translate(106.309 220.693) rotate(180)" fill="#ebebeb"/>
      <rect id="Rectangle_134" data-name="Rectangle 134" width="62.515" height="21.582" transform="translate(171.013 199.111) rotate(180)" fill="#ebebeb"/>
      <rect id="Rectangle_135" data-name="Rectangle 135" width="62.515" height="21.582" transform="translate(171.013 220.693) rotate(180)" fill="#ebebeb"/>
      <path id="Path_738" data-name="Path 738" d="M211.092,335.375,203.32,313.8h11.971l7.772,21.575Z" transform="translate(-63.843 -136.263)" fill="#f0f0f0"/>
      <path id="Path_739" data-name="Path 739" d="M194.87,313.8H197.5l7.779,21.575h-2.627Z" transform="translate(-61.189 -136.263)" fill="#f0f0f0"/>
      <path id="Path_740" data-name="Path 740" d="M222.429,366.832,214.65,345.25h11.971l7.779,21.582Z" transform="translate(-67.4 -146.139)" fill="#f0f0f0"/>
      <path id="Path_741" data-name="Path 741" d="M206.21,345.25h2.627l7.779,21.582h-2.627Z" transform="translate(-64.75 -146.139)" fill="#f0f0f0"/>
      <path id="Path_742" data-name="Path 742" d="M80.752,335.375,72.98,313.8H84.951l7.779,21.575Z" transform="translate(-22.916 -136.263)" fill="#f0f0f0"/>
      <path id="Path_743" data-name="Path 743" d="M64.53,313.8h2.627l7.779,21.575H72.309Z" transform="translate(-20.262 -136.263)" fill="#f0f0f0"/>
      <path id="Path_744" data-name="Path 744" d="M92.089,366.832,84.31,345.25H96.288l7.772,21.582Z" transform="translate(-26.473 -146.139)" fill="#f0f0f0"/>
      <path id="Path_745" data-name="Path 745" d="M75.87,345.25H78.5l7.779,21.582H83.649Z" transform="translate(-23.823 -146.139)" fill="#f0f0f0"/>
      <rect id="Rectangle_136" data-name="Rectangle 136" width="2.181" height="62.515" transform="translate(171.006 178.669) rotate(90)" fill="#e0e0e0"/>
      <rect id="Rectangle_137" data-name="Rectangle 137" width="2.181" height="62.515" transform="translate(171.006 200.079) rotate(90)" fill="#e0e0e0"/>
      <path id="Path_746" data-name="Path 746" d="M200.923,332.691a.94.94,0,1,1,0-1.873h3.2a.94.94,0,1,1,0,1.873Z" transform="translate(-62.77 -141.606)" fill="#e6e6e6"/>
      <path id="Path_747" data-name="Path 747" d="M200.923,332.211a.94.94,0,1,1,0-1.873h3.2a.94.94,0,1,1,0,1.873Z" transform="translate(-62.77 -141.455)" fill="#e0e0e0"/>
      <path id="Path_748" data-name="Path 748" d="M200.923,361.731a.94.94,0,1,1,0-1.873h3.2a.94.94,0,1,1,0,1.873Z" transform="translate(-62.77 -150.724)" fill="#e6e6e6"/>
      <path id="Path_749" data-name="Path 749" d="M200.96,361.25a.94.94,0,1,1,0-1.88h3.2a.94.94,0,1,1,0,1.88Z" transform="translate(-62.806 -150.572)" fill="#e0e0e0"/>
      <path id="Path_750" data-name="Path 750" d="M156.56,312.39v45.063h64.7V312.39Zm2.188,23.688h60.327v19.208H158.748Zm0-21.383h60.327V333.9H158.748Z" transform="translate(-49.16 -135.821)" fill="#f5f5f5"/>
      <rect id="Rectangle_138" data-name="Rectangle 138" width="2.181" height="62.515" transform="translate(106.309 178.669) rotate(90)" fill="#e0e0e0"/>
      <rect id="Rectangle_139" data-name="Rectangle 139" width="2.181" height="62.515" transform="translate(106.309 200.079) rotate(90)" fill="#e0e0e0"/>
      <path id="Path_751" data-name="Path 751" d="M106.677,332.693a.94.94,0,0,1,0-1.873h3.2a.94.94,0,0,1,0,1.873Z" transform="translate(-33.227 -141.608)" fill="#e6e6e6"/>
      <path id="Path_752" data-name="Path 752" d="M106.677,332.213a.94.94,0,0,1,0-1.873h3.2a.94.94,0,0,1,0,1.873Z" transform="translate(-33.227 -141.457)" fill="#e0e0e0"/>
      <path id="Path_753" data-name="Path 753" d="M106.677,361.733a.94.94,0,0,1,0-1.873h3.2a.94.94,0,0,1,0,1.873Z" transform="translate(-33.227 -150.726)" fill="#e6e6e6"/>
      <path id="Path_754" data-name="Path 754" d="M106.64,361.25a.94.94,0,0,1,0-1.88h3.2a.94.94,0,1,1,0,1.88Z" transform="translate(-33.19 -150.572)" fill="#e0e0e0"/>
      <path id="Path_755" data-name="Path 755" d="M62.25,312.39v45.063h64.7V312.39Zm2.181,23.688h60.334v19.208H64.431Zm0-21.383h60.334V333.9H64.431Z" transform="translate(-19.547 -135.821)" fill="#f5f5f5"/>
      <path id="Path_756" data-name="Path 756" d="M71.878,381.078H66.143l-.713-3h7.162Z" transform="translate(-20.545 -156.447)" fill="#e0e0e0"/>
      <path id="Path_757" data-name="Path 757" d="M243.3,381.078H237.57l-.72-3h7.162Z" transform="translate(-74.371 -156.447)" fill="#e0e0e0"/>
      <path id="Path_758" data-name="Path 758" d="M91.78,279.656c0-1.742,2.058-3.224,4.9-3.732l-2.813-3.355h16.7l-2.813,3.355c2.84.508,4.9,1.989,4.9,3.732,0,1.928-2.49,16.011-5.783,19.112l.446.528a.439.439,0,0,1-.329.686H97.453a.439.439,0,0,1-.336-.686l.446-.528C94.277,295.668,91.78,281.584,91.78,279.656Z" transform="translate(-28.819 -123.317)" fill="#f0f0f0"/>
      <path id="Path_759" data-name="Path 759" d="M127.289,300.78H104.37c0,2.3,2.113,4.329,5.3,5.488l-.686,2.6h13.658l-.652-2.6C125.176,305.109,127.289,303.085,127.289,300.78Z" transform="translate(-32.772 -132.175)" fill="#e6e6e6"/>
    </g>
    <g id="freepik--Shadow--inject-1" transform="translate(35.185 292.404)">
      <ellipse id="freepik--path--inject-1" cx="133.009" cy="7.766" rx="133.009" ry="7.766" fill="#f5f5f5"/>
    </g>
    <g id="freepik--Screens--inject-1" transform="translate(66.515 68.898)">
      <rect id="Rectangle_140" data-name="Rectangle 140" width="166.918" height="118.87" rx="7.19" transform="translate(0 0)" fill="#fab228"/>
      <rect id="Rectangle_141" data-name="Rectangle 141" width="166.918" height="118.87" rx="7.19" transform="translate(0 0)" fill="#fff" opacity="0.5"/>
      <rect id="Rectangle_142" data-name="Rectangle 142" width="159.214" height="98.071" rx="2.46" transform="translate(3.855 16.951)" fill="#fff" opacity="0.5"/>
      <rect id="Rectangle_143" data-name="Rectangle 143" width="7.189" height="7.189" rx="2.95" transform="translate(134.305 4.624)" fill="#fff" opacity="0.3"/>
      <rect id="Rectangle_144" data-name="Rectangle 144" width="7.189" height="7.189" rx="2.95" transform="translate(145.089 4.624)" fill="#fff" opacity="0.5"/>
      <rect id="Rectangle_145" data-name="Rectangle 145" width="7.189" height="7.189" rx="2.95" transform="translate(155.88 4.624)" fill="#fff" opacity="0.8"/>
      <rect id="Rectangle_146" data-name="Rectangle 146" width="10.016" height="10.016" rx="3.67" transform="translate(3.855 3.21)" fill="#fab228"/>
      <rect id="Rectangle_147" data-name="Rectangle 147" width="116.586" height="11.813" rx="4.02" transform="translate(37.497 23.111)" fill="#fff" opacity="0.8"/>
      <rect id="Rectangle_148" data-name="Rectangle 148" width="116.586" height="11.813" rx="4.02" transform="translate(37.497 38.78)" fill="#fff" opacity="0.8"/>
      <rect id="Rectangle_149" data-name="Rectangle 149" width="116.586" height="51.423" rx="4.02" transform="translate(37.497 57)" fill="#fff" opacity="0.8"/>
      <rect id="Rectangle_150" data-name="Rectangle 150" width="116.586" height="10.317" rx="4.51" transform="translate(37.497 57)" fill="#fab228"/>
      <rect id="Rectangle_151" data-name="Rectangle 151" width="116.586" height="10.317" rx="4.51" transform="translate(37.497 57)" fill="#fff" opacity="0.5"/>
      <rect id="Rectangle_152" data-name="Rectangle 152" width="7.052" height="7.052" rx="1.85" transform="translate(75.899 58.612)" fill="#fff" opacity="0.5"/>
      <rect id="Rectangle_153" data-name="Rectangle 153" width="7.052" height="7.052" rx="1.85" transform="translate(85.976 58.612)" fill="#fff" opacity="0.5"/>
      <rect id="Rectangle_154" data-name="Rectangle 154" width="7.052" height="7.052" rx="1.85" transform="translate(96.184 58.612)" fill="#fff" opacity="0.5"/>
      <path id="Path_760" data-name="Path 760" d="M115.246,115.091H114.21v-.611h2.819v.611h-1.036v2.627h-.748Z" transform="translate(-102.377 -87.575)" fill="#263238"/>
      <path id="Path_761" data-name="Path 761" d="M119.4,117.569a1.658,1.658,0,0,1,0-2.916,2.058,2.058,0,0,1,1.811,0,1.687,1.687,0,0,1,.638.6,1.736,1.736,0,0,1,0,1.715,1.619,1.619,0,0,1-.638.6A1.976,1.976,0,0,1,119.4,117.569Zm1.427-.556a.926.926,0,0,0,.364-.364,1.064,1.064,0,0,0,.13-.535,1.049,1.049,0,0,0-.13-.535,1,1,0,0,0-.364-.37,1.036,1.036,0,0,0-.521-.13,1.009,1.009,0,0,0-.514.13.947.947,0,0,0-.364.37,1.049,1.049,0,0,0-.13.535,1.063,1.063,0,0,0,.13.535.885.885,0,0,0,.364.364,1.015,1.015,0,0,0,.515.137,1.036,1.036,0,0,0,.521-.165Z" transform="translate(-103.736 -87.564)" fill="#263238"/>
      <path id="Path_762" data-name="Path 762" d="M114.946,140.515a1.612,1.612,0,0,1-.576-.274l.254-.563a1.838,1.838,0,0,0,1.07.336.947.947,0,0,0,.473-.089.3.3,0,0,0,.151-.254.233.233,0,0,0-.089-.192.823.823,0,0,0-.233-.123l-.377-.1a5.48,5.48,0,0,1-.611-.172,1.1,1.1,0,0,1-.4-.281.782.782,0,0,1-.165-.521.885.885,0,0,1,.151-.508,1,1,0,0,1,.46-.364,1.866,1.866,0,0,1,.748-.137,2.564,2.564,0,0,1,.611.075,1.838,1.838,0,0,1,.514.213l-.226.569a1.811,1.811,0,0,0-.9-.254.837.837,0,0,0-.466.1.309.309,0,0,0-.151.268.268.268,0,0,0,.172.247,2.9,2.9,0,0,0,.535.158,5.181,5.181,0,0,1,.6.178,1.016,1.016,0,0,1,.4.274.748.748,0,0,1,.165.514.9.9,0,0,1-.151.508,1.057,1.057,0,0,1-.466.364,1.907,1.907,0,0,1-.755.13,2.681,2.681,0,0,1-.741-.1Z" transform="translate(-102.427 -94.731)" fill="#263238"/>
      <path id="Path_763" data-name="Path 763" d="M119.383,140.222a1.482,1.482,0,0,1-.384-1.063v-1.811h.748v1.784c0,.583.24.871.686.871a.686.686,0,0,0,.542-.213.967.967,0,0,0,.185-.686V137.32h.734v1.838a1.338,1.338,0,0,1-1.461,1.482A1.482,1.482,0,0,1,119.383,140.222Z" transform="translate(-103.88 -94.747)" fill="#263238"/>
      <path id="Path_764" data-name="Path 764" d="M127.163,139.167a.83.83,0,0,1,.158.508.755.755,0,0,1-.329.686,1.722,1.722,0,0,1-.967.226H124.35v-3.238h1.585a1.55,1.55,0,0,1,.906.226.686.686,0,0,1,.316.617.775.775,0,0,1-.11.418.872.872,0,0,1-.316.295A.878.878,0,0,1,127.163,139.167Zm-2.058-1.276v.761h.741a.755.755,0,0,0,.418-.1.336.336,0,0,0,.144-.288.322.322,0,0,0-.144-.288.762.762,0,0,0-.418-.089Zm1.317,2.01a.329.329,0,0,0,.151-.3c0-.268-.2-.4-.6-.4H125.1v.8h.871a.865.865,0,0,0,.439-.1Z" transform="translate(-105.56 -94.755)" fill="#263238"/>
      <path id="Path_765" data-name="Path 765" d="M129.293,140.479a1.153,1.153,0,0,1-.453-.35l.418-.494a.734.734,0,0,0,.6.35c.309,0,.46-.178.46-.535v-1.537h-1.139v-.6h1.88v2.1a1.221,1.221,0,0,1-.295.9,1.166,1.166,0,0,1-.864.295,1.441,1.441,0,0,1-.6-.123Z" transform="translate(-106.97 -94.744)" fill="#263238"/>
      <path id="Path_766" data-name="Path 766" d="M135.654,139.935v.583h-2.5V137.28H135.6v.6h-1.7v.686h1.5v.583h-1.5v.748Z" transform="translate(-108.324 -94.734)" fill="#263238"/>
      <path id="Path_767" data-name="Path 767" d="M138.217,140.365a1.636,1.636,0,0,1-.857-1.461,1.619,1.619,0,0,1,.233-.864,1.523,1.523,0,0,1,.624-.59,1.873,1.873,0,0,1,.9-.22,1.818,1.818,0,0,1,.761.151,1.468,1.468,0,0,1,.569.425l-.48.439a1.043,1.043,0,0,0-.809-.377,1.1,1.1,0,0,0-.535.13.96.96,0,0,0-.37.37,1.166,1.166,0,0,0,0,1.07.96.96,0,0,0,.37.37,1.084,1.084,0,0,0,1.372-.254l.48.446a1.468,1.468,0,0,1-.569.425,1.817,1.817,0,0,1-.761.151,1.866,1.866,0,0,1-.926-.213Z" transform="translate(-109.645 -94.718)" fill="#263238"/>
      <path id="Path_768" data-name="Path 768" d="M143.05,137.921H142v-.611h2.819v.611h-1.036v2.607h-.748Z" transform="translate(-111.103 -94.744)" fill="#263238"/>
      <path id="Path_769" data-name="Path 769" d="M117.553,185.59a.83.83,0,0,1,.158.508.748.748,0,0,1-.329.686,1.653,1.653,0,0,1-.967.233H114.74v-3.238h1.585a1.55,1.55,0,0,1,.906.226.686.686,0,0,1,.316.617.775.775,0,0,1-.11.418.871.871,0,0,1-.316.295.81.81,0,0,1,.432.254Zm-2.058-1.283v.761h.741a.741.741,0,0,0,.425-.1.309.309,0,0,0,.137-.281.316.316,0,0,0-.137-.288.8.8,0,0,0-.425-.1Zm1.317,2.01a.322.322,0,0,0,.151-.295c0-.268-.2-.4-.6-.4h-.871v.8h.871a.775.775,0,0,0,.439-.1Z" transform="translate(-102.543 -109.334)" fill="#263238"/>
      <path id="Path_770" data-name="Path 770" d="M120.464,186.778a1.619,1.619,0,0,1-.638-.6,1.736,1.736,0,0,1,0-1.715,1.619,1.619,0,0,1,.638-.6,1.976,1.976,0,0,1,1.811,0,1.667,1.667,0,0,1,.638.6,1.736,1.736,0,0,1,0,1.715,1.667,1.667,0,0,1-.638.6A1.976,1.976,0,0,1,120.464,186.778Zm1.427-.549a.994.994,0,0,0,.364-.37,1.166,1.166,0,0,0,0-1.07,1,1,0,0,0-.364-.37,1.036,1.036,0,0,0-.521-.13.988.988,0,0,0-.515.13.947.947,0,0,0-.364.37,1.166,1.166,0,0,0,0,1.07.947.947,0,0,0,.364.37,1.064,1.064,0,0,0,.514.13A1.1,1.1,0,0,0,121.891,186.229Z" transform="translate(-104.069 -109.294)" fill="#263238"/>
      <path id="Path_771" data-name="Path 771" d="M125.58,183.73h1.475a2.14,2.14,0,0,1,.933.2,1.523,1.523,0,0,1,.624.569,1.711,1.711,0,0,1,0,1.7,1.5,1.5,0,0,1-.624.563,2.058,2.058,0,0,1-.933.206H125.58Zm1.434,2.621a1.1,1.1,0,0,0,.775-.268.967.967,0,0,0,.288-.734.954.954,0,0,0-.288-.734,1.1,1.1,0,0,0-.775-.268h-.686v2Z" transform="translate(-105.947 -109.319)" fill="#263238"/>
      <path id="Path_772" data-name="Path 772" d="M132.293,185.832v1.146h-.748v-1.159l-1.255-2.058h.8l.864,1.441.864-1.441h.707Z" transform="translate(-107.426 -109.329)" fill="#263238"/>
      <path id="Path_773" data-name="Path 773" d="M160.226,165.754a.775.775,0,0,1,.158.508.748.748,0,0,1-.329.652,1.7,1.7,0,0,1-.96.226H157.42v-3.231H159a1.558,1.558,0,0,1,.912.226.686.686,0,0,1,.316.611.809.809,0,0,1-.117.425.755.755,0,0,1-.316.288.857.857,0,0,1,.432.295Zm-2.058-1.283v.761h.748a.768.768,0,0,0,.418-.1.336.336,0,0,0,.144-.288.316.316,0,0,0-.144-.281.686.686,0,0,0-.419-.1Zm1.324,2.01a.35.35,0,0,0,.151-.3c0-.268-.206-.4-.6-.4h-.885v.8h.878a.878.878,0,0,0,.446-.1Z" transform="translate(-115.944 -103.095)" fill="#263238"/>
      <path id="Path_774" data-name="Path 774" d="M163.137,166.955a1.619,1.619,0,0,1-.857-1.461,1.667,1.667,0,0,1,.226-.857,1.605,1.605,0,0,1,.631-.6,1.928,1.928,0,0,1,.912-.22,1.88,1.88,0,0,1,.906.22,1.605,1.605,0,0,1,.631.6,1.674,1.674,0,0,1,.233.857,1.639,1.639,0,0,1-.233.858,1.619,1.619,0,0,1-.631.6,1.88,1.88,0,0,1-.906.213A1.921,1.921,0,0,1,163.137,166.955Zm1.427-.556a.974.974,0,0,0,.364-.364,1.18,1.18,0,0,0,0-1.077.885.885,0,0,0-.364-.364,1.015,1.015,0,0,0-.514-.137,1.036,1.036,0,0,0-.521.137.926.926,0,0,0-.364.364,1.18,1.18,0,0,0,0,1.077.988.988,0,0,0,.885.494,1.008,1.008,0,0,0,.515-.13Z" transform="translate(-117.47 -103.068)" fill="#263238"/>
      <path id="Path_775" data-name="Path 775" d="M168.26,163.91h1.468a2.059,2.059,0,0,1,.933.2,1.523,1.523,0,0,1,.631.563,1.653,1.653,0,0,1,.219.851,1.619,1.619,0,0,1-.22.851,1.537,1.537,0,0,1-.631.569,2.12,2.12,0,0,1-.933.2H168.26Zm1.434,2.621a1.1,1.1,0,0,0,.775-.274.954.954,0,0,0,.288-.734.94.94,0,0,0-.288-.727,1.07,1.07,0,0,0-.775-.274h-.686v2.01Z" transform="translate(-119.348 -103.096)" fill="#263238"/>
      <path id="Path_776" data-name="Path 776" d="M174.973,166.055V167.2h-.755v-1.152l-1.249-2.058h.8l.864,1.434.864-1.434h.734Z" transform="translate(-120.827 -103.121)" fill="#263238"/>
      <path id="Path_777" data-name="Path 777" d="M195.733,163.91v3.231h-.748v-2.634h-.645v-.6Z" transform="translate(-127.537 -103.096)" fill="#263238"/>
      <path id="Path_778" data-name="Path 778" d="M199.536,166.5v.611h-2.442v-.487l1.262-1.173a1.426,1.426,0,0,0,.274-.329.645.645,0,0,0,.069-.268.364.364,0,0,0-.137-.3.6.6,0,0,0-.384-.1.8.8,0,0,0-.686.322l-.542-.35a1.263,1.263,0,0,1,.521-.439,1.681,1.681,0,0,1,.761-.165,1.5,1.5,0,0,1,.631.123.94.94,0,0,1,.425.329.9.9,0,0,1,.144.508,1.084,1.084,0,0,1-.11.494,1.758,1.758,0,0,1-.425.528l-.748.686Z" transform="translate(-128.357 -103.068)" fill="#263238"/>
      <path id="Path_779" data-name="Path 779" d="M213.414,165.612h0a.933.933,0,0,0-.309-.254.865.865,0,0,0,.2-.22.9.9,0,0,0,.123-.473.81.81,0,0,0-.357-.686,1.667,1.667,0,0,0-.96-.24H210.43v3.43h1.763a1.8,1.8,0,0,0,1.022-.247.83.83,0,0,0,.37-.734A.919.919,0,0,0,213.414,165.612Zm-2.058.178h.775c.5,0,.5.226.5.309a.247.247,0,0,1-.1.22.769.769,0,0,1-.4.082h-.761Zm1.015-.816a.686.686,0,0,1-.37.082h-.645v-.569H212a.747.747,0,0,1,.37.075.268.268,0,0,1,0,.412Z" transform="translate(-132.59 -103.042)" fill="#263238"/>
      <path id="Path_780" data-name="Path 780" d="M227.069,163.87h.755l-.686,3.231h-.748Z" transform="translate(-137.601 -103.084)" fill="#263238"/>
      <path id="Path_781" data-name="Path 781" d="M240.563,165.806a1.475,1.475,0,0,1-.384-1.1V162.9h.748v1.784c0,.576.24.871.686.871a.686.686,0,0,0,.535-.213.967.967,0,0,0,.185-.686V162.87h.741v1.811a1.5,1.5,0,0,1-.384,1.1,1.712,1.712,0,0,1-2.127.027Z" transform="translate(-141.929 -102.77)" fill="#263238"/>
      <path id="Path_782" data-name="Path 782" d="M297.945,164.127l1.022-1.029a1.18,1.18,0,0,0,0-1.667l-.329-.329a1.18,1.18,0,0,0-1.667,0l-1.029,1.022a1.187,1.187,0,0,0-.082,1.564l-.624.631a1.173,1.173,0,0,0-1.564.082l-1.029,1.022a1.187,1.187,0,0,0,0,1.674l.329.329a1.187,1.187,0,0,0,1.674,0l1.022-1.029a1.166,1.166,0,0,0,.082-1.557l.631-.631A1.187,1.187,0,0,0,297.945,164.127Zm-1.482-1.482,1.029-1.022a.446.446,0,0,1,.624,0l.329.329a.446.446,0,0,1,0,.624l-1.022,1.029a.453.453,0,0,1-.515.075l.158-.158-.521-.521-.158.158a.453.453,0,0,1,.075-.514Zm-1.317,3.231-1.022,1.029a.453.453,0,0,1-.631,0l-.329-.329a.453.453,0,0,1,0-.631l1.029-1.022a.439.439,0,0,1,.508-.075l-.2.2.521.521.2-.2a.439.439,0,0,1-.075.508Z" transform="translate(-158.296 -102.106)" fill="#263238"/>
      <rect id="Rectangle_155" data-name="Rectangle 155" width="5.2" height="0.768" transform="translate(123.459 59.051)" fill="#263238"/>
      <rect id="Rectangle_156" data-name="Rectangle 156" width="8.28" height="0.768" transform="translate(121.916 60.869)" fill="#263238"/>
      <rect id="Rectangle_157" data-name="Rectangle 157" width="5.2" height="0.768" transform="translate(123.459 62.68)" fill="#263238"/>
      <rect id="Rectangle_158" data-name="Rectangle 158" width="6.743" height="0.768" transform="translate(122.684 64.491)" fill="#263238"/>
      <path id="Path_783" data-name="Path 783" d="M255.835,161.561a.748.748,0,1,1-.748-.741.748.748,0,0,1,.748.741Z" transform="translate(-146.377 -102.126)" fill="#263238"/>
      <path id="Path_784" data-name="Path 784" d="M255.835,165.528a.741.741,0,1,1-.217-.531.748.748,0,0,1,.217.531Z" transform="translate(-146.377 -103.369)" fill="#263238"/>
      <path id="Path_785" data-name="Path 785" d="M255.835,169.491a.748.748,0,1,1-.748-.741.748.748,0,0,1,.748.741Z" transform="translate(-146.377 -104.616)" fill="#263238"/>
      <rect id="Rectangle_159" data-name="Rectangle 159" width="5.2" height="0.768" transform="translate(111.022 59.051)" fill="#263238"/>
      <rect id="Rectangle_160" data-name="Rectangle 160" width="5.2" height="0.768" transform="translate(111.022 61.774)" fill="#263238"/>
      <rect id="Rectangle_161" data-name="Rectangle 161" width="5.2" height="0.768" transform="translate(111.022 64.491)" fill="#263238"/>
      <path id="Path_786" data-name="Path 786" d="M189.831,165.91l-1.441,1.434-1.441-1.434Z" transform="translate(-125.217 -103.724)" fill="#263238"/>
      <rect id="Rectangle_162" data-name="Rectangle 162" width="2.929" height="0.576" transform="translate(98.249 63.846)" fill="#263238"/>
      <path id="Path_787" data-name="Path 787" d="M156.5,183.916h29.32a.871.871,0,0,0,0-1.736H156.5a.871.871,0,0,0,0,1.736Z" transform="translate(-115.405 -108.833)" fill="#263238"/>
      <path id="Path_788" data-name="Path 788" d="M205.907,183.916h23.139a.871.871,0,0,0,0-1.736H205.907a.871.871,0,0,0,0,1.736Z" transform="translate(-130.92 -108.833)" fill="#263238"/>
      <path id="Path_789" data-name="Path 789" d="M246.487,183.916h20.079a.871.871,0,0,0,0-1.736H246.487a.871.871,0,0,0,0,1.736Z" transform="translate(-143.662 -108.833)" fill="#263238"/>
      <path id="Path_790" data-name="Path 790" d="M282.277,183.916h20.072a.871.871,0,0,0,0-1.736H282.277a.871.871,0,0,0,0,1.736Z" transform="translate(-154.9 -108.833)" fill="#263238"/>
      <path id="Path_791" data-name="Path 791" d="M156.464,196.3H177.7a.864.864,0,0,0,0-1.729H156.464a.864.864,0,0,0,0,1.729Z" transform="translate(-115.373 -112.723)" fill="#263238"/>
      <path id="Path_792" data-name="Path 792" d="M194.084,196.3h23.784a.864.864,0,0,0,0-1.729H194.084a.864.864,0,0,0,0,1.729Z" transform="translate(-127.186 -112.723)" fill="#263238"/>
      <path id="Path_793" data-name="Path 793" d="M235.6,196.3h19.517a.864.864,0,1,0,0-1.729H235.6a.864.864,0,1,0,0,1.729Z" transform="translate(-140.223 -112.723)" fill="#263238"/>
      <path id="Path_794" data-name="Path 794" d="M270.6,196.3h28.057a.864.864,0,0,0,0-1.729H270.6a.864.864,0,1,0,0,1.729Z" transform="translate(-151.213 -112.723)" fill="#263238"/>
      <path id="Path_795" data-name="Path 795" d="M156.5,208.686h27.028a.871.871,0,0,0,0-1.736H156.5a.871.871,0,0,0,0,1.736Z" transform="translate(-115.405 -116.611)" fill="#263238"/>
      <path id="Path_796" data-name="Path 796" d="M202.557,208.686h25.43a.871.871,0,0,0,0-1.736H202.537a.871.871,0,0,0,0,1.736Z" transform="translate(-129.862 -116.611)" fill="#263238"/>
      <path id="Path_797" data-name="Path 797" d="M246.487,208.686H275.3a.871.871,0,0,0,0-1.736H246.487a.871.871,0,0,0,0,1.736Z" transform="translate(-143.662 -116.611)" fill="#263238"/>
      <path id="Path_798" data-name="Path 798" d="M295.027,208.686h11.326a.871.871,0,0,0,0-1.736H295.027a.871.871,0,0,0,0,1.736Z" transform="translate(-158.904 -116.611)" fill="#263238"/>
      <path id="Path_799" data-name="Path 799" d="M156.5,221.066h22.638a.871.871,0,0,0,0-1.736H156.5a.871.871,0,0,0,0,1.736Z" transform="translate(-115.405 -120.498)" fill="#263238"/>
      <path id="Path_800" data-name="Path 800" d="M196.187,221.066H218.55a.871.871,0,0,0,0-1.736H196.187a.871.871,0,0,0,0,1.736Z" transform="translate(-127.868 -120.498)" fill="#263238"/>
      <path id="Path_801" data-name="Path 801" d="M235.637,221.066H250.9a.871.871,0,0,0,0-1.736H235.637a.871.871,0,0,0,0,1.736Z" transform="translate(-140.255 -120.498)" fill="#263238"/>
      <path id="Path_802" data-name="Path 802" d="M264.377,221.066h32.352a.871.871,0,0,0,0-1.736H264.377a.871.871,0,0,0,0,1.736Z" transform="translate(-149.279 -120.498)" fill="#263238"/>
      <g id="Group_9" data-name="Group 9" transform="translate(40.227 73.347)" opacity="0.3">
        <path id="Path_803" data-name="Path 803" d="M156.5,183.916h29.32a.871.871,0,0,0,0-1.736H156.5a.871.871,0,0,0,0,1.736Z" transform="translate(-155.632 -182.18)" fill="#fff"/>
        <path id="Path_804" data-name="Path 804" d="M205.907,183.916h23.139a.871.871,0,0,0,0-1.736H205.907a.871.871,0,0,0,0,1.736Z" transform="translate(-171.147 -182.18)" fill="#fff"/>
        <path id="Path_805" data-name="Path 805" d="M246.487,183.916h20.079a.871.871,0,0,0,0-1.736H246.487a.871.871,0,0,0,0,1.736Z" transform="translate(-183.889 -182.18)" fill="#fff"/>
        <path id="Path_806" data-name="Path 806" d="M282.277,183.916h20.072a.871.871,0,0,0,0-1.736H282.277a.871.871,0,0,0,0,1.736Z" transform="translate(-195.127 -182.18)" fill="#fff"/>
        <path id="Path_807" data-name="Path 807" d="M156.464,196.3H177.7a.864.864,0,0,0,0-1.729H156.464a.864.864,0,0,0,0,1.729Z" transform="translate(-155.6 -186.07)" fill="#fff"/>
        <path id="Path_808" data-name="Path 808" d="M194.084,196.3h23.784a.864.864,0,0,0,0-1.729H194.084a.864.864,0,0,0,0,1.729Z" transform="translate(-167.413 -186.07)" fill="#fff"/>
        <path id="Path_809" data-name="Path 809" d="M235.6,196.3h19.517a.864.864,0,1,0,0-1.729H235.6a.864.864,0,1,0,0,1.729Z" transform="translate(-180.45 -186.07)" fill="#fff"/>
        <path id="Path_810" data-name="Path 810" d="M270.6,196.3h28.057a.864.864,0,0,0,0-1.729H270.6a.864.864,0,1,0,0,1.729Z" transform="translate(-191.44 -186.07)" fill="#fff"/>
        <path id="Path_811" data-name="Path 811" d="M156.5,208.686h27.028a.871.871,0,0,0,0-1.736H156.5a.871.871,0,0,0,0,1.736Z" transform="translate(-155.632 -189.958)" fill="#fff"/>
        <path id="Path_812" data-name="Path 812" d="M202.557,208.686h25.43a.871.871,0,0,0,0-1.736H202.537a.871.871,0,0,0,0,1.736Z" transform="translate(-170.089 -189.958)" fill="#fff"/>
        <path id="Path_813" data-name="Path 813" d="M246.487,208.686H275.3a.871.871,0,0,0,0-1.736H246.487a.871.871,0,0,0,0,1.736Z" transform="translate(-183.889 -189.958)" fill="#fff"/>
        <path id="Path_814" data-name="Path 814" d="M295.027,208.686h11.326a.871.871,0,0,0,0-1.736H295.027a.871.871,0,0,0,0,1.736Z" transform="translate(-199.131 -189.958)" fill="#fff"/>
        <path id="Path_815" data-name="Path 815" d="M156.5,221.066h22.638a.871.871,0,0,0,0-1.736H156.5a.871.871,0,0,0,0,1.736Z" transform="translate(-155.632 -193.845)" fill="#fff"/>
        <path id="Path_816" data-name="Path 816" d="M196.187,221.066H218.55a.871.871,0,0,0,0-1.736H196.187a.871.871,0,0,0,0,1.736Z" transform="translate(-168.095 -193.845)" fill="#fff"/>
        <path id="Path_817" data-name="Path 817" d="M235.637,221.066H250.9a.871.871,0,0,0,0-1.736H235.637a.871.871,0,0,0,0,1.736Z" transform="translate(-180.482 -193.845)" fill="#fff"/>
        <path id="Path_818" data-name="Path 818" d="M264.377,221.066h32.352a.871.871,0,0,0,0-1.736H264.377a.871.871,0,0,0,0,1.736Z" transform="translate(-189.507 -193.845)" fill="#fff"/>
      </g>
      <rect id="Rectangle_163" data-name="Rectangle 163" width="41.723" height="39.418" rx="5.2" transform="translate(32.05 81.154)" fill="#fab228"/>
      <rect id="Rectangle_164" data-name="Rectangle 164" width="41.723" height="39.418" rx="5.2" transform="translate(30.506 81.154)" fill="#fab228"/>
      <rect id="Rectangle_165" data-name="Rectangle 165" width="41.723" height="39.418" rx="5.2" transform="translate(30.506 81.154)" fill="#fff" opacity="0.6"/>
      <path id="Path_819" data-name="Path 819" d="M150.477,208.686h28.812a.871.871,0,0,0,0-1.736H150.477a.871.871,0,0,0,0,1.736Z" transform="translate(-113.515 -116.611)" fill="#263238"/>
      <path id="Path_820" data-name="Path 820" d="M150.444,233.779h28.812a.864.864,0,1,0,0-1.729H150.444a.864.864,0,1,0,0,1.729Z" transform="translate(-113.483 -124.492)" fill="#263238"/>
      <path id="Path_821" data-name="Path 821" d="M150.477,221.066h28.812a.871.871,0,0,0,0-1.736H150.477a.871.871,0,0,0,0,1.736Z" transform="translate(-113.515 -120.498)" fill="#263238"/>
      <g id="Group_10" data-name="Group 10" transform="translate(36.097 90.339)" opacity="0.1">
        <path id="Path_822" data-name="Path 822" d="M150.477,208.686h28.812a.871.871,0,0,0,0-1.736H150.477a.871.871,0,0,0,0,1.736Z" transform="translate(-149.612 -206.95)" fill="#fff"/>
        <path id="Path_823" data-name="Path 823" d="M150.444,233.779h28.812a.864.864,0,1,0,0-1.729H150.444a.864.864,0,1,0,0,1.729Z" transform="translate(-149.58 -214.831)" fill="#fff"/>
        <path id="Path_824" data-name="Path 824" d="M150.477,221.066h28.812a.871.871,0,0,0,0-1.736H150.477a.871.871,0,0,0,0,1.736Z" transform="translate(-149.612 -210.837)" fill="#fff"/>
      </g>
      <rect id="Rectangle_166" data-name="Rectangle 166" width="6.297" height="4.239" rx="1.42" transform="translate(59.49 112.929)" fill="#fab228"/>
      <rect id="Rectangle_167" data-name="Rectangle 167" width="6.297" height="4.239" rx="1.42" transform="translate(51.375 112.929)" fill="#fff" opacity="0.8"/>
    </g>
    <g id="freepik--Plant--inject-1" transform="translate(83.047 238.759)">
      <path id="Path_825" data-name="Path 825" d="M154.286,363.083s-2.147-32.5,2.36-40.213c0,0,5.015,6.675,3.108,40.213Z" transform="translate(-131.332 -322.87)" fill="#fab228"/>
      <path id="Path_826" data-name="Path 826" d="M162.49,365.95s1.036-29.23,15.387-33.95a79.817,79.817,0,0,0-9.151,33.984Z" transform="translate(-134.069 -325.737)" fill="#fab228"/>
      <path id="Path_827" data-name="Path 827" d="M148.177,365.934s-1.015-29.23-15.387-33.984a79.878,79.878,0,0,1,9.158,33.984Z" transform="translate(-124.743 -325.721)" fill="#fab228"/>
      <g id="Group_11" data-name="Group 11" transform="translate(8.047)" opacity="0.3">
        <path id="Path_828" data-name="Path 828" d="M154.286,363.083s-2.147-32.5,2.36-40.213c0,0,5.015,6.675,3.108,40.213Z" transform="translate(-139.379 -322.87)" fill="#fff"/>
        <path id="Path_829" data-name="Path 829" d="M162.49,365.95s1.036-29.23,15.387-33.95a79.817,79.817,0,0,0-9.151,33.984Z" transform="translate(-142.116 -325.737)" fill="#fff"/>
        <path id="Path_830" data-name="Path 830" d="M148.177,365.934s-1.015-29.23-15.387-33.984a79.878,79.878,0,0,1,9.158,33.984Z" transform="translate(-132.79 -325.721)" fill="#fff"/>
      </g>
      <path id="Path_831" data-name="Path 831" d="M135.329,369.3s-3.341-23.413-14.269-29.916c0,0,18.954-1.564,18.522,29.916Z" transform="translate(-121.06 -328.051)" fill="#fab228"/>
      <path id="Path_832" data-name="Path 832" d="M146.339,364.832s3.979-25.238-8.589-37.2c0,0,17.761,3.9,13.075,37.984Z" transform="translate(-126.301 -324.365)" fill="#fab228"/>
      <path id="Path_833" data-name="Path 833" d="M173.41,369.3s3.341-23.413,14.269-29.916c0,0-18.954-1.564-18.522,29.916Z" transform="translate(-136.16 -328.051)" fill="#fab228"/>
      <path id="Path_834" data-name="Path 834" d="M164.584,364.832s-3.979-25.238,8.582-37.2c0,0-17.754,3.9-13.075,37.984Z" transform="translate(-133.069 -324.365)" fill="#fab228"/>
      <g id="Group_12" data-name="Group 12" transform="translate(0 3.265)" opacity="0.5">
        <path id="Path_835" data-name="Path 835" d="M135.329,369.3s-3.341-23.413-14.269-29.916c0,0,18.954-1.564,18.522,29.916Z" transform="translate(-121.06 -331.317)" fill="#fff"/>
        <path id="Path_836" data-name="Path 836" d="M146.339,364.832s3.979-25.238-8.589-37.2c0,0,17.761,3.9,13.075,37.984Z" transform="translate(-126.301 -327.63)" fill="#fff"/>
        <path id="Path_837" data-name="Path 837" d="M173.41,369.3s3.341-23.413,14.269-29.916c0,0-18.954-1.564-18.522,29.916Z" transform="translate(-136.16 -331.317)" fill="#fff"/>
        <path id="Path_838" data-name="Path 838" d="M164.584,364.832s-3.979-25.238,8.582-37.2c0,0-17.754,3.9-13.075,37.984Z" transform="translate(-133.069 -327.63)" fill="#fff"/>
      </g>
      <path id="Path_839" data-name="Path 839" d="M163.028,397.8H139.4L134.82,372.64h32.791Z" transform="translate(-125.381 -338.498)" fill="#263238"/>
    </g>
    <g id="freepik--Mug--inject-1" transform="translate(150.907 193.743)">
      <path id="Path_840" data-name="Path 840" d="M232.253,257.25H223.6a.933.933,0,0,0-.919,1.1v.075a2.422,2.422,0,0,0-1.3.041c-1.564.473-1.605,1.859-1.139,3.43s1.269,2.7,2.826,2.236a2.744,2.744,0,0,0,.686-.336,4.3,4.3,0,0,0,1.454,1.832v1.146h5.365v-1.146a4.363,4.363,0,0,0,1.729-2.744l.837-4.541a.94.94,0,0,0-.885-1.1Zm-9.391,5.886c-1.022.309-1.55-.439-1.859-1.468s-.274-1.941.748-2.243a1.509,1.509,0,0,1,1.146.082l.6,3.279A1.591,1.591,0,0,1,222.862,263.136Z" transform="translate(-219.981 -257.25)" fill="#263238"/>
      <path id="Path_841" data-name="Path 841" d="M232.253,257.25H223.6a.933.933,0,0,0-.919,1.1v.075a2.422,2.422,0,0,0-1.3.041c-1.564.473-1.605,1.859-1.139,3.43s1.269,2.7,2.826,2.236a2.744,2.744,0,0,0,.686-.336,4.3,4.3,0,0,0,1.454,1.832v1.146h5.365v-1.146a4.363,4.363,0,0,0,1.729-2.744l.837-4.541a.94.94,0,0,0-.885-1.1Zm-9.391,5.886c-1.022.309-1.55-.439-1.859-1.468s-.274-1.941.748-2.243a1.509,1.509,0,0,1,1.146.082l.6,3.279A1.591,1.591,0,0,1,222.862,263.136Z" transform="translate(-219.981 -257.25)" fill="#fff" opacity="0.7"/>
      <path id="Path_842" data-name="Path 842" d="M223.251,264.1c-1.022.309-1.55-.439-1.859-1.468s-.274-1.941.748-2.243a1.509,1.509,0,0,1,1.146.082l.6,3.279A1.591,1.591,0,0,1,223.251,264.1Z" transform="translate(-220.371 -258.211)" fill="#fff" opacity="0.5"/>
      <path id="Path_843" data-name="Path 843" d="M231.688,272.135h-5.824a2.127,2.127,0,0,1-1.015-.261l-1.948-1.084a.391.391,0,0,1,.185-.741h11.422a.391.391,0,0,1,.192.741l-1.969,1.084a2.133,2.133,0,0,1-1.043.261Z" transform="translate(-220.83 -261.269)" fill="#263238"/>
      <path id="Path_844" data-name="Path 844" d="M231.688,272.135h-5.824a2.127,2.127,0,0,1-1.015-.261l-1.948-1.084a.391.391,0,0,1,.185-.741h11.422a.391.391,0,0,1,.192.741l-1.969,1.084a2.133,2.133,0,0,1-1.043.261Z" transform="translate(-220.83 -261.269)" fill="#fff" opacity="0.6"/>
    </g>
    <g id="freepik--Character--inject-1" transform="translate(186.323 138.437)">
      <path id="Path_845" data-name="Path 845" d="M297.313,385.347H294.02l3.842-51.107h4.384Z" transform="translate(-278.645 -226.119)" fill="#fab228"/>
      <path id="Path_846" data-name="Path 846" d="M297.313,385.347H294.02l3.842-51.107h4.384Z" transform="translate(-278.645 -226.119)" fill="#fff" opacity="0.7"/>
      <g id="Group_13" data-name="Group 13" transform="translate(42.369 108.121)" opacity="0.4">
        <path id="Path_847" data-name="Path 847" d="M336.663,385.347H333.37l3.842-51.107H341.6Z" transform="translate(-333.37 -334.24)" fill="#fab228"/>
      </g>
      <path id="Path_848" data-name="Path 848" d="M383.389,385.347h3.286L382.84,334.24h-4.39Z" transform="translate(-305.156 -226.119)" fill="#fab228"/>
      <g id="Group_14" data-name="Group 14" transform="translate(73.294 108.121)" opacity="0.4">
        <path id="Path_849" data-name="Path 849" d="M383.389,385.347h3.286L382.84,334.24h-4.39Z" transform="translate(-378.45 -334.24)" fill="#fff"/>
      </g>
      <rect id="Rectangle_168" data-name="Rectangle 168" width="54.002" height="4.775" transform="translate(21.659 108.121)" fill="#fab228"/>
      <rect id="Rectangle_169" data-name="Rectangle 169" width="54.002" height="4.775" transform="translate(21.659 108.121)" fill="#fff" opacity="0.5"/>
      <path id="Path_850" data-name="Path 850" d="M344.039,385.347h3.286L343.49,334.24H339.1Z" transform="translate(-292.8 -226.119)" fill="#fab228"/>
      <path id="Path_851" data-name="Path 851" d="M344.039,385.347h3.286L343.49,334.24H339.1Z" transform="translate(-292.8 -226.119)" fill="#fff" opacity="0.7"/>
      <path id="Path_852" data-name="Path 852" d="M366.025,247.3h-8.952a12.183,12.183,0,0,0-10.976,6.935l-25.2,52.705h42.6a5.708,5.708,0,0,0,5.673-5.077l5.015-45.488a8.177,8.177,0,0,0-8.163-9.076Z" transform="translate(-287.085 -198.819)" fill="#263238"/>
      <path id="Path_853" data-name="Path 853" d="M366.025,247.3h-8.952a12.183,12.183,0,0,0-10.976,6.935l-25.2,52.705h42.6a5.708,5.708,0,0,0,5.673-5.077l5.015-45.488a8.177,8.177,0,0,0-8.163-9.076Z" transform="translate(-287.085 -198.819)" fill="#fff" opacity="0.4"/>
      <path id="Path_854" data-name="Path 854" d="M358.084,247.3h-8.918a12.2,12.2,0,0,0-10.976,6.935L313,306.941h41.757a6.633,6.633,0,0,0,6.592-5.905l4.926-44.66a8.177,8.177,0,0,0-8.191-9.076Z" transform="translate(-284.605 -198.819)" fill="#263238"/>
      <path id="Path_855" data-name="Path 855" d="M358.084,247.3h-8.918a12.2,12.2,0,0,0-10.976,6.935L313,306.941h41.757a6.633,6.633,0,0,0,6.592-5.905l4.926-44.66a8.177,8.177,0,0,0-8.191-9.076Z" transform="translate(-284.605 -198.819)" fill="#fff" opacity="0.3"/>
      <path id="Path_856" data-name="Path 856" d="M333.644,328.893H298.658a5.838,5.838,0,0,1-5.838-5.845h0a5.838,5.838,0,0,1,5.838-5.838h34.986Z" transform="translate(-278.268 -220.771)" fill="#263238"/>
      <path id="Path_857" data-name="Path 857" d="M333.644,328.893H298.658a5.838,5.838,0,0,1-5.838-5.845h0a5.838,5.838,0,0,1,5.838-5.838h34.986Z" transform="translate(-278.268 -220.771)" fill="#fff" opacity="0.3"/>
      <path id="Path_858" data-name="Path 858" d="M370.6,328.893H347.961a5.591,5.591,0,0,1-5.591-5.591v-.5a5.591,5.591,0,0,1,5.591-5.591H370.6a5.838,5.838,0,0,1,5.845,5.838h0a5.838,5.838,0,0,1-5.845,5.845Z" transform="translate(-293.827 -220.771)" fill="#263238"/>
      <path id="Path_859" data-name="Path 859" d="M370.6,328.893H347.961a5.591,5.591,0,0,1-5.591-5.591v-.5a5.591,5.591,0,0,1,5.591-5.591H370.6a5.838,5.838,0,0,1,5.845,5.838h0a5.838,5.838,0,0,1-5.845,5.845Z" transform="translate(-293.827 -220.771)" fill="#fff" opacity="0.4"/>
      <path id="Path_860" data-name="Path 860" d="M334.617,199.491s-3.012,9.446,0,6.277c0,0-2.2,10.51,1.866,3.547,0,0-1.928,9.371,1.235,9.453s12.3-.343,12.3-.343l2.408-4.191.947-2.476s4.665.686,3.43-3.848a95.788,95.788,0,0,0-4.178-10.928l-3.094-3.78-13.013,2.422Z" transform="translate(-290.972 -181.832)" fill="#263238"/>
      <path id="Path_861" data-name="Path 861" d="M334.617,199.491s-3.012,9.446,0,6.277c0,0-2.2,10.51,1.866,3.547,0,0-1.928,9.371,1.235,9.453s12.3-.343,12.3-.343l2.408-4.191.947-2.476s4.665.686,3.43-3.848a95.788,95.788,0,0,0-4.178-10.928l-3.094-3.78-13.013,2.422Z" transform="translate(-290.972 -181.832)" opacity="0.6"/>
      <path id="Path_862" data-name="Path 862" d="M314.022,239.8s.4,7.964-4.027,11.751a48,48,0,0,1-10.372,6.126l-5.392-1.591a1.372,1.372,0,0,0-1.434.412l-2.607,2.97a1.372,1.372,0,0,0,.178,2h0a1.372,1.372,0,0,0,1.029.288l2.854-.343a23.325,23.325,0,0,0,3.43.418,18.742,18.742,0,0,0,2.62-.72s9.8-.844,14.186-5.008,5.879-12.8,5.879-12.8Z" transform="translate(-277.333 -196.464)" fill="#ebb376"/>
      <path id="Path_863" data-name="Path 863" d="M329.992,218.789c-3.505-.528-5.961,8.157-6.572,16.361l8.232,2.95S336.53,219.784,329.992,218.789Z" transform="translate(-287.877 -189.86)" fill="#fab228"/>
      <path id="Path_864" data-name="Path 864" d="M332.672,239.31s2.449-9.179,1.557-14.893L329.1,222.51s-3.739,8.047-1.811,26.85c2.627-3.382,3.958-8.232,4.445-10.393Z" transform="translate(-288.918 -191.035)" opacity="0.1"/>
      <path id="Path_865" data-name="Path 865" d="M282.93,376.226l.6,18.6H287.7l1.948-18.934Z" transform="translate(-275.163 -239.197)" fill="#ebb376"/>
      <path id="Path_866" data-name="Path 866" d="M279.917,400.709h4.747a.432.432,0,0,1,.425.343l.981,4.466a.727.727,0,0,1-.549.878.621.621,0,0,1-.158,0c-1.976-.041-3.732-.151-6.174-.158-2.9,0-2.168.343-5.584.384-2.058,0-2.428-2.319-1.557-2.428,4-.494,5.152-1.708,6.7-3.135a1.8,1.8,0,0,1,1.173-.35Z" transform="translate(-271.607 -246.989)" fill="#263238"/>
      <path id="Path_867" data-name="Path 867" d="M288.271,395.455l.466-4.555H283.4l.151,4.555Z" transform="translate(-275.31 -243.91)" fill="#263238" opacity="0.1"/>
      <path id="Path_868" data-name="Path 868" d="M331.212,274.125s12.972,29.5.514,29.5H295.752s-1.557,7.841-7.162,50.929h-6.016s-2.867-50.462.46-57.994c2.607-5.893,21.163-10.112,29.073-11.662a5.049,5.049,0,0,0,4.041-4.281l1.756-7.244Z" transform="translate(-274.69 -207.005)" fill="#263238"/>
      <path id="Path_869" data-name="Path 869" d="M281.43,390.17l.48,3.272h7.148l.659-3.272Z" transform="translate(-274.692 -243.681)" fill="#263238"/>
      <path id="Path_870" data-name="Path 870" d="M281.43,390.17l.48,3.272h7.148l.659-3.272Z" transform="translate(-274.692 -243.681)" fill="#fff" opacity="0.3"/>
      <path id="Path_871" data-name="Path 871" d="M310.532,298.919,333.28,287.7v-6.174l-3.43-6.819s-.391,6.949-5.193,9.419-23.166,3.588-27.5,9.405c-3.471,4.658-.583,19.894.686,25.718,1.756-12.273,2.346-15.236,2.346-15.236h5.262l.446-1.763Z" transform="translate(-279.111 -207.426)" opacity="0.4"/>
      <path id="Path_872" data-name="Path 872" d="M307.23,376.236l1.66,18.35,3.986-.007,1.873-18.68Z" transform="translate(-282.793 -239.2)" fill="#ebb376"/>
      <path id="Path_873" data-name="Path 873" d="M305.267,400.709h4.747a.446.446,0,0,1,.432.343l.981,4.466a.734.734,0,0,1-.556.878.581.581,0,0,1-.158,0c-1.976-.041-3.732-.151-6.174-.158-2.9,0-2.168.343-5.584.384-2.058,0-2.428-2.319-1.557-2.428,4-.494,5.152-1.708,6.7-3.135a1.8,1.8,0,0,1,1.173-.35Z" transform="translate(-279.567 -246.989)" fill="#263238"/>
      <path id="Path_874" data-name="Path 874" d="M313.671,395.455l.46-4.555H308.54l.412,4.555Z" transform="translate(-283.204 -243.91)" fill="#263238" opacity="0.1"/>
      <path id="Path_875" data-name="Path 875" d="M346.485,274.62s1.015,2.95,2.332,6.963c2.826,8.568,4.363,22-4.116,22H314.374s3.313,3.2-2.538,50.929h-6.016s-8-52.006-4.678-59.531c2.566-5.8,18.1-8.445,25.1-9.357a4.274,4.274,0,0,0,3.7-3.883l.686-8.41Z" transform="translate(-280.627 -206.993)" fill="#263238"/>
      <path id="Path_876" data-name="Path 876" d="M306.75,390.17l.693,3.272h6.936l.665-3.272Z" transform="translate(-282.642 -243.681)" fill="#263238"/>
      <path id="Path_877" data-name="Path 877" d="M306.75,390.17l.693,3.272h6.936l.665-3.272Z" transform="translate(-282.642 -243.681)" fill="#fff" opacity="0.3"/>
      <path id="Path_878" data-name="Path 878" d="M331.96,259.31a117.392,117.392,0,0,0-.686-13.171c-.885-8.445-2.607-18.913-1.523-24.916a3.334,3.334,0,0,1,3.348-2.744H356a2.456,2.456,0,0,1,2.4,2.792c-1.132,6.428-4.006,23.427-1.77,38.546C356.663,259.8,339.095,261.2,331.96,259.31Z" transform="translate(-289.756 -189.77)" fill="#fab228"/>
      <path id="Path_879" data-name="Path 879" d="M359.806,260.061c-.069-2.106-.069-4.191,0-6.215l-3.691-.336-6.723,6.668-5.858,1.633L340.55,264.6s13.665-.37,17.52-3.1A18.708,18.708,0,0,0,359.806,260.061Z" transform="translate(-293.255 -200.769)" opacity="0.1"/>
      <path id="Path_880" data-name="Path 880" d="M349.416,201.19c-.357,3.313.549,10.365,3.018,12.348,0,0-.912,4.315-8.321,4.994-4.514-1.989-2.833-5.66-2.833-5.66,3.553-1.2,3.91-3.361,3.094-5.838Z" transform="translate(-293.388 -184.341)" fill="#ebb376"/>
      <path id="Path_881" data-name="Path 881" d="M342.065,217.38s-1.989,5.111,3.073,5.131a5.933,5.933,0,0,0,6.332-5.131l1.564.741s-.261,10.228-8.836,5.934c0,0-3.307,2.3-3.752-1.543s.316-4.39.316-4.39Z" transform="translate(-293.179 -189.425)" fill="#fab228"/>
      <path id="Path_882" data-name="Path 882" d="M342.065,217.38s-1.989,5.111,3.073,5.131a5.933,5.933,0,0,0,6.332-5.131l1.564.741s-.261,10.228-8.836,5.934c0,0-3.307,2.3-3.752-1.543s.316-4.39.316-4.39Z" transform="translate(-293.179 -189.425)" fill="#fff" opacity="0.3"/>
      <path id="Path_883" data-name="Path 883" d="M345.7,212.062c1.317,0,3.931-.576,4.919-4.8,1.372-5.769-4.761.96-4.761.96A4.346,4.346,0,0,1,345.7,212.062Z" transform="translate(-294.872 -185.513)" opacity="0.1"/>
      <path id="Path_884" data-name="Path 884" d="M349.436,188.959c.5,5.454.83,7.752-1.475,10.942-3.43,4.8-10.29,4.226-12.382-.967-1.907-4.679-2.4-12.8,2.552-15.778a7.457,7.457,0,0,1,10.249,2.524A7.367,7.367,0,0,1,349.436,188.959Z" transform="translate(-291.269 -178.339)" fill="#ebb376"/>
      <path id="Path_885" data-name="Path 885" d="M339.183,199.63a11.966,11.966,0,0,1-1.063,3.08,1.921,1.921,0,0,0,1.612,0Z" transform="translate(-292.492 -183.851)" fill="#d58745"/>
      <path id="Path_886" data-name="Path 886" d="M343.532,194.192a.219.219,0,0,0,.089-.069.213.213,0,0,0-.034-.3h0a2.531,2.531,0,0,0-2.291-.466.22.22,0,0,0,.137.412,2.113,2.113,0,0,1,1.893.4A.233.233,0,0,0,343.532,194.192Z" transform="translate(-293.452 -181.85)" fill="#2e353a"/>
      <path id="Path_887" data-name="Path 887" d="M333.488,195.615a.3.3,0,0,1-.11-.041.213.213,0,0,1-.055-.295h0a2.545,2.545,0,0,1,2.058-1.159.22.22,0,0,1,.213.22.213.213,0,0,1-.213.213,2.147,2.147,0,0,0-1.674.974A.24.24,0,0,1,333.488,195.615Z" transform="translate(-290.974 -182.121)" fill="#2e353a"/>
      <path id="Path_888" data-name="Path 888" d="M343.521,197.457c.082.432-.089.83-.377.885s-.576-.261-.652-.686.089-.83.37-.878S343.431,197.011,343.521,197.457Z" transform="translate(-293.859 -182.954)" fill="#2e353a"/>
      <path id="Path_889" data-name="Path 889" d="M336.269,198.743c.075.439-.089.83-.377.885s-.576-.261-.686-.686.089-.83.37-.885S336.194,198.3,336.269,198.743Z" transform="translate(-291.568 -183.355)" fill="#2e353a"/>
      <path id="Path_890" data-name="Path 890" d="M335.494,197.95l-1.1-.11S335.076,198.588,335.494,197.95Z" transform="translate(-291.321 -183.289)" fill="#2e353a"/>
      <path id="Path_891" data-name="Path 891" d="M342.7,196.7l-1.1-.117S342.286,197.307,342.7,196.7Z" transform="translate(-293.585 -182.893)" fill="#2e353a"/>
      <path id="Path_892" data-name="Path 892" d="M344.535,184.834s-11.662,5.289-8.081,0c0,0-6.716,4.528-4.836.981s3.43-3.9,3.43-3.9-1.77.6-1.619-.761,3.951-3.43,7.141-2.312c0,0-.995-1.537.069-2.14s3.2,2.566,3.2,2.566,5.022-1.111,5.55.089-1.111,1.022-1.111,1.022,5.57,1.8,5.145,3.169-1.406.508-1.406.508,4.582,5.4,3.636,7.278-2.655-.329-2.655-.329,4.63,7.031,2.655,8.6-3.684-2.744-3.684-2.744,2.669,6.675.775,7.182-2.545-4.466-2.545-4.466.686,4.047-.809,4.041-2.133-12.67-2.133-12.67S345.825,195.947,344.535,184.834Z" transform="translate(-290.346 -176.629)" fill="#263238"/>
      <path id="Path_893" data-name="Path 893" d="M357.466,197.07a3.993,3.993,0,0,1-1.523,2.641c-1.132.837-2.2-.048-2.3-1.372-.1-1.187.37-3.06,1.708-3.375a1.818,1.818,0,0,1,2.133,1.406A1.75,1.75,0,0,1,357.466,197.07Z" transform="translate(-297.363 -182.375)" fill="#ebb376"/>
      <path id="Path_894" data-name="Path 894" d="M342.4,206.688a3.744,3.744,0,0,1-.48.11.1.1,0,0,1-.11-.082h0a.1.1,0,0,1,.082-.11,2.662,2.662,0,0,0,1.976-1.372.1.1,0,1,1,.178.082A2.744,2.744,0,0,1,342.4,206.688Z" transform="translate(-293.651 -185.592)" fill="#263238"/>
      <path id="Path_895" data-name="Path 895" d="M363.217,227.44s-1.845,9.3-3.217,11.84l4.116.515,1.763-11.532Z" transform="translate(-299.363 -192.583)" opacity="0.1"/>
      <path id="Path_896" data-name="Path 896" d="M351.194,236.61s1.029,9.439-3.718,12.348-14.989,6.99-14.989,6.99l-6.174-1.317a.823.823,0,0,0-.851.343l-2.7,4.02a.816.816,0,0,0,.034.96h0a.823.823,0,0,0,.727.309l3.78-.391a17.159,17.159,0,0,0,2.586.439,21.945,21.945,0,0,0,3.265-.761s14.406-1.372,19.043-5.776,5.666-13.466,5.666-13.466Z" transform="translate(-287.627 -195.463)" fill="#ebb376"/>
      <path id="Path_897" data-name="Path 897" d="M367.249,218.741c-4.425-.528-3.766,9.426-4.679,16.4l8.232,1.921S373.841,219.53,367.249,218.741Z" transform="translate(-300.17 -189.845)" fill="#fab228"/>
    </g>
    <g id="freepik--Device--inject-1" transform="translate(165.349 176.827)">
      <path id="Path_898" data-name="Path 898" d="M291.851,272.129a.954.954,0,0,1,0-1.9h25.814a.954.954,0,1,1,0,1.9Z" transform="translate(-256.716 -244.407)" fill="#263238"/>
      <path id="Path_899" data-name="Path 899" d="M291.512,258.679l-3.43-24.456a1.934,1.934,0,0,0-1.859-1.633H282.93v27.721h7.182a1.372,1.372,0,0,0,1.4-1.633Z" transform="translate(-254.189 -232.59)" fill="#263238"/>
      <g id="Group_15" data-name="Group 15" transform="translate(28.741)" opacity="0.1">
        <path id="Path_900" data-name="Path 900" d="M291.851,272.129a.954.954,0,0,1,0-1.9h25.814a.954.954,0,1,1,0,1.9Z" transform="translate(-285.457 -244.407)" fill="#fff"/>
        <path id="Path_901" data-name="Path 901" d="M291.512,258.679l-3.43-24.456a1.934,1.934,0,0,0-1.859-1.633H282.93v27.721h7.182a1.372,1.372,0,0,0,1.4-1.633Z" transform="translate(-282.93 -232.59)" fill="#fff"/>
      </g>
      <path id="Path_902" data-name="Path 902" d="M275.537,260.314H246.348a1.928,1.928,0,0,1-1.859-1.626l-3.43-24.456a1.372,1.372,0,0,1,1.372-1.633H271.62a1.942,1.942,0,0,1,1.859,1.633l3.43,24.456a1.372,1.372,0,0,1-1.372,1.626Z" transform="translate(-241.033 -232.593)" fill="#263238"/>
      <path id="Path_903" data-name="Path 903" d="M275.537,260.314H246.348a1.928,1.928,0,0,1-1.859-1.626l-3.43-24.456a1.372,1.372,0,0,1,1.372-1.633H271.62a1.942,1.942,0,0,1,1.859,1.633l3.43,24.456a1.372,1.372,0,0,1-1.372,1.626Z" transform="translate(-241.033 -232.593)" fill="#fff" opacity="0.7"/>
      <path id="Path_904" data-name="Path 904" d="M267.918,251.138a1.262,1.262,0,0,1-1.276,1.489,1.777,1.777,0,0,1-1.7-1.489,1.262,1.262,0,0,1,1.283-1.489A1.763,1.763,0,0,1,267.918,251.138Z" transform="translate(-248.534 -237.947)" fill="#fff" opacity="0.7"/>
    </g>
    <g id="freepik--Desk--inject-1" transform="translate(117.656 204.555)">
      <path id="Path_905" data-name="Path 905" d="M183.831,369.6H180.5L179.05,281.61h6.236Z" transform="translate(-173.878 -275.71)" fill="#fab228"/>
      <path id="Path_906" data-name="Path 906" d="M183.831,369.6H180.5L179.05,281.61h6.236Z" transform="translate(-173.878 -275.71)" fill="#fff" opacity="0.7"/>
      <path id="Path_907" data-name="Path 907" d="M237.321,369.6h-3.327L232.54,281.61h6.236Z" transform="translate(-190.673 -275.71)" fill="#fab228"/>
      <path id="Path_908" data-name="Path 908" d="M237.321,369.6h-3.327L232.54,281.61h6.236Z" transform="translate(-190.673 -275.71)" fill="#fff" opacity="0.4"/>
      <rect id="Rectangle_170" data-name="Rectangle 170" width="62.735" height="6.881" transform="translate(8.287 4.425)" fill="#fab228"/>
      <rect id="Rectangle_171" data-name="Rectangle 171" width="62.735" height="6.881" transform="translate(8.287 4.425)" fill="#fff" opacity="0.3"/>
      <rect id="Rectangle_172" data-name="Rectangle 172" width="36.79" height="6.881" transform="translate(71.028 4.425)" fill="#fab228"/>
      <rect id="Rectangle_173" data-name="Rectangle 173" width="36.79" height="6.881" transform="translate(71.028 4.425)" fill="#fff" opacity="0.5"/>
      <path id="Path_909" data-name="Path 909" d="M328.771,369.6h-3.32L323.99,281.61h6.243Z" transform="translate(-219.389 -275.71)" fill="#fab228"/>
      <path id="Path_910" data-name="Path 910" d="M328.771,369.6h-3.32L323.99,281.61h6.243Z" transform="translate(-219.389 -275.71)" fill="#fff" opacity="0.4"/>
      <rect id="Rectangle_174" data-name="Rectangle 174" width="52.664" height="5.9" rx="2.65" transform="translate(61.98)" fill="#263238"/>
      <rect id="Rectangle_175" data-name="Rectangle 175" width="52.664" height="5.9" rx="2.65" transform="translate(61.98)" fill="#fff" opacity="0.4"/>
      <rect id="Rectangle_176" data-name="Rectangle 176" width="70.178" height="5.9" rx="2.65" fill="#263238"/>
      <rect id="Rectangle_177" data-name="Rectangle 177" width="70.178" height="5.9" rx="2.65" fill="#fff" opacity="0.3"/>
      <path id="Path_911" data-name="Path 911" d="M275.281,369.6h-3.327L270.5,281.61h6.236Z" transform="translate(-202.593 -275.71)" fill="#fab228"/>
      <path id="Path_912" data-name="Path 912" d="M275.281,369.6h-3.327L270.5,281.61h6.236Z" transform="translate(-202.593 -275.71)" fill="#fff" opacity="0.7"/>
    </g>
  </g>
</svg>
