<?xml version="1.0" encoding="UTF-8"?>
<svg id="Layer_1" data-name="Layer 1" xmlns="http://www.w3.org/2000/svg" viewBox="0 0 453.59 426.75">
  <g id="Background_Complete" data-name="Background Complete">
    <g>
      <path d="m26.74,195.8l1.89,34.72c.07,1.24,1.08,2.21,2.32,2.22l62.48.46c1.29,0,2.35-1.03,2.36-2.33l.2-27.03c0-1.3-1.04-2.36-2.34-2.36l-38.43-.03c-.62,0-1.22-.25-1.66-.69l-6.63-6.63c-.44-.44-1.02-.68-1.64-.69l-16.2-.12c-1.35,0-2.43,1.12-2.36,2.47h0Z" style="fill: #ebebeb; stroke-width: 0px;"/>
      <rect x="41.36" y="183.41" width="40.79" height="68.27" transform="translate(-156.23 277.7) rotate(-89.58)" style="fill: #f5f5f5; stroke-width: 0px;"/>
      <path d="m22.32,200.52l4.9,42.58c.09.76.72,1.33,1.49,1.34l66.53.49c.79,0,1.45-.59,1.51-1.38l3.66-42.52c.08-.88-.61-1.63-1.49-1.64l-75.09-.55c-.91,0-1.61.78-1.51,1.68h0Z" style="fill: #ebebeb; stroke-width: 0px;"/>
    </g>
    <g>
      <path d="m310.41,201.8l1.63,29.9c.06,1.07.93,1.9,2,1.91l53.8.39c1.11,0,2.03-.89,2.03-2l.17-23.27c0-1.12-.9-2.03-2.02-2.03l-33.09-.03c-.53,0-1.05-.21-1.43-.59l-5.71-5.71c-.37-.37-.88-.59-1.41-.59l-13.95-.1c-1.16,0-2.09.97-2.03,2.13h0Z" style="fill: #ebebeb; stroke-width: 0px;"/>
      <rect x="322.99" y="191.13" width="35.13" height="58.78" transform="translate(117.55 559.44) rotate(-89.58)" style="fill: #f5f5f5; stroke-width: 0px;"/>
      <path d="m306.6,205.86l4.22,36.66c.07.65.62,1.14,1.28,1.15l57.29.42c.68,0,1.24-.51,1.3-1.19l3.15-36.61c.06-.75-.53-1.4-1.28-1.41l-64.66-.47c-.78,0-1.39.67-1.3,1.45h0Z" style="fill: #ebebeb; stroke-width: 0px;"/>
    </g>
    <g>
      <rect x="322.22" y="5.87" width="95.61" height="158.26" style="fill: #e0e0e0; stroke-width: 0px;"/>
      <rect x="319.04" y="5.87" width="95.61" height="158.26" style="fill: #ebebeb; stroke-width: 0px;"/>
      <rect x="323.12" y="9.08" width="87.47" height="151.84" style="fill: #fff; stroke-width: 0px;"/>
      <g>
        <rect x="339.77" y="28.81" width="53.78" height="112.38" style="fill: #ebebeb; stroke-width: 0px;"/>
        <path d="m339.77,101.43c-.12-10.5,9.31-20.75,19.71-22.21,4.96-.7,10.22.28,14.86-1.61,8.27-3.39,10.9-14.37,19.22-17.63l.38,81.23h-54.16v-39.77h0Z" style="fill: #e0e0e0; stroke-width: 0px;"/>
      </g>
    </g>
    <g>
      <g>
        <path d="m412.31,208.63s-7.92-.57-7.19,17.19c.73,17.76,2.54,27.23,2.54,27.23,0,0-.23,3.94-3.28,3.17-3.05-.77-8.79-4.61-11.62-1.74-2.94,2.97-1.89,7.53,2,12.9,3.9,5.37,12.01,17.44,12.74,18.54.72,1.07,1,3.09-1.16,2.9s-16.76-5.14-18.69,1.93,11.39,20.24,12.82,21.71,1.51,2.39.93,3.28c-.58.89-5.33-1.24-9.54-2.47-4.21-1.24-9.31-1.93-10.08,2.24-.77,4.17,5.09,16.38,27.06,29.2l10.57,5.28,10-6.38c20.58-14.96,25.19-27.69,24.01-31.76-1.19-4.07-6.19-2.87-10.25-1.22s-8.58,4.24-9.24,3.42c-.67-.83-.68-1.76.59-3.36,1.27-1.6,13.21-16.04,10.58-22.88s-16.66-.46-18.79-.05-2.05-1.62-1.44-2.77c.62-1.16,7.48-13.99,10.82-19.72s3.93-10.37.7-13.03c-3.11-2.57-8.43,1.82-11.39,2.89s-3.58-2.82-3.58-2.82c0,0,.86-9.6-.19-27.34s-9.06-16.32-9.06-16.32" style="fill: #ebebeb; stroke-width: 0px;"/>
        <path d="m412.93,224.54s.02.13.04.37c.02.26.05.62.08,1.09.07.98.16,2.39.28,4.19.24,3.64.55,8.92.91,15.44.72,13.04,1.57,31.06,2.44,50.96.87,19.91,1.67,37.93,2.32,50.97.33,6.51.6,11.78.79,15.44.09,1.81.16,3.22.21,4.2.02.47.03.83.04,1.09v.37s-.02-.13-.04-.37c-.02-.26-.05-.62-.08-1.09-.07-.98-.16-2.39-.28-4.19-.24-3.64-.55-8.92-.91-15.44-.72-13.04-1.57-31.06-2.44-50.97-.87-19.9-1.67-37.92-2.32-50.96-.33-6.51-.6-11.78-.79-15.44-.09-1.81-.16-3.22-.21-4.2-.02-.47-.03-.83-.04-1.09v-.37h0Z" style="fill: #e0e0e0; stroke-width: 0px;"/>
        <path d="m400.56,260.16s.25.18.66.55.98.92,1.68,1.61c1.39,1.38,3.27,3.34,5.3,5.54,1.99,2.17,3.78,4.14,5.17,5.66.62.67,1.14,1.24,1.57,1.71.37.4.57.63.55.65-.02.02-.25-.17-.66-.54s-.98-.92-1.67-1.62c-1.38-1.4-3.23-3.38-5.26-5.58-2-2.16-3.81-4.11-5.21-5.62-.62-.67-1.15-1.23-1.58-1.7-.37-.41-.57-.64-.55-.66h0Z" style="fill: #e0e0e0; stroke-width: 0px;"/>
        <path d="m416.54,275.53c-.08-.08,3.79-4.13,8.63-9.04,4.85-4.92,8.84-8.83,8.92-8.76.08.08-3.78,4.13-8.63,9.04s-8.84,8.83-8.92,8.76Z" style="fill: #e0e0e0; stroke-width: 0px;"/>
        <path d="m416.5,306.16s.25-.19.74-.47c.56-.32,1.25-.7,2.07-1.16,1.74-.98,4.15-2.34,6.75-3.94,2.6-1.59,4.91-3.11,6.57-4.23.78-.52,1.43-.96,1.97-1.32.47-.31.73-.47.75-.44s-.22.23-.66.57c-.44.35-1.09.84-1.9,1.42-1.62,1.18-3.91,2.74-6.53,4.34-2.61,1.6-5.04,2.93-6.82,3.85-.89.46-1.62.81-2.13,1.05s-.8.35-.81.33h0Z" style="fill: #e0e0e0; stroke-width: 0px;"/>
        <path d="m398.99,295.44s.27.1.73.34c.46.24,1.11.61,1.92,1.06,1.61.91,3.82,2.2,6.24,3.64,2.43,1.44,4.61,2.77,6.18,3.75.79.49,1.42.89,1.85,1.18.43.29.66.45.65.48-.01.02-.27-.1-.73-.34-.46-.24-1.11-.61-1.92-1.06-1.61-.91-3.82-2.2-6.24-3.64-2.43-1.44-4.61-2.77-6.18-3.75-.79-.49-1.42-.89-1.85-1.18-.43-.29-.66-.45-.65-.48Z" style="fill: #e0e0e0; stroke-width: 0px;"/>
        <path d="m395.51,322.47s.34.14.93.45c.65.36,1.48.81,2.46,1.36,2.07,1.16,4.91,2.79,8.04,4.61,3.13,1.82,5.95,3.49,7.98,4.71.96.59,1.76,1.08,2.4,1.47.56.35.86.56.85.59-.01.02-.34-.14-.93-.45-.65-.36-1.48-.81-2.46-1.36-2.07-1.16-4.91-2.79-8.04-4.61-3.13-1.82-5.95-3.49-7.98-4.71-.96-.59-1.76-1.08-2.4-1.47-.56-.35-.86-.56-.85-.59Z" style="fill: #e0e0e0; stroke-width: 0px;"/>
        <path d="m417.71,335.19s.31-.24.92-.62c.67-.41,1.54-.93,2.57-1.56,2.17-1.32,5.16-3.16,8.4-5.27,3.25-2.11,6.14-4.1,8.22-5.55.99-.69,1.82-1.27,2.47-1.72.59-.4.92-.61.93-.59.02.02-.28.28-.84.72s-1.37,1.07-2.4,1.82c-2.04,1.51-4.91,3.54-8.17,5.66-3.25,2.12-6.27,3.92-8.48,5.18-1.11.63-2.01,1.12-2.64,1.45-.63.33-.98.5-1,.48h.02Z" style="fill: #e0e0e0; stroke-width: 0px;"/>
      </g>
      <g>
        <polygon points="433.6 353.43 404.36 353.43 413.9 425.67 424.06 425.67 433.6 353.43" style="fill: #e0e0e0; stroke-width: 0px;"/>
        <path d="m405.88,362.31s.03.1.16.26c.12.15.35.35.71.5.69.3,1.91.33,3.09-.38,1.18-.65,2.21-1.93,3.79-2.5,1.57-.6,3.51-.49,5.38.11,1.89.58,3.52,1.54,5.01,2.43,1.49.88,2.85,1.67,4.07,2.18,1.21.53,2.27.77,3,.87.37.05.65.06.85.06s.3,0,.3-.02c.02-.1-1.65-.08-4.01-1.21-1.18-.54-2.51-1.35-3.98-2.25-1.47-.91-3.15-1.9-5.09-2.5-1.92-.62-3.99-.73-5.68-.06-.84.32-1.55.82-2.14,1.32-.6.49-1.13.96-1.67,1.3-1.07.69-2.19.72-2.85.49-.67-.23-.89-.63-.93-.59h0Z" style="fill: #f5f5f5; stroke-width: 0px;"/>
        <path d="m406.94,375.61s.23-.3.69-.78c.47-.46,1.23-1.07,2.34-1.48,1.1-.42,2.51-.67,4.07-.61,1.57.05,3.27.4,5.09.69,1.81.3,3.61.44,5.21.22,1.6-.21,2.99-.67,4.1-1.17,1.11-.5,1.93-1.06,2.46-1.47.54-.41.8-.68.78-.7-.05-.08-1.18.93-3.38,1.86-1.1.45-2.46.87-4.02,1.04-1.56.19-3.28.05-5.08-.25-1.8-.29-3.53-.63-5.15-.66-1.62-.04-3.08.26-4.21.74-1.14.47-1.91,1.15-2.35,1.67-.21.27-.36.49-.44.65-.09.16-.12.24-.11.25h0Z" style="fill: #f5f5f5; stroke-width: 0px;"/>
        <path d="m430.29,382.73s-.26-.2-.81-.42c-.54-.22-1.37-.44-2.42-.52-1.05-.08-2.3-.02-3.66.21-1.36.22-2.83.6-4.36.92s-3.01.54-4.35.49c-1.34-.05-2.53-.34-3.46-.75-1.88-.83-2.55-2.03-2.62-1.95-.02.01.11.31.49.76s1.03,1.02,1.99,1.49c.95.47,2.18.81,3.58.88,1.4.08,2.92-.14,4.47-.46,1.55-.33,3-.72,4.34-.96,1.33-.24,2.55-.34,3.57-.31,2.05.07,3.22.69,3.25.6v.02Z" style="fill: #f5f5f5; stroke-width: 0px;"/>
        <path d="m409.53,392.75c.01.08,1.04-.65,2.84-.29.88.16,1.86.6,2.97,1.11,1.1.51,2.43.95,3.86,1.06,2.87.28,5.43-.65,6.99-1.62.8-.48,1.36-.99,1.74-1.34.36-.38.54-.6.51-.62-.06-.07-.83.79-2.42,1.67-1.57.87-4.03,1.7-6.78,1.44-2.77-.16-4.89-1.81-6.81-2.03-.94-.14-1.72,0-2.21.19s-.7.41-.69.43h0Z" style="fill: #f5f5f5; stroke-width: 0px;"/>
        <path d="m411.16,406.62s.98.05,2.44-.48c1.47-.49,3.29-1.62,5.41-2.46,1.07-.41,2.13-.66,3.11-.65.97,0,1.84.24,2.5.57,1.34.67,1.73,1.62,1.81,1.56.02,0-.04-.25-.28-.62s-.68-.85-1.37-1.24c-.68-.39-1.6-.68-2.65-.71s-2.18.22-3.28.64c-2.2.88-3.96,2.04-5.37,2.59-1.39.6-2.33.72-2.31.8h-.01Z" style="fill: #f5f5f5; stroke-width: 0px;"/>
        <path d="m412.59,413.07c-.02.06.68.31,1.85.6s2.8.6,4.63.78c1.83.18,3.49.19,4.69.14,1.2-.06,1.94-.17,1.93-.23,0-.14-2.96-.02-6.58-.38-3.62-.35-6.49-1.05-6.53-.91h0Z" style="fill: #f5f5f5; stroke-width: 0px;"/>
      </g>
    </g>
    <g>
      <rect x="11.76" y="23.19" width="95.57" height="138.52" style="fill: #e0e0e0; stroke-width: 0px;"/>
      <rect x="6.97" y="23.19" width="95.57" height="138.52" style="fill: #f5f5f5; stroke-width: 0px;"/>
      <g>
        <rect x="18.85" y="38.19" width="71.82" height="108.51" style="fill: #fff; stroke-width: 0px;"/>
        <path d="m90.67,146.71s0-.18-.01-.53c0-.36,0-.87-.01-1.54,0-1.36-.02-3.36-.03-5.95-.01-5.2-.04-12.78-.06-22.35-.03-19.13-.07-46.23-.12-78.14l.24.24c-21.94,0-46.26,0-71.81.02h0l.26-.26c-.02,40.94-.04,78.68-.05,108.51l-.21-.21c21.87.05,39.8.08,52.28.11,6.24.02,11.11.04,14.44.05,1.65,0,2.92.02,3.79.02s1.31.02,1.31.02c0,0-.42,0-1.27.02-.86,0-2.11,0-3.75.02-3.32,0-8.18.03-14.4.05-12.51.03-30.48.06-52.4.11h-.21v-.21c-.01-29.83-.03-67.58-.05-108.51v-.26h.26c25.55,0,49.87,0,71.81.02h.24v.24c-.05,31.97-.09,59.12-.12,78.3-.03,9.55-.05,17.11-.06,22.3-.01,2.57-.02,4.55-.03,5.9,0,.66-.01,1.16-.01,1.51s-.01.5-.01.5l-.02.02Z" style="fill: #e0e0e0; stroke-width: 0px;"/>
      </g>
      <path d="m102.81,23.19c.06.04-.59.99-1.7,2.47s-2.69,3.5-4.48,5.69c-1.8,2.18-3.48,4.12-4.72,5.49s-2.05,2.19-2.1,2.15c-.05-.05.65-.95,1.82-2.39,1.28-1.55,2.86-3.47,4.6-5.58,1.74-2.12,3.32-4.03,4.6-5.58,1.18-1.42,1.93-2.29,1.99-2.25h0Z" style="fill: #e0e0e0; stroke-width: 0px;"/>
      <g>
        <path d="m91.03,146.36c3.57,5.67,7.78,10.94,12.53,15.67" style="fill: #fff; stroke-width: 0px;"/>
        <path d="m103.56,162.02s-.9-.69-2.18-1.99c-1.28-1.29-2.99-3.16-4.73-5.33-1.74-2.18-3.18-4.25-4.16-5.78-.98-1.54-1.51-2.53-1.46-2.57.06-.04.71.88,1.76,2.36s2.53,3.5,4.26,5.66,3.38,4.05,4.59,5.4c1.21,1.35,1.97,2.18,1.92,2.24h0Z" style="fill: #e0e0e0; stroke-width: 0px;"/>
      </g>
      <g>
        <path d="m6.96,161.6c4.17-5.15,8.35-10.3,12.52-15.44" style="fill: #fff; stroke-width: 0px;"/>
        <path d="m19.48,146.15c.11.09-2.6,3.62-6.06,7.89-3.46,4.27-6.35,7.65-6.46,7.56s2.6-3.62,6.06-7.89c3.46-4.26,6.35-7.65,6.46-7.56Z" style="fill: #e0e0e0; stroke-width: 0px;"/>
      </g>
      <path d="m6.97,23.19c.11-.09,2.83,3.16,6.08,7.26,3.24,4.1,5.78,7.5,5.67,7.59s-2.83-3.16-6.08-7.26c-3.24-4.1-5.78-7.5-5.67-7.59Z" style="fill: #e0e0e0; stroke-width: 0px;"/>
      <rect x="44.24" y="60.22" width="24.05" height="68.28" style="fill: #e0e0e0; stroke-width: 0px;"/>
    </g>
    <g>
      <rect x="151.99" y=".02" width="75.11" height="78.3" style="fill: #e0e0e0; stroke-width: 0px;"/>
      <g>
        <rect x="146.91" y=".02" width="75.11" height="78.3" style="fill: #fafafa; stroke-width: 0px;"/>
        <path d="m222.05,78.35h-75.16V0h75.16v78.35Zm-75.11-.05h75.07V.05h-75.07v78.25h0Z" style="fill: #e0e0e0; stroke-width: 0px;"/>
      </g>
      <rect x="157.01" y="10.55" width="54.92" height="57.25" style="fill: #fff; stroke-width: 0px;"/>
      <path d="m157.01,68.18c.04.05-.48.65-1.36,1.58s-2.11,2.18-3.49,3.54-2.65,2.57-3.59,3.43-1.54,1.37-1.59,1.32.47-.64,1.35-1.57,2.11-2.18,3.5-3.55c1.39-1.36,2.66-2.58,3.59-3.44.94-.86,1.54-1.37,1.58-1.32h0Z" style="fill: #e0e0e0; stroke-width: 0px;"/>
      <path d="m211.92,68.04c.05-.04.65.48,1.58,1.35.93.88,2.18,2.11,3.54,3.49s2.57,2.65,3.43,3.59c.86.94,1.37,1.54,1.32,1.59-.05.05-.64-.47-1.57-1.35-.93-.88-2.18-2.11-3.55-3.5-1.36-1.39-2.58-2.66-3.44-3.59-.86-.94-1.37-1.54-1.32-1.58h.01Z" style="fill: #e0e0e0; stroke-width: 0px;"/>
      <path d="m211.77,10.7c-.04-.05.48-.65,1.36-1.58s2.11-2.18,3.49-3.54c1.38-1.36,2.65-2.57,3.59-3.43.94-.86,1.54-1.37,1.59-1.32.05.05-.47.64-1.35,1.57s-2.11,2.18-3.5,3.55c-1.39,1.36-2.66,2.58-3.59,3.44-.94.86-1.54,1.37-1.58,1.32h0Z" style="fill: #e0e0e0; stroke-width: 0px;"/>
      <path d="m156.86,10.84c-.05.04-.65-.48-1.58-1.36-.93-.88-2.18-2.11-3.54-3.49s-2.57-2.65-3.43-3.59c-.86-.94-1.37-1.54-1.32-1.59.05-.05.64.47,1.57,1.35.93.88,2.18,2.11,3.55,3.5,1.36,1.39,2.58,2.66,3.44,3.59.86.94,1.37,1.54,1.32,1.58h-.01Z" style="fill: #e0e0e0; stroke-width: 0px;"/>
      <path d="m211.77,67.8s0-.1,0-.28c0-.2,0-.46,0-.8,0-.72,0-1.75-.02-3.09,0-2.71-.03-6.66-.06-11.67-.03-10.03-.06-24.31-.11-41.41l.21.21c-15.99,0-34.76.02-54.76.03h0l.24-.24c0,21.01-.02,40.67-.03,57.25l-.21-.21c16.41.04,30.08.08,39.66.11,4.79.02,8.55.04,11.14.05,1.28.01,2.26.02,2.95.02.32,0,.57,0,.76.01.17,0,.26,0,.27.01,0,0-.08,0-.24.01-.18,0-.42,0-.74.01-.68,0-1.65.01-2.91.02-2.58.01-6.33.03-11.09.05-9.61.03-23.32.06-39.79.11h-.21v-.21c0-16.58-.02-36.24-.03-57.25v-.24h.24c20,.01,38.78.02,54.76.03h.21v.21c-.05,17.16-.08,31.49-.11,41.55-.02,4.99-.04,8.92-.06,11.62,0,1.32-.02,2.34-.02,3.05,0,.33,0,.59,0,.78,0,.17,0,.26,0,.25v.02Z" style="fill: #e0e0e0; stroke-width: 0px;"/>
      <rect x="175.3" y="30.01" width="18.33" height="18.33" style="fill: #ebebeb; stroke-width: 0px;"/>
    </g>
    <g>
      <path d="m112.75,316.63l1.88,34.53c.07,1.23,1.08,2.2,2.31,2.2l62.14.46c1.29,0,2.34-1.03,2.35-2.31l.2-26.88c0-1.29-1.04-2.35-2.33-2.35l-38.21-.03c-.62,0-1.21-.25-1.65-.68l-6.59-6.59c-.43-.43-1.02-.68-1.63-.68l-16.11-.12c-1.34,0-2.42,1.12-2.34,2.46h-.02Z" style="fill: #ebebeb; stroke-width: 0px;"/>
      <rect x="127.29" y="304.31" width="40.57" height="67.89" transform="translate(-191.76 483.35) rotate(-89.58)" style="fill: #f5f5f5; stroke-width: 0px;"/>
      <path d="m108.35,321.32l4.87,42.34c.09.75.72,1.32,1.48,1.33l66.16.48c.78,0,1.44-.59,1.5-1.37l3.64-42.28c.07-.87-.61-1.62-1.48-1.63l-74.68-.55c-.9,0-1.6.78-1.5,1.67h0Z" style="fill: #ebebeb; stroke-width: 0px;"/>
    </g>
    <g>
      <path d="m220.7,336.08l1.88,34.61c.07,1.23,1.08,2.2,2.32,2.21l62.27.46c1.29,0,2.34-1.03,2.35-2.32l.2-26.94c0-1.3-1.04-2.35-2.33-2.35l-38.3-.03c-.62,0-1.21-.25-1.65-.68l-6.61-6.6c-.43-.43-1.02-.68-1.63-.68l-16.14-.12c-1.35,0-2.42,1.12-2.35,2.46v-.02Z" style="fill: #ebebeb; stroke-width: 0px;"/>
      <rect x="235.27" y="323.73" width="40.66" height="68.04" transform="translate(-104.02 610.73) rotate(-89.58)" style="fill: #f5f5f5; stroke-width: 0px;"/>
      <path d="m216.29,340.78l4.88,42.44c.09.75.72,1.32,1.48,1.33l66.31.49c.78,0,1.44-.59,1.51-1.37l3.65-42.37c.08-.87-.61-1.62-1.49-1.63l-74.84-.55c-.9,0-1.61.78-1.5,1.67h0Z" style="fill: #ebebeb; stroke-width: 0px;"/>
    </g>
  </g>
  <g id="Plant">
    <g>
      <g>
        <path d="m67.37,277.58c-10.25-15.68-8.76-38.08,3.49-52.26,3.8-4.4,9.11-8.23,14.91-7.73,5.93.51,10.71,5.6,12.52,11.27,1.8,5.67,1.18,11.82.12,17.68-1.48,8.2-3.97,16.6-9.66,22.69-5.69,6.09-14.05,12.35-21.37,8.36" style="fill: #ff966c; stroke-width: 0px;"/>
        <path d="m70.47,353.06c-3.86-9.01-1.06-20.41,6.53-26.61,2.36-1.92,5.44-3.41,8.38-2.63,3.01.8,5.01,3.85,5.43,6.94s-.46,6.2-1.54,9.12c-1.51,4.09-3.55,8.19-7.03,10.81-3.48,2.62-8.36,5.09-11.77,2.37" style="fill: #ff966c; stroke-width: 0px;"/>
        <path d="m48.32,347.67c2.82-13.9-4.51-29.24-17.09-35.79-3.91-2.03-8.71-3.23-12.65-1.26-4.03,2.02-5.97,6.94-5.65,11.43.32,4.5,2.48,8.65,4.87,12.47,3.34,5.35,7.44,10.56,13.15,13.25,5.71,2.69,13.34,4.75,17.37-.11" style="fill: #ff966c; stroke-width: 0px;"/>
        <path d="m50.09,310.08c4.91-15.84-3.41-35.04-17.28-44.13-4.31-2.82-9.76-4.78-14.57-2.95-4.92,1.88-7.75,7.37-7.91,12.64-.16,5.27,1.87,10.35,4.2,15.07,3.26,6.62,7.42,13.16,13.74,16.96,6.33,3.8,16.56,7.6,21.82,2.41" style="fill: #ff966c; stroke-width: 0px;"/>
        <path d="m57.38,387.5s-.08-.26-.16-.77c-.09-.58-.2-1.31-.33-2.21-.07-.49-.14-1.02-.22-1.6-.11-.58-.23-1.21-.36-1.88-.26-1.35-.52-2.9-.97-4.57-.2-.84-.42-1.72-.64-2.64-.27-.91-.54-1.85-.83-2.83-.53-1.97-1.31-4-2.04-6.17-1.62-4.28-3.64-8.89-6.11-13.56-2.52-4.64-5.25-8.88-7.92-12.59-1.4-1.81-2.66-3.58-4.01-5.11-.65-.78-1.29-1.53-1.9-2.25-.64-.69-1.26-1.36-1.85-1.99-1.15-1.3-2.29-2.37-3.27-3.33-.49-.48-.94-.93-1.37-1.34-.44-.39-.84-.74-1.21-1.07-.68-.61-1.23-1.11-1.66-1.5-.37-.35-.56-.54-.55-.56s.23.14.64.45c.46.37,1.03.83,1.74,1.4.38.31.8.66,1.25,1.03.44.41.91.84,1.41,1.31,1.01.94,2.18,2,3.36,3.28.6.63,1.23,1.29,1.89,1.97.62.72,1.27,1.47,1.94,2.24,1.37,1.52,2.66,3.29,4.08,5.1,2.71,3.72,5.48,7.97,8.01,12.64,2.49,4.7,4.5,9.35,6.1,13.66.72,2.19,1.48,4.24,1.99,6.22.27.98.54,1.94.8,2.85.21.92.41,1.81.6,2.67.42,1.69.65,3.25.87,4.61.11.68.21,1.31.31,1.9.06.58.11,1.12.16,1.61.08.91.15,1.65.2,2.23.04.51.05.78.03.78l.02.02Z" style="fill: #263238; stroke-width: 0px;"/>
        <path d="m57.02,390.35s0-.11,0-.32c.02-.25.04-.55.07-.92.08-.86.19-2.03.32-3.52.08-.77.16-1.62.25-2.54.07-.93.1-1.94.15-3.03.08-2.18.29-4.65.21-7.39,0-1.37,0-2.81-.02-4.3-.02-1.5-.16-3.05-.23-4.66-.11-3.22-.55-6.64-.93-10.24-.98-7.17-2.52-15-4.86-23.03-2.42-8.01-5.4-15.41-8.48-21.96-1.64-3.23-3.13-6.33-4.8-9.09-.81-1.39-1.54-2.77-2.34-4.03-.81-1.26-1.59-2.46-2.33-3.62-1.43-2.34-2.95-4.3-4.21-6.08-.64-.88-1.21-1.72-1.78-2.46-.58-.72-1.11-1.39-1.59-1.99-.92-1.17-1.66-2.1-2.19-2.77-.22-.3-.41-.54-.56-.73-.12-.17-.18-.26-.17-.26s.08.07.22.22c.16.19.36.41.61.69.56.66,1.32,1.56,2.29,2.7.5.59,1.05,1.25,1.64,1.96.58.73,1.17,1.56,1.83,2.43,1.29,1.76,2.84,3.71,4.3,6.04.76,1.15,1.55,2.35,2.37,3.61.82,1.26,1.56,2.64,2.39,4.03,1.69,2.76,3.21,5.87,4.87,9.1,3.13,6.57,6.14,14,8.57,22.04,2.35,8.07,3.88,15.94,4.83,23.15.37,3.62.79,7.05.88,10.29.06,1.62.19,3.17.19,4.68s-.02,2.94-.02,4.32c.05,2.75-.2,5.23-.31,7.41-.07,1.09-.12,2.1-.21,3.04-.11.92-.22,1.77-.31,2.54-.19,1.48-.34,2.65-.45,3.51-.05.37-.1.67-.13.91-.03.2-.06.31-.07.31v-.04Z" style="fill: #263238; stroke-width: 0px;"/>
        <path d="m83.71,236.52s-.03.11-.13.29c-.12.22-.26.49-.44.82-.43.76-1.01,1.81-1.75,3.13-.38.68-.83,1.42-1.26,2.26-.42.85-.88,1.77-1.37,2.76-.49.99-1.02,2.05-1.58,3.17-.53,1.13-1.04,2.36-1.61,3.63-.55,1.28-1.17,2.6-1.73,4.01-.55,1.42-1.11,2.89-1.7,4.42-.29.76-.59,1.54-.9,2.33-.27.8-.55,1.61-.83,2.44-.56,1.65-1.13,3.35-1.72,5.09-2.17,7.03-4.23,14.85-5.97,23.16-1.68,8.32-2.86,16.33-3.74,23.64-.75,7.32-1.3,13.93-1.45,19.49-.14,2.78-.17,5.3-.18,7.51-.04,2.21-.04,4.12,0,5.67.02,1.51.04,2.71.05,3.59v.93c0,.21,0,.32-.02.32s-.03-.11-.04-.32c-.02-.25-.04-.56-.06-.93-.04-.87-.1-2.07-.18-3.58-.09-1.56-.12-3.46-.12-5.68-.03-2.21-.03-4.74.08-7.52.09-5.58.6-12.2,1.31-19.54.84-7.33,2.01-15.36,3.69-23.7,1.74-8.33,3.83-16.18,6.04-23.21.6-1.74,1.18-3.45,1.75-5.1.29-.83.57-1.64.84-2.44.31-.79.61-1.57.91-2.33.6-1.52,1.18-3,1.74-4.42.58-1.41,1.21-2.73,1.78-4,.58-1.27,1.11-2.49,1.66-3.62.58-1.11,1.12-2.17,1.63-3.15.51-.98.98-1.89,1.42-2.74.45-.83.92-1.56,1.32-2.24.79-1.3,1.41-2.32,1.86-3.07.2-.32.37-.58.5-.79.12-.18.18-.26.19-.26v-.02Z" style="fill: #263238; stroke-width: 0px;"/>
        <path d="m80.23,332.74s-.35.71-1.09,1.91c-.75,1.2-1.78,2.97-2.99,5.19-1.22,2.21-2.54,4.91-3.88,7.97-1.31,3.07-2.62,6.5-3.77,10.17-1.12,3.68-1.98,7.25-2.63,10.53-.61,3.28-1.05,6.26-1.29,8.77-.25,2.51-.4,4.55-.46,5.97-.07,1.41-.13,2.19-.18,2.19s-.07-.78-.08-2.2c-.02-1.42.05-3.47.25-6,.18-2.53.57-5.53,1.15-8.84.62-3.3,1.46-6.9,2.59-10.61,1.16-3.7,2.49-7.15,3.84-10.22,1.38-3.06,2.76-5.76,4.04-7.95,1.27-2.2,2.36-3.94,3.18-5.1.81-1.17,1.27-1.8,1.31-1.77h0Z" style="fill: #263238; stroke-width: 0px;"/>
      </g>
      <polygon points="37.25 380.45 82.28 380.45 76.83 426.44 42.86 426.44 37.25 380.45" style="fill: #455a64; stroke-width: 0px;"/>
      <polygon points="38.89 421.48 42.72 426.44 76.83 426.44 80.77 421.63 38.89 421.48" style="fill: #263238; stroke-width: 0px;"/>
      <path d="m80.53,393.97c0,.19-9.35.34-20.87.34s-20.87-.15-20.87-.34,9.34-.34,20.87-.34,20.87.15,20.87.34Z" style="fill: #fff; stroke-width: 0px;"/>
      <path d="m80.53,397.03c0,.19-9.35.34-20.87.34s-20.87-.15-20.87-.34,9.34-.34,20.87-.34,20.87.15,20.87.34Z" style="fill: #fff; stroke-width: 0px;"/>
      <path d="m79.97,400c0,.19-9.02.34-20.14.34s-20.14-.15-20.14-.34,9.02-.34,20.14-.34,20.14.15,20.14.34Z" style="fill: #fff; stroke-width: 0px;"/>
    </g>
  </g>
  <g id="Floor">
    <path d="m435.64,426.49c0,.14-97.53.26-217.81.26s-217.83-.12-217.83-.26,97.51-.26,217.83-.26,217.81.12,217.81.26Z" style="fill: #263238; stroke-width: 0px;"/>
  </g>
  <g id="Character">
    <g>
      <g>
        <path d="m417.76,108.58c-3.36-4.26-3.44-12.03-3.33-14.07.26-4.71-10.24-32.21-36.26-20.85v-.02c-9.33,0-9.48,9.2-11.25,11.06-1.77,1.85-3.74,3.78-4.2,6.3-.82,4.47,3.42,8.81,2.34,13.22-.4,1.66-1.51,3.06-2.29,4.57h0c-.83,1.36-1.5,3.55-1.14,4.78.36,1.22,1.14,2.27,1.78,3.37.64,1.1,1.17,2.36.94,3.62-.41,2.27-3.03,3.52-3.74,5.72-.69,2.15.66,4.36,1.89,6.26,1.22,1.9,2.41,4.28,1.42,6.31-.53,1.08-1.57,1.8-2.41,2.65-2.57,2.58-3.33,6.79-1.84,10.11,4.99-.98,9.98-1.97,14.97-2.95.65-7.13,1.31-14.27,1.96-21.4,4.38,1.09,9.17-1.71,11.24-2.24l2.55-1.38c5.58.98,11.6.63,16.49-2.22,4.89-2.85,12.14.79,11.19-4.79-.46-2.71,1.38-5.87-.32-8.03v-.02Z" style="fill: #263238; stroke-width: 0px;"/>
        <g>
          <g>
            <path d="m400.69,82.56l-20.36-6.03c-6.56-.96-11.27,6.97-11.95,13.57-.76,7.33-1.4,16.3-.75,21.82,1.31,11.09,9.7,12.84,9.7,12.84,0-.01-1.47,15.71-1.61,19.64l25.11-12.85,3.17-44.91c.12-2.01-1.32-3.78-3.31-4.07h0Z" style="fill: #ffd3c1; stroke-width: 0px;"/>
            <g>
              <path d="m369.64,99.14c-.06.75.53,1.41,1.31,1.48s1.45-.47,1.51-1.22-.53-1.41-1.3-1.48c-.78-.07-1.45.47-1.51,1.22h-.01Z" style="fill: #263238; stroke-width: 0px;"/>
              <path d="m368.89,95.91c.14.18,1.34-.08,2.84.37,1.5.43,2.45,1.32,2.65,1.23.1-.04-.02-.33-.43-.73-.4-.39-1.14-.88-2.08-1.15-.93-.27-1.79-.25-2.31-.13-.53.12-.75.32-.68.4h0Z" style="fill: #263238; stroke-width: 0px;"/>
            </g>
            <g>
              <path d="m383.75,100.29c-.06.75.53,1.41,1.31,1.48s1.45-.47,1.51-1.22-.53-1.41-1.3-1.48c-.78-.07-1.45.47-1.51,1.22h-.01Z" style="fill: #263238; stroke-width: 0px;"/>
              <path d="m384,97.91c.22.1,1.32-.63,3.02-.87,1.7-.25,3.05.13,3.21-.03.08-.07-.16-.28-.75-.46-.58-.18-1.54-.29-2.6-.14s-1.9.53-2.37.86-.61.6-.5.64h0Z" style="fill: #263238; stroke-width: 0px;"/>
            </g>
            <path d="m378.75,107.84c.01-.09-.93-.29-2.45-.55-.39-.06-.75-.15-.81-.42-.08-.28.1-.7.31-1.14.4-.93.82-1.89,1.27-2.91,1.76-4.15,3.06-7.56,2.89-7.63-.17-.07-1.73,3.23-3.5,7.38-.43,1.02-.83,2-1.22,2.93-.16.44-.44.93-.26,1.52.09.29.37.52.62.59.25.09.46.1.66.12,1.54.15,2.49.19,2.5.1h0Z" style="fill: #263238; stroke-width: 0px;"/>
            <path d="m377.33,124.76s7.24.93,14.77-3.19c-.13.02-4.52,7.67-15.04,6.12l.27-2.92h0Z" style="fill: #f4af9b; stroke-width: 0px;"/>
            <path d="m379.24,111.53c.58-.7,1.55-1.06,2.5-.92.66.1,1.31.44,1.69,1,.38.55.43,1.32.05,1.82-.43.56-1.3.66-2.01.42-.72-.24-1.32-.74-1.9-1.24-.16-.14-.32-.28-.42-.47-.1-.18-.11-.42.02-.57" style="fill: #f4af9b; stroke-width: 0px;"/>
            <path d="m383.18,109.07c-.25-.02-.32,1.63-1.78,2.74-1.46,1.12-3.21.86-3.23,1.09-.03.1.38.34,1.12.39.73.05,1.8-.14,2.69-.82s1.3-1.63,1.38-2.3c.09-.69-.08-1.1-.19-1.1h.01Z" style="fill: #263238; stroke-width: 0px;"/>
          </g>
          <path d="m384.2,92.49c.13.42,1.66.28,3.44.57,1.78.25,3.2.83,3.45.47.11-.17-.12-.57-.69-1-.56-.42-1.47-.84-2.53-1-1.07-.16-2.05-.03-2.71.21-.67.24-1.01.55-.95.75h-.01Z" style="fill: #263238; stroke-width: 0px;"/>
          <path d="m370.52,91.51c.25.36,1.32.04,2.58.07,1.26-.01,2.32.33,2.58-.03.11-.17-.04-.52-.49-.87-.45-.34-1.2-.64-2.07-.65-.87,0-1.63.28-2.08.61-.46.34-.62.69-.51.86h0Z" style="fill: #263238; stroke-width: 0px;"/>
        </g>
        <path d="m377.93,75.09c8.19,1.3,16.21,3.58,23.86,6.77,1.77.74,3.63,1.62,4.63,3.26,1.06,1.73.92,3.92.75,5.94-.84,9.88-1.68,19.76-2.52,29.64l-1.06-.05c-3.05.5-3.27-1.06-5.45-3.25s-3.23-5.46-2.73-8.51c.45-2.69,2.01-5.39,1.17-7.99-1.11-3.43-5.82-4.66-6.95-8.09-.66-1.99.09-4.27-.67-6.22-.71-1.84-2.58-2.96-4.41-3.7-1.83-.74-3.8-1.28-5.31-2.55-1.51-1.27-2.39-3.59-1.33-5.25h.02Z" style="fill: #263238; stroke-width: 0px;"/>
      </g>
      <g>
        <rect x="224.42" y="55.26" width="92.62" height="76.78" rx="5.95" ry="5.95" style="fill: #263238; stroke-width: 0px;"/>
        <g>
          <circle cx="270.73" cy="92.16" r="13.35" style="fill: #ff966c; stroke-width: 0px;"/>
          <path d="m267.51,96.07v-7.88c0-.38.41-.63.75-.44l7.04,3.97c.34.19.34.68,0,.87l-7.04,3.91c-.33.19-.74-.06-.74-.44h-.01Z" style="fill: #fff; stroke-width: 0px;"/>
        </g>
      </g>
      <g>
        <g>
          <g>
            <path d="m354.49,390.27l2.31,22.25s-21.84,9.82-21.81,13.97l43.3-2.93-2.18-34.82-21.62,1.52h0Z" style="fill: #455a64; stroke-width: 0px;"/>
            <g style="opacity: .3;">
              <path d="m354.49,390.27l2.31,22.25s-21.84,9.82-21.81,13.97l43.3-2.93-2.18-34.82-21.62,1.52h0Z" style="stroke-width: 0px;"/>
            </g>
            <g style="opacity: .6;">
              <path d="m370.06,409.74c.85.17,1.5,1.08,1.36,1.94-.14.86-1.05,1.52-1.91,1.36-.86-.16-1.66-1.22-1.43-2.06s1.35-1.56,2.14-1.2" style="fill: #fff; stroke-width: 0px;"/>
            </g>
            <g style="opacity: .6;">
              <path d="m378.29,423.56l-.36-3.5-41.38,4.12s-1.87.97-1.56,2.31l43.3-2.93Z" style="fill: #fff; stroke-width: 0px;"/>
            </g>
            <path d="m356.08,412.35c.02.21,1.08.24,2.17.84,1.1.58,1.7,1.46,1.89,1.36.19-.05-.21-1.3-1.54-2.01-1.32-.73-2.58-.39-2.52-.2h0Z" style="fill: #263238; stroke-width: 0px;"/>
            <path d="m351.67,414.53c-.03.21.91.51,1.68,1.35.8.82,1.05,1.78,1.26,1.75.2.02.26-1.23-.72-2.26-.98-1.04-2.23-1.05-2.22-.84Z" style="fill: #263238; stroke-width: 0px;"/>
            <path d="m349.46,420.14c.2.03.42-1.04-.2-2.17-.61-1.13-1.64-1.52-1.72-1.33-.11.18.58.76,1.07,1.69.52.92.64,1.8.85,1.81Z" style="fill: #263238; stroke-width: 0px;"/>
            <path d="m356.12,407.22c.1.19,1.05-.17,2.25-.17,1.2-.02,2.16.31,2.26.13.11-.16-.85-.88-2.26-.86-1.41,0-2.36.75-2.25.91h0Z" style="fill: #263238; stroke-width: 0px;"/>
          </g>
          <path d="m355.74,402.72c0,.09.85.16,2.17-.16.66-.16,1.43-.43,2.22-.85.4-.21.8-.46,1.2-.75.19-.14.42-.29.62-.55.22-.24.31-.81.02-1.13-.24-.32-.65-.43-.96-.42-.32.01-.57.09-.81.17-.47.15-.92.34-1.32.55-.8.43-1.44.95-1.91,1.45-.94,1-1.23,1.81-1.16,1.85.1.06.54-.63,1.51-1.47.48-.42,1.11-.86,1.86-1.22.38-.18.78-.34,1.22-.47.45-.15.84-.18.97.01.05.08.06.11-.03.25-.09.13-.27.26-.46.41-.37.28-.74.52-1.1.73-.73.43-1.43.73-2.04.95-1.22.43-2.03.54-2.02.66h.02Z" style="fill: #263238; stroke-width: 0px;"/>
          <path d="m356.03,403c.08.03.45-.76.43-2.13,0-.68-.14-1.5-.46-2.35-.16-.43-.37-.86-.64-1.28-.28-.41-.63-.96-1.46-1-.43.01-.76.37-.86.67-.12.3-.13.56-.17.81-.05.51,0,1.01.1,1.46.2.91.63,1.65,1.08,2.18.92,1.07,1.82,1.26,1.83,1.19.06-.11-.7-.47-1.42-1.5-.36-.51-.69-1.19-.82-1.99-.07-.4-.09-.82-.05-1.26.04-.47.18-.85.36-.81.22-.02.6.3.81.66.25.37.45.76.62,1.14.32.76.49,1.51.57,2.14.15,1.27-.03,2.07.09,2.1v-.03Z" style="fill: #263238; stroke-width: 0px;"/>
        </g>
        <path d="m350.74,227.43s-19.18,87.08-19.77,94.85c-.59,7.78,23.77,74.91,23.77,74.91l20.96-3.96s-1.33-99.13-2.01-101.08c-.68-1.94,5.36-50.66,5.36-50.66l-28.31-14.06h0Z" style="fill: #263238; stroke-width: 0px;"/>
        <g>
          <g>
            <path d="m364.13,391.3l.23,22.37s-22.66,7.75-23.02,11.89l43.38.45,1.07-34.21-21.67-.49h0Z" style="fill: #455a64; stroke-width: 0px;"/>
            <g style="opacity: .6;">
              <path d="m377.83,412.14c.83.25,1.39,1.21,1.17,2.05s-1.19,1.42-2.02,1.18c-.84-.24-1.54-1.37-1.23-2.18s1.49-1.43,2.24-1" style="fill: #fff; stroke-width: 0px;"/>
            </g>
            <g style="opacity: .6;">
              <path d="m384.73,426.01l-.02-2.86-41.59.25s-1.95.79-1.77,2.16l43.38.45h0Z" style="fill: #fff; stroke-width: 0px;"/>
            </g>
            <path d="m363.67,413.43c0,.21,1.06.34,2.08,1.04,1.04.68,1.56,1.61,1.75,1.53.2-.04-.09-1.31-1.34-2.15-1.25-.85-2.54-.63-2.49-.43h0Z" style="fill: #263238; stroke-width: 0px;"/>
            <path d="m359.07,415.2c-.05.2.85.59,1.55,1.5.72.89.88,1.87,1.09,1.86.2.04.38-1.2-.51-2.32-.88-1.13-2.12-1.25-2.13-1.05h0Z" style="fill: #263238; stroke-width: 0px;"/>
            <path d="m356.34,420.58c.19.05.51-1,0-2.17-.51-1.18-1.49-1.66-1.59-1.49-.12.17.5.81.91,1.78.43.96.47,1.86.68,1.88Z" style="fill: #263238; stroke-width: 0px;"/>
            <path d="m364.18,408.33c.08.2,1.06-.07,2.26.04,1.2.09,2.12.51,2.23.33.13-.15-.76-.96-2.17-1.07-1.41-.12-2.42.53-2.32.7Z" style="fill: #263238; stroke-width: 0px;"/>
          </g>
          <g style="opacity: .3;">
            <polygon points="364.18 395.74 364.22 399.72 385.55 400.07 385.67 396.48 364.18 395.74" style="stroke-width: 0px;"/>
          </g>
          <path d="m364.22,403.82c0,.09.83.24,2.17.04.67-.1,1.46-.3,2.29-.64.42-.17.84-.38,1.26-.63.2-.12.44-.25.67-.49.24-.21.39-.77.13-1.12-.21-.34-.6-.49-.92-.51-.32-.02-.58.04-.82.09-.49.1-.94.25-1.36.43-.84.36-1.52.82-2.04,1.26-1.03.91-1.39,1.69-1.32,1.73.09.07.6-.58,1.64-1.32.52-.37,1.18-.75,1.97-1.04.39-.14.81-.27,1.26-.35.46-.11.85-.1.97.11.04.08.05.11-.05.24-.1.12-.29.24-.49.36-.39.24-.78.45-1.16.63-.77.36-1.5.59-2.12.75-1.25.32-2.07.35-2.07.47h-.01Z" style="fill: #263238; stroke-width: 0px;"/>
          <path d="m364.48,404.13c.07.03.51-.71.63-2.08.05-.68,0-1.51-.24-2.39-.12-.44-.29-.89-.52-1.33-.24-.44-.54-1.02-1.36-1.13-.43-.03-.79.3-.92.58-.15.29-.19.54-.24.79-.09.5-.1,1-.04,1.46.11.93.47,1.71.87,2.27.82,1.15,1.7,1.42,1.72,1.35.07-.1-.65-.53-1.28-1.63-.31-.54-.57-1.25-.64-2.06-.03-.4-.02-.83.07-1.25.08-.46.26-.83.43-.78.22,0,.57.36.74.73.21.39.38.8.51,1.19.25.79.35,1.54.37,2.18.03,1.27-.22,2.06-.11,2.1h0Z" style="fill: #263238; stroke-width: 0px;"/>
        </g>
        <path d="m399.49,226.09l-48.75,1.34,7,86.74,4.34,83.61,25.29.88c1.29-16.14,1.38-73.17,1.38-73.17l5.11-34.45c1.18-9.29,4.91-19.05,6.71-27.38,1.05-4.9,2.6-11.25,2.92-13.32.97-6.13-3.99-24.25-3.99-24.25h-.01Z" style="fill: #263238; stroke-width: 0px;"/>
        <path d="m353.58,247.39s.01.13,0,.39c0,.28-.02.66-.03,1.14-.04,1.03-.1,2.5-.17,4.38-.08,1.9-.18,4.23-.26,6.93-.08,2.7-.21,5.78-.28,9.18-.19,6.8-.29,14.9-.25,23.9.07,9,.28,18.88.79,29.25.53,10.37,1.32,20.23,2.21,29.18.49,4.47.92,8.72,1.46,12.69.26,1.98.48,3.9.75,5.74s.53,3.6.77,5.28c.46,3.37,1.01,6.4,1.44,9.07.42,2.67.84,4.96,1.19,6.83.33,1.85.6,3.3.78,4.31.08.48.14.85.19,1.12.04.25.06.38.05.39,0,0-.04-.13-.1-.38-.06-.27-.14-.64-.24-1.11-.2-1.01-.5-2.45-.87-4.3-.38-1.87-.83-4.15-1.28-6.82-.46-2.67-1.03-5.69-1.51-9.06-.26-1.68-.53-3.45-.81-5.28-.28-1.84-.51-3.76-.77-5.74-.56-3.97-1.01-8.22-1.51-12.69-.92-8.96-1.72-18.83-2.25-29.21-.51-10.38-.71-20.27-.75-29.28,0-9,.13-17.11.36-23.91.08-3.4.24-6.48.35-9.18.11-2.7.23-5.03.35-6.93.11-1.88.2-3.35.26-4.38.03-.48.06-.86.08-1.14.02-.26.04-.39.04-.39v.02Z" style="fill: #455a64; stroke-width: 0px;"/>
      </g>
      <g>
        <polygon points="325.83 131.39 313.34 118.06 303.5 124.95 313.34 139.5 325.83 131.39" style="fill: #ffd3c1; stroke-width: 0px;"/>
        <path d="m404.76,136.31l-.61-8.45-28.19-.41-.24,10.61s-13.84,14.97-18.86,31.76c-8.44,28.22-11.5,64.14-11.5,64.14h57.69c-.6-9.94-4.7-32.18-4.7-32.18l12.83-38.25c3.19-13.75-6.41-27.22-6.41-27.22h0Z" style="fill: #ff966c; stroke-width: 0px;"/>
        <path d="m334.96,174.5s.16.15.48.43c.31.29.8.68,1.46,1.14,1.32.9,3.45,2.01,6.32,2.43,1.42.22,3.03.22,4.7-.05,1.68-.19,3.47-.42,5.35-.67,3.76-.51,7.89-1.14,12.21-1.87,8.6-1.51,16.39-2.88,22.1-3.88,2.78-.45,5.06-.83,6.71-1.1.75-.12,1.35-.22,1.83-.29.42-.07.63-.12.63-.12,0,0-.22.02-.64.07-.48.07-1.08.15-1.83.25-1.59.22-3.89.57-6.72,1.03-5.67.9-13.48,2.35-22.11,3.82-4.32.73-8.44,1.37-12.2,1.89-1.88.26-3.67.49-5.35.69-1.67.27-3.24.28-4.65.07-2.84-.4-4.97-1.47-6.3-2.34-.67-.45-1.16-.82-1.48-1.1-.33-.27-.51-.4-.51-.4h0Z" style="fill: #263238; stroke-width: 0px;"/>
        <path d="m406.53,160.86s.03-.08.06-.22c.04-.21.09-.42.13-.65.11-.57.26-1.39.4-2.42.27-2.03.56-4.95-.21-8.05-.79-3.1-2.73-5.47-4.48-6.58-.88-.57-1.67-.88-2.23-1.01-.56-.14-.88-.16-.88-.16-.03.07,1.32.15,3.03,1.3,1.7,1.12,3.59,3.46,4.36,6.51.76,3.05.5,5.95.27,7.98-.12,1.02-.25,1.85-.33,2.42-.03.23-.06.45-.09.66-.02.15-.03.23-.02.23h0Z" style="fill: #263238; stroke-width: 0px;"/>
        <path d="m346.52,167.75s0-.23-.04-.63c-.05-.53-.1-1.1-.16-1.71-.12-1.45-.22-3.46-.17-5.67.06-2.22.26-4.22.45-5.66.09-.61.17-1.17.25-1.7.06-.4.09-.63.07-.63-.01,0-.07.22-.16.61-.09.4-.2.98-.31,1.7-.23,1.44-.46,3.45-.52,5.67-.05,2.23.07,4.24.23,5.69.08.72.16,1.31.23,1.71.07.4.11.62.13.62h0Z" style="fill: #263238; stroke-width: 0px;"/>
        <path d="m376.06,137.91c.59-2,1.85-3.72,3.08-5.39,2.02-2.73,4.2-5.59,7.35-6.88,2.14-.88,7.67-.39,9.15-2.18,4.6-5.57-2.14-9.04.31-16.7,2.68-8.4,1.3-7.11,1.5-13.71l10.22-4.42c1.61,1.2,6.07,5.54,5.58,7.48-.49,1.95-.35,4.11.39,6.43,1.57,4.92,6.99,7.83,9.55,12.31,2.63,4.6-.33,10.69-.4,15.98-.07,5.29,1.93,11.66,7.1,12.81-1.93,3.88-5.16,7.1-9.06,9-1.08-1.47-2.16-2.94-3.24-4.41.64,3.99-2.07,8.25-5.97,9.35-1.09-4.65-2.24-9.43-5.05-13.28s-7.75-6.57-12.36-5.34c-3.08.83-5.47,3.2-8.22,4.82-2.75,1.61-6.66,2.3-8.86,0-1.44-1.51-1.65-3.87-1.06-5.86h-.01Z" style="fill: #263238; stroke-width: 0px;"/>
        <g style="opacity: .3;">
          <path d="m356.86,177.11c13.29-2.43,31.01-5.33,44.3-7.75.5-.09,1.02-.18,1.49,0,.88.35,1.14,1.57.74,2.43s-1.24,1.42-2.08,1.86c-4.36,2.28-9.48,2.46-14.4,2.6-8.4.23-21.65.62-30.06.85h.01Z" style="stroke-width: 0px;"/>
        </g>
        <path d="m347.15,178.44c4.13.08,51.73-8.61,51.73-8.61" style="fill: #ff725e; stroke-width: 0px;"/>
        <g>
          <path d="m398.07,140.1c3.49.43,5.76,1.04,9.84,5.4.44.47.84,1.05,1.22,1.71,4.54,8,1.25,19.05-7.44,22.05l-8.42,1.73-46.12,7.44s-9.83,2.21-18.26-10.89c-3.09-4.8-24.4-36.59-24.4-36.59l14-9.37,28.22,30.19,51.37-11.68h0Z" style="fill: #ff966c; stroke-width: 0px;"/>
          <g>
            <path d="m334.96,174.5s.16.15.48.43c.31.29.8.68,1.46,1.14,1.32.9,3.45,2.01,6.32,2.43,1.42.22,3.03.22,4.7-.05,1.68-.19,3.47-.42,5.35-.67,3.76-.51,7.89-1.14,12.21-1.87,8.6-1.51,16.39-2.88,22.1-3.88,2.78-.45,5.06-.83,6.71-1.1.75-.12,1.35-.22,1.83-.29.42-.07.63-.12.63-.12,0,0-.22.02-.64.07-.48.07-1.08.15-1.83.25-1.59.22-3.89.57-6.72,1.03-5.67.9-13.48,2.35-22.11,3.82-4.32.73-8.44,1.37-12.2,1.89-1.88.26-3.67.49-5.35.69-1.67.27-3.24.28-4.65.07-2.84-.4-4.97-1.47-6.3-2.34-.67-.45-1.16-.82-1.48-1.1-.33-.27-.51-.4-.51-.4h0Z" style="fill: #263238; stroke-width: 0px;"/>
            <path d="m406.53,160.86s.03-.08.06-.22c.04-.21.09-.42.13-.65.11-.57.26-1.39.4-2.42.27-2.03.56-4.95-.21-8.05-.79-3.1-2.73-5.47-4.48-6.58-.88-.57-1.67-.88-2.23-1.01-.56-.14-.88-.16-.88-.16-.03.07,1.32.15,3.03,1.3,1.7,1.12,3.59,3.46,4.36,6.51.76,3.05.5,5.95.27,7.98-.12,1.02-.25,1.85-.33,2.42-.03.23-.06.45-.09.66-.02.15-.03.23-.02.23h0Z" style="fill: #263238; stroke-width: 0px;"/>
            <path d="m346.52,167.75s0-.23-.04-.63c-.05-.53-.1-1.1-.16-1.71-.12-1.45-.22-3.46-.17-5.67.06-2.22.26-4.22.45-5.66.09-.61.17-1.17.25-1.7.06-.4.09-.63.07-.63-.01,0-.07.22-.16.61-.09.4-.2.98-.31,1.7-.23,1.44-.46,3.45-.52,5.67-.05,2.23.07,4.24.23,5.69.08.72.16,1.31.23,1.71.07.4.11.62.13.62h0Z" style="fill: #263238; stroke-width: 0px;"/>
          </g>
        </g>
      </g>
      <path d="m313.28,107.76c-.38-2.97-.33-4.83-.26-5.73.03-.42-.32-.75-.73-.72-.76.07-1.88.5-2.57,2.24-.42,1.07-.3,2.17-.29,3.23.02,1.78,0,3.18,0,3.18,0,0-8.88-10.63-10.68-11.11-.97-.26-1.32.03-1.68.6-.33.53.33,1.77.33,1.77l5.01,7.16s-7.57-8.91-8.94-8.88c-1.4.03-1.97,1.04-1.11,2.65.65,1.21,7.26,9.04,7.26,9.04,0,0-7.07-6.83-8.48-6.77-1.41.06-1.17,1.55-.43,2.17.74.62,5.97,6.7,5.97,6.7,0,0-5.11-4.31-6.14-3.97-1.06.35-.59,1.48-.04,2.41.54.92,13.36,13.74,13.36,13.74l11.11-5.58h0c.29-1.56.24-3.16-.17-4.7-.51-1.9-1.18-4.75-1.53-7.45v.02Z" style="fill: #ffd3c1; stroke-width: 0px;"/>
    </g>
  </g>
  <g id="Folder">
    <g>
      <g>
        <path d="m150.01,234.04c-5.65,0-10.23-4.58-10.23-10.23v-88.94c0-4.53,3.92-8.19,8.75-8.19h8.36c3.41,0,6.51-1.86,7.94-4.76l1.8-3.65c1.43-2.9,4.53-4.76,7.94-4.76h39.7c3.09,0,5.96,1.53,7.53,4.03l1.95,3.09c1.57,2.49,4.44,4.03,7.53,4.03h50.61c4.83,0,8.75,3.67,8.75,8.19v90.96c0,5.65-4.58,10.23-10.23,10.23h-130.4Z" style="fill: #ff966c; stroke-width: 0px;"/>
        <g style="opacity: .3;">
          <path d="m150.01,234.04c-5.65,0-10.23-4.58-10.23-10.23v-88.94c0-4.53,3.92-8.19,8.75-8.19h8.36c3.41,0,6.51-1.86,7.94-4.76l1.8-3.65c1.43-2.9,4.53-4.76,7.94-4.76h39.7c3.09,0,5.96,1.53,7.53,4.03l1.95,3.09c1.57,2.49,4.44,4.03,7.53,4.03h50.61c4.83,0,8.75,3.67,8.75,8.19v90.96c0,5.65-4.58,10.23-10.23,10.23h-130.4Z" style="stroke-width: 0px;"/>
        </g>
      </g>
      <g>
        <path d="m226.29,124.65l-32.19-.07-2.88-5.38c-1.87-3.49-5.67-5.69-9.84-5.69h-31.47c-5.6,0-10.14,4.25-10.14,9.5v100.24c0,5.96,5.16,10.79,11.52,10.79h127.82c6.36,0,11.52-4.83,11.52-10.79v-91.23c0-4.07-3.3-7.37-7.37-7.37h-56.98.01Z" style="fill: #ff966c; stroke-width: 0px;"/>
        <g>
          <path d="m242.53,200.61h-14.25c-.56,0-1.01-.45-1.01-1.01s.45-1.01,1.01-1.01h14.25c7.82,0,14.18-6.36,14.18-14.18s-5.89-13.73-13.4-14.14c-.44-.02-.81-.33-.92-.75-2.58-10.01-11.6-17-21.93-17-6.91,0-13.35,3.1-17.69,8.51-.22.27-.56.41-.9.37-.79-.09-1.5-.14-2.16-.14-10.29,0-18.66,8.37-18.66,18.66s8.37,18.66,18.66,18.66h11.55c.56,0,1.01.45,1.01,1.01s-.45,1.01-1.01,1.01h-11.55c-11.4,0-20.68-9.28-20.68-20.68s9.28-20.68,20.68-20.68c.58,0,1.19.03,1.84.09,4.71-5.62,11.58-8.84,18.91-8.84,11.01,0,20.65,7.29,23.69,17.82,8.23.82,14.58,7.75,14.58,16.09,0,8.93-7.26,16.19-16.19,16.19v.02Z" style="fill: #fff; stroke-width: 0px;"/>
          <path d="m219.49,209.71c-.56,0-1.01-.45-1.01-1.01v-26c0-.56.45-1.01,1.01-1.01s1.01.45,1.01,1.01v26c0,.56-.45,1.01-1.01,1.01Z" style="fill: #fff; stroke-width: 0px;"/>
          <path d="m227.08,193.08c-.31,0-.61-.14-.81-.4l-6.63-8.88c-.06-.07-.11-.08-.19-.09-.06,0-.13.02-.19.09l-7.03,8.63c-.35.43-.99.5-1.42.15s-.5-.99-.15-1.42l7.03-8.63c.44-.54,1.09-.83,1.79-.84.7,0,1.34.33,1.77.89l6.63,8.89c.33.45.24,1.08-.2,1.41-.18.14-.39.2-.6.2Z" style="fill: #fff; stroke-width: 0px;"/>
        </g>
      </g>
    </g>
  </g>
  <g id="Progress">
    <g>
      <g>
        <path d="m199.97,255.11v-4.48h.83v4.45c0,1.86.87,2.71,2.39,2.71s2.4-.85,2.4-2.71v-4.45h.81v4.48c0,2.25-1.21,3.41-3.21,3.41s-3.22-1.16-3.22-3.41h0Z" style="fill: #ff966c; stroke-width: 0px;"/>
        <path d="m214.68,255.52c0,1.79-1.25,3-2.93,3-.94,0-1.74-.4-2.24-1.16v3.28h-.79v-8.05h.76v1.16c.48-.78,1.3-1.21,2.27-1.21,1.68,0,2.93,1.21,2.93,2.98Zm-.79,0c0-1.36-.95-2.29-2.19-2.29s-2.19.93-2.19,2.29.94,2.29,2.19,2.29,2.19-.92,2.19-2.29Z" style="fill: #ff966c; stroke-width: 0px;"/>
        <path d="m216.3,250.16h.79v8.3h-.79v-8.3h0Z" style="fill: #ff966c; stroke-width: 0px;"/>
        <path d="m218.72,255.52c0-1.74,1.27-2.98,3-2.98s2.99,1.24,2.99,2.98-1.26,3-2.99,3-3-1.25-3-3h0Zm5.18,0c0-1.38-.93-2.29-2.18-2.29s-2.19.92-2.19,2.29.94,2.29,2.19,2.29,2.18-.92,2.18-2.29Z" style="fill: #ff966c; stroke-width: 0px;"/>
        <path d="m230.72,254.81v3.64h-.76v-.92c-.36.6-1.05.97-2.02.97-1.33,0-2.15-.69-2.15-1.71,0-.91.58-1.67,2.27-1.67h1.87v-.36c0-1.01-.57-1.55-1.67-1.55-.76,0-1.48.27-1.96.69l-.36-.59c.59-.5,1.46-.79,2.39-.79,1.52,0,2.38.76,2.38,2.28h0Zm-.79,1.88v-.96h-1.84c-1.14,0-1.51.45-1.51,1.05,0,.68.55,1.11,1.49,1.11s1.55-.43,1.87-1.2h-.01Z" style="fill: #ff966c; stroke-width: 0px;"/>
        <path d="m238.27,250.16v8.3h-.76v-1.16c-.48.79-1.3,1.22-2.27,1.22-1.68,0-2.93-1.22-2.93-3s1.25-2.98,2.93-2.98c.94,0,1.75.4,2.24,1.16v-3.53h.79Zm-.78,5.36c0-1.38-.94-2.29-2.18-2.29s-2.19.92-2.19,2.29.94,2.29,2.19,2.29,2.18-.92,2.18-2.29Z" style="fill: #ff966c; stroke-width: 0px;"/>
        <path d="m239.96,257.9c0-.35.27-.6.59-.6s.6.26.6.6-.28.62-.6.62-.59-.27-.59-.62Z" style="fill: #ff966c; stroke-width: 0px;"/>
        <path d="m242.33,257.9c0-.35.27-.6.59-.6s.6.26.6.6-.28.62-.6.62-.59-.27-.59-.62Z" style="fill: #ff966c; stroke-width: 0px;"/>
        <path d="m244.7,257.9c0-.35.27-.6.59-.6s.6.26.6.6-.28.62-.6.62-.59-.27-.59-.62Z" style="fill: #ff966c; stroke-width: 0px;"/>
      </g>
      <g>
        <g>
          <rect x="133.03" y="271.84" width="169.22" height="15.19" rx="6.63" ry="6.63" style="fill: #e0e0e0; stroke-width: 0px;"/>
          <path d="m139.66,271.84h71.36c3.66,0,6.63,2.97,6.63,6.63v1.94c0,3.66-2.97,6.63-6.63,6.63h-71.36c-3.66,0-6.63-2.97-6.63-6.63v-1.94c0-3.66,2.97-6.63,6.63-6.63Z" style="fill: #ff966c; stroke-width: 0px;"/>
          <g style="opacity: .3;">
            <path d="m145.82,271.84l-9.01,14.29,1.41.63c.4.18.83.27,1.26.27h2.86l9.78-15.19h-6.32.02Z" style="fill: #fff; stroke-width: 0px;"/>
          </g>
          <g style="opacity: .3;">
            <polygon points="161.91 271.84 152.34 287.03 158.45 287.03 168.23 271.84 161.91 271.84" style="fill: #fff; stroke-width: 0px;"/>
          </g>
          <g style="opacity: .3;">
            <polygon points="178.01 271.84 168.43 287.03 174.55 287.03 184.32 271.84 178.01 271.84" style="fill: #fff; stroke-width: 0px;"/>
          </g>
          <g style="opacity: .3;">
            <polygon points="194.1 271.84 184.53 287.03 190.64 287.03 200.42 271.84 194.1 271.84" style="fill: #fff; stroke-width: 0px;"/>
          </g>
          <g style="opacity: .3;">
            <path d="m210.2,271.84l-9.57,15.19h6.11l7.7-11.97.91-1.3c-1.18-1.31-2.99-1.83-5.15-1.92h0Z" style="fill: #fff; stroke-width: 0px;"/>
          </g>
        </g>
        <path d="m295.77,287.03s.31,0,.92-.1c.6-.08,1.5-.29,2.51-.92,1.01-.6,2.11-1.68,2.73-3.29.31-.8.45-1.73.43-2.72-.02-1,.07-2.08-.24-3.15-.53-2.14-2.44-4.28-5.14-4.76-.66-.14-1.36-.11-2.08-.11h-2.19c-1.49,0-3.04,0-4.65.01-6.42.01-13.74.02-21.82.04-32.34.02-77,.05-126.33.08-1.48,0-2.95.53-4.09,1.47s-1.93,2.27-2.21,3.71c-.15.71-.12,1.45-.12,2.22s0,1.49.15,2.21c.3,1.42,1.12,2.72,2.23,3.63,1.12.91,2.55,1.41,3.98,1.43h13.25c11.63,0,22.85.01,33.54.02,21.37.02,40.62.04,56.79.06,16.16.04,29.23.06,38.29.08,4.51.02,8.02.04,10.41.05,1.18.01,2.08.02,2.71.03.61,0,.92.03.92.03,0,0-.31.02-.92.03-.62,0-1.53.01-2.71.03-2.39.01-5.9.03-10.41.05-9.05.02-22.13.05-38.29.08-16.17.02-35.42.03-56.79.06-10.69,0-21.91.01-33.54.02h-13.26c-1.55-.02-3.1-.56-4.31-1.54-1.21-.99-2.09-2.38-2.42-3.93-.17-.77-.16-1.57-.16-2.32s-.03-1.54.13-2.32c.31-1.55,1.17-2.99,2.39-4.01,1.23-1.01,2.82-1.58,4.42-1.59,49.32.03,93.98.06,126.33.08,8.08.01,15.39.03,21.82.04,1.61,0,3.15,0,4.65.01h2.19c.71,0,1.43-.02,2.12.13,2.8.52,4.76,2.74,5.29,4.95.31,1.12.21,2.21.22,3.21.01,1.01-.14,1.96-.47,2.78-.65,1.64-1.79,2.73-2.82,3.33-1.03.62-1.95.81-2.56.88s-.92.04-.92.04l.03-.03Z" style="fill: #263238; stroke-width: 0px;"/>
      </g>
    </g>
  </g>
</svg>