<svg xmlns="http://www.w3.org/2000/svg" width="346" height="257.812" viewBox="0 0 346 257.812">
  <g id="Uploading-rafiki" transform="translate(0 -55)">
    <g id="freepik--background-complete--inject-1" transform="translate(0 55)">
      <rect id="Rectangle_64" data-name="Rectangle 64" width="346" height="0.173" transform="translate(0 226.561)" fill="#ebebeb"/>
      <rect id="Rectangle_65" data-name="Rectangle 65" width="22.919" height="0.173" transform="translate(288.412 237.695)" fill="#ebebeb"/>
      <rect id="Rectangle_66" data-name="Rectangle 66" width="6.013" height="0.173" transform="translate(223.191 239.577)" fill="#ebebeb"/>
      <rect id="Rectangle_67" data-name="Rectangle 67" width="13.279" height="0.173" transform="translate(274.44 231.273)" fill="#ebebeb"/>
      <rect id="Rectangle_68" data-name="Rectangle 68" width="29.887" height="0.173" transform="translate(36.302 232.436)" fill="#ebebeb"/>
      <rect id="Rectangle_69" data-name="Rectangle 69" width="4.38" height="0.173" transform="translate(72.356 232.436)" fill="#ebebeb"/>
      <rect id="Rectangle_70" data-name="Rectangle 70" width="64.827" height="0.173" transform="translate(90.977 235.356)" fill="#ebebeb"/>
      <path id="Path_177" data-name="Path 177" d="M175.773,250.7H42.154a3.951,3.951,0,0,1-3.944-3.951V58.917A3.951,3.951,0,0,1,42.154,55H175.773a3.951,3.951,0,0,1,3.951,3.951V246.746A3.951,3.951,0,0,1,175.773,250.7ZM42.154,55.138a3.778,3.778,0,0,0-3.771,3.778v187.83a3.778,3.778,0,0,0,3.771,3.778H175.773a3.785,3.785,0,0,0,3.778-3.778V58.917a3.785,3.785,0,0,0-3.778-3.778Z" transform="translate(-11.769 -55)" fill="#ebebeb"/>
      <path id="Path_178" data-name="Path 178" d="M392.077,250.7H258.451a3.958,3.958,0,0,1-3.951-3.951V58.917A3.958,3.958,0,0,1,258.451,55H392.077a3.951,3.951,0,0,1,3.938,3.917v187.83A3.951,3.951,0,0,1,392.077,250.7ZM258.451,55.138a3.785,3.785,0,0,0-3.778,3.778v187.83a3.785,3.785,0,0,0,3.778,3.778H392.077a3.785,3.785,0,0,0,3.778-3.778V58.917a3.785,3.785,0,0,0-3.778-3.778Z" transform="translate(-78.386 -55)" fill="#ebebeb"/>
      <rect id="Rectangle_71" data-name="Rectangle 71" width="90.264" height="4.636" transform="translate(219.226 57.858)" fill="#e0e0e0"/>
      <rect id="Rectangle_72" data-name="Rectangle 72" width="3.979" height="17.092" transform="translate(223.378 40.766)" fill="#ebebeb"/>
      <rect id="Rectangle_73" data-name="Rectangle 73" width="3.979" height="17.092" transform="translate(242.608 40.766)" fill="#ebebeb"/>
      <rect id="Rectangle_74" data-name="Rectangle 74" width="3.979" height="17.092" transform="matrix(0.985, -0.17, 0.17, 0.985, 264.499, 41.002)" fill="#ebebeb"/>
      <rect id="Rectangle_75" data-name="Rectangle 75" width="3.979" height="14.843" transform="translate(228.305 43.022)" fill="#ebebeb"/>
      <rect id="Rectangle_76" data-name="Rectangle 76" width="3.979" height="14.843" transform="translate(237.446 43.022)" fill="#ebebeb"/>
      <rect id="Rectangle_77" data-name="Rectangle 77" width="3.979" height="14.843" transform="translate(260.517 43.022)" fill="#ebebeb"/>
      <rect id="Rectangle_78" data-name="Rectangle 78" width="3.979" height="14.843" transform="translate(247.924 43.361) rotate(-12.53)" fill="#ebebeb"/>
      <rect id="Rectangle_79" data-name="Rectangle 79" width="1.986" height="17.944" transform="translate(233.737 39.915)" fill="#ebebeb"/>
      <rect id="Rectangle_80" data-name="Rectangle 80" width="1.986" height="17.944" transform="translate(257.389 39.915)" fill="#ebebeb"/>
      <rect id="Rectangle_81" data-name="Rectangle 81" width="19.376" height="13.376" transform="translate(281.45 44.33)" fill="#ebebeb"/>
      <rect id="Rectangle_82" data-name="Rectangle 82" width="90.264" height="4.636" transform="translate(309.49 97.115) rotate(180)" fill="#e0e0e0"/>
      <rect id="Rectangle_83" data-name="Rectangle 83" width="3.979" height="17.092" transform="translate(305.331 92.486) rotate(180)" fill="#ebebeb"/>
      <rect id="Rectangle_84" data-name="Rectangle 84" width="3.979" height="17.092" transform="translate(286.107 92.486) rotate(180)" fill="#ebebeb"/>
      <rect id="Rectangle_85" data-name="Rectangle 85" width="3.979" height="17.092" transform="matrix(-0.985, -0.17, 0.17, -0.985, 261.32, 92.481)" fill="#ebebeb"/>
      <rect id="Rectangle_86" data-name="Rectangle 86" width="3.979" height="14.843" transform="translate(300.404 92.479) rotate(180)" fill="#ebebeb"/>
      <rect id="Rectangle_87" data-name="Rectangle 87" width="3.979" height="14.843" transform="translate(291.27 92.479) rotate(180)" fill="#ebebeb"/>
      <rect id="Rectangle_88" data-name="Rectangle 88" width="3.979" height="14.843" transform="translate(268.198 92.479) rotate(180)" fill="#ebebeb"/>
      <rect id="Rectangle_89" data-name="Rectangle 89" width="3.979" height="14.843" transform="translate(277.581 92.472) rotate(-167.47)" fill="#ebebeb"/>
      <rect id="Rectangle_90" data-name="Rectangle 90" width="1.986" height="17.944" transform="translate(294.979 92.479) rotate(180)" fill="#ebebeb"/>
      <rect id="Rectangle_91" data-name="Rectangle 91" width="1.986" height="17.944" transform="translate(271.326 92.479) rotate(180)" fill="#ebebeb"/>
      <rect id="Rectangle_92" data-name="Rectangle 92" width="19.376" height="13.376" transform="translate(247.259 92.334) rotate(180)" fill="#ebebeb"/>
      <path id="Path_179" data-name="Path 179" d="M53,266v80.964h4.152V274.3H130.5v72.66h4.844V266Z" transform="translate(-16.324 -119.988)" fill="#e0e0e0"/>
      <path id="Path_180" data-name="Path 180" d="M119,266v80.964h4.152V274.3H196.5v72.66h4.844V266Z" transform="translate(-36.652 -119.988)" fill="#f5f5f5"/>
      <path id="Path_181" data-name="Path 181" d="M146.987,213.069c-.927-1.522-2.45-.194-2.45-.194.215-2.927-2.47-4.92-2.47-4.92s3.121,0,3.557-2.983-1.086-1.592-2.519-1.612-2.927,4.152-1.038,6.5,1.384,6.366-2.976,10.221a8.553,8.553,0,0,0-2.277,3.55c.332-3.543.519-8.539-.526-11.868-1.771-5.667,1.605-7.19,2.581-10.02s-2.581-5.232-2.581-5.232,3.349-1.522,1.709-3.266-5-1.509-5,.775a3.6,3.6,0,0,0,2.284,3.149s2.616,2.72,2.616,4.152-2.616,4.463-2.616,4.463,1.2-2.609-1.2-2.72-3.162,3.045-2.18,4.463,2.616.215,2.616.215a27.294,27.294,0,0,0,.747,4.9,39.628,39.628,0,0,1-.076,7.335,8.3,8.3,0,0,0-2.124-3.149c-4.353-3.854-4.844-7.868-2.976-10.221s.394-6.526-1.038-6.5-2.955-1.384-2.519,1.612a3.568,3.568,0,0,0,3.557,2.983s-2.685,1.993-2.464,4.92c0,0-1.529-1.329-2.457.194-1.647,2.726,2.18,4.415,2.823,3.072,0,0,8.124,5.751,6.166,14.027l.457.692c-.062.692-.1,1.073-.1,1.073l.637-.27.692,1.066a24.909,24.909,0,0,0,.187,3.6l1.938-2.872c-1.958-8.3,6.166-14.027,6.166-14.027C144.807,217.484,148.641,215.8,146.987,213.069Z" transform="translate(-38.426 -97.228)" fill="#e0e0e0"/>
      <path id="Path_182" data-name="Path 182" d="M144.423,257.376,141.8,242.367l.74-4.367h-8.256l.74,4.367-2.616,15.009Z" transform="translate(-40.782 -111.364)" fill="#ebebeb"/>
    </g>
    <g id="freepik--Shadow--inject-1" transform="translate(38.828 297.145)">
      <ellipse id="freepik--path--inject-1" cx="134.172" cy="7.833" rx="134.172" ry="7.833" fill="#f5f5f5"/>
    </g>
    <g id="freepik--Files--inject-1" transform="translate(45.014 56.246)">
      <rect id="Rectangle_93" data-name="Rectangle 93" width="24.227" height="31.638" transform="translate(141.778 23.427) rotate(28.37)" fill="#fab228"/>
      <rect id="Rectangle_94" data-name="Rectangle 94" width="24.227" height="31.638" transform="translate(141.778 23.427) rotate(28.37)" fill="#fff" opacity="0.6"/>
      <rect id="Rectangle_95" data-name="Rectangle 95" width="16.996" height="1.709" transform="translate(142.833 29.091) rotate(28.37)" fill="#fab228"/>
      <rect id="Rectangle_96" data-name="Rectangle 96" width="16.996" height="1.709" transform="translate(141.412 31.726) rotate(28.37)" fill="#fab228"/>
      <rect id="Rectangle_97" data-name="Rectangle 97" width="16.996" height="1.709" transform="translate(139.987 34.359) rotate(28.37)" fill="#fab228"/>
      <rect id="Rectangle_98" data-name="Rectangle 98" width="16.996" height="1.709" transform="translate(138.56 36.991) rotate(28.37)" fill="#fab228"/>
      <rect id="Rectangle_99" data-name="Rectangle 99" width="16.996" height="1.709" transform="translate(137.142 39.62) rotate(28.37)" fill="#fab228"/>
      <rect id="Rectangle_100" data-name="Rectangle 100" width="16.996" height="1.709" transform="translate(135.721 42.259) rotate(28.37)" fill="#fab228"/>
      <rect id="Rectangle_101" data-name="Rectangle 101" width="16.996" height="1.709" transform="translate(134.303 44.888) rotate(28.37)" fill="#fab228"/>
      <rect id="Rectangle_102" data-name="Rectangle 102" width="11.003" height="1.709" transform="translate(132.873 47.524) rotate(28.37)" fill="#fab228"/>
      <path id="Path_183" data-name="Path 183" d="M212.762,93.981A15.328,15.328,0,1,1,229.57,80.293,15.328,15.328,0,0,1,212.762,93.981Z" transform="translate(-106.304 -58.834)" fill="#fab228"/>
      <circle id="Ellipse_6" data-name="Ellipse 6" cx="13.985" cy="13.985" r="13.985" transform="translate(93.006 7.011) rotate(-4.4)" fill="#fff" opacity="0.3"/>
      <path id="Path_184" data-name="Path 184" d="M222.982,76.745c-1.612-1.142-3.861-5.045-3.861-5.065l-1.453,14.144c.035-.318-1.225-.644-2.076-.692-2.028-.215-3.737.74-3.875,2.076s1.384,2.664,3.46,2.872,3.716-.747,3.861-2.118c0-.208-.145-.429-.125-.616l1.114-10.9a9.176,9.176,0,0,0,3,2.277,4.67,4.67,0,0,1,2.076,2.816A5.481,5.481,0,0,0,222.982,76.745Z" transform="translate(-110.22 -61.383)" fill="#fff"/>
      <ellipse id="Ellipse_7" data-name="Ellipse 7" cx="11.03" cy="9.141" rx="11.03" ry="9.141" transform="matrix(0.888, -0.46, 0.46, 0.888, 92.407, 13.643)" fill="#fff" opacity="0.5"/>
      <rect id="Rectangle_103" data-name="Rectangle 103" width="33.043" height="24.739" transform="translate(45.081 2.679) rotate(-4.65)" fill="#fab228"/>
      <rect id="Rectangle_104" data-name="Rectangle 104" width="29.756" height="21.452" transform="translate(46.894 4.143) rotate(-4.65)" fill="#fab228"/>
      <rect id="Rectangle_105" data-name="Rectangle 105" width="29.756" height="21.452" transform="translate(46.894 4.143) rotate(-4.65)" fill="#fff" opacity="0.5"/>
      <path id="Path_185" data-name="Path 185" d="M164.368,81.137l.235,2.906-29.659,2.415L134.1,76.064l5.681-5.854,9.806,8.117,4.526-3.9Z" transform="translate(-86.317 -60.93)" fill="#fab228"/>
      <path id="Path_186" data-name="Path 186" d="M164.368,81.137l.235,2.906-29.659,2.415L134.1,76.064l5.681-5.854,9.806,8.117,4.526-3.9Z" transform="translate(-86.317 -60.93)" fill="#fff" opacity="0.3"/>
      <path id="Path_187" data-name="Path 187" d="M167.062,67.02a2.394,2.394,0,1,1-2.581-2.194,2.394,2.394,0,0,1,2.581,2.194Z" transform="translate(-94.997 -59.27)" fill="#fab228"/>
      <path id="Path_188" data-name="Path 188" d="M167.062,67.02a2.394,2.394,0,1,1-2.581-2.194,2.394,2.394,0,0,1,2.581,2.194Z" transform="translate(-94.997 -59.27)" fill="#fff" opacity="0.3"/>
      <path id="Path_189" data-name="Path 189" d="M79.817,96.753l-1.273-.782a1.7,1.7,0,0,0-1.522-.132l-5.654,2.387a1.481,1.481,0,0,0-.907,1.149l-.208,1.384a1.439,1.439,0,0,1-.9,1.142l-3.377,1.384a1.488,1.488,0,0,0-.754,2.076l9,18.435a1.7,1.7,0,0,0,2.152.823l26.753-11.169a1.481,1.481,0,0,0,.761-2.076l-9-18.428a1.7,1.7,0,0,0-2.152-.83l-11.4,4.768A1.7,1.7,0,0,1,79.817,96.753Z" transform="translate(-65.049 -67.641)" fill="#fab228"/>
      <path id="Path_190" data-name="Path 190" d="M98.5,93.089l-24.5,10.269a2.221,2.221,0,0,0-1.246,2.678l5.363,16.975a1.8,1.8,0,0,0,2.457,1.107l24.511-10.255a2.235,2.235,0,0,0,1.246-2.678l-5.37-16.975A1.792,1.792,0,0,0,98.5,93.089Z" transform="translate(-67.391 -67.928)" fill="#fab228"/>
      <path id="Path_191" data-name="Path 191" d="M98.5,93.089l-24.5,10.269a2.221,2.221,0,0,0-1.246,2.678l5.363,16.975a1.8,1.8,0,0,0,2.457,1.107l24.511-10.255a2.235,2.235,0,0,0,1.246-2.678l-5.37-16.975A1.792,1.792,0,0,0,98.5,93.089Z" transform="translate(-67.391 -67.928)" fill="#fff" opacity="0.5"/>
    </g>
    <g id="freepik--Cloud--inject-1" transform="translate(68.514 83.371)">
      <path id="Path_192" data-name="Path 192" d="M195.523,134.752a20.85,20.85,0,0,0,.457-4.346,20.635,20.635,0,0,0-20.635-20.635,21.008,21.008,0,0,0-3.813.353c-.526-.1-1.059,0-1.605-.062A24.165,24.165,0,0,0,147.789,96h-7.612a24.22,24.22,0,0,0-24.338,24.165v.45a20.372,20.372,0,0,0,3.737,40.434h74.736a13.162,13.162,0,0,0,1.2-26.3Z" transform="translate(-99.009 -95.999)" fill="#fab228"/>
      <path id="Path_193" data-name="Path 193" d="M195.523,134.752a20.85,20.85,0,0,0,.457-4.346,20.635,20.635,0,0,0-20.635-20.635,21.008,21.008,0,0,0-3.813.353c-.526-.1-1.059,0-1.605-.062A24.165,24.165,0,0,0,147.789,96h-7.612a24.22,24.22,0,0,0-24.338,24.165v.45a20.372,20.372,0,0,0,3.737,40.434h74.736a13.162,13.162,0,0,0,1.2-26.3Z" transform="translate(-99.009 -95.999)" fill="#fff" opacity="0.5"/>
      <path id="Path_194" data-name="Path 194" d="M198.911,134.752a20.849,20.849,0,0,0,.457-4.346,20.635,20.635,0,0,0-20.635-20.635,21.008,21.008,0,0,0-3.813.353c-.526-.1-1.059,0-1.605-.062A24.165,24.165,0,0,0,151.177,96h0a24.22,24.22,0,0,0-24.338,24.165v.45a20.372,20.372,0,0,0,3.737,40.434H197.7a13.162,13.162,0,0,0,1.2-26.3Z" transform="translate(-102.397 -95.999)" fill="#fff" opacity="0.4"/>
      <path id="Path_195" data-name="Path 195" d="M238.82,220.52h-23.3a34.642,34.642,0,0,1-34.6-34.6V179H174v6.92a41.568,41.568,0,0,0,41.52,41.52h23.3Z" transform="translate(-122.106 -121.563)" fill="#fab228"/>
      <path id="Path_196" data-name="Path 196" d="M176.21,172.34l-6,5.993H182.2Z" transform="translate(-120.939 -119.512)" fill="#fab228"/>
    </g>
    <g id="freepik--Stuff--inject-1" transform="translate(50.516 241.082)">
      <path id="Path_197" data-name="Path 197" d="M102.432,359.755,98.28,347.071a18.1,18.1,0,0,1,15.03-4.034l3.46,11.875Z" transform="translate(-80.786 -329.705)" fill="#fab228"/>
      <path id="Path_198" data-name="Path 198" d="M102.432,359.755,98.28,347.071a18.1,18.1,0,0,1,15.03-4.034l3.46,11.875Z" transform="translate(-80.786 -329.705)" fill="#fff" opacity="0.7"/>
      <g id="Group_2" data-name="Group 2" transform="translate(19.473 15.868)" opacity="0.2">
        <path id="Path_199" data-name="Path 199" d="M101.14,351.33a11.219,11.219,0,0,1,1.64-1.5,14.722,14.722,0,0,1,1.924-1.259c.367-.194.754-.4,1.163-.581a10.9,10.9,0,0,1,1.253-.484,12.4,12.4,0,0,1,1.294-.36l.644-.145.644-.076c.208,0,.415-.062.616-.076h.6a6.224,6.224,0,0,1,1.093.035c.332.035.637.062.907.111l.692.159.588.152h-.609l-.692-.035h-.9a9.624,9.624,0,0,0-1.045.083,10.161,10.161,0,0,0-1.156.173l-.609.111-.609.159a11.378,11.378,0,0,0-1.232.367c-.422.111-.817.3-1.218.443s-.775.332-1.142.505-.692.346-1.052.533-.644.346-.927.512c-.567.332-1.038.616-1.384.837Z" transform="translate(-101.14 -346.836)"/>
        <path id="Path_200" data-name="Path 200" d="M101.67,353.19s.159-.138.464-.353.734-.526,1.28-.844a20.833,20.833,0,0,1,1.917-1.024,22.972,22.972,0,0,1,2.311-.941c.408-.118.817-.256,1.218-.367a11.11,11.11,0,0,1,1.2-.27c.394-.062.775-.152,1.142-.18s.692-.076,1.031-.083a11.921,11.921,0,0,1,1.536.055l.581.069s-.215.035-.581.069a2.315,2.315,0,0,0-.65.069l-.844.132c-.311.048-.637.138-.99.2s-.692.18-1.086.263-.761.221-1.156.318-.782.256-1.176.381c-1.578.526-3.121,1.163-4.277,1.654-.574.256-1.066.45-1.384.609Z" transform="translate(-101.303 -347.54)"/>
        <path id="Path_201" data-name="Path 201" d="M103.08,356.492a4.845,4.845,0,0,1,.429-.381c.277-.228.692-.554,1.19-.906a17.98,17.98,0,0,1,1.82-1.1,19.28,19.28,0,0,1,2.221-1.017,16.544,16.544,0,0,1,2.353-.692,9.766,9.766,0,0,1,1.121-.166c.36,0,.692-.076,1.01-.069l.851.035a4.716,4.716,0,0,1,.65.083l.561.1s-.208,0-.567.035a3.614,3.614,0,0,0-.637.042l-.83.111c-.3.035-.616.118-.962.173s-.692.18-1.059.256-.734.228-1.114.332-.754.263-1.135.394-.754.284-1.121.443-.734.3-1.073.464c-.692.311-1.336.63-1.882.9s-1.01.505-1.322.692Z" transform="translate(-101.738 -348.475)"/>
        <path id="Path_202" data-name="Path 202" d="M103.92,359.057a11.291,11.291,0,0,1,1.557-1.287,15.592,15.592,0,0,1,1.785-1.066c.346-.166.692-.332,1.073-.484a11.325,11.325,0,0,1,1.149-.408,11.874,11.874,0,0,1,1.183-.3,8.914,8.914,0,0,1,1.169-.187,7.609,7.609,0,0,1,1.107-.062,6.43,6.43,0,0,1,.983.042l.83.111.623.152c.339.09.533.152.533.152h-1.993a7.812,7.812,0,0,0-.948.055,10.064,10.064,0,0,0-1.052.145c-.36.048-.692.152-1.107.235s-.747.2-1.121.311a21.675,21.675,0,0,0-2.173.789c-.692.291-1.308.588-1.841.851s-.976.5-1.28.692Z" transform="translate(-101.996 -349.429)"/>
        <path id="Path_203" data-name="Path 203" d="M105.08,361.984a4.749,4.749,0,0,1,.408-.381c.27-.228.65-.554,1.142-.907a16.923,16.923,0,0,1,1.751-1.1c.325-.187.692-.367,1.038-.533s.74-.311,1.114-.478a10.159,10.159,0,0,1,1.149-.381,9.853,9.853,0,0,1,1.149-.27,10.677,10.677,0,0,1,1.086-.145c.353,0,.692-.055.99-.042l.83.055a3.463,3.463,0,0,1,.63.111l.54.125H115.73l-.8.076c-.291.035-.609.111-.934.152s-.692.166-1.031.235-.692.221-1.086.318a9.391,9.391,0,0,0-1.1.388c-.367.138-.734.277-1.086.436s-.692.3-1.038.464c-.692.311-1.28.63-1.813.9s-.976.5-1.273.692Z" transform="translate(-102.354 -350.196)"/>
      </g>
      <path id="Path_204" data-name="Path 204" d="M101.514,364.5l8.525-6.463a.92.92,0,0,1,.74-.173l9.736,1.848a.934.934,0,0,1,.27,1.744l-8.034,4.353a1.009,1.009,0,0,1-.422.111l-10.242.263a.934.934,0,0,1-.574-1.682Z" transform="translate(-81.667 -334.358)" fill="#fab228"/>
      <path id="Path_205" data-name="Path 205" d="M123.89,357.879S137,326.164,139.308,324.2s16.954,6.553,16.954,6.553l-13.037,33.472Z" transform="translate(-88.674 -323.905)" fill="#fab228"/>
      <path id="Path_206" data-name="Path 206" d="M128.15,357.929s12.553-30.3,14.421-31.6,12.567,4.27,12.567,4.27-11.148-6.809-14.567-5.654-15.072,32.3-15.072,32.3Z" transform="translate(-89.17 -324.183)" opacity="0.2"/>
      <rect id="Rectangle_106" data-name="Rectangle 106" width="55.664" height="32.87" transform="translate(9.73 30.86)" fill="#263238"/>
      <rect id="Rectangle_107" data-name="Rectangle 107" width="55.664" height="32.87" transform="translate(9.73 30.86)" fill="#fff" opacity="0.2"/>
      <rect id="Rectangle_108" data-name="Rectangle 108" width="34.558" height="32.87" transform="translate(30.836 30.86)" fill="#fff" opacity="0.4"/>
      <path id="Path_207" data-name="Path 207" d="M117.56,364.3l13.106-10.553,29.237,1.993-7.785,8.56Z" transform="translate(-86.724 -333.097)" fill="#263238"/>
      <path id="Path_208" data-name="Path 208" d="M103.836,363.918l-9.9-11.418L73,354.749l9.73,8.823Z" transform="translate(-73 -332.712)" fill="#263238"/>
      <path id="Path_209" data-name="Path 209" d="M103.836,363.918l-9.9-11.418L73,354.749l9.73,8.823Z" transform="translate(-73 -332.712)" fill="#fff" opacity="0.1"/>
      <path id="Path_210" data-name="Path 210" d="M117.56,364.3l13.106-10.553,29.237,1.993-7.785,8.56Z" transform="translate(-86.724 -333.097)" fill="#fff" opacity="0.4"/>
      <path id="Path_211" data-name="Path 211" d="M148.334,390.36a8.844,8.844,0,1,0,8.844,8.844A8.844,8.844,0,0,0,148.334,390.36Zm0,12.366a3.522,3.522,0,1,1,2.5-1.029A3.529,3.529,0,0,1,148.334,402.726Z" transform="translate(-93.479 -344.373)" fill="#fab228"/>
      <path id="Path_212" data-name="Path 212" d="M156.306,395.363a8.565,8.565,0,0,0-.54-.948,7.878,7.878,0,0,0-.886-1.156,8.747,8.747,0,0,0-5.861-2.865,5.673,5.673,0,0,0-.692-.035,8.851,8.851,0,0,0-8.574,10.989,7.249,7.249,0,0,0,.318,1,7.964,7.964,0,0,0,.692,1.384,8.823,8.823,0,0,0,6.809,4.256c.256,0,.512.035.768.035a8.851,8.851,0,0,0,7.972-12.677Zm-7.972,7.363a2.669,2.669,0,0,1-.332,0,3.508,3.508,0,0,1-2.927-2.166,3.828,3.828,0,0,1-.194-.623,3.749,3.749,0,0,1-.048-.4,2.36,2.36,0,0,1,0-.311,3.522,3.522,0,0,1,3.522-3.529,1.509,1.509,0,0,1,.249,0,3.5,3.5,0,0,1,1.986.775,3.359,3.359,0,0,1,.388.381,2.7,2.7,0,0,1,.277.353,3.46,3.46,0,0,1,.63,2.007,3.522,3.522,0,0,1-3.55,3.515Z" transform="translate(-93.479 -344.373)" fill="#fff" opacity="0.7"/>
      <path id="Path_213" data-name="Path 213" d="M148.565,407.236l-.436,5.3a8.823,8.823,0,0,1-6.809-4.256l4.318-3.211a3.508,3.508,0,0,0,2.927,2.166Z" transform="translate(-94.043 -348.904)" fill="#fff" opacity="0.2"/>
      <path id="Path_214" data-name="Path 214" d="M158.927,393.275l-4.311,3.2a3.5,3.5,0,0,0-1.986-.775l.436-5.294A8.747,8.747,0,0,1,158.927,393.275Z" transform="translate(-97.526 -344.388)" fill="#fff" opacity="0.2"/>
      <path id="Path_215" data-name="Path 215" d="M145,403.991l-4.8,2.429a7.257,7.257,0,0,1-.318-1l5.072-1.834a3.751,3.751,0,0,0,.048.4Z" transform="translate(-93.599 -348.448)" fill="#fff" opacity="0.2"/>
      <path id="Path_216" data-name="Path 216" d="M161.409,397.168,156.337,399a2.705,2.705,0,0,0-.277-.353l4.809-2.429a8.561,8.561,0,0,1,.54.948Z" transform="translate(-98.582 -346.178)" fill="#fff" opacity="0.2"/>
      <path id="Path_217" data-name="Path 217" d="M158.783,393.91c-4.844,0-7.494,3.412-5.834,7.612s6.955,7.612,11.833,7.612,7.5-3.4,5.841-7.612S163.668,393.91,158.783,393.91Zm4.2,10.65a5.37,5.37,0,0,1-4.719-3.038c-.692-1.675.381-3.038,2.325-3.038a5.384,5.384,0,0,1,4.719,3.038c.671,1.675-.381,3.038-2.325,3.038Z" transform="translate(-97.472 -345.466)" fill="#fab228"/>
      <path id="Path_218" data-name="Path 218" d="M168.453,398.227c-.27-.277-.554-.554-.858-.817a12.326,12.326,0,0,0-1.28-.99,13.75,13.75,0,0,0-6.83-2.47h-.692c-4.844,0-7.494,3.4-5.834,7.612a9,9,0,0,0,.99,1.848,8.318,8.318,0,0,0,.692.858,11.168,11.168,0,0,0,1.156,1.211,14.117,14.117,0,0,0,8.249,3.668h.782c4.885,0,7.5-3.412,5.847-7.612A10.477,10.477,0,0,0,168.453,398.227Zm-5.474,6.346h-.339a5.647,5.647,0,0,1-3.661-1.862,4.2,4.2,0,0,1-.4-.54,3.341,3.341,0,0,1-.187-.346,2.339,2.339,0,0,1-.125-.27c-.692-1.682.381-3.038,2.325-3.038a1.506,1.506,0,0,1,.249,0,5.322,5.322,0,0,1,2.249.692,5.066,5.066,0,0,1,.519.332,3.324,3.324,0,0,1,.395.3,4.345,4.345,0,0,1,1.315,1.723c.664,1.64-.388,3-2.339,3Z" transform="translate(-97.475 -345.479)" fill="#fff" opacity="0.1"/>
      <path id="Path_219" data-name="Path 219" d="M164.115,408.438l1.384,4.567a14.117,14.117,0,0,1-8.249-3.668l3.225-2.768A5.646,5.646,0,0,0,164.115,408.438Z" transform="translate(-98.949 -349.366)" fill="#fff" opacity="0.2"/>
      <path id="Path_220" data-name="Path 220" d="M169.428,396.414l-3.225,2.768a5.321,5.321,0,0,0-2.249-.692l-1.384-4.56a13.751,13.751,0,0,1,6.858,2.484Z" transform="translate(-100.588 -345.472)" fill="#fff" opacity="0.2"/>
      <path id="Path_221" data-name="Path 221" d="M159.221,405.646l-3.979,2.076a8.3,8.3,0,0,1-.692-.858l4.463-1.564A3.328,3.328,0,0,0,159.221,405.646Z" transform="translate(-98.117 -348.974)" fill="#fff" opacity="0.2"/>
      <path id="Path_222" data-name="Path 222" d="M173.414,399.776l-4.45,1.585a3.328,3.328,0,0,0-.394-.3l3.986-2.076A9.342,9.342,0,0,1,173.414,399.776Z" transform="translate(-102.436 -347.028)" fill="#fff" opacity="0.2"/>
    </g>
    <g id="freepik--Chair--inject-1" transform="translate(235.584 240.013)">
      <path id="Path_223" data-name="Path 223" d="M372.4,330l.249,10.774,1.135,48.738h3.744l1.128-48.738L378.9,330Z" transform="translate(-350.284 -324.713)" fill="#fab228"/>
      <path id="Path_224" data-name="Path 224" d="M372.4,330l.249,10.774,1.135,48.738h3.744l1.128-48.738L378.9,330Z" transform="translate(-350.284 -324.713)" fill="#fff" opacity="0.4"/>
      <path id="Path_225" data-name="Path 225" d="M372.4,330l.249,11.072h6.007L378.9,330Z" transform="translate(-350.284 -324.713)" opacity="0.2"/>
      <path id="Path_226" data-name="Path 226" d="M343.02,389.678l3.46-58.578h5.654l-4.844,58.578Z" transform="translate(-341.235 -325.052)" fill="#fab228"/>
      <path id="Path_227" data-name="Path 227" d="M347.307,389.647H343.03l3.142-53.319.311-5.328h5.654l-.436,5.328Z" transform="translate(-341.238 -325.021)" fill="#fff" opacity="0.5"/>
      <path id="Path_228" data-name="Path 228" d="M353.535,331l-.436,5.536H347.57l.311-5.536Z" transform="translate(-342.636 -325.021)" opacity="0.2"/>
      <path id="Path_229" data-name="Path 229" d="M402.864,389.678,398.02,331.1h5.654l3.46,58.578Z" transform="translate(-358.175 -325.052)" fill="#fab228"/>
      <path id="Path_230" data-name="Path 230" d="M402.85,389.647l-4.394-53.319L398.02,331h5.654l.311,5.328,3.142,53.319Z" transform="translate(-358.175 -325.021)" fill="#fff" opacity="0.5"/>
      <path id="Path_231" data-name="Path 231" d="M398.02,331l.436,5.536h5.529L403.674,331Z" transform="translate(-358.175 -325.021)" opacity="0.2"/>
      <path id="Path_232" data-name="Path 232" d="M0,.014H46.309V4.629a3.46,3.46,0,0,1-3.46,3.46H3.46A3.46,3.46,0,0,1,0,4.629V.014Z" transform="translate(48.523 8.089) rotate(180)" fill="#fab228"/>
      <rect id="Rectangle_109" data-name="Rectangle 109" width="50.744" height="4.041" rx="2.01" transform="translate(50.744 8.069) rotate(180)" fill="#fab228"/>
      <rect id="Rectangle_110" data-name="Rectangle 110" width="50.744" height="4.041" rx="2.01" transform="translate(50.744 8.069) rotate(180)" fill="#fff" opacity="0.6"/>
    </g>
    <g id="freepik--Character--inject-1" transform="translate(180.641 125.033)">
      <g id="freepik--group--inject-1">
        <path id="Path_233" data-name="Path 233" d="M337.046,221.87s-.194.526-.547,1.384-.893,2.166-1.55,3.591c-1.592,3.46-3.9,7.861-6.318,10.235a6.5,6.5,0,0,1-2.145,1.495c-2.574.99-9.031,1.169-14.795,1.114S301,239.343,301,239.343v-4.367l18.954-5.052s9.992-18.034,15.916-20.7Z" transform="translate(-273.349 -172.533)" fill="#263238"/>
        <path id="Path_234" data-name="Path 234" d="M348.61,227.8c-.36.9-.893,2.166-1.55,3.591-1.592,3.46-3.9,7.861-6.318,10.235-2.457-9.051,6.629-17.667,6.629-17.667Z" transform="translate(-285.46 -177.073)" opacity="0.2"/>
        <path id="Path_235" data-name="Path 235" d="M345.966,402.611l-5.515-.754-.761-13.107,5.5.761Z" transform="translate(-285.265 -227.828)" fill="#ebb376"/>
        <path id="Path_236" data-name="Path 236" d="M345.191,389.514l-5.5-.754.436,7.487,5.5.484Z" transform="translate(-285.265 -227.831)" opacity="0.2"/>
        <path id="Path_237" data-name="Path 237" d="M340.122,292.886l1.342-8.429,30.877-1.848s3.287,17.535.761,22.206c-4.5,8.339-28.794,4.152-35.908,4.948,4.277,17.4,3.861,51.312,3.861,51.312l-10.152.775s-7.806-36.586-9.39-53.976C320.441,296.166,330.171,296.457,340.122,292.886Z" transform="translate(-279.642 -195.137)" fill="#fab228"/>
        <path id="Path_238" data-name="Path 238" d="M345.615,394.485l-12.2.8-1.045-5.225,13.4-.616Z" transform="translate(-283.011 -228.041)" fill="#fab228"/>
        <path id="Path_239" data-name="Path 239" d="M326.364,396.08l-5.55.408-3.474-12.657,5.543-.4Z" transform="translate(-278.382 -226.19)" fill="#ebb376"/>
        <path id="Path_240" data-name="Path 240" d="M320,401.648h-.1c0-.083-.284-1.64-.955-2.007a.623.623,0,0,0-.554,0,.484.484,0,0,0-.339.505,2.076,2.076,0,0,0,.817,1.128,2.221,2.221,0,0,0-1.55.042.491.491,0,0,0-.194.436.692.692,0,0,0,.353.65,1.488,1.488,0,0,0,1.08,0,6.917,6.917,0,0,0,1.384-.581h.048v-.042a.111.111,0,0,0,.007-.132Zm-1.668-1.55c0-.076,0-.173.187-.242h.062a.346.346,0,0,1,.3.035c.4.215.692,1.059.81,1.564l-.125-.035C319.018,401.094,318.382,400.471,318.333,400.1Zm-.727,2.034a.491.491,0,0,1-.214-.422.249.249,0,0,1,.09-.215c.318-.235,1.329-.035,2.076.187C318.638,402.139,317.932,402.305,317.607,402.132Z" transform="translate(-278.316 -231.163)" fill="#fab228"/>
        <path id="Path_241" data-name="Path 241" d="M322.883,383.43l-5.543.408,1.986,7.231,5.481-.671Z" transform="translate(-278.382 -226.19)" opacity="0.2"/>
        <path id="Path_242" data-name="Path 242" d="M306.26,360.766l9.771-2.893s-5.834-32.925-11.764-44.343c.443-.145,1.031-.332,1.758-.547,1.308-.394,3.045-.886,5.086-1.453,14.2-3.937,42.98-11.321,42.98-11.321L340.943,287.94s-52.371,7.986-53.457,21.784C286.98,316.353,306.26,360.766,306.26,360.766Z" transform="translate(-269.183 -196.779)" fill="#fab228"/>
        <path id="Path_243" data-name="Path 243" d="M324.385,387.132l-11.764,3.328-2.111-4.892,12.982-3.4Z" transform="translate(-276.278 -225.802)" fill="#fab228"/>
        <path id="Path_244" data-name="Path 244" d="M313.573,315.279c1.308-.394,3.045-.886,5.086-1.453-.408-3.349-.415-7.19,1.2-9.148,3.2-3.9,11.446-6.193,16.137-7.024,3.924-.692,17.106-2.076,17.106-2.076a103.682,103.682,0,0,0-34.6,3.46C309.864,301.571,311.546,310.02,313.573,315.279Z" transform="translate(-276.719 -199.054)" opacity="0.2"/>
        <path id="Path_245" data-name="Path 245" d="M381.448,267.9c2.076-1.585.083-16.324,1.142-30.822,1.612-22.075,0-29.168-1.626-29.853a62.56,62.56,0,0,0-9.086-.9,116.342,116.342,0,0,0-13.363.291,58.641,58.641,0,0,0-9,1.827s-7.28,23.182-2.63,56.571Z" transform="translate(-287.005 -171.619)" fill="#263238"/>
        <path id="Path_246" data-name="Path 246" d="M383.146,227h0c-.09,3.245-.284,7.01-.6,11.356-1.059,14.5.92,29.237-1.142,30.822l-34.565-2.886a155.851,155.851,0,0,1-.035-43.7c2.809-4.387,8.262-9.391,10.767-11.584a5.2,5.2,0,0,0,3.183,1.654c2.692.526,5.764-.692,8.3-2.242,2.007,2,5.813,6.048,7.481,9.46a10.877,10.877,0,0,1,.464,1.086c1.059,2.962,4.29-.692,5.937-5.453A103.121,103.121,0,0,1,383.146,227Z" transform="translate(-286.987 -172.903)" fill="#fff" opacity="0.8"/>
        <path id="Path_247" data-name="Path 247" d="M375.971,184.71c-.754,4.318-1.426,12.207,1.64,15.016a13.84,13.84,0,0,1-9.688,4.4c-5.536.242-3.668-4.152-3.668-4.152,4.775-1.246,4.567-4.8,3.661-8.124Z" transform="translate(-292.738 -164.984)" fill="#ebb376"/>
        <path id="Path_248" data-name="Path 248" d="M374.448,188.94l-4.768,4.249a13.685,13.685,0,0,1,.464,2.36c1.827-.3,4.3-2.367,4.457-4.29a6.381,6.381,0,0,0-.152-2.318Z" transform="translate(-294.502 -166.287)" opacity="0.2"/>
        <path id="Path_249" data-name="Path 249" d="M363.516,167.791c2.387,1.619,1.3,4.36-4.1,8.657-2.187-2.816-2.553-8.352-.81-9.736S361.44,166.387,363.516,167.791Z" transform="translate(-290.753 -159.241)" fill="#263238"/>
        <path id="Path_250" data-name="Path 250" d="M373.584,171.259c-.256,5.834-.118,9.252-3,12.3-4.346,4.574-11.584,2.028-13.072-3.764-1.329-5.2-.692-13.84,4.975-16.283a7.951,7.951,0,0,1,11.1,7.75Z" transform="translate(-290.573 -158.252)" fill="#ebb376"/>
        <path id="Path_251" data-name="Path 251" d="M367.994,177.124c0,.478-.235.865-.547.872s-.561-.374-.567-.851.228-.858.54-.865S367.953,176.661,367.994,177.124Z" transform="translate(-293.64 -162.388)" fill="#263238"/>
        <path id="Path_252" data-name="Path 252" d="M360.2,177.271c0,.471-.235.858-.547.865s-.567-.367-.574-.851.235-.865.547-.865S360.194,176.821,360.2,177.271Z" transform="translate(-291.237 -162.431)" fill="#263238"/>
        <path id="Path_253" data-name="Path 253" d="M362.274,177.93a16.878,16.878,0,0,1-2.194,4.09,2.768,2.768,0,0,0,2.27.388Z" transform="translate(-291.546 -162.896)" fill="#d58745"/>
        <path id="Path_254" data-name="Path 254" d="M369.551,174.313a.249.249,0,0,0,.173-.042.277.277,0,0,0,.055-.388,2.768,2.768,0,0,0-2.29-1.114.263.263,0,0,0-.249.284h0a.284.284,0,0,0,.3.249h0a2.2,2.2,0,0,1,1.8.9.3.3,0,0,0,.214.111Z" transform="translate(-293.75 -161.306)" fill="#263238"/>
        <path id="Path_255" data-name="Path 255" d="M356.988,174.189a.284.284,0,0,0,.256-.159,2.194,2.194,0,0,1,1.543-1.287.284.284,0,0,0,.235-.318.277.277,0,0,0-.311-.235,2.768,2.768,0,0,0-1.972,1.605.277.277,0,0,0,.131.367h0A.222.222,0,0,0,356.988,174.189Z" transform="translate(-290.508 -161.127)" fill="#263238"/>
        <path id="Path_256" data-name="Path 256" d="M376.774,167.168c-2.706.983-2.318,3.91,1.861,9.39,2.823-2.221,4.533-7.487,3.169-9.252S379.169,166.317,376.774,167.168Z" transform="translate(-296.157 -159.296)" fill="#263238"/>
        <path id="Path_257" data-name="Path 257" d="M382.7,180.183a5.536,5.536,0,0,1-2.581,3.363c-1.7.955-3-.45-2.927-2.284.076-1.661,1.045-4.152,2.934-4.36A2.472,2.472,0,0,1,382.7,180.183Z" transform="translate(-296.814 -162.574)" fill="#ebb376"/>
        <path id="Path_258" data-name="Path 258" d="M367.974,185.79a4.069,4.069,0,0,1-3.834,1.82" transform="translate(-292.796 -165.317)" fill="none" stroke="#263238" stroke-linecap="round" stroke-linejoin="round" stroke-width="0.526"/>
        <path id="Path_259" data-name="Path 259" d="M364.285,163.149s.872,5.84,6.5,6.228,6.83-3.107,6.83-3.107a10.755,10.755,0,0,1-1.384.111,5.768,5.768,0,0,0,0-5.536c-1.647-2.706-7.252-5.6-11.411-4.152a9.875,9.875,0,0,0-7.875.761c-3.9,2.263-3.2,7.2-3.2,7.2s-.173-3,1.647-3.834c0,0-2.249,6.166,1.121,7.813C356.5,168.609,356.832,162.54,364.285,163.149Z" transform="translate(-289.578 -156.204)" fill="#263238"/>
        <path id="Path_260" data-name="Path 260" d="M340.84,244.449s-20.068-.457-21.2-.567-5.889-2.768-6.92-2.913-3.723,4.152-4.062,5.148,7.612,3.7,8.38,3.578a14.319,14.319,0,0,0,2.581-.962l20.483,2.637Z" transform="translate(-275.704 -182.311)" fill="#ebb376"/>
        <path id="Path_261" data-name="Path 261" d="M271,252v1.834c0,.547.941.934,1.488.934h42.759c.554,0,1.426-.388,1.426-.934V252Z" transform="translate(-264.109 -185.709)" fill="#263238"/>
        <path id="Path_262" data-name="Path 262" d="M271,252v1.834c0,.547.941.934,1.488.934h42.759c.554,0,1.426-.388,1.426-.934V252Z" transform="translate(-264.109 -185.709)" fill="#fff" opacity="0.6"/>
        <path id="Path_263" data-name="Path 263" d="M271,252v1.834c0,.547.941.934,1.488.934h28.2c.554,0,1.453-.388,1.453-.934V252Z" transform="translate(-264.109 -185.709)" opacity="0.2"/>
        <path id="Path_264" data-name="Path 264" d="M261.075,219.043l5.093,23.175a1.806,1.806,0,0,0,1.654,1.384h27.791a1.2,1.2,0,0,0,1.045-1.55l-5.086-22.919A1.592,1.592,0,0,0,289.918,218H262.127C261.38,218,260.909,218.288,261.075,219.043Z" transform="translate(-261.042 -175.235)" fill="#263238"/>
        <path id="Path_265" data-name="Path 265" d="M261.075,219.043l5.093,23.175a1.806,1.806,0,0,0,1.654,1.384h27.791a1.2,1.2,0,0,0,1.045-1.55l-5.086-22.919A1.592,1.592,0,0,0,289.918,218H262.127C261.38,218,260.909,218.288,261.075,219.043Z" transform="translate(-261.042 -175.235)" fill="#fff" opacity="0.6"/>
        <path id="Path_266" data-name="Path 266" d="M261.075,219.043l5.093,23.175a1.806,1.806,0,0,0,1.654,1.384h26.857a1.211,1.211,0,0,0,1.052-1.55l-5.086-22.919A1.592,1.592,0,0,0,288.99,218H262.127C261.38,218,260.909,218.288,261.075,219.043Z" transform="translate(-261.042 -175.235)" fill="#fff" opacity="0.4"/>
        <path id="Path_267" data-name="Path 267" d="M283.377,238.228c-1.294,0-2.623-1.384-2.962-3.1s.443-3.128,1.765-3.128a2.014,2.014,0,0,1,.692.138,3.972,3.972,0,0,0,2.208,2.83,1.018,1.018,0,0,1,.035.138C285.459,236.844,284.678,238.228,283.377,238.228Z" transform="translate(-266.984 -179.549)" opacity="0.2"/>
        <path id="Path_268" data-name="Path 268" d="M394.168,229.267h0c-2.983,4.844-7.155,10-11.314,9.757-4.353-.256.035-9.141,4.712-16.878a10.88,10.88,0,0,1,.464,1.086c1.059,2.962,4.29-.692,5.937-5.453a103.105,103.105,0,0,1,.2,11.487Z" transform="translate(-298.009 -175.17)" opacity="0.2"/>
        <path id="Path_269" data-name="Path 269" d="M381.839,207.66c10.262,3.7-7.75,31.486-13.349,34.351s-20.31-.436-20.31-.436l.913-8.588s11.646.789,13.965.2,7.827-12.456,11-18.027A17.881,17.881,0,0,1,381.839,207.66Z" transform="translate(-287.88 -172.053)" fill="#263238"/>
        <path id="Path_270" data-name="Path 270" d="M345.615,394.485l-12.2.8-1.045-5.225,13.4-.616Z" transform="translate(-283.011 -228.041)" fill="#fff" opacity="0.2"/>
        <path id="Path_271" data-name="Path 271" d="M324.385,387.132l-11.764,3.328-2.111-4.892,12.982-3.4Z" transform="translate(-276.278 -225.802)" fill="#fff" opacity="0.2"/>
        <path id="Path_272" data-name="Path 272" d="M318.214,400.726l6.007-1.675a.4.4,0,0,1,.5.249h0l1.626,4.678a.99.99,0,0,1-.692,1.211c-2.111.547-3.142.692-5.792,1.426a51.45,51.45,0,0,1-7.114,1.751c-2.318.263-2.512-2.034-1.557-2.346a15.314,15.314,0,0,0,6.166-4.733A1.57,1.57,0,0,1,318.214,400.726Z" transform="translate(-276.321 -230.996)" fill="#263238"/>
        <path id="Path_273" data-name="Path 273" d="M338.628,406.665h0c0-.1-.1-1.668-.692-2.166a.8.8,0,0,0-.623-.145.533.533,0,0,0-.471.415,2,2,0,0,0,.547,1.273,2.291,2.291,0,0,0-1.536-.284.512.512,0,0,0-.284.387.692.692,0,0,0,.208.692,1.473,1.473,0,0,0,1.052.208,6.443,6.443,0,0,0,1.453-.291.055.055,0,0,0,.048,0v-.042s.131,0,.138-.048.118,0,.118,0ZM337.1,404.8c0-.076.048-.173.228-.208h.062a.353.353,0,0,1,.284.1c.353.291.45,1.169.471,1.7l-.111-.062A2.615,2.615,0,0,1,337.1,404.8Zm-1.135,1.834a.484.484,0,0,1-.1-.45.228.228,0,0,1,.138-.187c.353-.166,1.3.242,1.972.609a2.777,2.777,0,0,1-2.007.055Z" transform="translate(-283.989 -232.63)" fill="#fab228"/>
        <path id="Path_274" data-name="Path 274" d="M336.321,406.556l6.228-.387a.387.387,0,0,1,.436.346h0l.609,4.913a.969.969,0,0,1-.907,1.038c-2.173.1-3.218.042-5.958.194a51.664,51.664,0,0,1-7.321.228c-2.325-.228-2.034-2.512-1.031-2.623a15.206,15.206,0,0,0,7.01-3.342,1.55,1.55,0,0,1,.934-.367Z" transform="translate(-281.55 -233.192)" fill="#263238"/>
      </g>
    </g>
    <g id="freepik--Table--inject-1" transform="translate(160.316 193.808)">
      <path id="Path_275" data-name="Path 275" d="M299.8,368.8h4.235l.7-106.049H299.11Z" transform="translate(-252.441 -257.795)" fill="#fab228"/>
      <path id="Path_276" data-name="Path 276" d="M299.1,263l.111,17.113.581,88.763h4.242l.581-88.763L304.726,263Z" transform="translate(-252.438 -257.872)" fill="#fff" opacity="0.4"/>
      <path id="Path_277" data-name="Path 277" d="M299.1,263l.111,17.3h5.4l.111-17.3Z" transform="translate(-252.438 -257.872)" opacity="0.2"/>
      <path id="Path_278" data-name="Path 278" d="M235.07,368.8h4.235l7.619-106.049H241.3Z" transform="translate(-232.717 -257.795)" fill="#fab228"/>
      <path id="Path_279" data-name="Path 279" d="M235.06,368.876H239.3L246.547,268.1l.374-5.1h-5.626l-.3,5.1Z" transform="translate(-232.714 -257.872)" fill="#fff" opacity="0.5"/>
      <path id="Path_280" data-name="Path 280" d="M243.63,267.844h5.557L249.56,263h-5.626Z" transform="translate(-235.354 -257.872)" opacity="0.2"/>
      <path id="Path_281" data-name="Path 281" d="M361.759,368.8h4.235L359.766,262.75H354.14Z" transform="translate(-269.391 -257.795)" fill="#fab228"/>
      <path id="Path_282" data-name="Path 282" d="M354.14,263l.374,5.1,7.245,100.776h4.235L360.07,268.1l-.3-5.1Z" transform="translate(-269.391 -257.872)" fill="#fff" opacity="0.5"/>
      <path id="Path_283" data-name="Path 283" d="M359.766,263H354.14l.374,4.844h5.557Z" transform="translate(-269.391 -257.872)" opacity="0.2"/>
      <path id="Path_284" data-name="Path 284" d="M1.495,0H89.213a1.5,1.5,0,0,1,1.495,1.495V5.308H0V1.495A1.5,1.5,0,0,1,1.495,0Z" transform="translate(94.832 7.612) rotate(180)" fill="#fab228"/>
      <path id="Path_285" data-name="Path 285" d="M1.495,0H89.213a1.5,1.5,0,0,1,1.495,1.495V5.308H0V1.495A1.5,1.5,0,0,1,1.495,0Z" transform="translate(94.832 7.612) rotate(180)" fill="#fff" opacity="0.6"/>
      <rect id="Rectangle_111" data-name="Rectangle 111" width="90.707" height="2.657" transform="translate(94.832 4.955) rotate(180)" opacity="0.2"/>
      <path id="Path_286" data-name="Path 286" d="M233.165,258.586h95.967a1.5,1.5,0,0,0,1.495-1.5h0a1.5,1.5,0,0,0-1.495-1.495H233.165a1.5,1.5,0,0,0-1.495,1.495h0a1.5,1.5,0,0,0,1.495,1.5Z" transform="translate(-231.67 -255.59)" fill="#fab228"/>
      <path id="Path_287" data-name="Path 287" d="M233.165,258.586h95.967a1.5,1.5,0,0,0,1.495-1.5h0a1.5,1.5,0,0,0-1.495-1.495H233.165a1.5,1.5,0,0,0-1.495,1.495h0a1.5,1.5,0,0,0,1.495,1.5Z" transform="translate(-231.67 -255.59)" fill="#fff" opacity="0.6"/>
    </g>
  </g>
</svg>
