<?xml version="1.0" encoding="UTF-8"?>
<svg xmlns="http://www.w3.org/2000/svg" viewBox="0 0 438.77 438.78">
  <g style="isolation: isolate;">
    <g id="Floor">
      <path id="Floor-2" data-name="Floor" d="m64.26,409.51c85.68,39.03,224.58,39.03,310.26,0,85.67-39.03,85.67-102.3,0-141.33-85.67-39.03-224.58-39.03-310.26,0s-85.68,102.3,0,141.33Z" style="fill: #f5f5f5; stroke-width: 0px;"/>
    </g>
    <g id="Shadows">
      <path id="Shadow" d="m403.79,349.26c-19.96,9.51-52.32,9.51-72.28,0-19.96-9.51-19.96-24.94,0-34.45,19.96-9.51,52.32-9.51,72.28,0,19.96,9.51,19.96,24.94,0,34.45Z" style="fill: #e0e0e0; stroke-width: 0px;"/>
      <path id="Shadow-2" data-name="Shadow" d="m104.26,361.97c-19.96,9.51-52.32,9.51-72.28,0-19.96-9.51-19.96-24.94,0-34.45,19.96-9.51,52.32-9.51,72.28,0,19.96,9.51,19.96,24.94,0,34.45Z" style="fill: #e0e0e0; stroke-width: 0px;"/>
    </g>
    <g id="Character_2" data-name="Character 2">
      <g>
        <g>
          <g>
            <rect x="37.75" y="323.55" width="9.37" height="16.04" transform="translate(84.87 663.14) rotate(180)" style="fill: #b16668; stroke-width: 0px;"/>
            <polygon points="76.06 327.45 85.42 327.77 85.89 310.8 76.06 310.48 76.06 327.45" style="fill: #b16668; stroke-width: 0px;"/>
            <path d="m40.55,209.81c0,8.94.47,60.78.47,60.78-.22,2.57-2.7,7.15-2.89,16.42-.28,13.44-.78,44.57-.78,44.57,0,0,4.55,2.66,10.43.21,0,0,9.93-44.25,11.6-57.55,1.46-11.61,3.95-43.17,3.95-43.17l7.16,39.26s-1.73,6.93-1.16,14.89c.44,6.16,6.14,36.99,6.14,36.99,0,0,4.41,2.99,10.82.83,0,0,.56-48.4.67-54.04.12-6.44-2.68-61.82-2.68-61.82l-43.72,2.66Z" style="fill: #37474f; stroke-width: 0px;"/>
            <path d="m47.12,334.97s0-1.34,0-1.34c.5-.01.81.49,1.01,1.69.14.86.26,1.51.55,2.65.43,1.74.82,2.8,1.64,4.79,1.32,3.26,2.44,4.48,5.47,8.29.72.9,2.34,2.34,2.91,3.35.57,1.01.77,3.81-.2,4.45-3.54,2.36-8.91,2.42-12.71,1.31-2.92-.86-5.03-3.19-5.52-6.2-.14-.86-.09-1.75-.19-2.62-.23-1.98-1.22-3.79-2.35-5.44-.65-.96-1.36-1.89-1.8-2.96-.79-1.93-.16-4.09.35-6.01.43-1.66.9-3.48,1.47-3.32,0,.2,0,1.02,0,1.02.68.75,2.56,1.5,4.68,1.58,1.37.05,4.7-.22,4.68-1.26Z" style="fill: #263238; stroke-width: 0px;"/>
            <path d="m85.52,324.88c.49.02.88.7,1.96,1.86,1.3,1.4,3.42,2.92,5.51,3.96,3.51,1.76,10.33,4.46,13.41,5.85,1.93.87,1.84,3.2-.16,4.52-1.99,1.33-6.8,2.28-12.58.99-3.15-.7-7.24-3.61-9.84-3.45-2.59.16-7.45.12-9.36-1.2-1.91-1.32-1.15-4.14-.61-6.56.59-2.64,1.33-6.76,2.2-6.58v.91c1.13,1.71,6.94,2.4,9.41,1.14l.05-1.45Z" style="fill: #263238; stroke-width: 0px;"/>
            <path d="m63.33,231.06s7.49-2.11,13.04-7.48c0,0-2.52,4.71-10,9.1l3.62,34.92-6.66-36.54Z" style="fill: #263238; stroke-width: 0px;"/>
          </g>
          <g>
            <path d="m78.23,188.41c-6.12-20.38-4.91-37.64-6.06-42.93l15.68,21.91s1.14,12.64,3.21,21.5c1.81,7.79,4.28,17.5,7.25,23.54.52,1.07,1.45,1.89,2.55,2.34,2.96,1.21,4.33,2.74,6.71,4.49,1.86,1.38,3.27,1.55,3.16,2.11-.15.72-1.08,2.01-3.12,1.75-1.02-.13-2.41-.67-4.14-1.4,0,0,1.69,3.09,5.03,6,4.54,3.94,5.19,6.73-2.36,8.11-4.73.86-9.01-1.4-14.39-11.22-1.55-2.83-3.98-7.3-5.36-11.14-3.6-10.01-6.32-18.9-8.17-25.06Z" style="fill: #b16668; stroke-width: 0px;"/>
            <path d="m70.9,140.41c4.87.86,9.68,2.05,12.68,6.68,2.99,4.63,7.31,26.77,7.31,26.77,0,0-6.28,4.41-13.48,4.22l-6.5-37.67Z" style="fill: #ff966c; stroke-width: 0px;"/>
            <path d="m70.9,140.41c4.87.86,9.68,2.05,12.68,6.68,2.99,4.63,7.31,26.77,7.31,26.77,0,0-6.28,4.41-13.48,4.22l-6.5-37.67Z" style="opacity: .1; stroke-width: 0px;"/>
            <path d="m37.35,148.63c-3.28,2.33-20.52,41.29-21.18,44.02-.89,3.69-.48,7.82,1.32,9.16,1.86,1.38,5.8-.58,7.89-2.62,4.04-3.95,18.05-33.13,18.05-33.13l-6.08-17.42Z" style="fill: #9a4a4d; stroke-width: 0px;"/>
            <path d="m54.48,140.46c-7.95,1.91-18.04,5.12-21.57,12.45-3.53,7.33-8.98,19.2-8.98,19.2,3.58,3.52,7.95,6.14,13.16,7.78l4.04-7.03-.59,36.95c6.45,4.7,30.14,7.26,43.72-2.66,0,0-1.66-44.37-1.66-51.27s-3.84-15.2-14.43-15.82l-13.69.4Z" style="fill: #ff966c; stroke-width: 0px;"/>
            <path d="m41.14,172.86s3.99-6.92,4.85-8.58l-4.99,17.02.13-8.44Z" style="opacity: .1; stroke-width: 0px;"/>
          </g>
          <g>
            <g>
              <circle cx="69.64" cy="109.67" r="12.87" style="fill: #263238; stroke-width: 0px;"/>
              <path d="m47.39,118.83s2.09,9.8,2.92,11.41c.84,1.61,2.57,2.07,2.57,2.07l-.15-6.89-5.34-6.58Z" style="fill: #263238; stroke-width: 0px;"/>
              <path d="m50.01,104.79s-2.25-.39-4,1.41c-1.72,1.76-.76,7.25,1.38,12.63l3.93.45-1.31-14.49Z" style="fill: #263238; stroke-width: 0px;"/>
              <path d="m52.5,119.28c-.79.47-1.91-1.04-2.88-2.06-.97-1.02-4.14-2.41-5.73.93-1.61,3.4,1.4,7.89,3.89,8.67,4.3,1.35,4.95-1.41,4.95-1.41l.32,16h0c5.35,6.86,20.2,6.28,14.01-.89v-4.72s3.89.59,5.79.3c3.16-.49,5.16-2.99,6.12-6.41,1.54-5.5,2.13-9.95.82-20.77-1.43-11.86-15.23-11.98-22.68-7.3-7.45,4.69-4.61,17.66-4.61,17.66Z" style="fill: #b16668; stroke-width: 0px;"/>
              <path d="m52.5,120.61c-.4,0-1.9-2.49-2.88-3.39-1.36-1.24.39-12.43.39-12.43,0,0-1.68-3.17.94-6.05,1.86-2.05,4.46-4.55,12.91-3.55,6.02.71,12.58,2.59,17.87-.01.79,3.3.15,6.97-3.14,9.57,0,0-1.92,1.24-6.96,1.85s-12.89-.12-13.97-.26c-1.46-.2-1.77,1.22-2.56,5.09-.69,3.4-1.27,9.16-2.6,9.18Z" style="fill: #263238; stroke-width: 0px;"/>
              <path d="m50.02,105.66l-4.76-2.56c.68-1.37,2.29-1.9,3.61-1.19,1.32.71,1.83,2.39,1.16,3.75Z" style="fill: #263238; stroke-width: 0px;"/>
              <path d="m67.05,135.8s-7.06-1.42-9.53-2.74c-1.65-.88-3.01-2.4-3.41-3.38,0,0,.46,2.1,1.94,3.98,1.81,2.31,11.01,4.01,11.01,4.01v-1.88Z" style="fill: #9a4a4d; stroke-width: 0px;"/>
            </g>
            <g>
              <path d="m65.35,117.52c0,.81-.63,1.47-1.42,1.47-.78,0-1.42-.66-1.42-1.47s.63-1.47,1.42-1.47c.78,0,1.42.66,1.42,1.48Z" style="fill: #263238; stroke-width: 0px;"/>
              <path d="m63.85,112.17l-3.03,1.67c-.45-.87-.13-1.95.71-2.41.84-.46,1.88-.13,2.32.74Z" style="fill: #263238; stroke-width: 0px;"/>
              <path d="m66.41,127.3l3.23,1.21c-.32.93-1.3,1.41-2.2,1.07-.89-.33-1.36-1.36-1.04-2.28Z" style="fill: #9a4a4d; stroke-width: 0px;"/>
              <path d="m77.98,113.35l-2.76-2.13c.56-.79,1.64-.96,2.4-.37.76.59.92,1.7.36,2.5Z" style="fill: #263238; stroke-width: 0px;"/>
              <path d="m77.13,117.11c0,.81-.63,1.47-1.42,1.47-.78,0-1.42-.66-1.42-1.47s.63-1.47,1.42-1.47c.78,0,1.42.66,1.42,1.48Z" style="fill: #263238; stroke-width: 0px;"/>
              <polygon points="69.91 115.77 70.38 124.28 74.82 122.77 69.91 115.77" style="fill: #9a4a4d; stroke-width: 0px;"/>
            </g>
          </g>
        </g>
        <g>
          <path d="m32.23,216.38c-.28,0-.5-.22-.5-.5V58.59c0-.28.22-.5.5-.5s.5.22.5.5v157.28c0,.28-.22.5-.5.5Z" style="fill: #37474f; stroke-width: 0px;"/>
          <g>
            <g>
              <path d="m36.03,72.29h0c0-1.61-3.33-6.02-3.96-6.02s-3.64,4.31-3.64,6.02h0c0,.56.37,1.13,1.11,1.56,1.48.86,3.88.86,5.37,0,.75-.43,1.12-.99,1.12-1.56h0Z" style="fill: #ff966c; stroke-width: 0px;"/>
              <path d="m36.03,72.29h0c0-1.61-3.33-6.02-3.96-6.02s-3.64,4.31-3.64,6.02h0c0,.56.37,1.13,1.11,1.56,1.48.86,3.88.86,5.37,0,.75-.43,1.12-.99,1.12-1.56h0Z" style="opacity: .1; stroke-width: 0px;"/>
            </g>
            <path d="m54.34,37.38c0,12.3-9.65,27.84-22.28,30.78-12.7-3.55-22.28-18.48-22.28-30.78s7.93-23.79,22.28-23.79,22.28,11.49,22.28,23.79Z" style="fill: #ff966c; stroke-width: 0px;"/>
            <path d="m10.61,30.64c-.54,2.17-.82,4.45-.82,6.75,0,12.3,9.58,27.23,22.28,30.78,10.5-2.45,18.93-13.59,21.48-24.35h0s-3.31,11.81-17.93,12.75c-14.61.94-26.4-15.74-25.01-25.93Z" style="opacity: .05; stroke-width: 0px;"/>
          </g>
        </g>
        <path d="m17.99,202.02c-2.67-.76-5.39-8.71-5.19-13.82.2-5.11,7.05-27.15,8.03-31.4,1.07-4.68,1-8.24,1.95-10.67,1.4-3.58,5.96-5.55,5.96-5.55,0,0,5.97-2.87,8.16-3.3,2.19-.43,3,.96,2.76,2.13s-1.04,3.96-1.2,5.56-.57,3.87-1.71,5.68c-1.13,1.81-5.74,6.14-5.92,8.55s-1.51,15.5-2.28,25.01c-.62,7.78-1.41,11.01-3.1,13.05-1.69,2.04-5.4,5.35-7.47,4.76Z" style="fill: #b16668; stroke-width: 0px;"/>
      </g>
    </g>
    <g id="Character_1" data-name="Character 1">
      <g>
        <g>
          <g>
            <rect x="383.91" y="314.55" width="9.5" height="16.26" style="fill: #ffa8a7; stroke-width: 0px;"/>
            <polygon points="360.48 313.68 350.99 314.01 350.52 296.8 360.48 296.48 360.48 313.68" style="fill: #ffa8a7; stroke-width: 0px;"/>
            <path d="m390.36,193.55c0,9.07,1.41,63.54,1.41,63.54.22,2.61,2.73,7.25,2.93,16.65.28,13.63-.89,48.93-.89,48.93,0,0-4.61,2.69-10.57.21,0,0-8.38-48.61-10.08-62.1-1.48-11.77-4-43.76-4-43.76l-5.15,38.44s1.75,7.02,1.18,15.09c-.44,6.24-4.1,37.8-4.1,37.8,0,0-4.47,3.03-10.96.84,0,0-4.8-48-4.91-53.73-.13-6.53,3.16-73.16,3.16-73.16l41.99,11.25Z" style="fill: #ff966c; stroke-width: 0px;"/>
            <g>
              <path d="m353.12,174.82c6.12-20.38,4.91-37.64,6.06-42.93l-15.68,21.91s-1.14,12.64-3.21,21.5c-1.81,7.79-4.28,17.5-7.25,23.54-.52,1.07-1.45,1.89-2.55,2.34-2.96,1.21-4.33,2.74-6.71,4.49-1.86,1.38-3.27,1.55-3.16,2.11.15.72,1.08,2.01,3.12,1.75,1.02-.13,2.41-.67,4.14-1.4,0,0-1.69,3.09-5.03,6-4.54,3.94-5.19,6.73,2.36,8.11,4.73.86,9.01-1.4,14.39-11.22,1.55-2.83,3.98-7.3,5.36-11.14,3.6-10.01,6.32-18.9,8.17-25.06Z" style="fill: #ffa8a7; stroke-width: 0px;"/>
              <path d="m360.44,126.82c-4.87.86-9.68,2.05-12.68,6.68-2.99,4.63-7.31,26.77-7.31,26.77,0,0,6.28,4.41,13.48,4.22l6.5-37.67Z" style="fill: #e0e0e0; stroke-width: 0px;"/>
              <path d="m393.99,135.04c3.28,2.33,20.52,41.29,21.18,44.02.89,3.69.48,7.82-1.32,9.16-1.86,1.38-5.8-.58-7.89-2.62-4.04-3.95-18.05-33.13-18.05-33.13l6.08-17.42Z" style="fill: #f28f8f; stroke-width: 0px;"/>
              <path d="m377.01,126.82c7.95,1.91,18.04,5.12,21.57,12.45,3.53,7.33,8.98,19.2,8.98,19.2-3.58,3.52-7.95,6.14-13.16,7.78l-4.04-7.03.59,36.95c-6.45,4.7-30.14,7.26-43.72-2.66,0,0,1.66-44.37,1.66-51.27s3.84-15.2,14.43-15.82l13.69.4Z" style="fill: #f0f0f0; stroke-width: 0px;"/>
              <path d="m390.36,159.22s-3.99-6.92-4.85-8.58l4.99,17.02-.13-8.44Z" style="fill: #e0e0e0; stroke-width: 0px;"/>
            </g>
            <path d="m383.91,326.12v-1.36c-.91.4-3.02,8.45-6.79,11.89-3,2.73-7.08,5.89-8.12,8.93-1.08,3.17,5.69,4.92,8.49,4.42,3.25-.58,8.89-2.87,10.3-4.99,1.41-2.12,2.08-5.25,3.23-6.81,1.15-1.56,3.8-3.29,4.42-5.09.34-.99-.06-3.15-.54-4.98-.44-1.68-.92-3.52-1.49-3.37,0,.2,0,1.04,0,1.04-.69.76-2.6,1.52-4.75,1.6-1.39.05-4.76-.22-4.75-1.28Z" style="fill: #263238; stroke-width: 0px;"/>
            <path d="m350.89,311.08c-.49.02-.89.71-1.98,1.89-1.31,1.42-3.46,2.96-5.59,4.02-3.56,1.78-10.47,4.52-13.6,5.93-1.95.88-1.86,3.24.16,4.58,2.02,1.34,6.9,2.31,12.75,1,3.19-.71,7.34-3.66,9.97-3.5,2.63.16,7.55.12,9.49-1.22,1.94-1.34,1.16-4.19.62-6.65-.6-2.68-1.35-6.86-2.23-6.67v.92c-1.14,1.73-7.03,2.43-9.54,1.16l-.05-1.47Z" style="fill: #263238; stroke-width: 0px;"/>
            <path d="m369.15,217.03s-7.59-2.14-13.22-7.58c0,0,2.55,4.78,10.14,9.22l-1.62,33.51,4.71-35.15Z" style="opacity: .1; stroke-width: 0px;"/>
          </g>
          <g>
            <g>
              <path d="m380,91.48s2.2-.38,3.91,1.37c1.68,1.72,1.33,4.9,0,12.2l-5.19.6,1.28-14.17Z" style="fill: #263238; stroke-width: 0px;"/>
              <path d="m349.74,89.36s-2.1,0-3.25-.66c-1.59-.91-2.01.9-1.14,2.47.87,1.57,2.5,3.62,6.02,4.01.05-.23,1.49-4.05,1.49-4.05l-3.13-1.77Z" style="fill: #263238; stroke-width: 0px;"/>
              <path d="m377.56,105.65c.77.46,1.87-1.02,2.82-2.01.95-.99,4.05-2.35,5.6.91,1.58,3.32-2,7.74-4.1,9.2-2.5,1.73-4.31.37-4.31.37l-.55,12.7s-2.76,6.74-10.22,7.75c-7.46,1.01-5.92-5.14-3.47-8.15v-4.62s-3.84.76-5.66.29c-1.93-.5-4.5-2.36-5.53-5.69-1.29-4.17-2.83-11.34-1.26-20.89,1.9-11.53,14.89-11.72,22.18-7.13,7.28,4.58,4.51,17.27,4.51,17.27Z" style="fill: #ffa8a7; stroke-width: 0px;"/>
              <path d="m377.56,106.94c.39,0,1.86-2.44,2.82-3.31,1.33-1.21-.39-12.16-.39-12.16,0,0,1.34-4.15-1.28-6.91-2.63-2.75-7.72-2.29-11.44-2.42-3.87-.14-8.02-.37-13.3-2.67-5.29-2.3-5.68-2.57-6.34-.25-.66,2.32-.9,7.64,2.25,11.2l2.62.96s1.42,1.26,6.35,1.86c4.93.6,12.61-.12,13.66-.26,1.43-.2,1.73,1.19,2.5,4.97.68,3.32,1.24,8.95,2.54,8.98Z" style="fill: #263238; stroke-width: 0px;"/>
              <path d="m379.99,92.33l4.66-2.5c-.66-1.33-2.24-1.86-3.53-1.17-1.29.69-1.79,2.33-1.13,3.67Z" style="fill: #263238; stroke-width: 0px;"/>
              <path d="m363.34,121.8s6.91-1.39,9.32-2.68c1.62-.86,2.95-2.35,3.34-3.3,0,0-.45,2.05-1.9,3.9-1.77,2.26-10.76,3.92-10.76,3.92v-1.84Z" style="fill: #f28f8f; stroke-width: 0px;"/>
            </g>
            <g>
              <path d="m364.99,103.69c0,.79.62,1.44,1.38,1.43.76,0,1.38-.65,1.38-1.44s-.62-1.44-1.38-1.43c-.76,0-1.38.65-1.38,1.44Z" style="fill: #263238; stroke-width: 0px;"/>
              <path d="m366.71,97.96l2.96,1.63c.44-.85.13-1.91-.69-2.36-.82-.45-1.83-.13-2.27.72Z" style="fill: #263238; stroke-width: 0px;"/>
              <path d="m365.1,113.31l-3.16,1.19c.31.91,1.27,1.37,2.15,1.05.87-.33,1.33-1.33,1.01-2.23Z" style="fill: #f28f8f; stroke-width: 0px;"/>
              <path d="m352.01,99.93l2.7-2.08c-.55-.77-1.6-.93-2.35-.36-.75.57-.9,1.67-.35,2.44Z" style="fill: #263238; stroke-width: 0px;"/>
              <path d="m353.55,103.3c0,.79.62,1.44,1.38,1.43.76,0,1.38-.65,1.38-1.44s-.62-1.44-1.38-1.43c-.76,0-1.38.65-1.38,1.44Z" style="fill: #263238; stroke-width: 0px;"/>
              <polygon points="361.12 102.21 360.67 110.54 356.32 109.06 361.12 102.21" style="fill: #f28f8f; stroke-width: 0px;"/>
            </g>
          </g>
        </g>
        <g>
          <path d="m399.12,202.79c-.28,0-.5-.22-.5-.5V45c0-.28.22-.5.5-.5s.5.22.5.5v157.28c0,.28-.22.5-.5.5Z" style="fill: #37474f; stroke-width: 0px;"/>
          <g>
            <g>
              <path d="m395.32,58.7h0c0-1.61,3.33-6.02,3.96-6.02s3.64,4.31,3.64,6.02h0c0,.56-.37,1.13-1.11,1.56-1.48.86-3.88.86-5.37,0-.75-.43-1.12-.99-1.12-1.56h0Z" style="fill: #ff966c; stroke-width: 0px;"/>
              <path d="m395.32,58.7h0c0-1.61,3.33-6.02,3.96-6.02s3.64,4.31,3.64,6.02h0c0,.56-.37,1.13-1.11,1.56-1.48.86-3.88.86-5.37,0-.75-.43-1.12-.99-1.12-1.56h0Z" style="opacity: .1; stroke-width: 0px;"/>
            </g>
            <path d="m377,23.79c0,12.3,9.65,27.84,22.28,30.78,12.7-3.55,22.28-18.48,22.28-30.78s-7.93-23.79-22.28-23.79-22.28,11.49-22.28,23.79Z" style="fill: #ff966c; stroke-width: 0px;"/>
            <path d="m420.6,30.22s-3.31,11.81-17.93,12.75c-14.08.91-25.53-14.55-25.11-24.79-.37,1.82-.56,3.71-.56,5.61,0,12.3,9.65,27.84,22.28,30.78,10.52-2.94,18.9-13.7,21.46-24.3l-.15-.05Z" style="opacity: .05; stroke-width: 0px;"/>
          </g>
        </g>
        <path d="m413.35,188.44c2.67-.76,5.39-8.72,5.19-13.82-.2-5.11-7.05-27.15-8.03-31.4-1.07-4.68-1-8.24-1.95-10.67-1.4-3.58-5.96-5.55-5.96-5.55,0,0-5.97-2.87-8.16-3.3-2.19-.43-3,.96-2.76,2.13.24,1.17,1.04,3.96,1.2,5.56s.57,3.87,1.71,5.68,5.74,6.14,5.92,8.55,1.51,15.5,2.28,25.01c.62,7.78,1.41,11.01,3.1,13.05s5.4,5.35,7.47,4.76Z" style="fill: #ffa8a7; stroke-width: 0px;"/>
      </g>
    </g>
    <g id="Characters_with_Banner" data-name="Characters with Banner">
      <g>
        <path id="Shadow-3" data-name="Shadow" d="m191.24,327.34c-19.96,9.51-52.32,9.51-72.28,0-19.96-9.51-19.96-24.94,0-34.45,19.96-9.51,52.32-9.51,72.28,0,19.96,9.51,19.96,24.94,0,34.45Z" style="fill: #e0e0e0; stroke-width: 0px;"/>
        <path id="Shadow-4" data-name="Shadow" d="m299.85,334.75c-19.96,9.51-52.32,9.51-72.28,0-19.96-9.51-19.96-24.94,0-34.45,19.96-9.51,52.32-9.51,72.28,0,19.96,9.51,19.96,24.94,0,34.45Z" style="fill: #e0e0e0; stroke-width: 0px;"/>
        <g>
          <path d="m167.97,109.21c2.65-.38,4.89,0,9.52,6.32,4.14,5.65,12.39,15.16,12.39,15.16,0,0,7.44-19.55,7.24-22.19-.2-2.64-1.87-4.24-2.95-9.09-1.09-4.85-1.38-5.76-2.2-7.17s1.99-1.75,3.13,0c1.14,1.75,1.27,4.23,2.06,3.78s1.33-5.75.66-9.58c-.67-3.82,1.07-4.68,1.86-3.46.79,1.22.95,2.25.95,2.25,0,0,2.53-.67,4.5,1.52,1.97,2.19,3.66,5.53,3.66,11.21s-2.64,8.7-3.03,11.26c-.39,2.56-4.99,26.29-8.28,34.31-2.07,5.04-4.91,6.53-8.39,3.59-4.69-3.95-17.56-19.77-17.56-19.77l-3.56-18.13Z" style="fill: #ffa8a7; stroke-width: 0px;"/>
          <path d="m167.97,109.21c2.39-.71,4.96-.15,7.42,2.75,2.46,2.9,11.28,14.12,11.28,14.12,0,0-.26,5.74-7.67,11.05l-8.45-9.1-2.58-18.83Z" style="fill: #ff966c; stroke-width: 0px;"/>
          <g>
            <path d="m180.49,294.37l-.08-1.34c.62,1.53,3.47,8.13,7.37,11.29,3.11,2.51,7.31,5.37,8.51,8.31,1.25,3.05-5.34,4.5-8.12,4.17-3.23-.37-7.48-1.94-9.89-4.57-1.7-1.85-2.85-4.09-4.07-5.56-1.22-1.46-3.93-3.01-4.65-4.75-.39-.95-.12-3.11.24-4.93.33-1.68.9-3.67,1.47-3.55.01.2-.15,1.17-.15,1.17.72.71,2.64,1.34,4.76,1.3,1.37-.03,4.67-.5,4.59-1.54Z" style="fill: #263238; stroke-width: 0px;"/>
            <path d="m190.59,306.52c-.96-.76-1.93-1.5-2.81-2.21-2.73-2.21-4.94-6.09-6.24-8.76,0-.02-.01-.03-.02-.05-1.04-2.17-1.3-4.18-1.25-6.89l.12-3.15-9.98.2.73,8.93h0s0,0,0,0v.23s.06.02.06.02c.57,1.91,5.16,6.82,7.8,10.04,1.77,2.16,5.04,4.84,8.77,5.12,3.54.26,5.27-.96,2.83-3.48Z" style="fill: #ffa8a7; stroke-width: 0px;"/>
            <path d="m124.65,295.47c-.48-.28-1.27,1.35-2.1,2.59-.83,1.24-1.34,3.51-1.21,5.09.13,1.58.25,2.65-.31,5.96-.56,3.32-1.53,7.13,1.81,10.19,2.87,2.62,9.26,3.84,11.3,2.03,1.14-1.01,1.28-2.09,1.25-2.82-.14-.97-1.15-3.09-1.68-4.18-1.87-3.85-2.11-4.64-2.11-4.64l-6.95-14.22Z" style="fill: #263238; stroke-width: 0px;"/>
            <path d="m133.68,289.88c-.44-.37-1.39,11.91-1.66,14.83-.28,3.05.24,4.45.72,7.57.18.69.24,1.63-.15,2.23-.44.67-1.34.99-2.14,1-2.11.02-3.8-.77-5.58-2.78-.88-.99-.94-3.66-.89-4.62.08-1.67.24-3.17.09-4.83-.16-1.72-.65-3.72-.44-4.97.22-1.24.53-1.69,1.03-2.84.81-1.85,1.35-6.91,1.35-6.91,0,0,7.67,1.32,7.67,1.32Z" style="fill: #ffa8a7; stroke-width: 0px;"/>
            <path d="m137.87,159.7c-5.19,6.67-6.13,13.55-5,33.04,1.13,19.49-.51,35.33-.8,36.43-.29,1.09-3.58,11.83-5.13,19.06-1.82,8.47-2.06,43.34-2.06,43.34,0,0,3.69,2.03,9.39.64,0,0,13.76-54.49,15.22-58.88,1.46-4.39,12.51-49.67,12.51-49.67l-1.4-26.07-22.73,2.11Z" style="fill: #37474f; stroke-width: 0px;"/>
            <path d="m177.55,182.12c-.79-9-2.72-24.59-2.72-24.59l-23.01-1.35c-3.73,5.81-2.11,15.47-1.09,24.2l13.16,51.52c-.27,2.46-2.54,7.7,0,20.96,2.84,14.81,6.31,34.41,6.31,34.41,0,0,5.4,2.2,10.36.11,0,0,1.9-46.92.69-59.73-1.32-13.87-3.15-39.37-3.69-45.52Z" style="fill: #37474f; stroke-width: 0px;"/>
            <path d="m157.97,203.97l3.76-18.9s5.61-1.95,9.39-4.79c0,0-3.09,3.99-6.57,6.06l-6.57,17.63Z" style="fill: #263238; stroke-width: 0px;"/>
          </g>
          <path d="m139.26,113.92c-2.58,1.5-6.85,2.86-8.63,7.88-2.43,7.03-8.88,25.18-11.36,31.71h11.92l8.24-16.9c6.38-5.48,5.53-20.71-.17-22.68Z" style="fill: #ffa8a7; stroke-width: 0px;"/>
          <path d="m173.38,142.91c.57,5.25,2.68,24.67,2.68,24.67-17.35,9.26-38.86,3.12-42.15-.69,2.98-9.82,6.19-15.4,8.65-18.02l-3.12-12.27s7.27-8.65-.17-22.68l9.67-3.18,13.23-1.14,5.8-.39c2.07,1.94,5.33,8.89,7.45,14.3,1.36,3.49,2.84,9.07-2.03,19.4Z" style="fill: #f5f5f5; stroke-width: 0px;"/>
          <path d="m139.26,113.92c-5.7,1.12-8.26,3.92-10.54,10.15-2.46,6.73-5.41,14.01-5.41,14.01,0,0,4.87,7.75,14.62,6.05l3.69-10.29s4.94-9.09-2.36-19.92Z" style="fill: #ff966c; stroke-width: 0px;"/>
          <path d="m141.01,142.78c.15.6,4.21,5.97,6.2,7.24s-3.53,3.02-4.31,6.16c-1.57,6.35,8.24,14.46,20.45,15.62-13.79,2.26-26.92-1.99-29.44-4.9,2.98-9.82,6.19-15.4,8.65-18.02l-1.55-6.09Z" style="fill: #e6e6e6; stroke-width: 0px;"/>
          <g>
            <path d="m177.48,107.98h-18.53c-12.52,0-22.68-10.15-22.68-22.68h0c0-11.38,9.23-20.6,20.6-20.6h0c11.38,0,20.61,9.23,20.61,20.6v22.68Z" style="fill: #263238; stroke-width: 0px;"/>
            <path d="m170.13,73.67c2.18,1.29,4.87,6.76,4.6,18.24-.23,9.73-3.38,12.13-4.96,12.82-1.58.69-4.64.27-7.6-.22v5.84s-.28,2.11-1.85,3.09c-2.42,1.51-5.28.94-6.89.36-3.55-1.28-4.26-3.02-4.26-3.02l.07-13.42s-1.75,1.7-4.71-.89c-2.45-2.14-3.27-5.74-1.36-7.68s5.43-1.41,6.78,1.35c0,0,1.74.14,3.48-3.09,0,0-.06-8.78,1.9-9.93,6.21-3.63,10.63-3.43,14.8-3.43Z" style="fill: #ffa8a7; stroke-width: 0px;"/>
            <path d="m162.16,88.84c.04.7-.48,1.3-1.16,1.33-.67.03-1.25-.51-1.29-1.21-.04-.7.48-1.29,1.16-1.33.67-.03,1.25.51,1.29,1.21Z" style="fill: #263238; stroke-width: 0px;"/>
            <g style="mix-blend-mode: multiply; opacity: .5;">
              <path d="m164.19,97.7l2.84.91c-.24.81-1.06,1.27-1.85,1.02-.78-.25-1.23-1.11-.99-1.93Z" style="fill: #f28f8f; stroke-width: 0px;"/>
            </g>
            <path d="m173.22,85.04l-2.47-1.72c.45-.71,1.37-.9,2.06-.42.68.47.87,1.43.42,2.14Z" style="fill: #263238; stroke-width: 0px;"/>
            <path d="m160.46,84.55l-2.81,1.08c-.33-.77.03-1.64.81-1.94.78-.3,1.67.09,2,.86Z" style="fill: #263238; stroke-width: 0px;"/>
            <path d="m172.54,88.58c.04.7-.48,1.29-1.16,1.33-.67.03-1.25-.51-1.29-1.21-.04-.7.48-1.3,1.16-1.33.67-.03,1.25.51,1.29,1.21Z" style="fill: #263238; stroke-width: 0px;"/>
            <g style="mix-blend-mode: multiply; opacity: .5;">
              <polygon points="166.67 87.88 166.87 95.24 170.74 94.04 166.67 87.88" style="fill: #f28f8f; stroke-width: 0px;"/>
            </g>
            <g style="mix-blend-mode: multiply; opacity: .5;">
              <path d="m162.16,104.5c-3.13-.41-9.56-2.26-10.57-4.8,0,0,.33,1.6,2.26,3.25,1.92,1.65,8.31,3.5,8.31,3.5v-1.95Z" style="fill: #f28f8f; stroke-width: 0px;"/>
            </g>
            <path d="m153.9,65.79l-.48-5.4c1.52-.18,2.85.88,2.98,2.37.13,1.49-.99,2.85-2.51,3.03Z" style="fill: #263238; stroke-width: 0px;"/>
            <path d="m153.61,66.34l-4.37-3.21c.86-1.26,2.54-1.57,3.75-.68,1.21.89,1.49,2.62.63,3.89Z" style="fill: #263238; stroke-width: 0px;"/>
            <path d="m149.95,90.12v5.12h0c1.92,0,3.48-1.56,3.48-3.48v-4.72l-3.48,3.09Z" style="fill: #263238; stroke-width: 0px;"/>
            <path d="m163.87,65.91h0c9.55,0,17.3,7.74,17.3,17.3v2.24h-8.46c-3.94,0-7.28-2.91-7.81-6.82h0l-.31,6.82h0c-3.25,0-5.96-2.48-6.24-5.72l-.1-1.11h0c-.31,3.86-3.53,6.83-7.4,6.83h-.75l-.87-12.22,14.64-7.32Z" style="fill: #263238; stroke-width: 0px;"/>
          </g>
        </g>
        <g>
          <g>
            <path d="m281.45,307.83v-1.34c-.53,1.57-2.97,8.32-6.69,11.71-2.95,2.69-6.98,5.8-8,8.8-1.06,3.12,5.6,4.17,8.36,3.68,3.2-.57,7.35-2.38,9.6-5.16,1.59-1.95,2.6-4.26,3.73-5.79,1.13-1.53,3.74-3.24,4.35-5.02.34-.97-.06-3.11-.54-4.91-.43-1.65-.9-3.47-1.47-3.32,0,.2,0,1.02,0,1.02-.68.75-2.56,1.5-4.68,1.58-1.37.05-4.69-.22-4.68-1.26Z" style="fill: #263238; stroke-width: 0px;"/>
            <path d="m272.1,320.57c.91-.82,1.84-1.61,2.67-2.38,2.59-2.37,4.57-6.38,5.7-9.11.65-1.56.98-3.23.98-4.92v-5.33h9.35v8.68h0s0,0,0,0v.23l-.05.02c-.45,1.94-4.74,7.11-7.18,10.48-1.63,2.26-4.74,5.14-8.45,5.63-3.52.47-5.31-.64-3.03-3.31Z" style="fill: #b16668; stroke-width: 0px;"/>
            <path d="m244.97,298.61v-1.34c-.53,1.57-2.97,8.32-6.69,11.71-2.95,2.69-6.98,5.8-8,8.8-1.06,3.12,5.6,4.17,8.36,3.68,3.2-.57,7.35-2.38,9.6-5.16,1.59-1.95,2.6-4.26,3.73-5.79,1.13-1.53,3.74-3.24,4.35-5.02.34-.97-.06-3.11-.54-4.91-.43-1.65-.9-3.47-1.47-3.32,0,.2,0,1.02,0,1.02-.68.75-2.56,1.5-4.68,1.58-1.37.05-4.69-.22-4.68-1.26Z" style="fill: #263238; stroke-width: 0px;"/>
            <path d="m235.61,311.35c.92-.82,1.84-1.61,2.67-2.38,2.59-2.37,4.57-6.38,5.7-9.11.65-1.56.98-3.23.98-4.92v-5.33h9.35v8.68h0s0,0,0,0v.23l-.05.02c-.45,1.94-4.74,7.11-7.18,10.48-1.63,2.26-4.74,5.14-8.45,5.63-3.52.47-5.31-.64-3.03-3.31Z" style="fill: #b16668; stroke-width: 0px;"/>
            <path d="m288.95,162.47c7.25,15.84-.26,71.63-.26,71.63.22,2.57,3.16,7.63,4.25,18.94,1.29,13.37-2.03,46.92-2.03,46.92,0,0-4.33,2.83-9.45.38,0,0-8.91-50.54-10.59-63.83-1.46-11.6-4.27-37.1-4.27-37.1l-7.98,37.03s2.05,6.5,2.53,11.45c.76,7.82-6.82,44.21-6.82,44.21,0,0-3.23,1.18-9.35.28,0,0-2.68-48.3-3.38-57.71-1.19-15.81,3.01-65.16,5.91-74.52l41.45,2.32Z" style="fill: #37474f; stroke-width: 0px;"/>
            <path d="m266.59,199.4l-2.35-14.71s-9.96-2.06-14.48-6.31c0,0,4.74,5.89,11.78,7.83l2.64,11.33-4.62,34.29,7.03-32.42Z" style="fill: #263238; stroke-width: 0px;"/>
          </g>
          <g>
            <path d="m261.71,107.02c-4.37-.61-8.81.75-11.95,4.94-3.14,4.19-15.26,39.44-15.26,39.44h10.91l14.95-29.54,1.36-14.84Z" style="fill: #b16668; stroke-width: 0px;"/>
            <path d="m276.16,107.44h0c9.3.64,9.95,5.13,12.27,10.04,1.77,3.74,1.79,8.07.44,11.98l-6.48,18.74s3.03,7.33,6.55,14.26c-16.26,9.07-36.56,4.3-41.45-2.32-.21-1.4,1.05-12.38,1.82-19.56-2.86-7.18-3.62-11.74-2.41-16.48,2.24-8.81,10.95-17.4,14.8-17.09l14.44.42Z" style="fill: #f5f5f5; stroke-width: 0px;"/>
            <path d="m272,164.22c5.34-1.26,8.73-6.67,7.32-11.97-.05-.2-.11-.37-.17-.51-1.05-2.51-3.29-2.18-3.29-2.18h0c2.11-1.4,3.57-3.58,4.06-6.06l1.97-9.91s-3.66-11.64-3.29-15.63l9.33.54s.47.33,1.21.84c1.02,3.27.87,6.85-.27,10.12l-6.48,18.74s3.03,7.33,6.55,14.26c-11.98,6.69-26.15,5.85-34.74,2.3,6.78,1.05,13.07.58,17.79-.54Z" style="fill: #e6e6e6; stroke-width: 0px;"/>
          </g>
          <path d="m310.38,153.91s-9.23-18.16-15.32-32.05c-4.41-10.04-5.39-12.31-12.4-13.39l-2.48-.38c-3.32,10.91-1.03,15.86,3.34,23.33l15.19,28.8c3.44-.68,11.74-5.27,11.67-6.31Z" style="fill: #b16668; stroke-width: 0px;"/>
          <g>
            <path d="m265.75,61.63h6.55c9.68,0,17.53,7.86,17.53,17.53v2.94c0,9.73-7.9,17.63-17.63,17.63h-6.34c-9.73,0-17.63-7.9-17.63-17.63v-2.94c0-9.68,7.86-17.53,17.53-17.53Z" transform="translate(538.05 161.37) rotate(-180)" style="fill: #263238; stroke-width: 0px;"/>
            <path d="m255.05,70.05c-2.2,1.3-4.91,6.83-4.65,18.41.23,9.82,3.41,12.25,5.01,12.95,1.6.7,4.68.27,7.68-.23v5.89s-4.14,4.81-3.88,7.51c.26,2.7,5.98,3.34,9.86.7,3.88-2.64,6.36-6.66,6.36-6.66v-14.25s2.02,2.7,5.33.5,3.43-7.64,1.51-9.59c-1.92-1.95-6.07-1.33-6.84,1.36,0,0-4.78.17-11.14-3.32-6.36-3.5-8.81-9.48-9.23-13.29Z" style="fill: #b16668; stroke-width: 0px;"/>
            <path d="m262.47,85.99c-.04.71.49,1.31,1.17,1.34.68.03,1.26-.52,1.3-1.22.04-.71-.49-1.31-1.17-1.34-.68-.03-1.26.52-1.3,1.22Z" style="fill: #263238; stroke-width: 0px;"/>
            <path d="m261.04,94.32l-2.87.91c.24.82,1.07,1.28,1.87,1.03.79-.25,1.24-1.12,1-1.94Z" style="fill: #9a4a4d; stroke-width: 0px;"/>
            <path d="m252.35,82.2l2.5-1.73c-.46-.71-1.39-.9-2.08-.43-.69.48-.88,1.44-.42,2.16Z" style="fill: #263238; stroke-width: 0px;"/>
            <path d="m252.92,85.1c-.04.71.49,1.31,1.17,1.34.68.03,1.26-.52,1.3-1.22.04-.71-.49-1.31-1.17-1.34-.68-.03-1.26.52-1.3,1.22Z" style="fill: #263238; stroke-width: 0px;"/>
            <polygon points="258.95 84.39 258.76 91.83 254.84 90.62 258.95 84.39" style="fill: #9a4a4d; stroke-width: 0px;"/>
            <path d="m263.09,101.18c3.16-.41,9.66-2.28,10.67-4.85,0,0-.34,1.61-2.28,3.28-1.94,1.66-8.39,3.54-8.39,3.54v-1.97Z" style="fill: #9a4a4d; stroke-width: 0px;"/>
            <path d="m287.23,63.86c-4.06,1.7-3.14,5.18-1.44,9.23s3.53,7.15,7.59,5.45c4.06-1.7,5.97-6.36,4.27-10.41-1.7-4.06-6.36-5.97-10.41-4.27Z" style="fill: #263238; stroke-width: 0px;"/>
            <path d="m283.66,67.49l-1.42-6.77c1.89-.46,3.75.68,4.14,2.55.39,1.87-.83,3.76-2.72,4.22Z" style="fill: #263238; stroke-width: 0px;"/>
          </g>
        </g>
        <g>
          <rect x="105.04" y="151.4" width="211.95" height="48.53" style="fill: #ff966c; stroke-width: 0px;"/>
          <g>
            <path d="m133.87,186.85c-.15-.12-.28-.32-.38-.63l-5.19-16.7c-.03-.08-.04-.18-.04-.31,0-.33.2-.5.61-.5h2.94c.3,0,.52.05.65.15.13.1.22.28.27.53l3.32,11.67,3.77-10.03c.1-.25.22-.44.34-.55.13-.11.33-.17.61-.17h1.64c.28,0,.48.05.59.15.11.1.22.29.32.57l3.74,10.03,3.36-11.67c.08-.25.16-.43.27-.53.1-.1.32-.15.65-.15h2.94c.41,0,.61.17.61.5,0,.13-.01.23-.04.31l-5.22,16.7c-.1.33-.22.55-.36.65-.14.1-.36.15-.67.15h-2.21c-.28,0-.48-.06-.61-.17-.13-.12-.25-.32-.38-.63l-3.81-10.26-3.81,10.26c-.13.3-.26.51-.4.63-.14.11-.35.17-.63.17h-2.17c-.3,0-.53-.06-.69-.17Z" style="fill: #fff; stroke-width: 0px;"/>
            <path d="m160.68,186.59c-1.6-.67-2.88-1.72-3.83-3.13-.95-1.41-1.43-3.17-1.43-5.28,0-3.28.88-5.77,2.63-7.47,1.75-1.7,4.25-2.55,7.47-2.55s5.62.83,7.26,2.48c1.64,1.65,2.46,4.04,2.46,7.17,0,.89-.41,1.33-1.22,1.33h-13.99c0,1.68.58,2.97,1.75,3.87,1.17.9,2.8,1.35,4.88,1.35s3.81-.46,5.41-1.37c.18-.1.32-.15.42-.15.18,0,.32.11.42.34l.91,1.64c.08.15.11.29.11.42,0,.18-.11.34-.34.5-1.04.64-2.17,1.11-3.37,1.41-1.21.3-2.6.46-4.18.46-1.98,0-3.78-.34-5.38-1.01Zm10.14-10.28c0-1.58-.44-2.81-1.32-3.7-.88-.89-2.19-1.33-3.95-1.33s-3.15.46-4.1,1.37c-.95.91-1.43,2.14-1.43,3.66h10.79Z" style="fill: #fff; stroke-width: 0px;"/>
            <path d="m179.3,186.68c-.22-.23-.32-.57-.32-1.03v-23.15c0-.48.11-.84.32-1.07.22-.23.58-.34,1.09-.34h2.02c.51,0,.88.11,1.11.34s.34.59.34,1.07v23.15c0,.46-.11.8-.32,1.03-.22.23-.59.34-1.12.34h-2.02c-.51,0-.87-.11-1.09-.34Z" style="fill: #fff; stroke-width: 0px;"/>
            <path d="m190.44,185.1c-1.89-1.66-2.84-4.05-2.84-7.15,0-1.93.43-3.63,1.3-5.11.86-1.47,2.1-2.62,3.72-3.45,1.61-.83,3.5-1.24,5.66-1.24,1.6,0,2.96.15,4.08.46,1.12.31,2.16.8,3.13,1.49.23.15.34.32.34.5,0,.15-.06.33-.19.53l-1.03,1.79c-.15.25-.29.38-.42.38s-.3-.08-.53-.23c-.79-.48-1.57-.84-2.34-1.09-.78-.24-1.7-.36-2.76-.36-1.91,0-3.41.57-4.5,1.7-1.09,1.13-1.64,2.68-1.64,4.63,0,2.06.55,3.6,1.64,4.63,1.09,1.03,2.69,1.54,4.8,1.54,1.07,0,2-.13,2.78-.38.79-.25,1.55-.62,2.29-1.11.2-.13.37-.19.5-.19.15,0,.31.13.46.38l1.11,1.87c.1.13.15.27.15.42,0,.18-.13.36-.38.53-1.02.66-2.11,1.15-3.28,1.47-1.17.32-2.54.48-4.12.48-3.38,0-6.02-.83-7.91-2.5Z" style="fill: #fff; stroke-width: 0px;"/>
            <path d="m211.83,184.99c-1.79-1.74-2.69-4.11-2.69-7.11s.9-5.37,2.69-7.11c1.79-1.74,4.34-2.61,7.65-2.61s5.86.87,7.66,2.61c1.8,1.74,2.71,4.11,2.71,7.11s-.9,5.37-2.71,7.11c-1.81,1.74-4.36,2.61-7.66,2.61s-5.85-.87-7.65-2.61Zm11.76-2.54c.94-1.04,1.41-2.57,1.41-4.58s-.47-3.49-1.41-4.52c-.94-1.03-2.31-1.54-4.12-1.54s-3.15.51-4.1,1.54c-.95,1.03-1.43,2.54-1.43,4.52s.48,3.5,1.43,4.56c.95,1.06,2.32,1.58,4.1,1.58s3.18-.52,4.12-1.56Z" style="fill: #fff; stroke-width: 0px;"/>
            <path d="m233.92,186.68c-.23-.23-.34-.57-.34-1.03v-15.9c0-.38.06-.65.19-.8.13-.15.39-.23.8-.23h2.02c.28,0,.48.06.61.17.13.11.2.31.23.59l.11,1.6c.74-.94,1.58-1.66,2.54-2.17.95-.51,2.09-.76,3.41-.76,1.12,0,2.09.25,2.92.74.83.5,1.43,1.23,1.81,2.19,1.4-1.96,3.42-2.94,6.06-2.94,1.81,0,3.23.55,4.29,1.64,1.05,1.09,1.58,2.72,1.58,4.88v10.98c0,.46-.11.8-.32,1.03-.22.23-.59.34-1.12.34h-1.68c-.51,0-.88-.11-1.11-.34-.23-.23-.34-.57-.34-1.03v-10.71c0-1.17-.25-2.01-.74-2.52-.5-.51-1.24-.76-2.23-.76-1.04,0-1.89.34-2.54,1.03-.65.69-.97,1.61-.97,2.78v10.18c0,.46-.11.8-.34,1.03-.23.23-.6.34-1.11.34h-1.56c-.51,0-.88-.11-1.11-.34-.23-.23-.34-.57-.34-1.03v-10.91c0-1.07-.22-1.85-.67-2.35-.44-.5-1.15-.74-2.12-.74-1.09,0-1.98.36-2.67,1.09-.69.72-1.03,1.67-1.03,2.84v10.07c0,.46-.11.8-.32,1.03-.22.23-.59.34-1.12.34h-1.68c-.51,0-.88-.11-1.11-.34Z" style="fill: #fff; stroke-width: 0px;"/>
            <path d="m268.97,186.59c-1.6-.67-2.88-1.72-3.83-3.13-.95-1.41-1.43-3.17-1.43-5.28,0-3.28.88-5.77,2.63-7.47,1.75-1.7,4.25-2.55,7.47-2.55s5.62.83,7.26,2.48c1.64,1.65,2.46,4.04,2.46,7.17,0,.89-.41,1.33-1.22,1.33h-13.99c0,1.68.58,2.97,1.75,3.87,1.17.9,2.8,1.35,4.88,1.35s3.81-.46,5.41-1.37c.18-.1.32-.15.42-.15.18,0,.32.11.42.34l.92,1.64c.08.15.11.29.11.42,0,.18-.11.34-.34.5-1.04.64-2.17,1.11-3.37,1.41-1.21.3-2.6.46-4.18.46-1.98,0-3.78-.34-5.38-1.01Zm10.14-10.28c0-1.58-.44-2.81-1.32-3.7-.88-.89-2.19-1.33-3.95-1.33s-3.15.46-4.1,1.37c-.95.91-1.43,2.14-1.43,3.66h10.79Z" style="fill: #fff; stroke-width: 0px;"/>
            <path d="m286.51,185.46v-.8c0-1.07.75-1.6,2.25-1.6h.99c1.5,0,2.25.53,2.25,1.6v.8c0,1.04-.75,1.56-2.25,1.56h-.99c-1.5,0-2.25-.52-2.25-1.56Zm.82-5.97c-.19-.22-.29-.57-.29-1.05l-.23-15.94c0-.48.11-.84.32-1.07.22-.23.58-.34,1.09-.34h2.1c.51,0,.87.11,1.09.34.22.23.32.59.32,1.07l-.27,15.94c0,.48-.1.83-.29,1.05-.19.22-.54.32-1.05.32h-1.87c-.43,0-.74-.11-.93-.32Z" style="fill: #fff; stroke-width: 0px;"/>
          </g>
        </g>
        <path d="m105.04,160.16c-.62,1.73-1.97,2.54-2.99,4.27-1.02,1.73-1.41,6.86-.29,9s4.16,5.05,8.37,5.37c1.49,0,2.83-.27,4.08-1.13.56-.38,1.06-.85,1.47-1.38.44-.57.59-1.2.84-1.87.02-.05.04-.11.08-.14.05-.04.11-.05.17-.06.43-.07.86-.23,1.19-.52.33-.29.55-.72.54-1.16-.02-.57-.43-1.06-.91-1.35s-1.04-.43-1.58-.61c-1.33-.42-2.56-1.09-3.86-1.59-4.66-1.76-7.11-4.29-7.11-4.29v-4.52Z" style="fill: #ffa8a7; stroke-width: 0px;"/>
        <path d="m316.99,161.71c.63,1.75,2,2.58,3.04,4.33,1.03,1.75,1.43,6.96.29,9.13-1.14,2.17-4.22,5.13-8.49,5.45-3.2.24-5.87-2.03-6.49-4.2-.91-3.15.66-4.34,4.44-5.77,4.73-1.79,7.21-4.36,7.21-4.36v-4.59Z" style="fill: #b16668; stroke-width: 0px;"/>
        <path d="m224.34,147.18c5.6.91,7.21,4.22,7.21,4.22h-4.58s-.58,1.54.96,7.31c.54,2.02-2.46,2.07-2.55,1.32-.54,1.24-4.47,2.98-7.42,1.03-2.7-1.79-3.9-4.52-3.3-9.66,1.03-5.73,8.69-4.38,9.67-4.22Z" style="fill: #b16668; stroke-width: 0px;"/>
      </g>
    </g>
  </g>
</svg>