<svg xmlns="http://www.w3.org/2000/svg" width="305.287" height="282.702" viewBox="0 0 305.287 282.702">
  <g id="Group_1" data-name="Group 1" transform="translate(556.8 -123.069)">
    <g id="freepik--background-complete--inject-3" transform="translate(-547.78 148.6)">
      <rect id="Rectangle_35" data-name="Rectangle 35" width="287.247" height="0.144" transform="translate(0 188.09)" fill="#e6e6e6"/>
      <rect id="Rectangle_36" data-name="Rectangle 36" width="13.357" height="0.144" transform="translate(242.626 191.784)" fill="#e6e6e6"/>
      <rect id="Rectangle_37" data-name="Rectangle 37" width="63.441" height="0.144" transform="translate(143.951 194.903)" fill="#e6e6e6"/>
      <rect id="Rectangle_38" data-name="Rectangle 38" width="6.222" height="0.144" transform="translate(110.59 194.978)" fill="#e6e6e6"/>
      <rect id="Rectangle_39" data-name="Rectangle 39" width="21.578" height="0.144" transform="translate(44.811 193.254)" fill="#e6e6e6"/>
      <rect id="Rectangle_40" data-name="Rectangle 40" width="12.627" height="0.144" transform="translate(224.438 191.784)" fill="#e6e6e6"/>
      <rect id="Rectangle_41" data-name="Rectangle 41" width="10.45" height="0.144" transform="translate(29.673 193.254)" fill="#e6e6e6"/>
      <path id="Path_90" data-name="Path 90" d="M152.414,217.467H41.485a3.28,3.28,0,0,1-3.275-3.28V58.252A3.28,3.28,0,0,1,41.485,55H152.414a3.28,3.28,0,0,1,3.28,3.28V214.187A3.28,3.28,0,0,1,152.414,217.467ZM41.485,55.115a3.137,3.137,0,0,0-3.131,3.137V214.187a3.137,3.137,0,0,0,3.131,3.137H152.414a3.143,3.143,0,0,0,3.137-3.137V58.252a3.142,3.142,0,0,0-3.137-3.137Z" transform="translate(-16.259 -55)" fill="#e6e6e6"/>
      <path id="Path_91" data-name="Path 91" d="M368.715,217.467H257.78a3.286,3.286,0,0,1-3.28-3.28V58.252A3.286,3.286,0,0,1,257.78,55H368.715a3.28,3.28,0,0,1,3.269,3.252V214.187A3.28,3.28,0,0,1,368.715,217.467ZM257.78,55.115a3.143,3.143,0,0,0-3.137,3.137V214.187a3.143,3.143,0,0,0,3.137,3.137H368.715a3.143,3.143,0,0,0,3.137-3.137V58.252a3.143,3.143,0,0,0-3.137-3.137Z" transform="translate(-108.291 -55)" fill="#e6e6e6"/>
      <rect id="Rectangle_42" data-name="Rectangle 42" width="43.415" height="75.586" transform="translate(229.304 86.243) rotate(180)" fill="#e6e6e6"/>
      <rect id="Rectangle_43" data-name="Rectangle 43" width="43.415" height="75.586" transform="translate(226.96 86.243) rotate(180)" fill="#f5f5f5"/>
      <rect id="Rectangle_44" data-name="Rectangle 44" width="68.491" height="34.992" transform="translate(222.743 14.207) rotate(90)" fill="#fafafa"/>
      <rect id="Rectangle_45" data-name="Rectangle 45" width="68.491" height="1.775" transform="translate(189.526 14.207) rotate(90)" fill="#e6e6e6"/>
      <rect id="Rectangle_46" data-name="Rectangle 46" width="39.933" height="4.763" transform="translate(225.219 66.165) rotate(180)" fill="#f5f5f5"/>
      <rect id="Rectangle_47" data-name="Rectangle 47" width="43.415" height="75.586" transform="translate(155.521 86.243) rotate(180)" fill="#e6e6e6"/>
      <rect id="Rectangle_48" data-name="Rectangle 48" width="43.415" height="75.586" transform="translate(153.177 86.243) rotate(180)" fill="#f5f5f5"/>
      <rect id="Rectangle_49" data-name="Rectangle 49" width="68.491" height="34.992" transform="translate(148.966 14.207) rotate(90)" fill="#fafafa"/>
      <rect id="Rectangle_50" data-name="Rectangle 50" width="68.491" height="1.775" transform="translate(115.743 14.202) rotate(90)" fill="#e6e6e6"/>
      <rect id="Rectangle_51" data-name="Rectangle 51" width="39.933" height="4.763" transform="translate(151.437 66.165) rotate(180)" fill="#f5f5f5"/>
      <rect id="Rectangle_52" data-name="Rectangle 52" width="43.415" height="75.586" transform="translate(81.745 86.243) rotate(180)" fill="#e6e6e6"/>
      <rect id="Rectangle_53" data-name="Rectangle 53" width="43.415" height="75.586" transform="translate(79.401 86.243) rotate(180)" fill="#f5f5f5"/>
      <rect id="Rectangle_54" data-name="Rectangle 54" width="68.491" height="34.992" transform="translate(75.184 14.202) rotate(90)" fill="#fafafa"/>
      <rect id="Rectangle_55" data-name="Rectangle 55" width="68.491" height="1.775" transform="translate(41.967 14.207) rotate(90)" fill="#e6e6e6"/>
      <rect id="Rectangle_56" data-name="Rectangle 56" width="39.933" height="4.763" transform="translate(77.66 66.165) rotate(180)" fill="#f5f5f5"/>
      <path id="Path_92" data-name="Path 92" d="M134.73,264.045c-7.83,1.08-12.673-15.937,4.6-30.345C138.424,250.378,148.392,262.16,134.73,264.045Z" transform="translate(-54.301 -131.038)" fill="#e6e6e6"/>
      <path id="Path_93" data-name="Path 93" d="M126.4,300.243c-11.352-7.957-3.585-35.757,31.546-33.74C142.758,286.966,146.2,314.111,126.4,300.243Z" transform="translate(-51.718 -144.951)" fill="#e0e0e0"/>
      <path id="Path_94" data-name="Path 94" d="M114.529,308.177c7.543-8.123-3.194-28.57-30.339-21.1C99.506,300.519,101.367,322.332,114.529,308.177Z" transform="translate(-35.823 -153.063)" fill="#e0e0e0"/>
      <path id="Path_95" data-name="Path 95" d="M116.4,281.2c-2.608-3.177-5.687-6.75-4.941-10.53s2.614-6.589,1.149-10.611c-1.781-4.826-1.436-10.582,1.574-10.1s6.383,4.021,6.319,8.681c-.052,4.527,2.872,5.975,5.687,8.382s3.809,5.929,4.309,9.376c.873,5.475,7.968,4.441,9.853,9.192,1.948,4.6-1.936,10.714-8.146,12.122s-10.634,2.3-14.868-2.562C113.03,290.03,120.257,285.75,116.4,281.2Z" transform="translate(-47.377 -137.944)" fill="#f5f5f5"/>
      <path id="Path_96" data-name="Path 96" d="M138.748,358.861h-23.33L113.66,327.08h26.846Z" transform="translate(-48.363 -170.772)" fill="#ebebeb"/>
      <rect id="Rectangle_57" data-name="Rectangle 57" width="30.328" height="3.424" transform="translate(63.556 155.659)" fill="#ebebeb"/>
      <rect id="Rectangle_58" data-name="Rectangle 58" width="15.695" height="68.06" transform="translate(243.62 183.775) rotate(180)" fill="#ebebeb"/>
      <rect id="Rectangle_59" data-name="Rectangle 59" width="135.673" height="4.314" transform="translate(240.604 188.089) rotate(180)" fill="#ebebeb"/>
      <rect id="Rectangle_60" data-name="Rectangle 60" width="126.004" height="68.06" transform="translate(101.921 115.715)" fill="#f5f5f5"/>
      <rect id="Rectangle_61" data-name="Rectangle 61" width="113.664" height="22.325" transform="translate(108.091 124.091)" fill="#ebebeb"/>
      <rect id="Rectangle_62" data-name="Rectangle 62" width="113.664" height="22.325" transform="translate(108.091 153.074)" fill="#ebebeb"/>
      <path id="Path_97" data-name="Path 97" d="M224.4,290.822h70.715a1.534,1.534,0,0,0,1.528-1.528h0a1.534,1.534,0,0,0-1.528-1.534H224.4a1.534,1.534,0,0,0-1.528,1.534h0A1.534,1.534,0,0,0,224.4,290.822Z" transform="translate(-94.832 -154.041)" fill="#f5f5f5"/>
      <path id="Path_98" data-name="Path 98" d="M224.4,341.276h70.715a1.534,1.534,0,0,0,1.528-1.528h0a1.534,1.534,0,0,0-1.528-1.528H224.4a1.534,1.534,0,0,0-1.528,1.528h0a1.534,1.534,0,0,0,1.528,1.528Z" transform="translate(-94.832 -175.512)" fill="#f5f5f5"/>
      <path id="Path_99" data-name="Path 99" d="M336.19,232.774s17.982,17.039,28.656-.069c0,0-2.838-5.5-5.831-5.969s-3.114,4.757-5.745,3.143-5.7-7.135-7.382-4.188-3.981-1.252-6.492-1.494S336.19,232.774,336.19,232.774Z" transform="translate(-143.051 -126.992)" fill="#f5f5f5"/>
      <path id="Path_100" data-name="Path 100" d="M365.032,237.08s-.391,11.111-15.546,11.111S333.94,237.08,333.94,237.08Z" transform="translate(-142.093 -132.476)" fill="#ebebeb"/>
      <path id="Path_101" data-name="Path 101" d="M242.1,227h8.727v16.9H225.2A16.9,16.9,0,0,1,242.1,227Z" transform="translate(-95.824 -128.187)" fill="#f5f5f5"/>
      <rect id="Rectangle_63" data-name="Rectangle 63" width="8.049" height="16.902" transform="translate(154.999 98.813)" fill="#e6e6e6"/>
    </g>
    <g id="freepik--Shadow--inject-3" transform="translate(-556.8 387.947)">
      <ellipse id="Ellipse_4" data-name="Ellipse 4" cx="152.643" cy="8.912" rx="152.643" ry="8.912" transform="translate(0)" fill="#f5f5f5"/>
    </g>
    <g id="freepik--Character--inject-3" transform="translate(-491.001 123.069)">
      <path id="Path_102" data-name="Path 102" d="M209.172,195.548l-.52.787c-.157.228-.323.433-.48.646-.323.425-.661.787-1,1.22a30.671,30.671,0,0,1-2.118,2.267,43.508,43.508,0,0,1-4.724,3.936,41.456,41.456,0,0,1-5.235,3.212c-.921.449-1.834.913-2.787,1.291l-1.425.567-.4.15c-.22.071-.425.15-.669.2a5.59,5.59,0,0,1-1.456.165,5.882,5.882,0,0,1-2.685-.669,7.787,7.787,0,0,1-1.819-1.315,13.525,13.525,0,0,1-2.2-2.834,29.917,29.917,0,0,1-2.511-5.668,62.378,62.378,0,0,1-2.645-11.423l3.291-.724c.6,1.724,1.212,3.5,1.889,5.22s1.354,3.425,2.141,5.046a29.237,29.237,0,0,0,2.551,4.48,7.63,7.63,0,0,0,1.393,1.575,1.881,1.881,0,0,0,.512.3h-.008l.26-.126,1.173-.567c.787-.378,1.535-.787,2.291-1.244a47.1,47.1,0,0,0,4.314-2.921,41.607,41.607,0,0,0,3.881-3.464c.614-.6,1.2-1.236,1.756-1.882.276-.323.551-.646.787-.968l.378-.48.307-.409Z" transform="translate(-147.52 -93.76)" fill="#b97964"/>
      <path id="Path_103" data-name="Path 103" d="M204.975,197.33l3.991,9.573-2.889,1.8-4.487-8.684Z" transform="translate(-152.858 -95.881)" fill="#263238"/>
      <path id="Path_104" data-name="Path 104" d="M216.649,187.09c-6.511-.087-13.124,8.156-13.289,8.361l5.149,12.108s11.455-9.3,12.029-12.935C221.136,190.837,220.774,187.145,216.649,187.09Z" transform="translate(-153.234 -93.702)" fill="#fab228"/>
      <path id="Path_105" data-name="Path 105" d="M216.649,187.09c-6.511-.087-13.124,8.156-13.289,8.361l5.149,12.108s11.455-9.3,12.029-12.935C221.136,190.837,220.774,187.145,216.649,187.09Z" transform="translate(-153.234 -93.702)" opacity="0.3"/>
      <path id="Path_106" data-name="Path 106" d="M178.536,184.823l-4.5-3.5-.913,6.9s4.377,1.716,6.708.228l-.063-1.26A3.2,3.2,0,0,0,178.536,184.823Z" transform="translate(-146.801 -92.475)" fill="#b97964"/>
      <path id="Path_107" data-name="Path 107" d="M166.66,180.88l.283,5.235,4.826,2.008.913-6.9Z" transform="translate(-145.427 -92.381)" fill="#b97964"/>
      <path id="Path_108" data-name="Path 108" d="M291.6,183.247l6.959-1.74-4.865-4.968s-4.511,1.842-3.409,5.779Z" transform="translate(-171.689 -91.458)" fill="#b97964"/>
      <path id="Path_109" data-name="Path 109" d="M302.971,179.8l-.575-5.464-7.786,1.732,4.865,4.968Z" transform="translate(-172.646 -90.99)" fill="#b97964"/>
      <path id="Path_110" data-name="Path 110" d="M259.958,403.337l-6.479.622L248.07,388.67l6.479-.63Z" transform="translate(-162.746 -136.451)" fill="#b97964"/>
      <path id="Path_111" data-name="Path 111" d="M346.666,364.053l-4.771,4.629-12.266-9.573,4.779-4.629Z" transform="translate(-180.096 -129.311)" fill="#b97964"/>
      <path id="Path_112" data-name="Path 112" d="M343.161,369.547l3.669-6.511a.527.527,0,0,1,.654-.236l5.574,2.157a1.071,1.071,0,0,1,.5,1.512c-1.315,2.252-2.063,3.267-3.677,6.133-.992,1.763-2.929,5.8-4.3,8.235s-3.85,1.2-3.5.071c1.575-5.094,1.307-7.936.882-10.187a1.724,1.724,0,0,1,.189-1.173Z" transform="translate(-182.739 -131.074)" fill="#263238"/>
      <path id="Path_113" data-name="Path 113" d="M249.719,405.74h7.873a.661.661,0,0,1,.622.48l1.716,6.243a.976.976,0,0,1-.96,1.252c-2.763-.047-4.11-.213-7.581-.213-2.133,0-9.085.228-12.037.228s-3.488-2.921-2.291-3.149c5.353-1.189,9.872-2.818,11.518-4.377A1.622,1.622,0,0,1,249.719,405.74Z" transform="translate(-160.277 -140.216)" fill="#263238"/>
      <path id="Path_114" data-name="Path 114" d="M248.08,388.67l2.779,7.888h6.708l-3.007-8.518Z" transform="translate(-162.748 -136.451)" fill="#a76755"/>
      <path id="Path_115" data-name="Path 115" d="M334.419,354.48l-4.779,4.637,6.322,4.928,4.779-4.629Z" transform="translate(-180.098 -129.311)" fill="#a76755"/>
      <path id="Path_116" data-name="Path 116" d="M212.152,186.807s-2.677,2.039,15.36,37.238l25.712-8.306c-3.81-10.321-5.9-16.769-7.873-39.859a79.572,79.572,0,0,0-11.305,2.086,93.188,93.188,0,0,0-11.675,3.771C217.458,183.847,212.152,186.807,212.152,186.807Z" transform="translate(-155.075 -91.317)" fill="#fab228"/>
      <path id="Path_117" data-name="Path 117" d="M212.152,186.807s-2.677,2.039,15.36,37.238l25.712-8.306c-3.81-10.321-5.9-16.769-7.873-39.859a79.572,79.572,0,0,0-11.305,2.086,93.188,93.188,0,0,0-11.675,3.771C217.458,183.847,212.152,186.807,212.152,186.807Z" transform="translate(-155.075 -91.317)" fill="#f9c35c" opacity="0"/>
      <path id="Path_118" data-name="Path 118" d="M231.262,162.3c.472,4,1.96,11.116,5.4,12.777,0,0,.2,4.141-6.778,6.393-7.676,2.48-4.9-2.622-4.9-2.622,3.865-2.362,2.748-5.432,1.079-8.109Z" transform="translate(-157.731 -88.429)" fill="#b97964"/>
      <path id="Path_119" data-name="Path 119" d="M216.677,185.089c1.9-.984,4.314-2.181,6.629-3.149a86.173,86.173,0,0,1,11.715-3.787c2.244-.614,4.511-1.071,6.424-1.393.181.535-.362,1.921-1.693,3.834-4.212,3.5-13.195,8.038-19.816,7.873C217.039,187.388,216.315,186.247,216.677,185.089Z" transform="translate(-156.049 -91.505)" fill="#b97964"/>
      <path id="Path_120" data-name="Path 120" d="M240.646,181.63a47.889,47.889,0,0,1-10.14,10.038,50.164,50.164,0,0,1-9.676-2.165C227.419,189.668,236.4,185.125,240.646,181.63Z" transform="translate(-156.951 -92.541)" fill="#263238"/>
      <path id="Path_121" data-name="Path 121" d="M229.568,166.67l-3.078,4.983a12.312,12.312,0,0,1,1.031,1.96c1.527-.748,3.472-2.96,3.1-4.724A7.085,7.085,0,0,0,229.568,166.67Z" transform="translate(-158.155 -89.358)" fill="#a76755"/>
      <path id="Path_122" data-name="Path 122" d="M230.082,150.608c.394,6.589.709,9.368-2.189,13.132-4.354,5.653-12.533,4.724-14.9-1.637-2.118-5.708-2.409-15.525,3.677-18.894a9.006,9.006,0,0,1,13.407,7.4Z" transform="translate(-154.992 -84.121)" fill="#b97964"/>
      <circle id="Ellipse_5" data-name="Ellipse 5" cx="12.155" cy="12.155" r="12.155" transform="translate(61.704 61.14) rotate(-77.19)" fill="#263238"/>
      <path id="Path_123" data-name="Path 123" d="M230.9,140.838c2.5,1.653,3.747,4.188,2.779,5.66s-3.787,1.33-6.3-.323-3.747-4.188-2.779-5.66S228.388,139.185,230.9,140.838Z" transform="translate(-157.683 -83.578)" fill="#fab228"/>
      <path id="Path_124" data-name="Path 124" d="M230.9,140.838c2.5,1.653,3.747,4.188,2.779,5.66s-3.787,1.33-6.3-.323-3.747-4.188-2.779-5.66S228.388,139.185,230.9,140.838Z" transform="translate(-157.683 -83.578)" fill="#fafafa" opacity="0.6"/>
      <path id="Path_125" data-name="Path 125" d="M227.033,154.987c.653-1.512-1.622-6-1.134-7.676-1.307-1.22-14.557,3.094-13.486-.055,1.023-3.023,4.251-7.03,11.62-5.353,7.873,1.795,8.558,8.6,7.676,10.778a47.621,47.621,0,0,1-2.133,4.432Z" transform="translate(-155.147 -84.005)" fill="#263238"/>
      <path id="Path_126" data-name="Path 126" d="M236.059,159.644a4.85,4.85,0,0,1-1.354,3.425c-1.189,1.2-2.622.339-2.992-1.22-.339-1.4-.118-3.724,1.409-4.338a2.157,2.157,0,0,1,2.937,2.134Z" transform="translate(-159.237 -87.378)" fill="#b97964"/>
      <path id="Path_127" data-name="Path 127" d="M229.73,235.133s-11.919,58.132-5.275,77.3c6.912,19.942,18.162,47.779,18.162,47.779l10.51-.6s-8.66-35.175-10.793-51.062c-2.921-21.9,9.589-80.553,9.589-80.553Z" transform="translate(-157.293 -102.405)" fill="#fab228"/>
      <path id="Path_128" data-name="Path 128" d="M229.73,235.133s-11.919,58.132-5.275,77.3c6.912,19.942,18.162,47.779,18.162,47.779l10.51-.6s-8.66-35.175-10.793-51.062c-2.921-21.9,9.589-80.553,9.589-80.553Z" transform="translate(-157.293 -102.405)" fill="#fafafa" opacity="0.6"/>
      <path id="Path_129" data-name="Path 129" d="M258.656,394.019l-12.163.7-1.952-4.787,13.415-1.393Z" transform="translate(-161.995 -136.557)" fill="#fab228"/>
      <path id="Path_130" data-name="Path 130" d="M258.656,394.019l-12.163.7-1.952-4.787,13.415-1.393Z" transform="translate(-161.995 -136.557)" opacity="0.2"/>
      <path id="Path_131" data-name="Path 131" d="M247.5,242.74c-1.826,6.755-.3,16.879,3.149,23.98.842-5.511,1.74-10.849,2.59-15.627A31.963,31.963,0,0,0,247.5,242.74Z" transform="translate(-162.459 -105.541)" fill="#fab228"/>
      <path id="Path_132" data-name="Path 132" d="M247.5,242.74c-1.826,6.755-.3,16.879,3.149,23.98.842-5.511,1.74-10.849,2.59-15.627A31.963,31.963,0,0,0,247.5,242.74Z" transform="translate(-162.459 -105.541)" fill="#fafafa" opacity="0.4"/>
      <path id="Path_133" data-name="Path 133" d="M240.32,232.619s17.7,42.3,29.42,65.524c9.447,18.784,44.5,38.442,44.5,38.442l6.3-6.676s-26.2-23.264-32.735-36c-20.91-40.773-16.611-58.581-28.546-67.4Z" transform="translate(-161.097 -102.088)" fill="#fab228"/>
      <path id="Path_134" data-name="Path 134" d="M240.32,232.619s17.7,42.3,29.42,65.524c9.447,18.784,44.5,38.442,44.5,38.442l6.3-6.676s-26.2-23.264-32.735-36c-20.91-40.773-16.611-58.581-28.546-67.4Z" transform="translate(-161.097 -102.088)" fill="#fafafa" opacity="0.6"/>
      <path id="Path_135" data-name="Path 135" d="M339.889,355.6l-8.66,9.2-5.479-2.881,9.975-10.171Z" transform="translate(-179.271 -128.731)" fill="#fab228"/>
      <path id="Path_136" data-name="Path 136" d="M339.889,355.6l-8.66,9.2-5.479-2.881,9.975-10.171Z" transform="translate(-179.271 -128.731)" opacity="0.2"/>
      <path id="Path_137" data-name="Path 137" d="M256.967,224.407l1.9,1.929c.15.15,0,.4-.3.5l-26.964,8.66a.456.456,0,0,1-.527-.118l-.968-2.22c-.071-.157.087-.354.339-.441l26.035-8.4A.5.5,0,0,1,256.967,224.407Z" transform="translate(-158.92 -101.615)" fill="#263238"/>
      <path id="Path_138" data-name="Path 138" d="M260.561,228.642l.693-.22c.142-.047.22-.157.189-.236l-1.291-2.889c0-.079-.189-.11-.323-.071l-.7.228a.19.19,0,0,0-.181.236l1.291,2.881C260.262,228.658,260.4,228.689,260.561,228.642Z" transform="translate(-165.057 -101.811)" fill="#fab228"/>
      <path id="Path_139" data-name="Path 139" d="M260.561,228.642l.693-.22c.142-.047.22-.157.189-.236l-1.291-2.889c0-.079-.189-.11-.323-.071l-.7.228a.19.19,0,0,0-.181.236l1.291,2.881C260.262,228.658,260.4,228.689,260.561,228.642Z" transform="translate(-165.057 -101.811)" fill="#fafafa" opacity="0.6"/>
      <path id="Path_140" data-name="Path 140" d="M234.161,237.161l.7-.228c.134-.047.22-.15.181-.236l-1.291-2.881c-.039-.087-.181-.118-.323-.071l-.7.22c-.134.047-.22.15-.181.236l1.291,2.881C233.878,237.169,234.02,237.2,234.161,237.161Z" transform="translate(-159.441 -103.622)" fill="#fab228"/>
      <path id="Path_141" data-name="Path 141" d="M234.161,237.161l.7-.228c.134-.047.22-.15.181-.236l-1.291-2.881c-.039-.087-.181-.118-.323-.071l-.7.22c-.134.047-.22.15-.181.236l1.291,2.881C233.878,237.169,234.02,237.2,234.161,237.161Z" transform="translate(-159.441 -103.622)" fill="#fafafa" opacity="0.6"/>
      <path id="Path_142" data-name="Path 142" d="M247.351,232.9l.693-.228a.191.191,0,0,0,.189-.236l-1.291-2.881c-.039-.087-.189-.118-.323-.071l-.7.228c-.134.039-.22.15-.181.228l1.291,2.889A.276.276,0,0,0,247.351,232.9Z" transform="translate(-162.247 -102.716)" fill="#fab228"/>
      <path id="Path_143" data-name="Path 143" d="M247.351,232.9l.693-.228a.191.191,0,0,0,.189-.236l-1.291-2.881c-.039-.087-.189-.118-.323-.071l-.7.228c-.134.039-.22.15-.181.228l1.291,2.889A.276.276,0,0,0,247.351,232.9Z" transform="translate(-162.247 -102.716)" fill="#fafafa" opacity="0.6"/>
      <path id="Path_144" data-name="Path 144" d="M222.407,156.539c.063.527-.165,1-.512,1.039s-.685-.354-.748-.89.165-1,.512-1.039S222.344,156,222.407,156.539Z" transform="translate(-157.016 -87.013)" fill="#263238"/>
      <path id="Path_145" data-name="Path 145" d="M214.757,157.469c.071.535-.165,1-.512,1.039s-.685-.354-.748-.882.165-1,.512-1.047S214.678,156.91,214.757,157.469Z" transform="translate(-155.389 -87.211)" fill="#263238"/>
      <path id="Path_146" data-name="Path 146" d="M213.993,156.543l-1.323-.213S213.449,157.251,213.993,156.543Z" transform="translate(-155.215 -87.159)" fill="#263238"/>
      <path id="Path_147" data-name="Path 147" d="M216.868,158.63a14.477,14.477,0,0,1-1.488,3.629,2.362,2.362,0,0,0,1.945.126Z" transform="translate(-155.791 -87.648)" fill="#a24e3f"/>
      <path id="Path_148" data-name="Path 148" d="M220.487,165.1a.157.157,0,0,1-.157-.134.173.173,0,0,1,.142-.181,4.251,4.251,0,0,0,3.236-2.063.157.157,0,1,1,.283.134,4.5,4.5,0,0,1-3.48,2.244Z" transform="translate(-156.844 -88.499)" fill="#263238"/>
      <path id="Path_149" data-name="Path 149" d="M222.941,154.011a.315.315,0,0,1-.2-.079,2.48,2.48,0,0,0-2.2-.606.315.315,0,0,1-.394-.22.307.307,0,0,1,.22-.386,3.149,3.149,0,0,1,2.779.732.315.315,0,0,1,0,.449A.322.322,0,0,1,222.941,154.011Z" transform="translate(-156.803 -86.375)" fill="#263238"/>
      <path id="Path_150" data-name="Path 150" d="M211.067,154.024a.307.307,0,0,1-.142,0,.323.323,0,0,1-.134-.425,3.149,3.149,0,0,1,2.283-1.74.317.317,0,0,1,.071.63h0a2.48,2.48,0,0,0-1.795,1.393A.315.315,0,0,1,211.067,154.024Z" transform="translate(-154.808 -86.207)" fill="#263238"/>
      <path id="Path_151" data-name="Path 151" d="M259.481,183.343l.3.378.37.449c.252.3.512.606.787.905.543.606,1.11,1.2,1.716,1.771a42.73,42.73,0,0,0,3.755,3.275,49.986,49.986,0,0,0,4.149,2.826c.716.433,1.449.842,2.189,1.244l1.126.575.543.276c.134.063.268.126.394.173a3.376,3.376,0,0,0,1.267.26,2,2,0,0,0,1.1-.409,8.7,8.7,0,0,0,2.433-3.243,27.075,27.075,0,0,0,1.756-4.724,50.954,50.954,0,0,0,1.2-5.038l3.362.213A34.251,34.251,0,0,1,284.3,193.7a16.166,16.166,0,0,1-1.3,2.9,10.809,10.809,0,0,1-2.236,2.795,7.873,7.873,0,0,1-3.771,1.85,8.526,8.526,0,0,1-4.078-.283c-.307-.087-.591-.2-.882-.307l-.685-.283-1.338-.559c-.89-.4-1.763-.787-2.622-1.275a43.638,43.638,0,0,1-4.968-3.062,45.376,45.376,0,0,1-4.527-3.732c-.709-.677-1.393-1.393-2.063-2.133-.331-.378-.661-.787-.976-1.149l-.48-.622c-.165-.22-.291-.394-.512-.709Z" transform="translate(-163.977 -92.632)" fill="#b97964"/>
      <path id="Path_152" data-name="Path 152" d="M266.109,188.343l-4.928,8.274-2.4-2.267,4.55-8.29Z" transform="translate(-165.024 -93.483)" fill="#263238"/>
      <path id="Path_153" data-name="Path 153" d="M253.351,175.88c2.834-.047,9.715,8.077,9.715,8.077l-5.983,10.416s-7.621-6.715-7.613-10.392C249.478,180.147,250.123,175.974,253.351,175.88Z" transform="translate(-163.043 -91.317)" fill="#fab228"/>
      <path id="Path_154" data-name="Path 154" d="M253.351,175.88c2.834-.047,9.715,8.077,9.715,8.077l-5.983,10.416s-7.621-6.715-7.613-10.392C249.478,180.147,250.123,175.974,253.351,175.88Z" transform="translate(-163.043 -91.317)" opacity="0.3"/>
      <path id="Path_155" data-name="Path 155" d="M341.6,375.1a1,1,0,0,1-.6-.228.52.52,0,0,1-.228-.488c.071-.85,2.2-1.968,2.441-2.094a.157.157,0,0,1,.173,0,.165.165,0,0,1,.055.165c-.244.85-.787,2.315-1.574,2.574A.788.788,0,0,1,341.6,375.1Zm1.425-2.362c-.835.472-1.9,1.212-1.937,1.653a.2.2,0,0,0,.11.213.567.567,0,0,0,.567.134c.433-.126.89-.866,1.26-1.984Z" transform="translate(-182.465 -133.095)" fill="#fab228"/>
      <path id="Path_156" data-name="Path 156" d="M341.133,372.854a1.574,1.574,0,0,1-.984-.244.551.551,0,0,1-.126-.677.787.787,0,0,1,.512-.48c.913-.307,2.582.614,2.653.653a.156.156,0,0,1,.008.275A4.722,4.722,0,0,1,341.133,372.854Zm-.165-1.149a1.082,1.082,0,0,0-.331.047.512.512,0,0,0-.323.3.416.416,0,0,0,0,.323,3.381,3.381,0,0,0,2.409-.134A4.8,4.8,0,0,0,340.967,371.705Z" transform="translate(-182.293 -132.909)" fill="#fab228"/>
      <path id="Path_157" data-name="Path 157" d="M248.325,406.94a2.614,2.614,0,0,1-1.575-.37.984.984,0,0,1-.4-.787.464.464,0,0,1,.2-.433c.716-.488,3.409.74,3.936.984a.158.158,0,0,1,.087.165.15.15,0,0,1-.118.134A10.643,10.643,0,0,1,248.325,406.94Zm-1.26-1.362a.544.544,0,0,0-.307.063.15.15,0,0,0-.063.15.677.677,0,0,0,.276.527c.622.472,2.1.291,2.968.134a10.006,10.006,0,0,0-2.874-.874Z" transform="translate(-162.379 -140.109)" fill="#fab228"/>
      <path id="Path_158" data-name="Path 158" d="M250.844,406.245h-.063c-.89-.362-2.685-1.8-2.582-2.551,0-.165.126-.37.535-.417,1.575-.2,2.236,2.669,2.259,2.787a.165.165,0,0,1-.047.157A.174.174,0,0,1,250.844,406.245Zm-1.968-2.669h-.1c-.165,0-.26.071-.268.149-.055.425,1.181,1.575,2.094,2.063C250.4,405.112,249.821,403.576,248.876,403.576Z" transform="translate(-162.772 -139.69)" fill="#fab228"/>
      <path id="Path_159" data-name="Path 159" d="M221.643,155.6l-1.323-.213S221.1,156.311,221.643,155.6Z" transform="translate(-156.842 -86.959)" fill="#263238"/>
      <path id="Path_160" data-name="Path 160" d="M155.238,85.78c-1.393,1.748-9.069,3.8-15.171,3.236-2.1,13.793,5.243,29.672,5.243,29.672s15.942-1.9,16.336-8.463S155.238,85.78,155.238,85.78Z" transform="translate(-139.69 -72.15)" fill="#fab228"/>
      <path id="Path_161" data-name="Path 161" d="M155.238,85.78c-1.393,1.748-9.069,3.8-15.171,3.236-2.1,13.793,5.243,29.672,5.243,29.672s15.942-1.9,16.336-8.463S155.238,85.78,155.238,85.78Z" transform="translate(-139.69 -72.15)" fill="#fafafa" opacity="0.4"/>
      <path id="Path_162" data-name="Path 162" d="M311.608,72.45c1.425,2.008,8.66,4,14.257,2.96,3,16.328-2.559,35.726-2.559,35.726s-14.856-1.323-15.745-9.124S311.608,72.45,311.608,72.45Z" transform="translate(-175.378 -69.315)" fill="#fab228"/>
      <path id="Path_163" data-name="Path 163" d="M311.608,72.45c1.425,2.008,8.66,4,14.257,2.96,3,16.328-2.559,35.726-2.559,35.726s-14.856-1.323-15.745-9.124S311.608,72.45,311.608,72.45Z" transform="translate(-175.378 -69.315)" fill="#fafafa" opacity="0.4"/>
      <path id="Path_164" data-name="Path 164" d="M174.68,215.761h0a.866.866,0,0,1-.984-.74L155,82.39a.882.882,0,0,1,.787-.992h0a.874.874,0,0,1,.984.748l18.7,132.623a.882.882,0,0,1-.787.992Z" transform="translate(-142.945 -71.216)" fill="#fab228"/>
      <path id="Path_165" data-name="Path 165" d="M174.68,215.761h0a.866.866,0,0,1-.984-.74L155,82.39a.882.882,0,0,1,.787-.992h0a.874.874,0,0,1,.984.748l18.7,132.623a.882.882,0,0,1-.787.992Z" transform="translate(-142.945 -71.216)" opacity="0.2"/>
      <path id="Path_166" data-name="Path 166" d="M292.968,203.23h0a.882.882,0,0,0,.992-.787L312.7,69.82a.874.874,0,0,0-.74-.992h0a.882.882,0,0,0-.992.787L292.228,202.238A.882.882,0,0,0,292.968,203.23Z" transform="translate(-172.138 -68.542)" fill="#fab228"/>
      <path id="Path_167" data-name="Path 167" d="M292.968,203.23h0a.882.882,0,0,0,.992-.787L312.7,69.82a.874.874,0,0,0-.74-.992h0a.882.882,0,0,0-.992.787L292.228,202.238A.882.882,0,0,0,292.968,203.23Z" transform="translate(-172.138 -68.542)" opacity="0.2"/>
      <path id="Path_168" data-name="Path 168" d="M154.048,82.443l3.543,26.043a1.149,1.149,0,0,0,1.464.953c7.92-2.267,51.96-13.573,119.61-6.377a1.149,1.149,0,0,0,1.26-.921c1.275-6.6,3.472-25.389,4.031-30.2a1.165,1.165,0,0,0-1.008-1.283c-9.085-1.149-71.1-8.022-128.1,10.526a1.173,1.173,0,0,0-.8,1.26Z" transform="translate(-142.742 -68.467)" fill="#fab228"/>
      <path id="Path_169" data-name="Path 169" d="M154.048,82.443l3.543,26.043a1.149,1.149,0,0,0,1.464.953c7.92-2.267,51.96-13.573,119.61-6.377a1.149,1.149,0,0,0,1.26-.921c1.275-6.6,3.472-25.389,4.031-30.2a1.165,1.165,0,0,0-1.008-1.283c-9.085-1.149-71.1-8.022-128.1,10.526a1.173,1.173,0,0,0-.8,1.26Z" transform="translate(-142.742 -68.467)" fill="#fafafa" opacity="0.6"/>
      <path id="Path_170" data-name="Path 170" d="M168.48,91l3.732-.787,2.637,6.857.669-7.526,3.724-.787,3.267,6.723.047-7.392,3.716-.787-.488,13.3-3.85.787-3.692-7.574-.787,8.471-3.85.787Z" transform="translate(-145.814 -72.474)" fill="#fafafa"/>
      <path id="Path_171" data-name="Path 171" d="M193.4,86.695l10.62-1.575.346,2.74-6.645.976.26,2.047,6.164-.905.331,2.622-6.164.905.283,2.543,6.841-1,.37,2.913L194.99,99.535Z" transform="translate(-151.116 -72.01)" fill="#fafafa"/>
      <path id="Path_172" data-name="Path 172" d="M210.32,84.613l3.984-.433.85,9.739,6.212-.669.283,3.149-10.234,1.1Z" transform="translate(-154.715 -71.81)" fill="#fafafa"/>
      <path id="Path_173" data-name="Path 173" d="M234.591,89.967l3.551.787a6.622,6.622,0,0,1-.984,2.551,4.975,4.975,0,0,1-1.827,1.653,7.211,7.211,0,0,1-2.826.709,8.282,8.282,0,0,1-3.472-.37,5.33,5.33,0,0,1-2.362-2,7.251,7.251,0,0,1-1.173-3.889,6.889,6.889,0,0,1,1.449-5.062,6.589,6.589,0,0,1,4.724-2.071,6.456,6.456,0,0,1,3.881.709,5.7,5.7,0,0,1,2.236,2.9L234.3,86.92a2.825,2.825,0,0,0-.433-.842,2.268,2.268,0,0,0-.9-.646A2.535,2.535,0,0,0,229.82,86.5a4.724,4.724,0,0,0-.417,2.6,4.82,4.82,0,0,0,.787,2.905,2.2,2.2,0,0,0,1.874.669,2.291,2.291,0,0,0,1.7-.787A4.142,4.142,0,0,0,234.591,89.967Z" transform="translate(-157.934 -71.393)" fill="#fafafa"/>
      <path id="Path_174" data-name="Path 174" d="M243.416,88.265a6.865,6.865,0,0,1,1.7-5.007,6.747,6.747,0,0,1,4.889-1.937,6.66,6.66,0,0,1,5,1.575,6.479,6.479,0,0,1,1.8,4.818,8.093,8.093,0,0,1-.708,3.763,5.629,5.629,0,0,1-2.181,2.362,7.322,7.322,0,0,1-3.582.929,8.085,8.085,0,0,1-3.629-.583,5.3,5.3,0,0,1-2.362-2.141A7.305,7.305,0,0,1,243.416,88.265Zm3.991-.11a4.322,4.322,0,0,0,.787,2.8,2.362,2.362,0,0,0,1.984.787,2.5,2.5,0,0,0,1.984-.905,4.9,4.9,0,0,0,.669-3.047,3.936,3.936,0,0,0-.787-2.653,2.433,2.433,0,0,0-2.007-.787,2.464,2.464,0,0,0-1.929.921,4.456,4.456,0,0,0-.7,2.874Z" transform="translate(-161.752 -71.195)" fill="#fafafa"/>
      <path id="Path_175" data-name="Path 175" d="M263.414,81.29h5.251l1.811,7.928,2.228-7.873,5.251.047-.354,12.99h-3.275l.268-9.912-2.787,9.888h-2.96L266.6,84.423l-.268,9.912H263.06Z" transform="translate(-165.934 -71.195)" fill="#fafafa"/>
      <path id="Path_176" data-name="Path 176" d="M285.419,81.58l10.683.48-.165,2.771-6.692-.3-.134,2.1,6.2.276-.165,2.606-6.2-.276-.158,2.566,6.881.3-.189,2.944-10.88-.488Z" transform="translate(-170.517 -71.257)" fill="#fafafa"/>
    </g>
  </g>
</svg>
